<svg width="197" height="30" viewBox="0 0 197 30" fill="none" xmlns="http://www.w3.org/2000/svg">
<g opacity="0.4">
<path d="M3.70614 0.148678C3.91007 0.322939 4.12286 0.4972 4.35339 0.702212C4.35339 3.59289 4.35339 6.49381 4.35339 9.44599C4.45092 9.39474 4.51298 9.36399 4.56618 9.33323C5.69221 8.49268 6.92464 8.06216 8.26346 7.95965C9.65548 7.84689 11.012 8.0109 12.3154 8.57469C14.9132 9.70226 16.5447 11.8856 17.3338 14.9301C17.5732 15.8526 17.6884 16.7957 17.7505 17.7592C17.8569 19.3071 17.7682 20.8447 17.4934 22.3618C17.1653 24.2069 16.5003 25.8572 15.3566 27.2206C14.2128 28.5942 12.7942 29.3834 11.1894 29.7525C10.1786 29.9882 9.1501 30.0292 8.13047 29.9165C6.95124 29.7935 5.85181 29.3629 4.83217 28.6659C4.69918 28.5737 4.56618 28.4916 4.38885 28.3686C4.37112 28.5839 4.35339 28.7582 4.33566 28.9837C4.20266 29.1169 4.0342 29.2809 3.83027 29.486C2.74858 29.486 1.61368 29.486 0.434453 29.486C0.301457 29.3219 0.159595 29.1272 0 28.9222C0 19.9529 0 10.9323 0 1.90153C0.735909 1.55301 1.47182 1.21474 2.19886 0.866222C2.60671 0.67146 3.01457 0.486949 3.42242 0.292187C3.50222 0.251185 3.57315 0.189681 3.64408 0.138428C3.65295 0.148678 3.67955 0.148678 3.70614 0.148678ZM4.34452 23.2843C4.61938 23.8994 5.35529 24.5657 5.91387 24.9142C7.07537 25.642 8.30779 25.8572 9.60228 25.6112C10.8879 25.3652 11.8543 24.5964 12.4927 23.2741C12.7498 22.7513 12.9272 22.1875 13.0513 21.6032C13.335 20.3219 13.3439 19.0201 13.2641 17.7182C13.2198 16.9084 13.0779 16.1191 12.8208 15.3503C12.3065 13.7923 11.3933 12.7262 9.95694 12.3367C9.36289 12.1727 8.75111 12.1522 8.13933 12.1932C6.74731 12.2854 5.60355 12.9825 4.61938 14.0793C4.40659 14.315 4.32679 14.5713 4.32679 14.9198C4.33566 17.5952 4.33566 20.2604 4.33566 22.9358C4.34452 23.0486 4.34452 23.1818 4.34452 23.2843Z" fill="white"/>
<path d="M67.7921 0.149404C67.996 0.323665 68.2088 0.497925 68.4305 0.692687C68.4305 5.28497 68.4305 9.8875 68.4305 14.5823C70.4254 12.4912 72.3583 10.4513 74.3 8.4114C75.7275 8.4114 77.155 8.4114 78.6179 8.4114C78.7243 8.70867 78.8219 9.00594 78.946 9.34421C77.288 11.0458 75.6388 12.7474 73.9542 14.4798C76.4102 19.1951 78.8573 23.9001 81.3222 28.6359C81.198 28.9024 81.065 29.1689 80.9321 29.4559C79.5844 29.4559 78.2367 29.4559 76.8801 29.4559C74.8675 25.5402 72.8459 21.6347 70.8155 17.6985C69.9998 18.539 69.2284 19.3283 68.4482 20.1381C68.4482 23.0595 68.4482 25.981 68.4482 28.9434C68.2886 29.1074 68.1201 29.2714 67.9162 29.4662C66.8345 29.4662 65.6996 29.4662 64.5204 29.4662C64.3874 29.3022 64.2455 29.1074 64.0859 28.9024C64.0859 19.9331 64.0859 10.9126 64.0859 1.88176C64.8218 1.53324 65.5578 1.19497 66.2848 0.846446C66.6927 0.651685 67.1005 0.467173 67.5084 0.272412C67.5882 0.231409 67.6591 0.169905 67.73 0.118652C67.7389 0.149404 67.7655 0.149404 67.7921 0.149404Z" fill="white"/>
<path d="M100.492 28.933C100.323 29.1175 100.172 29.302 100.013 29.4866C98.8691 29.4866 97.7253 29.4866 96.5727 29.4866C96.4397 29.3123 96.2978 29.138 96.1116 28.9125C96.1116 28.81 96.1116 28.6358 96.1116 28.4512C96.1116 24.9558 96.1116 21.4603 96.1116 17.9649C96.1116 17.2883 96.0939 16.6118 96.0673 15.9455C96.0407 15.3407 95.9166 14.7667 95.7215 14.2029C95.358 13.1983 94.7019 12.5833 93.8064 12.327C92.9907 12.0913 92.1572 12.081 91.3415 12.327C89.9672 12.737 89.1426 13.7929 88.8323 15.3715C88.7348 15.8942 88.6905 16.4375 88.6905 16.9808C88.6816 20.8043 88.6816 24.6278 88.6816 28.4512C88.6816 28.6153 88.6816 28.7793 88.6816 28.974C88.5309 29.1278 88.3713 29.2815 88.1673 29.4866C87.0856 29.4866 85.933 29.4866 84.7449 29.4866C84.6297 29.3225 84.4967 29.138 84.3193 28.9023C84.3193 22.3214 84.3193 15.6482 84.3193 8.92382C84.4612 8.78031 84.6297 8.6163 84.8247 8.42154C85.9064 8.42154 87.0502 8.42154 88.2294 8.42154C88.3447 8.58555 88.4777 8.75981 88.6639 9.01608C88.6639 9.08783 88.6816 9.26209 88.6905 9.47735C88.7791 9.4261 88.8589 9.39535 88.9299 9.33384C90.0204 8.48304 91.244 8.09352 92.5385 7.96026C93.3364 7.87826 94.1167 7.89876 94.8969 8.05252C96.4219 8.34979 97.7696 9.05708 98.8247 10.3999C98.8425 10.4204 98.8602 10.4409 98.9045 10.4717C98.9489 10.4307 99.0021 10.3999 99.0464 10.3487C100.119 9.08783 101.44 8.37029 102.939 8.08327C104.481 7.786 106.015 7.83725 107.523 8.33954C109.19 8.90332 110.555 9.94888 111.459 11.7017C111.903 12.5628 112.169 13.5058 112.248 14.5002C112.293 15.0639 112.319 15.638 112.319 16.2018C112.328 20.2815 112.319 24.3612 112.319 28.441C112.319 28.605 112.319 28.769 112.319 28.9535C112.16 29.1175 111.991 29.2815 111.805 29.4763C110.697 29.4763 109.553 29.4763 108.392 29.4763C108.259 29.3123 108.126 29.1278 107.939 28.892C107.939 28.7895 107.939 28.6153 107.939 28.441C107.939 24.6585 107.939 20.876 107.939 17.1038C107.939 16.335 107.895 15.5765 107.727 14.8282C107.363 13.2598 106.476 12.368 104.969 12.1938C104.357 12.122 103.746 12.122 103.16 12.327C101.83 12.7883 101.024 13.8339 100.642 15.3612C100.5 15.9455 100.474 16.54 100.474 17.1448C100.474 20.9068 100.474 24.679 100.474 28.441C100.492 28.605 100.492 28.769 100.492 28.933Z" fill="white"/>
<path d="M164.639 20.8352C160.117 20.8352 155.631 20.8352 151.118 20.8352C151.207 21.5937 151.393 22.2702 151.703 22.8955C152.545 24.5869 153.796 25.5504 155.489 25.735C157.253 25.9297 158.823 25.4069 160.179 24.0539C160.241 23.9924 160.304 23.9411 160.357 23.8796C160.374 23.8591 160.401 23.8488 160.454 23.8078C161.261 24.6484 162.041 25.5402 162.839 26.4218C162.839 26.6883 162.839 26.9548 162.839 27.2418C162.396 27.7133 161.899 28.1029 161.385 28.4411C160.197 29.2202 158.92 29.6712 157.564 29.866C156.713 29.989 155.853 29.9992 155.001 29.9275C152.678 29.7225 150.648 28.7691 149.034 26.7703C147.899 25.3659 147.19 23.7053 146.827 21.8397C146.561 20.4764 146.525 19.1028 146.605 17.719C146.702 16.0891 147.031 14.5208 147.713 13.0754C148.653 11.0766 150.045 9.63123 151.872 8.79068C154.425 7.62211 157.032 7.57085 159.63 8.61642C161.252 9.27246 162.582 10.4103 163.531 12.1016C164.116 13.1472 164.471 14.3055 164.648 15.5253C164.905 17.2782 164.852 19.0208 164.639 20.8352ZM160.374 16.7862C160.348 16.5402 160.33 16.3351 160.304 16.1301C160.1 14.3978 159.328 13.1677 157.927 12.4809C156.819 11.9376 155.684 11.9171 154.532 12.2246C152.723 12.7064 151.295 14.1313 151.082 16.7862C154.159 16.7862 157.245 16.7862 160.374 16.7862Z" fill="white"/>
<path d="M29.7205 29.9584C28.2575 29.9892 26.8921 29.7534 25.5887 29.1384C23.053 27.9391 21.4393 25.7762 20.6856 22.7522C20.2423 20.9584 20.1891 19.1235 20.3487 17.2682C20.4462 16.1303 20.659 15.0233 21.0492 13.9675C22.122 11.0358 24.0194 9.19067 26.6616 8.35012C27.9117 7.96059 29.1796 7.85809 30.4741 7.95034C31.6001 8.03235 32.6907 8.25786 33.7281 8.74989C36.388 10.0107 38.0371 12.3069 38.7287 15.5153C39.0922 17.1862 39.1277 18.8878 38.9858 20.6099C38.8706 21.9629 38.5957 23.2648 38.0726 24.4846C36.92 27.16 35.0669 28.8206 32.5843 29.5792C31.6267 29.8662 30.6514 29.9892 29.7205 29.9584ZM24.711 19.0313C24.6932 20.1076 24.8174 21.2557 25.1898 22.332C25.7483 23.9413 26.7236 25.0586 28.2043 25.4994C29.091 25.7659 29.9953 25.7659 30.8997 25.5609C31.8218 25.3456 32.5932 24.8536 33.2316 24.0541C33.8167 23.316 34.1625 22.4447 34.3842 21.4914C34.6236 20.4356 34.659 19.3593 34.6236 18.283C34.5881 17.3502 34.4551 16.4379 34.1448 15.5666C33.6128 14.0392 32.7262 12.9321 31.3342 12.4401C30.6337 12.1838 29.9067 12.1531 29.1796 12.2044C27.3088 12.3479 25.9966 13.4037 25.2518 15.4025C24.8262 16.5199 24.7021 17.7192 24.711 19.0313Z" fill="white"/>
<path d="M50.9554 29.9579C49.5013 29.9887 48.1359 29.7529 46.8414 29.1276C44.3233 27.9283 42.7185 25.7757 41.956 22.7723C41.5748 21.2552 41.495 19.7073 41.557 18.139C41.6102 16.7859 41.8053 15.4636 42.2397 14.1925C43.286 11.1275 45.2188 9.20043 47.9408 8.33938C49.1732 7.94985 50.4323 7.84735 51.7179 7.9396C52.8439 8.02161 53.9345 8.23687 54.9719 8.7289C57.6495 9.99998 59.3075 12.2859 59.9991 15.5148C60.3626 17.2164 60.4069 18.9488 60.2473 20.6914C60.1055 22.2597 59.742 23.7461 59.0415 25.1094C57.9155 27.3133 56.2575 28.7484 54.1384 29.4659C53.0744 29.8452 52.0016 29.9887 50.9554 29.9579ZM45.9725 19.0513C45.9459 20.1276 46.0789 21.2654 46.4601 22.3417C47.0187 23.9306 47.9763 25.0376 49.4481 25.4784C50.2727 25.7244 51.115 25.7552 51.9573 25.6014C53.0478 25.3964 53.9611 24.8224 54.6615 23.8178C55.1492 23.1208 55.4595 22.311 55.6546 21.4499C55.8939 20.3941 55.9206 19.3178 55.8851 18.2415C55.8496 17.3087 55.7078 16.3964 55.4063 15.5251C54.8743 14.008 53.9788 12.9009 52.5868 12.4089C51.8864 12.1629 51.1593 12.1219 50.4323 12.1834C48.5792 12.3269 47.267 13.3827 46.5222 15.3508C46.0877 16.5091 45.9636 17.7187 45.9725 19.0513Z" fill="white"/>
<path d="M143.077 29.0257C142.997 29.1077 142.9 29.1897 142.82 29.282C142.767 29.3435 142.722 29.4255 142.687 29.4767C141.49 29.4767 140.337 29.4767 139.167 29.4767C139.034 29.3127 138.892 29.1385 138.715 28.9129C138.715 28.7899 138.715 28.6157 138.715 28.4414C138.715 24.6794 138.715 20.9072 138.715 17.1452C138.715 16.4379 138.671 15.7409 138.529 15.0541C138.209 13.5575 137.367 12.6657 136.108 12.3274C135.053 12.0404 133.998 12.1019 132.961 12.4607C131.755 12.8912 131.045 13.8548 130.806 15.2591C130.708 15.8126 130.664 16.3867 130.664 16.9505C130.655 20.7944 130.655 24.6282 130.655 28.4722C130.655 28.6362 130.655 28.8002 130.655 28.9539C130.487 29.1385 130.345 29.3025 130.177 29.487C129.05 29.487 127.907 29.487 126.727 29.487C126.603 29.3127 126.47 29.118 126.284 28.8617C126.284 22.291 126.284 15.6076 126.284 8.95496C126.444 8.7602 126.586 8.58594 126.727 8.41168C127.889 8.41168 129.042 8.41168 130.194 8.41168C130.345 8.58594 130.487 8.7602 130.638 8.94471C130.646 9.13948 130.655 9.34449 130.664 9.60075C130.753 9.5495 130.824 9.5085 130.877 9.4675C131.976 8.54494 133.218 8.09391 134.565 7.96065C135.789 7.8479 137.004 7.9504 138.183 8.31943C140.559 9.05747 142.049 10.8103 142.687 13.5575C142.935 14.6236 143.068 15.6999 143.068 16.7967C143.086 20.7842 143.077 24.7819 143.077 28.7694C143.086 28.8309 143.086 28.8924 143.077 29.0257Z" fill="white"/>
<path d="M196.204 11.0867C196.186 11.3635 196.177 11.63 196.16 11.9273C195.273 12.655 194.395 13.3931 193.482 14.1414C193.34 14.0081 193.216 13.8954 193.092 13.7724C192.019 12.7063 190.778 12.1528 189.368 12.1015C188.73 12.081 188.1 12.0913 187.479 12.2963C187.169 12.3988 186.868 12.5423 186.61 12.7781C186.078 13.2598 186.008 14.0696 186.486 14.6232C186.681 14.8487 186.93 15.0332 187.178 15.187C188.162 15.802 189.217 16.2223 190.272 16.622C191.248 16.9808 192.205 17.3806 193.136 17.8829C193.81 18.2416 194.448 18.6722 195.051 19.1642C196.009 19.9637 196.621 21.0196 196.869 22.3521C197.073 23.49 197.055 24.6175 196.7 25.7143C196.293 26.9957 195.521 27.9182 194.519 28.5948C193.633 29.1893 192.675 29.5378 191.673 29.7428C190.583 29.9684 189.474 30.0196 188.375 29.9068C185.99 29.6711 183.835 28.7383 182.044 26.8522C181.911 26.7087 181.787 26.5549 181.672 26.4216C181.698 26.1346 181.716 25.8784 181.743 25.5913C182.647 24.8225 183.56 24.0435 184.5 23.2542C184.651 23.408 184.793 23.5617 184.935 23.7155C185.777 24.5663 186.699 25.2326 187.79 25.5606C188.96 25.9194 190.122 25.9091 191.283 25.5093C191.584 25.4068 191.877 25.2223 192.152 25.0173C192.728 24.5765 192.835 23.5925 192.436 22.9877C192.294 22.7724 192.134 22.5777 191.957 22.4034C191.451 21.9011 190.866 21.5423 190.237 21.2861C189.182 20.8658 188.127 20.4558 187.08 20.015C185.892 19.5127 184.757 18.8977 183.729 18.0469C182.931 17.3806 182.328 16.5298 182.035 15.433C181.441 13.2393 182 10.9637 183.755 9.57986C184.624 8.89307 185.573 8.44204 186.602 8.19603C188.552 7.745 190.494 7.79625 192.409 8.44204C193.854 8.94432 195.113 9.81563 196.204 11.0867Z" fill="white"/>
<path d="M168.328 8.95434C168.488 8.76983 168.639 8.60582 168.807 8.41106C169.933 8.41106 171.086 8.41106 172.238 8.41106C172.389 8.58532 172.531 8.75958 172.699 8.96459C172.699 9.19011 172.699 9.45662 172.699 9.8154C174.038 8.2983 175.634 7.82677 177.381 7.91903C178.569 7.98053 179.677 8.32906 180.644 9.26186C180.457 10.4304 180.271 11.6093 180.076 12.7881C179.837 12.9213 179.597 13.0443 179.367 13.1673C178.888 12.8701 178.4 12.6343 177.877 12.5216C176.822 12.2755 175.794 12.337 174.81 12.9111C173.701 13.5569 173.027 14.5819 172.832 15.9965C172.744 16.6116 172.699 17.2471 172.691 17.8724C172.682 21.3986 172.682 24.9248 172.682 28.4408C172.682 28.6048 172.682 28.7688 172.682 28.9636C172.531 29.1071 172.371 29.2608 172.141 29.4658C171.086 29.4658 169.933 29.4658 168.745 29.4658C168.621 29.3018 168.479 29.1071 168.311 28.8918C168.328 22.2802 168.328 15.607 168.328 8.95434Z" fill="white"/>
<path d="M121.345 28.9129C121.176 29.1179 121.017 29.3024 120.857 29.4972C119.829 29.4972 118.791 29.4972 117.754 29.4972C117.647 29.4972 117.55 29.4972 117.47 29.4972C117.293 29.3024 117.133 29.1281 116.974 28.9436C116.974 22.2807 116.974 15.6281 116.974 8.9549C117.133 8.78064 117.284 8.60638 117.461 8.41162C118.587 8.41162 119.731 8.41162 120.919 8.41162C121.034 8.57563 121.167 8.78064 121.354 9.05741C121.345 15.5973 121.345 22.25 121.345 28.9129Z" fill="white"/>
<path d="M119.138 5.83855C118.526 5.85905 117.958 5.66429 117.462 5.24402C116.362 4.31121 116.212 2.64036 117.107 1.46154C118.18 0.057207 120.281 0.118711 121.301 1.5948C122.001 2.60961 121.993 4.31121 120.858 5.24402C120.343 5.66429 119.767 5.85905 119.138 5.83855Z" fill="white"/>
</g>
</svg>
