<svg width="547" height="455" viewBox="0 0 547 455" fill="none" xmlns="http://www.w3.org/2000/svg">
<path d="M70.869 61V46.09H75.93C77.512 46.09 78.828 46.426 79.878 47.098C80.942 47.756 81.74 48.652 82.272 49.786C82.804 50.906 83.07 52.152 83.07 53.524C83.07 55.036 82.776 56.352 82.188 57.472C81.614 58.592 80.788 59.46 79.71 60.076C78.646 60.692 77.386 61 75.93 61H70.869ZM81.6 53.524C81.6 52.334 81.376 51.277 80.928 50.353C80.494 49.429 79.857 48.708 79.017 48.19C78.177 47.658 77.148 47.392 75.93 47.392H72.339V59.698H75.93C77.162 59.698 78.198 59.425 79.038 58.879C79.878 58.333 80.515 57.598 80.949 56.674C81.383 55.736 81.6 54.686 81.6 53.524ZM85.6867 61V50.059H87.1147V61H85.6867ZM85.6867 47.77V45.67H87.1147V47.77H85.6867ZM93.951 61.21C93.055 61.21 92.222 61.063 91.452 60.769C90.682 60.475 90.017 60.027 89.457 59.425L90.045 58.417C90.661 58.991 91.277 59.411 91.893 59.677C92.523 59.929 93.188 60.055 93.888 60.055C94.742 60.055 95.435 59.887 95.967 59.551C96.499 59.201 96.765 58.704 96.765 58.06C96.765 57.626 96.632 57.297 96.366 57.073C96.114 56.835 95.743 56.646 95.253 56.506C94.777 56.352 94.203 56.191 93.531 56.023C92.775 55.813 92.138 55.596 91.62 55.372C91.116 55.134 90.731 54.84 90.465 54.49C90.213 54.126 90.087 53.657 90.087 53.083C90.087 52.369 90.262 51.781 90.612 51.319C90.976 50.843 91.466 50.486 92.082 50.248C92.712 49.996 93.412 49.87 94.182 49.87C95.022 49.87 95.764 50.003 96.408 50.269C97.052 50.535 97.577 50.906 97.983 51.382L97.29 52.348C96.898 51.9 96.429 51.571 95.883 51.361C95.351 51.137 94.756 51.025 94.098 51.025C93.65 51.025 93.223 51.088 92.817 51.214C92.411 51.326 92.075 51.522 91.809 51.802C91.557 52.068 91.431 52.439 91.431 52.915C91.431 53.307 91.529 53.615 91.725 53.839C91.921 54.049 92.215 54.231 92.607 54.385C92.999 54.525 93.482 54.679 94.056 54.847C94.882 55.071 95.603 55.302 96.219 55.54C96.835 55.764 97.311 56.058 97.647 56.422C97.983 56.786 98.151 57.297 98.151 57.955C98.151 58.977 97.766 59.775 96.996 60.349C96.226 60.923 95.211 61.21 93.951 61.21ZM105.357 61.21C104.559 61.21 103.824 61.063 103.152 60.769C102.494 60.461 101.913 60.041 101.409 59.509C100.919 58.977 100.534 58.368 100.254 57.682C99.9883 56.996 99.8553 56.268 99.8553 55.498C99.8553 54.462 100.086 53.517 100.548 52.663C101.01 51.809 101.654 51.13 102.48 50.626C103.306 50.122 104.258 49.87 105.336 49.87C106.358 49.87 107.261 50.108 108.045 50.584C108.829 51.046 109.41 51.676 109.788 52.474L108.402 52.915C108.094 52.355 107.66 51.921 107.1 51.613C106.554 51.291 105.945 51.13 105.273 51.13C104.545 51.13 103.88 51.319 103.278 51.697C102.676 52.075 102.193 52.593 101.829 53.251C101.479 53.909 101.304 54.658 101.304 55.498C101.304 56.324 101.486 57.073 101.85 57.745C102.214 58.417 102.697 58.956 103.299 59.362C103.901 59.754 104.566 59.95 105.294 59.95C105.77 59.95 106.225 59.866 106.659 59.698C107.107 59.53 107.492 59.306 107.814 59.026C108.15 58.732 108.374 58.417 108.486 58.081L109.893 58.501C109.697 59.019 109.368 59.488 108.906 59.908C108.458 60.314 107.926 60.636 107.31 60.874C106.708 61.098 106.057 61.21 105.357 61.21ZM116.796 61.21C116.012 61.21 115.284 61.063 114.612 60.769C113.954 60.461 113.38 60.048 112.89 59.53C112.414 58.998 112.043 58.396 111.777 57.724C111.511 57.038 111.378 56.317 111.378 55.561C111.378 54.777 111.511 54.049 111.777 53.377C112.043 52.691 112.421 52.089 112.911 51.571C113.401 51.039 113.975 50.626 114.633 50.332C115.305 50.024 116.033 49.87 116.817 49.87C117.601 49.87 118.322 50.024 118.98 50.332C119.638 50.626 120.212 51.039 120.702 51.571C121.192 52.089 121.57 52.691 121.836 53.377C122.102 54.049 122.235 54.777 122.235 55.561C122.235 56.317 122.102 57.038 121.836 57.724C121.57 58.396 121.192 58.998 120.702 59.53C120.226 60.048 119.652 60.461 118.98 60.769C118.322 61.063 117.594 61.21 116.796 61.21ZM112.827 55.582C112.827 56.394 113.002 57.136 113.352 57.808C113.716 58.466 114.199 58.991 114.801 59.383C115.403 59.761 116.068 59.95 116.796 59.95C117.524 59.95 118.189 59.754 118.791 59.362C119.393 58.97 119.876 58.438 120.24 57.766C120.604 57.08 120.786 56.338 120.786 55.54C120.786 54.728 120.604 53.986 120.24 53.314C119.876 52.642 119.393 52.11 118.791 51.718C118.189 51.326 117.524 51.13 116.796 51.13C116.068 51.13 115.403 51.333 114.801 51.739C114.213 52.145 113.737 52.684 113.373 53.356C113.009 54.014 112.827 54.756 112.827 55.582ZM127.609 61L123.178 50.059H124.669L128.407 59.572L132.166 50.059H133.573L129.142 61H127.609ZM140.007 61.21C139.223 61.21 138.495 61.063 137.823 60.769C137.151 60.461 136.57 60.048 136.08 59.53C135.59 58.998 135.205 58.389 134.925 57.703C134.659 57.017 134.526 56.282 134.526 55.498C134.526 54.476 134.757 53.538 135.219 52.684C135.695 51.83 136.346 51.151 137.172 50.647C137.998 50.129 138.936 49.87 139.986 49.87C141.064 49.87 142.002 50.129 142.8 50.647C143.612 51.165 144.249 51.851 144.711 52.705C145.173 53.545 145.404 54.469 145.404 55.477C145.404 55.589 145.404 55.701 145.404 55.813C145.404 55.911 145.397 55.988 145.383 56.044H136.017C136.087 56.828 136.304 57.528 136.668 58.144C137.046 58.746 137.529 59.229 138.117 59.593C138.719 59.943 139.37 60.118 140.07 60.118C140.784 60.118 141.456 59.936 142.086 59.572C142.73 59.208 143.178 58.732 143.43 58.144L144.669 58.48C144.445 58.998 144.102 59.467 143.64 59.887C143.178 60.307 142.632 60.636 142.002 60.874C141.386 61.098 140.721 61.21 140.007 61.21ZM135.975 55.015H144.06C144.004 54.217 143.787 53.517 143.409 52.915C143.045 52.313 142.562 51.844 141.96 51.508C141.372 51.158 140.721 50.983 140.007 50.983C139.293 50.983 138.642 51.158 138.054 51.508C137.466 51.844 136.983 52.32 136.605 52.936C136.241 53.538 136.031 54.231 135.975 55.015ZM153.168 51.319C152.216 51.347 151.376 51.613 150.648 52.117C149.934 52.621 149.43 53.314 149.136 54.196V61H147.708V50.059H149.052V52.684C149.43 51.914 149.927 51.291 150.543 50.815C151.173 50.339 151.838 50.073 152.538 50.017C152.678 50.003 152.797 49.996 152.895 49.996C153.007 49.996 153.098 50.003 153.168 50.017V51.319ZM155.8 64.36C155.996 64.374 156.185 64.381 156.367 64.381C156.549 64.395 156.682 64.388 156.766 64.36C156.934 64.332 157.095 64.234 157.249 64.066C157.403 63.898 157.585 63.576 157.795 63.1C158.005 62.624 158.299 61.924 158.677 61L153.91 50.059H155.422L159.433 59.53L163.129 50.059H164.557L158.887 64.171C158.789 64.437 158.642 64.682 158.446 64.906C158.25 65.144 158.005 65.326 157.711 65.452C157.431 65.592 157.081 65.669 156.661 65.683C156.535 65.697 156.402 65.697 156.262 65.683C156.136 65.683 155.982 65.669 155.8 65.641V64.36ZM170.648 57.85C170.648 57.164 170.844 56.576 171.236 56.086C171.628 55.582 172.167 55.197 172.853 54.931C173.553 54.651 174.358 54.511 175.268 54.511C175.8 54.511 176.353 54.553 176.927 54.637C177.501 54.721 178.012 54.847 178.46 55.015V54.091C178.46 53.167 178.187 52.432 177.641 51.886C177.095 51.34 176.339 51.067 175.373 51.067C174.785 51.067 174.204 51.179 173.63 51.403C173.07 51.613 172.482 51.928 171.866 52.348L171.32 51.34C172.034 50.85 172.734 50.486 173.42 50.248C174.106 49.996 174.806 49.87 175.52 49.87C176.864 49.87 177.928 50.255 178.712 51.025C179.496 51.795 179.888 52.859 179.888 54.217V59.278C179.888 59.474 179.93 59.621 180.014 59.719C180.098 59.803 180.231 59.852 180.413 59.866V61C180.259 61.014 180.126 61.028 180.014 61.042C179.902 61.056 179.818 61.056 179.762 61.042C179.412 61.028 179.146 60.916 178.964 60.706C178.782 60.496 178.684 60.272 178.67 60.034L178.649 59.236C178.159 59.866 177.522 60.356 176.738 60.706C175.954 61.042 175.156 61.21 174.344 61.21C173.644 61.21 173.007 61.063 172.433 60.769C171.873 60.461 171.432 60.055 171.11 59.551C170.802 59.033 170.648 58.466 170.648 57.85ZM177.977 58.69C178.131 58.494 178.25 58.305 178.334 58.123C178.418 57.941 178.46 57.78 178.46 57.64V56.044C177.984 55.862 177.487 55.722 176.969 55.624C176.465 55.526 175.954 55.477 175.436 55.477C174.414 55.477 173.588 55.68 172.958 56.086C172.328 56.492 172.013 57.045 172.013 57.745C172.013 58.151 172.118 58.536 172.328 58.9C172.538 59.25 172.846 59.544 173.252 59.782C173.658 60.006 174.134 60.118 174.68 60.118C175.366 60.118 176.003 59.985 176.591 59.719C177.193 59.453 177.655 59.11 177.977 58.69ZM192.271 61H190.843V54.889C190.843 53.601 190.654 52.663 190.276 52.075C189.898 51.473 189.303 51.172 188.491 51.172C187.931 51.172 187.378 51.312 186.832 51.592C186.286 51.858 185.803 52.229 185.383 52.705C184.977 53.167 184.683 53.699 184.501 54.301V61H183.073V50.059H184.375V52.537C184.669 52.005 185.054 51.543 185.53 51.151C186.006 50.745 186.545 50.43 187.147 50.206C187.749 49.982 188.372 49.87 189.016 49.87C189.618 49.87 190.129 49.982 190.549 50.206C190.969 50.43 191.305 50.752 191.557 51.172C191.809 51.578 191.991 52.075 192.103 52.663C192.215 53.237 192.271 53.881 192.271 54.595V61ZM194.682 55.561C194.682 54.525 194.892 53.58 195.312 52.726C195.746 51.858 196.341 51.165 197.097 50.647C197.853 50.129 198.714 49.87 199.68 49.87C200.59 49.87 201.402 50.115 202.116 50.605C202.844 51.081 203.411 51.662 203.817 52.348V45.67H205.245V59.278C205.245 59.474 205.287 59.621 205.371 59.719C205.455 59.803 205.581 59.852 205.749 59.866V61C205.469 61.042 205.252 61.056 205.098 61.042C204.804 61.028 204.545 60.909 204.321 60.685C204.097 60.461 203.985 60.216 203.985 59.95V58.879C203.551 59.593 202.963 60.16 202.221 60.58C201.479 61 200.709 61.21 199.911 61.21C199.155 61.21 198.455 61.056 197.811 60.748C197.181 60.44 196.628 60.02 196.152 59.488C195.69 58.956 195.326 58.354 195.06 57.682C194.808 56.996 194.682 56.289 194.682 55.561ZM203.817 57.241V53.86C203.635 53.356 203.341 52.901 202.935 52.495C202.529 52.075 202.067 51.746 201.549 51.508C201.045 51.256 200.541 51.13 200.037 51.13C199.449 51.13 198.917 51.256 198.441 51.508C197.965 51.746 197.552 52.075 197.202 52.495C196.866 52.915 196.607 53.391 196.425 53.923C196.243 54.455 196.152 55.001 196.152 55.561C196.152 56.149 196.25 56.709 196.446 57.241C196.656 57.773 196.95 58.249 197.328 58.669C197.706 59.075 198.14 59.39 198.63 59.614C199.12 59.838 199.652 59.95 200.226 59.95C200.59 59.95 200.968 59.88 201.36 59.74C201.752 59.6 202.123 59.411 202.473 59.173C202.837 58.921 203.138 58.627 203.376 58.291C203.614 57.955 203.761 57.605 203.817 57.241ZM213.546 46.09L218.88 59.173L224.193 46.09H225.726L219.552 61H218.208L212.013 46.09H213.546ZM225.699 57.85C225.699 57.164 225.895 56.576 226.287 56.086C226.679 55.582 227.218 55.197 227.904 54.931C228.604 54.651 229.409 54.511 230.319 54.511C230.851 54.511 231.404 54.553 231.978 54.637C232.552 54.721 233.063 54.847 233.511 55.015V54.091C233.511 53.167 233.238 52.432 232.692 51.886C232.146 51.34 231.39 51.067 230.424 51.067C229.836 51.067 229.255 51.179 228.681 51.403C228.121 51.613 227.533 51.928 226.917 52.348L226.371 51.34C227.085 50.85 227.785 50.486 228.471 50.248C229.157 49.996 229.857 49.87 230.571 49.87C231.915 49.87 232.979 50.255 233.763 51.025C234.547 51.795 234.939 52.859 234.939 54.217V59.278C234.939 59.474 234.981 59.621 235.065 59.719C235.149 59.803 235.282 59.852 235.464 59.866V61C235.31 61.014 235.177 61.028 235.065 61.042C234.953 61.056 234.869 61.056 234.813 61.042C234.463 61.028 234.197 60.916 234.015 60.706C233.833 60.496 233.735 60.272 233.721 60.034L233.7 59.236C233.21 59.866 232.573 60.356 231.789 60.706C231.005 61.042 230.207 61.21 229.395 61.21C228.695 61.21 228.058 61.063 227.484 60.769C226.924 60.461 226.483 60.055 226.161 59.551C225.853 59.033 225.699 58.466 225.699 57.85ZM233.028 58.69C233.182 58.494 233.301 58.305 233.385 58.123C233.469 57.941 233.511 57.78 233.511 57.64V56.044C233.035 55.862 232.538 55.722 232.02 55.624C231.516 55.526 231.005 55.477 230.487 55.477C229.465 55.477 228.639 55.68 228.009 56.086C227.379 56.492 227.064 57.045 227.064 57.745C227.064 58.151 227.169 58.536 227.379 58.9C227.589 59.25 227.897 59.544 228.303 59.782C228.709 60.006 229.185 60.118 229.731 60.118C230.417 60.118 231.054 59.985 231.642 59.719C232.244 59.453 232.706 59.11 233.028 58.69ZM238.187 45.67H239.615V58.522C239.615 59.068 239.713 59.425 239.909 59.593C240.105 59.761 240.343 59.845 240.623 59.845C240.875 59.845 241.127 59.817 241.379 59.761C241.631 59.705 241.848 59.649 242.03 59.593L242.282 60.748C242.016 60.86 241.687 60.951 241.295 61.021C240.917 61.091 240.588 61.126 240.308 61.126C239.664 61.126 239.146 60.937 238.754 60.559C238.376 60.181 238.187 59.663 238.187 59.005V45.67ZM243.946 61V50.059H245.374V61H243.946ZM243.946 47.77V45.67H245.374V47.77H243.946ZM247.884 55.561C247.884 54.525 248.094 53.58 248.514 52.726C248.948 51.858 249.543 51.165 250.299 50.647C251.055 50.129 251.916 49.87 252.882 49.87C253.792 49.87 254.604 50.115 255.318 50.605C256.046 51.081 256.613 51.662 257.019 52.348V45.67H258.447V59.278C258.447 59.474 258.489 59.621 258.573 59.719C258.657 59.803 258.783 59.852 258.951 59.866V61C258.671 61.042 258.454 61.056 258.3 61.042C258.006 61.028 257.747 60.909 257.523 60.685C257.299 60.461 257.187 60.216 257.187 59.95V58.879C256.753 59.593 256.165 60.16 255.423 60.58C254.681 61 253.911 61.21 253.113 61.21C252.357 61.21 251.657 61.056 251.013 60.748C250.383 60.44 249.83 60.02 249.354 59.488C248.892 58.956 248.528 58.354 248.262 57.682C248.01 56.996 247.884 56.289 247.884 55.561ZM257.019 57.241V53.86C256.837 53.356 256.543 52.901 256.137 52.495C255.731 52.075 255.269 51.746 254.751 51.508C254.247 51.256 253.743 51.13 253.239 51.13C252.651 51.13 252.119 51.256 251.643 51.508C251.167 51.746 250.754 52.075 250.404 52.495C250.068 52.915 249.809 53.391 249.627 53.923C249.445 54.455 249.354 55.001 249.354 55.561C249.354 56.149 249.452 56.709 249.648 57.241C249.858 57.773 250.152 58.249 250.53 58.669C250.908 59.075 251.342 59.39 251.832 59.614C252.322 59.838 252.854 59.95 253.428 59.95C253.792 59.95 254.17 59.88 254.562 59.74C254.954 59.6 255.325 59.411 255.675 59.173C256.039 58.921 256.34 58.627 256.578 58.291C256.816 57.955 256.963 57.605 257.019 57.241ZM260.901 57.85C260.901 57.164 261.097 56.576 261.489 56.086C261.881 55.582 262.42 55.197 263.106 54.931C263.806 54.651 264.611 54.511 265.521 54.511C266.053 54.511 266.606 54.553 267.18 54.637C267.754 54.721 268.265 54.847 268.713 55.015V54.091C268.713 53.167 268.44 52.432 267.894 51.886C267.348 51.34 266.592 51.067 265.626 51.067C265.038 51.067 264.457 51.179 263.883 51.403C263.323 51.613 262.735 51.928 262.119 52.348L261.573 51.34C262.287 50.85 262.987 50.486 263.673 50.248C264.359 49.996 265.059 49.87 265.773 49.87C267.117 49.87 268.181 50.255 268.965 51.025C269.749 51.795 270.141 52.859 270.141 54.217V59.278C270.141 59.474 270.183 59.621 270.267 59.719C270.351 59.803 270.484 59.852 270.666 59.866V61C270.512 61.014 270.379 61.028 270.267 61.042C270.155 61.056 270.071 61.056 270.015 61.042C269.665 61.028 269.399 60.916 269.217 60.706C269.035 60.496 268.937 60.272 268.923 60.034L268.902 59.236C268.412 59.866 267.775 60.356 266.991 60.706C266.207 61.042 265.409 61.21 264.597 61.21C263.897 61.21 263.26 61.063 262.686 60.769C262.126 60.461 261.685 60.055 261.363 59.551C261.055 59.033 260.901 58.466 260.901 57.85ZM268.23 58.69C268.384 58.494 268.503 58.305 268.587 58.123C268.671 57.941 268.713 57.78 268.713 57.64V56.044C268.237 55.862 267.74 55.722 267.222 55.624C266.718 55.526 266.207 55.477 265.689 55.477C264.667 55.477 263.841 55.68 263.211 56.086C262.581 56.492 262.266 57.045 262.266 57.745C262.266 58.151 262.371 58.536 262.581 58.9C262.791 59.25 263.099 59.544 263.505 59.782C263.911 60.006 264.387 60.118 264.933 60.118C265.619 60.118 266.256 59.985 266.844 59.719C267.446 59.453 267.908 59.11 268.23 58.69ZM278.494 60.475C278.382 60.517 278.207 60.594 277.969 60.706C277.731 60.818 277.444 60.916 277.108 61C276.772 61.084 276.408 61.126 276.016 61.126C275.61 61.126 275.225 61.049 274.861 60.895C274.511 60.741 274.231 60.51 274.021 60.202C273.811 59.88 273.706 59.488 273.706 59.026V51.193H272.194V50.059H273.706V46.363H275.134V50.059H277.654V51.193H275.134V58.627C275.162 59.019 275.302 59.313 275.554 59.509C275.82 59.705 276.121 59.803 276.457 59.803C276.849 59.803 277.206 59.74 277.528 59.614C277.85 59.474 278.046 59.376 278.116 59.32L278.494 60.475ZM280.378 61V50.059H281.806V61H280.378ZM280.378 47.77V45.67H281.806V47.77H280.378ZM289.713 61.21C288.929 61.21 288.201 61.063 287.529 60.769C286.871 60.461 286.297 60.048 285.807 59.53C285.331 58.998 284.96 58.396 284.694 57.724C284.428 57.038 284.295 56.317 284.295 55.561C284.295 54.777 284.428 54.049 284.694 53.377C284.96 52.691 285.338 52.089 285.828 51.571C286.318 51.039 286.892 50.626 287.55 50.332C288.222 50.024 288.95 49.87 289.734 49.87C290.518 49.87 291.239 50.024 291.897 50.332C292.555 50.626 293.129 51.039 293.619 51.571C294.109 52.089 294.487 52.691 294.753 53.377C295.019 54.049 295.152 54.777 295.152 55.561C295.152 56.317 295.019 57.038 294.753 57.724C294.487 58.396 294.109 58.998 293.619 59.53C293.143 60.048 292.569 60.461 291.897 60.769C291.239 61.063 290.511 61.21 289.713 61.21ZM285.744 55.582C285.744 56.394 285.919 57.136 286.269 57.808C286.633 58.466 287.116 58.991 287.718 59.383C288.32 59.761 288.985 59.95 289.713 59.95C290.441 59.95 291.106 59.754 291.708 59.362C292.31 58.97 292.793 58.438 293.157 57.766C293.521 57.08 293.703 56.338 293.703 55.54C293.703 54.728 293.521 53.986 293.157 53.314C292.793 52.642 292.31 52.11 291.708 51.718C291.106 51.326 290.441 51.13 289.713 51.13C288.985 51.13 288.32 51.333 287.718 51.739C287.13 52.145 286.654 52.684 286.29 53.356C285.926 54.014 285.744 54.756 285.744 55.582ZM306.839 61H305.411V54.889C305.411 53.601 305.222 52.663 304.844 52.075C304.466 51.473 303.871 51.172 303.059 51.172C302.499 51.172 301.946 51.312 301.4 51.592C300.854 51.858 300.371 52.229 299.951 52.705C299.545 53.167 299.251 53.699 299.069 54.301V61H297.641V50.059H298.943V52.537C299.237 52.005 299.622 51.543 300.098 51.151C300.574 50.745 301.113 50.43 301.715 50.206C302.317 49.982 302.94 49.87 303.584 49.87C304.186 49.87 304.697 49.982 305.117 50.206C305.537 50.43 305.873 50.752 306.125 51.172C306.377 51.578 306.559 52.075 306.671 52.663C306.783 53.237 306.839 53.881 306.839 54.595V61Z" fill="white" fill-opacity="0.2"/>
<path d="M72.869 166V151.09H77.93C79.512 151.09 80.828 151.426 81.878 152.098C82.942 152.756 83.74 153.652 84.272 154.786C84.804 155.906 85.07 157.152 85.07 158.524C85.07 160.036 84.776 161.352 84.188 162.472C83.614 163.592 82.788 164.46 81.71 165.076C80.646 165.692 79.386 166 77.93 166H72.869ZM83.6 158.524C83.6 157.334 83.376 156.277 82.928 155.353C82.494 154.429 81.857 153.708 81.017 153.19C80.177 152.658 79.148 152.392 77.93 152.392H74.339V164.698H77.93C79.162 164.698 80.198 164.425 81.038 163.879C81.878 163.333 82.515 162.598 82.949 161.674C83.383 160.736 83.6 159.686 83.6 158.524ZM92.4117 166.21C91.6277 166.21 90.8997 166.063 90.2277 165.769C89.5557 165.461 88.9747 165.048 88.4847 164.53C87.9947 163.998 87.6097 163.389 87.3297 162.703C87.0637 162.017 86.9307 161.282 86.9307 160.498C86.9307 159.476 87.1617 158.538 87.6237 157.684C88.0997 156.83 88.7507 156.151 89.5767 155.647C90.4027 155.129 91.3407 154.87 92.3907 154.87C93.4687 154.87 94.4067 155.129 95.2047 155.647C96.0167 156.165 96.6537 156.851 97.1157 157.705C97.5777 158.545 97.8087 159.469 97.8087 160.477C97.8087 160.589 97.8087 160.701 97.8087 160.813C97.8087 160.911 97.8017 160.988 97.7877 161.044H88.4217C88.4917 161.828 88.7087 162.528 89.0727 163.144C89.4507 163.746 89.9337 164.229 90.5217 164.593C91.1237 164.943 91.7747 165.118 92.4747 165.118C93.1887 165.118 93.8607 164.936 94.4907 164.572C95.1347 164.208 95.5827 163.732 95.8347 163.144L97.0737 163.48C96.8497 163.998 96.5067 164.467 96.0447 164.887C95.5827 165.307 95.0367 165.636 94.4067 165.874C93.7907 166.098 93.1257 166.21 92.4117 166.21ZM88.3797 160.015H96.4647C96.4087 159.217 96.1917 158.517 95.8137 157.915C95.4497 157.313 94.9667 156.844 94.3647 156.508C93.7767 156.158 93.1257 155.983 92.4117 155.983C91.6977 155.983 91.0467 156.158 90.4587 156.508C89.8707 156.844 89.3877 157.32 89.0097 157.936C88.6457 158.538 88.4357 159.231 88.3797 160.015ZM100.514 156.193H99.0019V155.059H100.514V154.765C100.514 154.247 100.591 153.736 100.745 153.232C100.899 152.728 101.13 152.266 101.438 151.846C101.76 151.426 102.159 151.09 102.635 150.838C103.125 150.586 103.706 150.46 104.378 150.46C104.896 150.46 105.358 150.516 105.764 150.628C106.184 150.74 106.548 150.873 106.856 151.027C107.164 151.181 107.395 151.321 107.549 151.447L106.898 152.476C106.674 152.266 106.338 152.091 105.89 151.951C105.456 151.797 104.98 151.72 104.462 151.72C103.874 151.72 103.391 151.874 103.013 152.182C102.649 152.476 102.376 152.854 102.194 153.316C102.026 153.778 101.942 154.247 101.942 154.723V155.059H107.423V166H105.995V156.193H101.942V166H100.514V156.193ZM119.869 166H118.441V159.889C118.441 158.601 118.252 157.663 117.874 157.075C117.496 156.473 116.901 156.172 116.089 156.172C115.529 156.172 114.976 156.312 114.43 156.592C113.884 156.858 113.401 157.229 112.981 157.705C112.575 158.167 112.281 158.699 112.099 159.301V166H110.671V155.059H111.973V157.537C112.267 157.005 112.652 156.543 113.128 156.151C113.604 155.745 114.143 155.43 114.745 155.206C115.347 154.982 115.97 154.87 116.614 154.87C117.216 154.87 117.727 154.982 118.147 155.206C118.567 155.43 118.903 155.752 119.155 156.172C119.407 156.578 119.589 157.075 119.701 157.663C119.813 158.237 119.869 158.881 119.869 159.595V166ZM127.739 166.21C126.955 166.21 126.227 166.063 125.555 165.769C124.883 165.461 124.302 165.048 123.812 164.53C123.322 163.998 122.937 163.389 122.657 162.703C122.391 162.017 122.258 161.282 122.258 160.498C122.258 159.476 122.489 158.538 122.951 157.684C123.427 156.83 124.078 156.151 124.904 155.647C125.73 155.129 126.668 154.87 127.718 154.87C128.796 154.87 129.734 155.129 130.532 155.647C131.344 156.165 131.981 156.851 132.443 157.705C132.905 158.545 133.136 159.469 133.136 160.477C133.136 160.589 133.136 160.701 133.136 160.813C133.136 160.911 133.129 160.988 133.115 161.044H123.749C123.819 161.828 124.036 162.528 124.4 163.144C124.778 163.746 125.261 164.229 125.849 164.593C126.451 164.943 127.102 165.118 127.802 165.118C128.516 165.118 129.188 164.936 129.818 164.572C130.462 164.208 130.91 163.732 131.162 163.144L132.401 163.48C132.177 163.998 131.834 164.467 131.372 164.887C130.91 165.307 130.364 165.636 129.734 165.874C129.118 166.098 128.453 166.21 127.739 166.21ZM123.707 160.015H131.792C131.736 159.217 131.519 158.517 131.141 157.915C130.777 157.313 130.294 156.844 129.692 156.508C129.104 156.158 128.453 155.983 127.739 155.983C127.025 155.983 126.374 156.158 125.786 156.508C125.198 156.844 124.715 157.32 124.337 157.936C123.973 158.538 123.763 159.231 123.707 160.015ZM135.67 167.701L136.027 165.937H135.544V163.942H136.93V165.937L136.405 167.701H135.67ZM146.003 166V151.09H147.473V166H146.003ZM150.139 160.561C150.139 159.525 150.349 158.58 150.769 157.726C151.203 156.858 151.798 156.165 152.554 155.647C153.31 155.129 154.171 154.87 155.137 154.87C156.047 154.87 156.859 155.115 157.573 155.605C158.301 156.081 158.868 156.662 159.274 157.348V150.67H160.702V164.278C160.702 164.474 160.744 164.621 160.828 164.719C160.912 164.803 161.038 164.852 161.206 164.866V166C160.926 166.042 160.709 166.056 160.555 166.042C160.261 166.028 160.002 165.909 159.778 165.685C159.554 165.461 159.442 165.216 159.442 164.95V163.879C159.008 164.593 158.42 165.16 157.678 165.58C156.936 166 156.166 166.21 155.368 166.21C154.612 166.21 153.912 166.056 153.268 165.748C152.638 165.44 152.085 165.02 151.609 164.488C151.147 163.956 150.783 163.354 150.517 162.682C150.265 161.996 150.139 161.289 150.139 160.561ZM159.274 162.241V158.86C159.092 158.356 158.798 157.901 158.392 157.495C157.986 157.075 157.524 156.746 157.006 156.508C156.502 156.256 155.998 156.13 155.494 156.13C154.906 156.13 154.374 156.256 153.898 156.508C153.422 156.746 153.009 157.075 152.659 157.495C152.323 157.915 152.064 158.391 151.882 158.923C151.7 159.455 151.609 160.001 151.609 160.561C151.609 161.149 151.707 161.709 151.903 162.241C152.113 162.773 152.407 163.249 152.785 163.669C153.163 164.075 153.597 164.39 154.087 164.614C154.577 164.838 155.109 164.95 155.683 164.95C156.047 164.95 156.425 164.88 156.817 164.74C157.209 164.6 157.58 164.411 157.93 164.173C158.294 163.921 158.595 163.627 158.833 163.291C159.071 162.955 159.218 162.605 159.274 162.241ZM168.763 166.21C167.979 166.21 167.251 166.063 166.579 165.769C165.907 165.461 165.326 165.048 164.836 164.53C164.346 163.998 163.961 163.389 163.681 162.703C163.415 162.017 163.282 161.282 163.282 160.498C163.282 159.476 163.513 158.538 163.975 157.684C164.451 156.83 165.102 156.151 165.928 155.647C166.754 155.129 167.692 154.87 168.742 154.87C169.82 154.87 170.758 155.129 171.556 155.647C172.368 156.165 173.005 156.851 173.467 157.705C173.929 158.545 174.16 159.469 174.16 160.477C174.16 160.589 174.16 160.701 174.16 160.813C174.16 160.911 174.153 160.988 174.139 161.044H164.773C164.843 161.828 165.06 162.528 165.424 163.144C165.802 163.746 166.285 164.229 166.873 164.593C167.475 164.943 168.126 165.118 168.826 165.118C169.54 165.118 170.212 164.936 170.842 164.572C171.486 164.208 171.934 163.732 172.186 163.144L173.425 163.48C173.201 163.998 172.858 164.467 172.396 164.887C171.934 165.307 171.388 165.636 170.758 165.874C170.142 166.098 169.477 166.21 168.763 166.21ZM164.731 160.015H172.816C172.76 159.217 172.543 158.517 172.165 157.915C171.801 157.313 171.318 156.844 170.716 156.508C170.128 156.158 169.477 155.983 168.763 155.983C168.049 155.983 167.398 156.158 166.81 156.508C166.222 156.844 165.739 157.32 165.361 157.936C164.997 158.538 164.787 159.231 164.731 160.015ZM175.581 162.85C175.581 162.164 175.777 161.576 176.169 161.086C176.561 160.582 177.1 160.197 177.786 159.931C178.486 159.651 179.291 159.511 180.201 159.511C180.733 159.511 181.286 159.553 181.86 159.637C182.434 159.721 182.945 159.847 183.393 160.015V159.091C183.393 158.167 183.12 157.432 182.574 156.886C182.028 156.34 181.272 156.067 180.306 156.067C179.718 156.067 179.137 156.179 178.563 156.403C178.003 156.613 177.415 156.928 176.799 157.348L176.253 156.34C176.967 155.85 177.667 155.486 178.353 155.248C179.039 154.996 179.739 154.87 180.453 154.87C181.797 154.87 182.861 155.255 183.645 156.025C184.429 156.795 184.821 157.859 184.821 159.217V164.278C184.821 164.474 184.863 164.621 184.947 164.719C185.031 164.803 185.164 164.852 185.346 164.866V166C185.192 166.014 185.059 166.028 184.947 166.042C184.835 166.056 184.751 166.056 184.695 166.042C184.345 166.028 184.079 165.916 183.897 165.706C183.715 165.496 183.617 165.272 183.603 165.034L183.582 164.236C183.092 164.866 182.455 165.356 181.671 165.706C180.887 166.042 180.089 166.21 179.277 166.21C178.577 166.21 177.94 166.063 177.366 165.769C176.806 165.461 176.365 165.055 176.043 164.551C175.735 164.033 175.581 163.466 175.581 162.85ZM182.91 163.69C183.064 163.494 183.183 163.305 183.267 163.123C183.351 162.941 183.393 162.78 183.393 162.64V161.044C182.917 160.862 182.42 160.722 181.902 160.624C181.398 160.526 180.887 160.477 180.369 160.477C179.347 160.477 178.521 160.68 177.891 161.086C177.261 161.492 176.946 162.045 176.946 162.745C176.946 163.151 177.051 163.536 177.261 163.9C177.471 164.25 177.779 164.544 178.185 164.782C178.591 165.006 179.067 165.118 179.613 165.118C180.299 165.118 180.936 164.985 181.524 164.719C182.126 164.453 182.588 164.11 182.91 163.69ZM193.174 165.475C193.062 165.517 192.887 165.594 192.649 165.706C192.411 165.818 192.124 165.916 191.788 166C191.452 166.084 191.088 166.126 190.696 166.126C190.29 166.126 189.905 166.049 189.541 165.895C189.191 165.741 188.911 165.51 188.701 165.202C188.491 164.88 188.386 164.488 188.386 164.026V156.193H186.874V155.059H188.386V151.363H189.814V155.059H192.334V156.193H189.814V163.627C189.842 164.019 189.982 164.313 190.234 164.509C190.5 164.705 190.801 164.803 191.137 164.803C191.529 164.803 191.886 164.74 192.208 164.614C192.53 164.474 192.726 164.376 192.796 164.32L193.174 165.475ZM199.599 166.21C198.815 166.21 198.087 166.063 197.415 165.769C196.743 165.461 196.162 165.048 195.672 164.53C195.182 163.998 194.797 163.389 194.517 162.703C194.251 162.017 194.118 161.282 194.118 160.498C194.118 159.476 194.349 158.538 194.811 157.684C195.287 156.83 195.938 156.151 196.764 155.647C197.59 155.129 198.528 154.87 199.578 154.87C200.656 154.87 201.594 155.129 202.392 155.647C203.204 156.165 203.841 156.851 204.303 157.705C204.765 158.545 204.996 159.469 204.996 160.477C204.996 160.589 204.996 160.701 204.996 160.813C204.996 160.911 204.989 160.988 204.975 161.044H195.609C195.679 161.828 195.896 162.528 196.26 163.144C196.638 163.746 197.121 164.229 197.709 164.593C198.311 164.943 198.962 165.118 199.662 165.118C200.376 165.118 201.048 164.936 201.678 164.572C202.322 164.208 202.77 163.732 203.022 163.144L204.261 163.48C204.037 163.998 203.694 164.467 203.232 164.887C202.77 165.307 202.224 165.636 201.594 165.874C200.978 166.098 200.313 166.21 199.599 166.21ZM195.567 160.015H203.652C203.596 159.217 203.379 158.517 203.001 157.915C202.637 157.313 202.154 156.844 201.552 156.508C200.964 156.158 200.313 155.983 199.599 155.983C198.885 155.983 198.234 156.158 197.646 156.508C197.058 156.844 196.575 157.32 196.197 157.936C195.833 158.538 195.623 159.231 195.567 160.015ZM223.167 166L215.733 158.167C215.131 157.523 214.648 156.977 214.284 156.529C213.92 156.067 213.661 155.654 213.507 155.29C213.353 154.912 213.276 154.541 213.276 154.177C213.276 153.561 213.437 153.008 213.759 152.518C214.095 152.028 214.543 151.636 215.103 151.342C215.677 151.048 216.314 150.901 217.014 150.901C217.672 150.901 218.26 151.027 218.778 151.279C219.31 151.517 219.73 151.86 220.038 152.308C220.346 152.742 220.5 153.253 220.5 153.841C220.5 154.471 220.318 155.038 219.954 155.542C219.604 156.032 219.142 156.494 218.568 156.928C218.008 157.348 217.385 157.775 216.699 158.209C216.125 158.601 215.593 159 215.103 159.406C214.627 159.798 214.249 160.218 213.969 160.666C213.689 161.114 213.549 161.625 213.549 162.199C213.549 162.815 213.724 163.34 214.074 163.774C214.424 164.194 214.865 164.516 215.397 164.74C215.943 164.95 216.503 165.055 217.077 165.055C217.833 165.055 218.526 164.887 219.156 164.551C219.8 164.201 220.36 163.725 220.836 163.123C221.312 162.507 221.676 161.807 221.928 161.023C222.194 160.239 222.327 159.406 222.327 158.524H223.545C223.545 159.588 223.377 160.589 223.041 161.527C222.705 162.451 222.236 163.263 221.634 163.963C221.046 164.663 220.346 165.216 219.534 165.622C218.736 166.014 217.868 166.21 216.93 166.21C216.062 166.21 215.264 166.042 214.536 165.706C213.808 165.356 213.227 164.88 212.793 164.278C212.373 163.676 212.163 162.969 212.163 162.157C212.163 161.401 212.338 160.743 212.688 160.183C213.052 159.609 213.514 159.098 214.074 158.65C214.648 158.188 215.25 157.754 215.88 157.348C216.524 156.928 217.091 156.543 217.581 156.193C218.085 155.829 218.477 155.465 218.757 155.101C219.037 154.723 219.177 154.317 219.177 153.883C219.177 153.337 218.974 152.889 218.568 152.539C218.162 152.189 217.644 152.014 217.014 152.014C216.552 152.014 216.139 152.112 215.775 152.308C215.411 152.504 215.124 152.763 214.914 153.085C214.704 153.407 214.599 153.757 214.599 154.135C214.599 154.373 214.655 154.625 214.767 154.891C214.879 155.143 215.096 155.465 215.418 155.857C215.74 156.235 216.202 156.739 216.804 157.369L225.057 166H223.167ZM232.605 166V151.09H237.666C239.248 151.09 240.564 151.426 241.614 152.098C242.678 152.756 243.476 153.652 244.008 154.786C244.54 155.906 244.806 157.152 244.806 158.524C244.806 160.036 244.512 161.352 243.924 162.472C243.35 163.592 242.524 164.46 241.446 165.076C240.382 165.692 239.122 166 237.666 166H232.605ZM243.336 158.524C243.336 157.334 243.112 156.277 242.664 155.353C242.23 154.429 241.593 153.708 240.753 153.19C239.913 152.658 238.884 152.392 237.666 152.392H234.075V164.698H237.666C238.898 164.698 239.934 164.425 240.774 163.879C241.614 163.333 242.251 162.598 242.685 161.674C243.119 160.736 243.336 159.686 243.336 158.524ZM252.147 166.21C251.363 166.21 250.635 166.063 249.963 165.769C249.291 165.461 248.71 165.048 248.22 164.53C247.73 163.998 247.345 163.389 247.065 162.703C246.799 162.017 246.666 161.282 246.666 160.498C246.666 159.476 246.897 158.538 247.359 157.684C247.835 156.83 248.486 156.151 249.312 155.647C250.138 155.129 251.076 154.87 252.126 154.87C253.204 154.87 254.142 155.129 254.94 155.647C255.752 156.165 256.389 156.851 256.851 157.705C257.313 158.545 257.544 159.469 257.544 160.477C257.544 160.589 257.544 160.701 257.544 160.813C257.544 160.911 257.537 160.988 257.523 161.044H248.157C248.227 161.828 248.444 162.528 248.808 163.144C249.186 163.746 249.669 164.229 250.257 164.593C250.859 164.943 251.51 165.118 252.21 165.118C252.924 165.118 253.596 164.936 254.226 164.572C254.87 164.208 255.318 163.732 255.57 163.144L256.809 163.48C256.585 163.998 256.242 164.467 255.78 164.887C255.318 165.307 254.772 165.636 254.142 165.874C253.526 166.098 252.861 166.21 252.147 166.21ZM248.115 160.015H256.2C256.144 159.217 255.927 158.517 255.549 157.915C255.185 157.313 254.702 156.844 254.1 156.508C253.512 156.158 252.861 155.983 252.147 155.983C251.433 155.983 250.782 156.158 250.194 156.508C249.606 156.844 249.123 157.32 248.745 157.936C248.381 158.538 248.171 159.231 248.115 160.015ZM263.439 166.21C262.543 166.21 261.71 166.063 260.94 165.769C260.17 165.475 259.505 165.027 258.945 164.425L259.533 163.417C260.149 163.991 260.765 164.411 261.381 164.677C262.011 164.929 262.676 165.055 263.376 165.055C264.23 165.055 264.923 164.887 265.455 164.551C265.987 164.201 266.253 163.704 266.253 163.06C266.253 162.626 266.12 162.297 265.854 162.073C265.602 161.835 265.231 161.646 264.741 161.506C264.265 161.352 263.691 161.191 263.019 161.023C262.263 160.813 261.626 160.596 261.108 160.372C260.604 160.134 260.219 159.84 259.953 159.49C259.701 159.126 259.575 158.657 259.575 158.083C259.575 157.369 259.75 156.781 260.1 156.319C260.464 155.843 260.954 155.486 261.57 155.248C262.2 154.996 262.9 154.87 263.67 154.87C264.51 154.87 265.252 155.003 265.896 155.269C266.54 155.535 267.065 155.906 267.471 156.382L266.778 157.348C266.386 156.9 265.917 156.571 265.371 156.361C264.839 156.137 264.244 156.025 263.586 156.025C263.138 156.025 262.711 156.088 262.305 156.214C261.899 156.326 261.563 156.522 261.297 156.802C261.045 157.068 260.919 157.439 260.919 157.915C260.919 158.307 261.017 158.615 261.213 158.839C261.409 159.049 261.703 159.231 262.095 159.385C262.487 159.525 262.97 159.679 263.544 159.847C264.37 160.071 265.091 160.302 265.707 160.54C266.323 160.764 266.799 161.058 267.135 161.422C267.471 161.786 267.639 162.297 267.639 162.955C267.639 163.977 267.254 164.775 266.484 165.349C265.714 165.923 264.699 166.21 263.439 166.21ZM270.099 166V155.059H271.527V166H270.099ZM270.099 152.77V150.67H271.527V152.77H270.099ZM279.161 166.147C278.419 166.147 277.733 165.993 277.103 165.685C276.473 165.377 275.927 164.964 275.465 164.446C275.017 163.914 274.667 163.312 274.415 162.64C274.163 161.968 274.037 161.275 274.037 160.561C274.037 159.791 274.156 159.07 274.394 158.398C274.646 157.712 274.996 157.103 275.444 156.571C275.906 156.039 276.445 155.626 277.061 155.332C277.677 155.024 278.363 154.87 279.119 154.87C280.057 154.87 280.869 155.108 281.555 155.584C282.255 156.06 282.843 156.648 283.319 157.348V155.059H284.6V166.042C284.6 167.05 284.355 167.897 283.865 168.583C283.389 169.283 282.738 169.808 281.912 170.158C281.1 170.508 280.211 170.683 279.245 170.683C277.999 170.683 276.991 170.459 276.221 170.011C275.451 169.563 274.821 168.961 274.331 168.205L275.213 167.512C275.647 168.198 276.221 168.709 276.935 169.045C277.663 169.381 278.433 169.549 279.245 169.549C279.959 169.549 280.61 169.416 281.198 169.15C281.8 168.898 282.276 168.513 282.626 167.995C282.99 167.477 283.172 166.826 283.172 166.042V163.879C282.752 164.565 282.178 165.118 281.45 165.538C280.722 165.944 279.959 166.147 279.161 166.147ZM279.56 164.95C279.994 164.95 280.407 164.873 280.799 164.719C281.205 164.565 281.576 164.362 281.912 164.11C282.248 163.844 282.528 163.55 282.752 163.228C282.976 162.906 283.116 162.577 283.172 162.241V158.86C282.962 158.328 282.661 157.859 282.269 157.453C281.877 157.033 281.429 156.711 280.925 156.487C280.435 156.249 279.924 156.13 279.392 156.13C278.776 156.13 278.223 156.263 277.733 156.529C277.257 156.781 276.851 157.124 276.515 157.558C276.193 157.978 275.941 158.454 275.759 158.986C275.577 159.518 275.486 160.05 275.486 160.582C275.486 161.17 275.591 161.73 275.801 162.262C276.011 162.78 276.298 163.249 276.662 163.669C277.04 164.075 277.474 164.39 277.964 164.614C278.468 164.838 279 164.95 279.56 164.95ZM297.052 166H295.624V159.889C295.624 158.601 295.435 157.663 295.057 157.075C294.679 156.473 294.084 156.172 293.272 156.172C292.712 156.172 292.159 156.312 291.613 156.592C291.067 156.858 290.584 157.229 290.164 157.705C289.758 158.167 289.464 158.699 289.282 159.301V166H287.854V155.059H289.156V157.537C289.45 157.005 289.835 156.543 290.311 156.151C290.787 155.745 291.326 155.43 291.928 155.206C292.53 154.982 293.153 154.87 293.797 154.87C294.399 154.87 294.91 154.982 295.33 155.206C295.75 155.43 296.086 155.752 296.338 156.172C296.59 156.578 296.772 157.075 296.884 157.663C296.996 158.237 297.052 158.881 297.052 159.595V166Z" fill="white" fill-opacity="0.2"/>
<path d="M93.002 286V263.458L82.979 280.969H81.263L71.201 263.458V286H68.471V258.31H71.279L82.082 277.264L92.963 258.31H95.732V286H93.002ZM100.398 280.15C100.398 278.876 100.762 277.784 101.49 276.874C102.218 275.938 103.219 275.223 104.493 274.729C105.793 274.209 107.288 273.949 108.978 273.949C109.966 273.949 110.993 274.027 112.059 274.183C113.125 274.339 114.074 274.573 114.906 274.885V273.169C114.906 271.453 114.399 270.088 113.385 269.074C112.371 268.06 110.967 267.553 109.173 267.553C108.081 267.553 107.002 267.761 105.936 268.177C104.896 268.567 103.804 269.152 102.66 269.932L101.646 268.06C102.972 267.15 104.272 266.474 105.546 266.032C106.82 265.564 108.12 265.33 109.446 265.33C111.942 265.33 113.918 266.045 115.374 267.475C116.83 268.905 117.558 270.881 117.558 273.403V282.802C117.558 283.166 117.636 283.439 117.792 283.621C117.948 283.777 118.195 283.868 118.533 283.894V286C118.247 286.026 118 286.052 117.792 286.078C117.584 286.104 117.428 286.104 117.324 286.078C116.674 286.052 116.18 285.844 115.842 285.454C115.504 285.064 115.322 284.648 115.296 284.206L115.257 282.724C114.347 283.894 113.164 284.804 111.708 285.454C110.252 286.078 108.77 286.39 107.262 286.39C105.962 286.39 104.779 286.117 103.713 285.571C102.673 284.999 101.854 284.245 101.256 283.309C100.684 282.347 100.398 281.294 100.398 280.15ZM114.009 281.71C114.295 281.346 114.516 280.995 114.672 280.657C114.828 280.319 114.906 280.02 114.906 279.76V276.796C114.022 276.458 113.099 276.198 112.137 276.016C111.201 275.834 110.252 275.743 109.29 275.743C107.392 275.743 105.858 276.12 104.688 276.874C103.518 277.628 102.933 278.655 102.933 279.955C102.933 280.709 103.128 281.424 103.518 282.1C103.908 282.75 104.48 283.296 105.234 283.738C105.988 284.154 106.872 284.362 107.886 284.362C109.16 284.362 110.343 284.115 111.435 283.621C112.553 283.127 113.411 282.49 114.009 281.71ZM123.388 286V265.681H126.04V286H123.388ZM123.388 261.43V257.53H126.04V261.43H123.388ZM149.063 286H146.411V274.651C146.411 272.259 146.06 270.517 145.358 269.425C144.656 268.307 143.551 267.748 142.043 267.748C141.003 267.748 139.976 268.008 138.962 268.528C137.948 269.022 137.051 269.711 136.271 270.595C135.517 271.453 134.971 272.441 134.633 273.559V286H131.981V265.681H134.399V270.283C134.945 269.295 135.66 268.437 136.544 267.709C137.428 266.955 138.429 266.37 139.547 265.954C140.665 265.538 141.822 265.33 143.018 265.33C144.136 265.33 145.085 265.538 145.865 265.954C146.645 266.37 147.269 266.968 147.737 267.748C148.205 268.502 148.543 269.425 148.751 270.517C148.959 271.583 149.063 272.779 149.063 274.105V286ZM164.378 285.025C164.17 285.103 163.845 285.246 163.403 285.454C162.961 285.662 162.428 285.844 161.804 286C161.18 286.156 160.504 286.234 159.776 286.234C159.022 286.234 158.307 286.091 157.631 285.805C156.981 285.519 156.461 285.09 156.071 284.518C155.681 283.92 155.486 283.192 155.486 282.334V267.787H152.678V265.681H155.486V258.817H158.138V265.681H162.818V267.787H158.138V281.593C158.19 282.321 158.45 282.867 158.918 283.231C159.412 283.595 159.971 283.777 160.595 283.777C161.323 283.777 161.986 283.66 162.584 283.426C163.182 283.166 163.546 282.984 163.676 282.88L164.378 285.025ZM176.223 286.39C174.767 286.39 173.415 286.117 172.167 285.571C170.919 284.999 169.84 284.232 168.93 283.27C168.02 282.282 167.305 281.151 166.785 279.877C166.291 278.603 166.044 277.238 166.044 275.782C166.044 273.884 166.473 272.142 167.331 270.556C168.215 268.97 169.424 267.709 170.958 266.773C172.492 265.811 174.234 265.33 176.184 265.33C178.186 265.33 179.928 265.811 181.41 266.773C182.918 267.735 184.101 269.009 184.959 270.595C185.817 272.155 186.246 273.871 186.246 275.743C186.246 275.951 186.246 276.159 186.246 276.367C186.246 276.549 186.233 276.692 186.207 276.796H168.813C168.943 278.252 169.346 279.552 170.022 280.696C170.724 281.814 171.621 282.711 172.713 283.387C173.831 284.037 175.04 284.362 176.34 284.362C177.666 284.362 178.914 284.024 180.084 283.348C181.28 282.672 182.112 281.788 182.58 280.696L184.881 281.32C184.465 282.282 183.828 283.153 182.97 283.933C182.112 284.713 181.098 285.324 179.928 285.766C178.784 286.182 177.549 286.39 176.223 286.39ZM168.735 274.885H183.75C183.646 273.403 183.243 272.103 182.541 270.985C181.865 269.867 180.968 268.996 179.85 268.372C178.758 267.722 177.549 267.397 176.223 267.397C174.897 267.397 173.688 267.722 172.596 268.372C171.504 268.996 170.607 269.88 169.905 271.024C169.229 272.142 168.839 273.429 168.735 274.885ZM207.52 286H204.868V274.651C204.868 272.259 204.517 270.517 203.815 269.425C203.113 268.307 202.008 267.748 200.5 267.748C199.46 267.748 198.433 268.008 197.419 268.528C196.405 269.022 195.508 269.711 194.728 270.595C193.974 271.453 193.428 272.441 193.09 273.559V286H190.438V265.681H192.856V270.283C193.402 269.295 194.117 268.437 195.001 267.709C195.885 266.955 196.886 266.37 198.004 265.954C199.122 265.538 200.279 265.33 201.475 265.33C202.593 265.33 203.542 265.538 204.322 265.954C205.102 266.37 205.726 266.968 206.194 267.748C206.662 268.502 207 269.425 207.208 270.517C207.416 271.583 207.52 272.779 207.52 274.105V286ZM211.637 280.15C211.637 278.876 212.001 277.784 212.729 276.874C213.457 275.938 214.458 275.223 215.732 274.729C217.032 274.209 218.527 273.949 220.217 273.949C221.205 273.949 222.232 274.027 223.298 274.183C224.364 274.339 225.313 274.573 226.145 274.885V273.169C226.145 271.453 225.638 270.088 224.624 269.074C223.61 268.06 222.206 267.553 220.412 267.553C219.32 267.553 218.241 267.761 217.175 268.177C216.135 268.567 215.043 269.152 213.899 269.932L212.885 268.06C214.211 267.15 215.511 266.474 216.785 266.032C218.059 265.564 219.359 265.33 220.685 265.33C223.181 265.33 225.157 266.045 226.613 267.475C228.069 268.905 228.797 270.881 228.797 273.403V282.802C228.797 283.166 228.875 283.439 229.031 283.621C229.187 283.777 229.434 283.868 229.772 283.894V286C229.486 286.026 229.239 286.052 229.031 286.078C228.823 286.104 228.667 286.104 228.563 286.078C227.913 286.052 227.419 285.844 227.081 285.454C226.743 285.064 226.561 284.648 226.535 284.206L226.496 282.724C225.586 283.894 224.403 284.804 222.947 285.454C221.491 286.078 220.009 286.39 218.501 286.39C217.201 286.39 216.018 286.117 214.952 285.571C213.912 284.999 213.093 284.245 212.495 283.309C211.923 282.347 211.637 281.294 211.637 280.15ZM225.248 281.71C225.534 281.346 225.755 280.995 225.911 280.657C226.067 280.319 226.145 280.02 226.145 279.76V276.796C225.261 276.458 224.338 276.198 223.376 276.016C222.44 275.834 221.491 275.743 220.529 275.743C218.631 275.743 217.097 276.12 215.927 276.874C214.757 277.628 214.172 278.655 214.172 279.955C214.172 280.709 214.367 281.424 214.757 282.1C215.147 282.75 215.719 283.296 216.473 283.738C217.227 284.154 218.111 284.362 219.125 284.362C220.399 284.362 221.582 284.115 222.674 283.621C223.792 283.127 224.65 282.49 225.248 281.71ZM251.709 286H249.057V274.651C249.057 272.259 248.706 270.517 248.004 269.425C247.302 268.307 246.197 267.748 244.689 267.748C243.649 267.748 242.622 268.008 241.608 268.528C240.594 269.022 239.697 269.711 238.917 270.595C238.163 271.453 237.617 272.441 237.279 273.559V286H234.627V265.681H237.045V270.283C237.591 269.295 238.306 268.437 239.19 267.709C240.074 266.955 241.075 266.37 242.193 265.954C243.311 265.538 244.468 265.33 245.664 265.33C246.782 265.33 247.731 265.538 248.511 265.954C249.291 266.37 249.915 266.968 250.383 267.748C250.851 268.502 251.189 269.425 251.397 270.517C251.605 271.583 251.709 272.779 251.709 274.105V286ZM266.279 286.39C264.797 286.39 263.432 286.117 262.184 285.571C260.962 284.999 259.883 284.219 258.947 283.231C258.037 282.243 257.322 281.112 256.802 279.838C256.308 278.564 256.061 277.212 256.061 275.782C256.061 273.858 256.49 272.103 257.348 270.517C258.206 268.931 259.402 267.67 260.936 266.734C262.47 265.798 264.238 265.33 266.24 265.33C268.138 265.33 269.815 265.772 271.271 266.656C272.727 267.514 273.806 268.684 274.508 270.166L271.934 270.985C271.362 269.945 270.556 269.139 269.516 268.567C268.502 267.969 267.371 267.67 266.123 267.67C264.771 267.67 263.536 268.021 262.418 268.723C261.3 269.425 260.403 270.387 259.727 271.609C259.077 272.831 258.752 274.222 258.752 275.782C258.752 277.316 259.09 278.707 259.766 279.955C260.442 281.203 261.339 282.204 262.457 282.958C263.575 283.686 264.81 284.05 266.162 284.05C267.046 284.05 267.891 283.894 268.697 283.582C269.529 283.27 270.244 282.854 270.842 282.334C271.466 281.788 271.882 281.203 272.09 280.579L274.703 281.359C274.339 282.321 273.728 283.192 272.87 283.972C272.038 284.726 271.05 285.324 269.906 285.766C268.788 286.182 267.579 286.39 266.279 286.39ZM287.554 286.39C286.098 286.39 284.746 286.117 283.498 285.571C282.25 284.999 281.171 284.232 280.261 283.27C279.351 282.282 278.636 281.151 278.116 279.877C277.622 278.603 277.375 277.238 277.375 275.782C277.375 273.884 277.804 272.142 278.662 270.556C279.546 268.97 280.755 267.709 282.289 266.773C283.823 265.811 285.565 265.33 287.515 265.33C289.517 265.33 291.259 265.811 292.741 266.773C294.249 267.735 295.432 269.009 296.29 270.595C297.148 272.155 297.577 273.871 297.577 275.743C297.577 275.951 297.577 276.159 297.577 276.367C297.577 276.549 297.564 276.692 297.538 276.796H280.144C280.274 278.252 280.677 279.552 281.353 280.696C282.055 281.814 282.952 282.711 284.044 283.387C285.162 284.037 286.371 284.362 287.671 284.362C288.997 284.362 290.245 284.024 291.415 283.348C292.611 282.672 293.443 281.788 293.911 280.696L296.212 281.32C295.796 282.282 295.159 283.153 294.301 283.933C293.443 284.713 292.429 285.324 291.259 285.766C290.115 286.182 288.88 286.39 287.554 286.39ZM280.066 274.885H295.081C294.977 273.403 294.574 272.103 293.872 270.985C293.196 269.867 292.299 268.996 291.181 268.372C290.089 267.722 288.88 267.397 287.554 267.397C286.228 267.397 285.019 267.722 283.927 268.372C282.835 268.996 281.938 269.88 281.236 271.024C280.56 272.142 280.17 273.429 280.066 274.885ZM331.153 286L317.347 271.453C316.229 270.257 315.332 269.243 314.656 268.411C313.98 267.553 313.499 266.786 313.213 266.11C312.927 265.408 312.784 264.719 312.784 264.043C312.784 262.899 313.083 261.872 313.681 260.962C314.305 260.052 315.137 259.324 316.177 258.778C317.243 258.232 318.426 257.959 319.726 257.959C320.948 257.959 322.04 258.193 323.002 258.661C323.99 259.103 324.77 259.74 325.342 260.572C325.914 261.378 326.2 262.327 326.2 263.419C326.2 264.589 325.862 265.642 325.186 266.578C324.536 267.488 323.678 268.346 322.612 269.152C321.572 269.932 320.415 270.725 319.141 271.531C318.075 272.259 317.087 273 316.177 273.754C315.293 274.482 314.591 275.262 314.071 276.094C313.551 276.926 313.291 277.875 313.291 278.941C313.291 280.085 313.616 281.06 314.266 281.866C314.916 282.646 315.735 283.244 316.723 283.66C317.737 284.05 318.777 284.245 319.843 284.245C321.247 284.245 322.534 283.933 323.704 283.309C324.9 282.659 325.94 281.775 326.824 280.657C327.708 279.513 328.384 278.213 328.852 276.757C329.346 275.301 329.593 273.754 329.593 272.116H331.855C331.855 274.092 331.543 275.951 330.919 277.693C330.295 279.409 329.424 280.917 328.306 282.217C327.214 283.517 325.914 284.544 324.406 285.298C322.924 286.026 321.312 286.39 319.57 286.39C317.958 286.39 316.476 286.078 315.124 285.454C313.772 284.804 312.693 283.92 311.887 282.802C311.107 281.684 310.717 280.371 310.717 278.863C310.717 277.459 311.042 276.237 311.692 275.197C312.368 274.131 313.226 273.182 314.266 272.35C315.332 271.492 316.45 270.686 317.62 269.932C318.816 269.152 319.869 268.437 320.779 267.787C321.715 267.111 322.443 266.435 322.963 265.759C323.483 265.057 323.743 264.303 323.743 263.497C323.743 262.483 323.366 261.651 322.612 261.001C321.858 260.351 320.896 260.026 319.726 260.026C318.868 260.026 318.101 260.208 317.425 260.572C316.749 260.936 316.216 261.417 315.826 262.015C315.436 262.613 315.241 263.263 315.241 263.965C315.241 264.407 315.345 264.875 315.553 265.369C315.761 265.837 316.164 266.435 316.762 267.163C317.36 267.865 318.218 268.801 319.336 269.971L334.663 286H331.153ZM373.039 286V263.458L363.016 280.969H361.3L351.238 263.458V286H348.508V258.31H351.316L362.119 277.264L373 258.31H375.769V286H373.039ZM390.616 286.39C389.16 286.39 387.808 286.117 386.56 285.571C385.338 284.999 384.272 284.232 383.362 283.27C382.478 282.282 381.789 281.164 381.295 279.916C380.801 278.642 380.554 277.303 380.554 275.899C380.554 274.443 380.801 273.091 381.295 271.843C381.789 270.569 382.491 269.451 383.401 268.489C384.311 267.501 385.377 266.734 386.599 266.188C387.847 265.616 389.199 265.33 390.655 265.33C392.111 265.33 393.45 265.616 394.672 266.188C395.894 266.734 396.96 267.501 397.87 268.489C398.78 269.451 399.482 270.569 399.976 271.843C400.47 273.091 400.717 274.443 400.717 275.899C400.717 277.303 400.47 278.642 399.976 279.916C399.482 281.164 398.78 282.282 397.87 283.27C396.986 284.232 395.92 284.999 394.672 285.571C393.45 286.117 392.098 286.39 390.616 286.39ZM383.245 275.938C383.245 277.446 383.57 278.824 384.22 280.072C384.896 281.294 385.793 282.269 386.911 282.997C388.029 283.699 389.264 284.05 390.616 284.05C391.968 284.05 393.203 283.686 394.321 282.958C395.439 282.23 396.336 281.242 397.012 279.994C397.688 278.72 398.026 277.342 398.026 275.86C398.026 274.352 397.688 272.974 397.012 271.726C396.336 270.478 395.439 269.49 394.321 268.762C393.203 268.034 391.968 267.67 390.616 267.67C389.264 267.67 388.029 268.047 386.911 268.801C385.819 269.555 384.935 270.556 384.259 271.804C383.583 273.026 383.245 274.404 383.245 275.938ZM422.335 286H419.683V274.651C419.683 272.259 419.332 270.517 418.63 269.425C417.928 268.307 416.823 267.748 415.315 267.748C414.275 267.748 413.248 268.008 412.234 268.528C411.22 269.022 410.323 269.711 409.543 270.595C408.789 271.453 408.243 272.441 407.905 273.559V286H405.253V265.681H407.671V270.283C408.217 269.295 408.932 268.437 409.816 267.709C410.7 266.955 411.701 266.37 412.819 265.954C413.937 265.538 415.094 265.33 416.29 265.33C417.408 265.33 418.357 265.538 419.137 265.954C419.917 266.37 420.541 266.968 421.009 267.748C421.477 268.502 421.815 269.425 422.023 270.517C422.231 271.583 422.335 272.779 422.335 274.105V286ZM428.09 286V265.681H430.742V286H428.09ZM428.09 261.43V257.53H430.742V261.43H428.09ZM446.433 285.025C446.225 285.103 445.9 285.246 445.458 285.454C445.016 285.662 444.483 285.844 443.859 286C443.235 286.156 442.559 286.234 441.831 286.234C441.077 286.234 440.362 286.091 439.686 285.805C439.036 285.519 438.516 285.09 438.126 284.518C437.736 283.92 437.541 283.192 437.541 282.334V267.787H434.733V265.681H437.541V258.817H440.193V265.681H444.873V267.787H440.193V281.593C440.245 282.321 440.505 282.867 440.973 283.231C441.467 283.595 442.026 283.777 442.65 283.777C443.378 283.777 444.041 283.66 444.639 283.426C445.237 283.166 445.601 282.984 445.731 282.88L446.433 285.025ZM458.162 286.39C456.706 286.39 455.354 286.117 454.106 285.571C452.884 284.999 451.818 284.232 450.908 283.27C450.024 282.282 449.335 281.164 448.841 279.916C448.347 278.642 448.1 277.303 448.1 275.899C448.1 274.443 448.347 273.091 448.841 271.843C449.335 270.569 450.037 269.451 450.947 268.489C451.857 267.501 452.923 266.734 454.145 266.188C455.393 265.616 456.745 265.33 458.201 265.33C459.657 265.33 460.996 265.616 462.218 266.188C463.44 266.734 464.506 267.501 465.416 268.489C466.326 269.451 467.028 270.569 467.522 271.843C468.016 273.091 468.263 274.443 468.263 275.899C468.263 277.303 468.016 278.642 467.522 279.916C467.028 281.164 466.326 282.282 465.416 283.27C464.532 284.232 463.466 284.999 462.218 285.571C460.996 286.117 459.644 286.39 458.162 286.39ZM450.791 275.938C450.791 277.446 451.116 278.824 451.766 280.072C452.442 281.294 453.339 282.269 454.457 282.997C455.575 283.699 456.81 284.05 458.162 284.05C459.514 284.05 460.749 283.686 461.867 282.958C462.985 282.23 463.882 281.242 464.558 279.994C465.234 278.72 465.572 277.342 465.572 275.86C465.572 274.352 465.234 272.974 464.558 271.726C463.882 270.478 462.985 269.49 461.867 268.762C460.749 268.034 459.514 267.67 458.162 267.67C456.81 267.67 455.575 268.047 454.457 268.801C453.365 269.555 452.481 270.556 451.805 271.804C451.129 273.026 450.791 274.404 450.791 275.938ZM482.938 268.021C481.17 268.073 479.61 268.567 478.258 269.503C476.932 270.439 475.996 271.726 475.45 273.364V286H472.798V265.681H475.294V270.556C475.996 269.126 476.919 267.969 478.063 267.085C479.233 266.201 480.468 265.707 481.768 265.603C482.028 265.577 482.249 265.564 482.431 265.564C482.639 265.564 482.808 265.577 482.938 265.603V268.021ZM486.571 286V265.681H489.223V286H486.571ZM486.571 261.43V257.53H489.223V261.43H486.571ZM512.246 286H509.594V274.651C509.594 272.259 509.243 270.517 508.541 269.425C507.839 268.307 506.734 267.748 505.226 267.748C504.186 267.748 503.159 268.008 502.145 268.528C501.131 269.022 500.234 269.711 499.454 270.595C498.7 271.453 498.154 272.441 497.816 273.559V286H495.164V265.681H497.582V270.283C498.128 269.295 498.843 268.437 499.727 267.709C500.611 266.955 501.612 266.37 502.73 265.954C503.848 265.538 505.005 265.33 506.201 265.33C507.319 265.33 508.268 265.538 509.048 265.954C509.828 266.37 510.452 266.968 510.92 267.748C511.388 268.502 511.726 269.425 511.934 270.517C512.142 271.583 512.246 272.779 512.246 274.105V286ZM526.152 286.273C524.774 286.273 523.5 285.987 522.33 285.415C521.16 284.843 520.146 284.076 519.288 283.114C518.456 282.126 517.806 281.008 517.338 279.76C516.87 278.512 516.636 277.225 516.636 275.899C516.636 274.469 516.857 273.13 517.299 271.882C517.767 270.608 518.417 269.477 519.249 268.489C520.107 267.501 521.108 266.734 522.252 266.188C523.396 265.616 524.67 265.33 526.074 265.33C527.816 265.33 529.324 265.772 530.598 266.656C531.898 267.54 532.99 268.632 533.874 269.932V265.681H536.253V286.078C536.253 287.95 535.798 289.523 534.888 290.797C534.004 292.097 532.795 293.072 531.261 293.722C529.753 294.372 528.102 294.697 526.308 294.697C523.994 294.697 522.122 294.281 520.692 293.449C519.262 292.617 518.092 291.499 517.182 290.095L518.82 288.808C519.626 290.082 520.692 291.031 522.018 291.655C523.37 292.279 524.8 292.591 526.308 292.591C527.634 292.591 528.843 292.344 529.935 291.85C531.053 291.382 531.937 290.667 532.587 289.705C533.263 288.743 533.601 287.534 533.601 286.078V282.061C532.821 283.335 531.755 284.362 530.403 285.142C529.051 285.896 527.634 286.273 526.152 286.273ZM526.893 284.05C527.699 284.05 528.466 283.907 529.194 283.621C529.948 283.335 530.637 282.958 531.261 282.49C531.885 281.996 532.405 281.45 532.821 280.852C533.237 280.254 533.497 279.643 533.601 279.019V272.74C533.211 271.752 532.652 270.881 531.924 270.127C531.196 269.347 530.364 268.749 529.428 268.333C528.518 267.891 527.569 267.67 526.581 267.67C525.437 267.67 524.41 267.917 523.5 268.411C522.616 268.879 521.862 269.516 521.238 270.322C520.64 271.102 520.172 271.986 519.834 272.974C519.496 273.962 519.327 274.95 519.327 275.938C519.327 277.03 519.522 278.07 519.912 279.058C520.302 280.02 520.835 280.891 521.511 281.671C522.213 282.425 523.019 283.01 523.929 283.426C524.865 283.842 525.853 284.05 526.893 284.05Z" fill="url(#paint0_linear_629_392)"/>
<path d="M81.453 373.392H76.14V387H74.67V373.392H69.357V372.09H81.453V373.392ZM85.859 387.21C85.075 387.21 84.347 387.063 83.675 386.769C83.003 386.461 82.422 386.048 81.932 385.53C81.442 384.998 81.057 384.389 80.777 383.703C80.511 383.017 80.378 382.282 80.378 381.498C80.378 380.476 80.609 379.538 81.071 378.684C81.547 377.83 82.198 377.151 83.024 376.647C83.85 376.129 84.788 375.87 85.838 375.87C86.916 375.87 87.854 376.129 88.652 376.647C89.464 377.165 90.101 377.851 90.563 378.705C91.025 379.545 91.256 380.469 91.256 381.477C91.256 381.589 91.256 381.701 91.256 381.813C91.256 381.911 91.249 381.988 91.235 382.044H81.869C81.939 382.828 82.156 383.528 82.52 384.144C82.898 384.746 83.381 385.229 83.969 385.593C84.571 385.943 85.222 386.118 85.922 386.118C86.636 386.118 87.308 385.936 87.938 385.572C88.582 385.208 89.03 384.732 89.282 384.144L90.521 384.48C90.297 384.998 89.954 385.467 89.492 385.887C89.03 386.307 88.484 386.636 87.854 386.874C87.238 387.098 86.573 387.21 85.859 387.21ZM81.827 381.015H89.912C89.856 380.217 89.639 379.517 89.261 378.915C88.897 378.313 88.414 377.844 87.812 377.508C87.224 377.158 86.573 376.983 85.859 376.983C85.145 376.983 84.494 377.158 83.906 377.508C83.318 377.844 82.835 378.32 82.457 378.936C82.093 379.538 81.883 380.231 81.827 381.015ZM97.1502 387.21C96.2542 387.21 95.4212 387.063 94.6512 386.769C93.8812 386.475 93.2162 386.027 92.6562 385.425L93.2442 384.417C93.8602 384.991 94.4762 385.411 95.0922 385.677C95.7222 385.929 96.3872 386.055 97.0872 386.055C97.9412 386.055 98.6342 385.887 99.1662 385.551C99.6982 385.201 99.9642 384.704 99.9642 384.06C99.9642 383.626 99.8312 383.297 99.5652 383.073C99.3132 382.835 98.9422 382.646 98.4522 382.506C97.9762 382.352 97.4022 382.191 96.7302 382.023C95.9742 381.813 95.3372 381.596 94.8192 381.372C94.3152 381.134 93.9302 380.84 93.6642 380.49C93.4122 380.126 93.2862 379.657 93.2862 379.083C93.2862 378.369 93.4612 377.781 93.8112 377.319C94.1752 376.843 94.6652 376.486 95.2812 376.248C95.9112 375.996 96.6112 375.87 97.3812 375.87C98.2212 375.87 98.9632 376.003 99.6072 376.269C100.251 376.535 100.776 376.906 101.182 377.382L100.489 378.348C100.097 377.9 99.6282 377.571 99.0822 377.361C98.5502 377.137 97.9552 377.025 97.2972 377.025C96.8492 377.025 96.4222 377.088 96.0162 377.214C95.6102 377.326 95.2742 377.522 95.0082 377.802C94.7562 378.068 94.6302 378.439 94.6302 378.915C94.6302 379.307 94.7282 379.615 94.9242 379.839C95.1202 380.049 95.4142 380.231 95.8062 380.385C96.1982 380.525 96.6812 380.679 97.2552 380.847C98.0812 381.071 98.8022 381.302 99.4182 381.54C100.034 381.764 100.51 382.058 100.846 382.422C101.182 382.786 101.35 383.297 101.35 383.955C101.35 384.977 100.965 385.775 100.195 386.349C99.4252 386.923 98.4102 387.21 97.1502 387.21ZM109.061 386.475C108.949 386.517 108.774 386.594 108.536 386.706C108.298 386.818 108.011 386.916 107.675 387C107.339 387.084 106.975 387.126 106.583 387.126C106.177 387.126 105.792 387.049 105.428 386.895C105.078 386.741 104.798 386.51 104.588 386.202C104.378 385.88 104.273 385.488 104.273 385.026V377.193H102.761V376.059H104.273V372.363H105.701V376.059H108.221V377.193H105.701V384.627C105.729 385.019 105.869 385.313 106.121 385.509C106.387 385.705 106.688 385.803 107.024 385.803C107.416 385.803 107.773 385.74 108.095 385.614C108.417 385.474 108.613 385.376 108.683 385.32L109.061 386.475ZM110.945 387V376.059H112.373V387H110.945ZM110.945 373.77V371.67H112.373V373.77H110.945ZM124.816 387H123.388V380.889C123.388 379.601 123.199 378.663 122.821 378.075C122.443 377.473 121.848 377.172 121.036 377.172C120.476 377.172 119.923 377.312 119.377 377.592C118.831 377.858 118.348 378.229 117.928 378.705C117.522 379.167 117.228 379.699 117.046 380.301V387H115.618V376.059H116.92V378.537C117.214 378.005 117.599 377.543 118.075 377.151C118.551 376.745 119.09 376.43 119.692 376.206C120.294 375.982 120.917 375.87 121.561 375.87C122.163 375.87 122.674 375.982 123.094 376.206C123.514 376.43 123.85 376.752 124.102 377.172C124.354 377.578 124.536 378.075 124.648 378.663C124.76 379.237 124.816 379.881 124.816 380.595V387ZM132.35 387.147C131.608 387.147 130.922 386.993 130.292 386.685C129.662 386.377 129.116 385.964 128.654 385.446C128.206 384.914 127.856 384.312 127.604 383.64C127.352 382.968 127.226 382.275 127.226 381.561C127.226 380.791 127.345 380.07 127.583 379.398C127.835 378.712 128.185 378.103 128.633 377.571C129.095 377.039 129.634 376.626 130.25 376.332C130.866 376.024 131.552 375.87 132.308 375.87C133.246 375.87 134.058 376.108 134.744 376.584C135.444 377.06 136.032 377.648 136.508 378.348V376.059H137.789V387.042C137.789 388.05 137.544 388.897 137.054 389.583C136.578 390.283 135.927 390.808 135.101 391.158C134.289 391.508 133.4 391.683 132.434 391.683C131.188 391.683 130.18 391.459 129.41 391.011C128.64 390.563 128.01 389.961 127.52 389.205L128.402 388.512C128.836 389.198 129.41 389.709 130.124 390.045C130.852 390.381 131.622 390.549 132.434 390.549C133.148 390.549 133.799 390.416 134.387 390.15C134.989 389.898 135.465 389.513 135.815 388.995C136.179 388.477 136.361 387.826 136.361 387.042V384.879C135.941 385.565 135.367 386.118 134.639 386.538C133.911 386.944 133.148 387.147 132.35 387.147ZM132.749 385.95C133.183 385.95 133.596 385.873 133.988 385.719C134.394 385.565 134.765 385.362 135.101 385.11C135.437 384.844 135.717 384.55 135.941 384.228C136.165 383.906 136.305 383.577 136.361 383.241V379.86C136.151 379.328 135.85 378.859 135.458 378.453C135.066 378.033 134.618 377.711 134.114 377.487C133.624 377.249 133.113 377.13 132.581 377.13C131.965 377.13 131.412 377.263 130.922 377.529C130.446 377.781 130.04 378.124 129.704 378.558C129.382 378.978 129.13 379.454 128.948 379.986C128.766 380.518 128.675 381.05 128.675 381.582C128.675 382.17 128.78 382.73 128.99 383.262C129.2 383.78 129.487 384.249 129.851 384.669C130.229 385.075 130.663 385.39 131.153 385.614C131.657 385.838 132.189 385.95 132.749 385.95ZM145.613 383.85C145.613 383.164 145.809 382.576 146.201 382.086C146.593 381.582 147.132 381.197 147.818 380.931C148.518 380.651 149.323 380.511 150.233 380.511C150.765 380.511 151.318 380.553 151.892 380.637C152.466 380.721 152.977 380.847 153.425 381.015V380.091C153.425 379.167 153.152 378.432 152.606 377.886C152.06 377.34 151.304 377.067 150.338 377.067C149.75 377.067 149.169 377.179 148.595 377.403C148.035 377.613 147.447 377.928 146.831 378.348L146.285 377.34C146.999 376.85 147.699 376.486 148.385 376.248C149.071 375.996 149.771 375.87 150.485 375.87C151.829 375.87 152.893 376.255 153.677 377.025C154.461 377.795 154.853 378.859 154.853 380.217V385.278C154.853 385.474 154.895 385.621 154.979 385.719C155.063 385.803 155.196 385.852 155.378 385.866V387C155.224 387.014 155.091 387.028 154.979 387.042C154.867 387.056 154.783 387.056 154.727 387.042C154.377 387.028 154.111 386.916 153.929 386.706C153.747 386.496 153.649 386.272 153.635 386.034L153.614 385.236C153.124 385.866 152.487 386.356 151.703 386.706C150.919 387.042 150.121 387.21 149.309 387.21C148.609 387.21 147.972 387.063 147.398 386.769C146.838 386.461 146.397 386.055 146.075 385.551C145.767 385.033 145.613 384.466 145.613 383.85ZM152.942 384.69C153.096 384.494 153.215 384.305 153.299 384.123C153.383 383.941 153.425 383.78 153.425 383.64V382.044C152.949 381.862 152.452 381.722 151.934 381.624C151.43 381.526 150.919 381.477 150.401 381.477C149.379 381.477 148.553 381.68 147.923 382.086C147.293 382.492 146.978 383.045 146.978 383.745C146.978 384.151 147.083 384.536 147.293 384.9C147.503 385.25 147.811 385.544 148.217 385.782C148.623 386.006 149.099 386.118 149.645 386.118C150.331 386.118 150.968 385.985 151.556 385.719C152.158 385.453 152.62 385.11 152.942 384.69ZM167.236 387H165.808V380.889C165.808 379.601 165.619 378.663 165.241 378.075C164.863 377.473 164.268 377.172 163.456 377.172C162.896 377.172 162.343 377.312 161.797 377.592C161.251 377.858 160.768 378.229 160.348 378.705C159.942 379.167 159.648 379.699 159.466 380.301V387H158.038V376.059H159.34V378.537C159.634 378.005 160.019 377.543 160.495 377.151C160.971 376.745 161.51 376.43 162.112 376.206C162.714 375.982 163.337 375.87 163.981 375.87C164.583 375.87 165.094 375.982 165.514 376.206C165.934 376.43 166.27 376.752 166.522 377.172C166.774 377.578 166.956 378.075 167.068 378.663C167.18 379.237 167.236 379.881 167.236 380.595V387ZM169.647 381.561C169.647 380.525 169.857 379.58 170.277 378.726C170.711 377.858 171.306 377.165 172.062 376.647C172.818 376.129 173.679 375.87 174.645 375.87C175.555 375.87 176.367 376.115 177.081 376.605C177.809 377.081 178.376 377.662 178.782 378.348V371.67H180.21V385.278C180.21 385.474 180.252 385.621 180.336 385.719C180.42 385.803 180.546 385.852 180.714 385.866V387C180.434 387.042 180.217 387.056 180.063 387.042C179.769 387.028 179.51 386.909 179.286 386.685C179.062 386.461 178.95 386.216 178.95 385.95V384.879C178.516 385.593 177.928 386.16 177.186 386.58C176.444 387 175.674 387.21 174.876 387.21C174.12 387.21 173.42 387.056 172.776 386.748C172.146 386.44 171.593 386.02 171.117 385.488C170.655 384.956 170.291 384.354 170.025 383.682C169.773 382.996 169.647 382.289 169.647 381.561ZM178.782 383.241V379.86C178.6 379.356 178.306 378.901 177.9 378.495C177.494 378.075 177.032 377.746 176.514 377.508C176.01 377.256 175.506 377.13 175.002 377.13C174.414 377.13 173.882 377.256 173.406 377.508C172.93 377.746 172.517 378.075 172.167 378.495C171.831 378.915 171.572 379.391 171.39 379.923C171.208 380.455 171.117 381.001 171.117 381.561C171.117 382.149 171.215 382.709 171.411 383.241C171.621 383.773 171.915 384.249 172.293 384.669C172.671 385.075 173.105 385.39 173.595 385.614C174.085 385.838 174.617 385.95 175.191 385.95C175.555 385.95 175.933 385.88 176.325 385.74C176.717 385.6 177.088 385.411 177.438 385.173C177.802 384.921 178.103 384.627 178.341 384.291C178.579 383.955 178.726 383.605 178.782 383.241ZM188.511 372.09L193.845 385.173L199.158 372.09H200.691L194.517 387H193.173L186.978 372.09H188.511ZM200.664 383.85C200.664 383.164 200.86 382.576 201.252 382.086C201.644 381.582 202.183 381.197 202.869 380.931C203.569 380.651 204.374 380.511 205.284 380.511C205.816 380.511 206.369 380.553 206.943 380.637C207.517 380.721 208.028 380.847 208.476 381.015V380.091C208.476 379.167 208.203 378.432 207.657 377.886C207.111 377.34 206.355 377.067 205.389 377.067C204.801 377.067 204.22 377.179 203.646 377.403C203.086 377.613 202.498 377.928 201.882 378.348L201.336 377.34C202.05 376.85 202.75 376.486 203.436 376.248C204.122 375.996 204.822 375.87 205.536 375.87C206.88 375.87 207.944 376.255 208.728 377.025C209.512 377.795 209.904 378.859 209.904 380.217V385.278C209.904 385.474 209.946 385.621 210.03 385.719C210.114 385.803 210.247 385.852 210.429 385.866V387C210.275 387.014 210.142 387.028 210.03 387.042C209.918 387.056 209.834 387.056 209.778 387.042C209.428 387.028 209.162 386.916 208.98 386.706C208.798 386.496 208.7 386.272 208.686 386.034L208.665 385.236C208.175 385.866 207.538 386.356 206.754 386.706C205.97 387.042 205.172 387.21 204.36 387.21C203.66 387.21 203.023 387.063 202.449 386.769C201.889 386.461 201.448 386.055 201.126 385.551C200.818 385.033 200.664 384.466 200.664 383.85ZM207.993 384.69C208.147 384.494 208.266 384.305 208.35 384.123C208.434 383.941 208.476 383.78 208.476 383.64V382.044C208 381.862 207.503 381.722 206.985 381.624C206.481 381.526 205.97 381.477 205.452 381.477C204.43 381.477 203.604 381.68 202.974 382.086C202.344 382.492 202.029 383.045 202.029 383.745C202.029 384.151 202.134 384.536 202.344 384.9C202.554 385.25 202.862 385.544 203.268 385.782C203.674 386.006 204.15 386.118 204.696 386.118C205.382 386.118 206.019 385.985 206.607 385.719C207.209 385.453 207.671 385.11 207.993 384.69ZM213.152 371.67H214.58V384.522C214.58 385.068 214.678 385.425 214.874 385.593C215.07 385.761 215.308 385.845 215.588 385.845C215.84 385.845 216.092 385.817 216.344 385.761C216.596 385.705 216.813 385.649 216.995 385.593L217.247 386.748C216.981 386.86 216.652 386.951 216.26 387.021C215.882 387.091 215.553 387.126 215.273 387.126C214.629 387.126 214.111 386.937 213.719 386.559C213.341 386.181 213.152 385.663 213.152 385.005V371.67ZM218.911 387V376.059H220.339V387H218.911ZM218.911 373.77V371.67H220.339V373.77H218.911ZM222.849 381.561C222.849 380.525 223.059 379.58 223.479 378.726C223.913 377.858 224.508 377.165 225.264 376.647C226.02 376.129 226.881 375.87 227.847 375.87C228.757 375.87 229.569 376.115 230.283 376.605C231.011 377.081 231.578 377.662 231.984 378.348V371.67H233.412V385.278C233.412 385.474 233.454 385.621 233.538 385.719C233.622 385.803 233.748 385.852 233.916 385.866V387C233.636 387.042 233.419 387.056 233.265 387.042C232.971 387.028 232.712 386.909 232.488 386.685C232.264 386.461 232.152 386.216 232.152 385.95V384.879C231.718 385.593 231.13 386.16 230.388 386.58C229.646 387 228.876 387.21 228.078 387.21C227.322 387.21 226.622 387.056 225.978 386.748C225.348 386.44 224.795 386.02 224.319 385.488C223.857 384.956 223.493 384.354 223.227 383.682C222.975 382.996 222.849 382.289 222.849 381.561ZM231.984 383.241V379.86C231.802 379.356 231.508 378.901 231.102 378.495C230.696 378.075 230.234 377.746 229.716 377.508C229.212 377.256 228.708 377.13 228.204 377.13C227.616 377.13 227.084 377.256 226.608 377.508C226.132 377.746 225.719 378.075 225.369 378.495C225.033 378.915 224.774 379.391 224.592 379.923C224.41 380.455 224.319 381.001 224.319 381.561C224.319 382.149 224.417 382.709 224.613 383.241C224.823 383.773 225.117 384.249 225.495 384.669C225.873 385.075 226.307 385.39 226.797 385.614C227.287 385.838 227.819 385.95 228.393 385.95C228.757 385.95 229.135 385.88 229.527 385.74C229.919 385.6 230.29 385.411 230.64 385.173C231.004 384.921 231.305 384.627 231.543 384.291C231.781 383.955 231.928 383.605 231.984 383.241ZM235.866 383.85C235.866 383.164 236.062 382.576 236.454 382.086C236.846 381.582 237.385 381.197 238.071 380.931C238.771 380.651 239.576 380.511 240.486 380.511C241.018 380.511 241.571 380.553 242.145 380.637C242.719 380.721 243.23 380.847 243.678 381.015V380.091C243.678 379.167 243.405 378.432 242.859 377.886C242.313 377.34 241.557 377.067 240.591 377.067C240.003 377.067 239.422 377.179 238.848 377.403C238.288 377.613 237.7 377.928 237.084 378.348L236.538 377.34C237.252 376.85 237.952 376.486 238.638 376.248C239.324 375.996 240.024 375.87 240.738 375.87C242.082 375.87 243.146 376.255 243.93 377.025C244.714 377.795 245.106 378.859 245.106 380.217V385.278C245.106 385.474 245.148 385.621 245.232 385.719C245.316 385.803 245.449 385.852 245.631 385.866V387C245.477 387.014 245.344 387.028 245.232 387.042C245.12 387.056 245.036 387.056 244.98 387.042C244.63 387.028 244.364 386.916 244.182 386.706C244 386.496 243.902 386.272 243.888 386.034L243.867 385.236C243.377 385.866 242.74 386.356 241.956 386.706C241.172 387.042 240.374 387.21 239.562 387.21C238.862 387.21 238.225 387.063 237.651 386.769C237.091 386.461 236.65 386.055 236.328 385.551C236.02 385.033 235.866 384.466 235.866 383.85ZM243.195 384.69C243.349 384.494 243.468 384.305 243.552 384.123C243.636 383.941 243.678 383.78 243.678 383.64V382.044C243.202 381.862 242.705 381.722 242.187 381.624C241.683 381.526 241.172 381.477 240.654 381.477C239.632 381.477 238.806 381.68 238.176 382.086C237.546 382.492 237.231 383.045 237.231 383.745C237.231 384.151 237.336 384.536 237.546 384.9C237.756 385.25 238.064 385.544 238.47 385.782C238.876 386.006 239.352 386.118 239.898 386.118C240.584 386.118 241.221 385.985 241.809 385.719C242.411 385.453 242.873 385.11 243.195 384.69ZM253.459 386.475C253.347 386.517 253.172 386.594 252.934 386.706C252.696 386.818 252.409 386.916 252.073 387C251.737 387.084 251.373 387.126 250.981 387.126C250.575 387.126 250.19 387.049 249.826 386.895C249.476 386.741 249.196 386.51 248.986 386.202C248.776 385.88 248.671 385.488 248.671 385.026V377.193H247.159V376.059H248.671V372.363H250.099V376.059H252.619V377.193H250.099V384.627C250.127 385.019 250.267 385.313 250.519 385.509C250.785 385.705 251.086 385.803 251.422 385.803C251.814 385.803 252.171 385.74 252.493 385.614C252.815 385.474 253.011 385.376 253.081 385.32L253.459 386.475ZM255.343 387V376.059H256.771V387H255.343ZM255.343 373.77V371.67H256.771V373.77H255.343ZM264.678 387.21C263.894 387.21 263.166 387.063 262.494 386.769C261.836 386.461 261.262 386.048 260.772 385.53C260.296 384.998 259.925 384.396 259.659 383.724C259.393 383.038 259.26 382.317 259.26 381.561C259.26 380.777 259.393 380.049 259.659 379.377C259.925 378.691 260.303 378.089 260.793 377.571C261.283 377.039 261.857 376.626 262.515 376.332C263.187 376.024 263.915 375.87 264.699 375.87C265.483 375.87 266.204 376.024 266.862 376.332C267.52 376.626 268.094 377.039 268.584 377.571C269.074 378.089 269.452 378.691 269.718 379.377C269.984 380.049 270.117 380.777 270.117 381.561C270.117 382.317 269.984 383.038 269.718 383.724C269.452 384.396 269.074 384.998 268.584 385.53C268.108 386.048 267.534 386.461 266.862 386.769C266.204 387.063 265.476 387.21 264.678 387.21ZM260.709 381.582C260.709 382.394 260.884 383.136 261.234 383.808C261.598 384.466 262.081 384.991 262.683 385.383C263.285 385.761 263.95 385.95 264.678 385.95C265.406 385.95 266.071 385.754 266.673 385.362C267.275 384.97 267.758 384.438 268.122 383.766C268.486 383.08 268.668 382.338 268.668 381.54C268.668 380.728 268.486 379.986 268.122 379.314C267.758 378.642 267.275 378.11 266.673 377.718C266.071 377.326 265.406 377.13 264.678 377.13C263.95 377.13 263.285 377.333 262.683 377.739C262.095 378.145 261.619 378.684 261.255 379.356C260.891 380.014 260.709 380.756 260.709 381.582ZM281.804 387H280.376V380.889C280.376 379.601 280.187 378.663 279.809 378.075C279.431 377.473 278.836 377.172 278.024 377.172C277.464 377.172 276.911 377.312 276.365 377.592C275.819 377.858 275.336 378.229 274.916 378.705C274.51 379.167 274.216 379.699 274.034 380.301V387H272.606V376.059H273.908V378.537C274.202 378.005 274.587 377.543 275.063 377.151C275.539 376.745 276.078 376.43 276.68 376.206C277.282 375.982 277.905 375.87 278.549 375.87C279.151 375.87 279.662 375.982 280.082 376.206C280.502 376.43 280.838 376.752 281.09 377.172C281.342 377.578 281.524 378.075 281.636 378.663C281.748 379.237 281.804 379.881 281.804 380.595V387Z" fill="#FAFAFA" fill-opacity="0.2"/>
<rect x="4" width="5" height="455" fill="url(#paint1_linear_629_392)" fill-opacity="0.3"/>
<g filter="url(#filter0_d_629_392)">
<rect x="4" y="218" width="6" height="109" fill="#7E98FD"/>
</g>
<defs>
<filter id="filter0_d_629_392" x="0" y="218" width="14" height="117" filterUnits="userSpaceOnUse" color-interpolation-filters="sRGB">
<feFlood flood-opacity="0" result="BackgroundImageFix"/>
<feColorMatrix in="SourceAlpha" type="matrix" values="0 0 0 0 0 0 0 0 0 0 0 0 0 0 0 0 0 0 127 0" result="hardAlpha"/>
<feOffset dy="4"/>
<feGaussianBlur stdDeviation="2"/>
<feComposite in2="hardAlpha" operator="out"/>
<feColorMatrix type="matrix" values="0 0 0 0 0 0 0 0 0 0 0 0 0 0 0 0 0 0 0.25 0"/>
<feBlend mode="normal" in2="BackgroundImageFix" result="effect1_dropShadow_629_392"/>
<feBlend mode="normal" in="SourceGraphic" in2="effect1_dropShadow_629_392" result="shape"/>
</filter>
<linearGradient id="paint0_linear_629_392" x1="305.7" y1="208" x2="305.7" y2="321" gradientUnits="userSpaceOnUse">
<stop stop-color="#7E98FD"/>
<stop offset="1" stop-color="#7E98FD" stop-opacity="0"/>
</linearGradient>
<linearGradient id="paint1_linear_629_392" x1="6.5" y1="0" x2="6.5" y2="455" gradientUnits="userSpaceOnUse">
<stop stop-color="#7E98FD"/>
<stop offset="1" stop-color="#7E98FD" stop-opacity="0"/>
</linearGradient>
</defs>
</svg>
