<svg width="67" height="23" viewBox="0 0 67 23" fill="none" xmlns="http://www.w3.org/2000/svg">
<g opacity="0.4">
<path d="M46.8486 5.74247C46.9405 5.67365 47.0273 5.59833 47.1085 5.51709C48.8492 3.31735 52.5598 3.40074 54.5033 5.4953C55.4995 6.56812 56.0059 7.85206 56.1426 9.28249C56.3251 11.1374 56.0923 12.9172 54.9871 14.4888C53.3501 16.8178 50.1902 17.4188 47.9214 15.8411C47.5638 15.5917 47.2625 15.2611 46.8741 14.9133C46.8643 15.1229 46.8501 15.2792 46.8501 15.4354C46.8501 17.6141 46.8403 19.7928 46.8583 21.9715C46.8583 22.3742 46.7434 22.4974 46.3422 22.4862C45.4692 22.4591 44.594 22.4786 43.7195 22.4786C43.0764 22.4786 43.0741 22.4786 43.0734 21.8446C43.0734 17.9034 43.0734 13.9617 43.0734 10.0195C43.0734 8.21643 43.0839 6.41336 43.0674 4.60654C43.0674 4.1971 43.1793 4.04834 43.6083 4.06337C44.5234 4.09492 45.4392 4.09492 46.3557 4.06337C46.7727 4.04985 46.8884 4.19935 46.8561 4.58926C46.8253 4.93936 46.8486 5.29471 46.8486 5.74247ZM52.3434 10.2997C52.3524 10.1473 52.3524 9.99456 52.3434 9.84218C52.2172 8.76786 51.7634 7.88887 50.7326 7.44411C49.7019 6.99936 48.6787 7.09101 47.8124 7.8513C46.9056 8.64766 46.7351 9.71973 46.8561 10.8564C47.0754 12.9187 49.2091 14.0704 50.9445 13.0464C51.9768 12.4401 52.3569 11.4582 52.3434 10.2997Z" fill="white"/>
<path d="M15.274 6.13007H14.5731C13.5604 6.13007 12.5447 6.14133 11.5349 6.11805C11.3614 6.11354 11.1172 6.00535 11.0316 5.86787C10.1473 4.44045 8.82584 3.96339 7.24665 4.16548C5.58258 4.37734 4.52704 5.40058 4.0913 6.97826C3.65105 8.58073 3.74045 10.1584 4.68255 11.6159C6.04161 13.7195 9.68304 13.8089 10.9933 11.5107C11.0752 11.3672 11.272 11.2004 11.4185 11.1974C12.625 11.1734 13.8323 11.1854 15.0389 11.1899C15.1231 11.2035 15.2056 11.2267 15.2846 11.259C15.2282 11.4521 15.1876 11.6347 15.1238 11.8082C14.0953 14.609 12.0436 16.1401 9.13837 16.5525C7.03479 16.853 5.04016 16.4924 3.25963 15.2866C1.5009 14.0981 0.498694 12.3852 0.152355 10.3117C-0.162429 8.42596 -0.0181842 6.56656 0.856301 4.83186C2.09065 2.3812 4.13337 1.07022 6.82744 0.732147C8.88669 0.472957 10.8092 0.867377 12.5319 2.04012C13.9037 2.97396 14.7647 4.29395 15.2455 5.87163C15.2602 5.95711 15.2698 6.04342 15.274 6.13007V6.13007Z" fill="white"/>
<path d="M28.5902 10.3065C28.5902 14.1094 25.8946 16.7179 21.9722 16.7141C18.2429 16.7096 15.5969 14.0441 15.6322 10.2622C15.6705 6.28039 18.4976 3.87631 22.1991 3.8981C25.954 3.91988 28.5917 6.55236 28.5902 10.3065ZM24.7474 10.29C24.7068 9.96089 24.6866 9.62732 24.6227 9.30277C24.3733 8.03913 23.4132 7.20897 22.16 7.15713C20.997 7.10905 19.9948 7.86108 19.6523 9.07514C19.3873 9.96148 19.4136 10.9095 19.7274 11.7797C20.0752 12.7324 20.7521 13.3153 21.7866 13.4115C22.8211 13.5077 23.6648 13.1358 24.2388 12.247C24.6205 11.6558 24.7294 10.9856 24.7474 10.29Z" fill="white"/>
<path d="M37.6579 14.9303C37.5975 15.0358 37.5287 15.1363 37.4521 15.2308C35.625 17.1661 32.2487 17.1653 30.4757 15.2143C29.4991 14.1384 29.1865 12.8102 29.179 11.4038C29.1677 9.11541 29.179 6.82627 29.167 4.53713C29.167 4.17351 29.2887 4.05782 29.6516 4.06608C30.6087 4.08862 31.5658 4.08712 32.5229 4.06608C32.8595 4.05932 32.9467 4.18028 32.9452 4.49731C32.9346 6.59262 32.9316 8.68718 32.9452 10.7825C32.9446 11.1837 33.0039 11.5828 33.121 11.9665C33.4898 13.1152 34.5604 13.6802 35.8864 13.4736C36.951 13.3075 37.7541 12.4022 37.7706 11.2535C37.8007 9.13119 37.7894 7.00808 37.7954 4.88573C37.7954 3.88953 37.7759 4.08712 38.5865 4.0751C39.4467 4.06308 40.3069 4.08411 41.1664 4.06758C41.4721 4.06233 41.5848 4.16225 41.5841 4.47027C41.5781 8.36889 41.5781 12.2673 41.5841 16.1654C41.5841 16.4471 41.4864 16.5568 41.1942 16.5523C40.1957 16.5395 39.1965 16.5373 38.1981 16.5523C37.8765 16.5583 37.7871 16.4261 37.7976 16.1338C37.8112 15.7582 37.7976 15.375 37.7976 14.9956L37.6579 14.9303Z" fill="white"/>
<path d="M60.7664 8.26733C60.7664 10.8051 60.7664 13.3432 60.7664 15.8815C60.7664 16.6523 60.7919 16.5381 60.085 16.5426C59.2248 16.5479 58.3645 16.5239 57.5058 16.5539C57.0956 16.5689 56.9957 16.4277 56.9972 16.0348C57.0092 12.1514 57.0032 8.26808 57.0032 4.38474C57.0032 3.08127 57.016 1.77706 56.9972 0.473595C56.992 0.103967 57.1182 -0.00646933 57.4773 0.000292155C58.4194 0.0198253 59.3622 0.0198253 60.3058 0.000292155C60.677 -0.00722061 60.7754 0.129511 60.7739 0.485616C60.7574 3.07977 60.7664 5.67393 60.7664 8.26733Z" fill="white"/>
<path d="M63.6719 12.614C65.6643 12.6245 66.7078 14.1286 65.9963 15.5515C65.5951 16.3531 64.8844 16.6844 64.0235 16.7055C63.1219 16.7265 62.3707 16.405 61.953 15.5786C61.5773 14.8438 61.6464 14.0948 62.1453 13.4224C62.3213 13.1802 62.5504 12.9815 62.815 12.8414C63.0795 12.7013 63.3726 12.6235 63.6719 12.614V12.614Z" fill="white"/>
</g>
</svg>
