<svg width="375" height="460" viewBox="0 0 375 460" fill="none" xmlns="http://www.w3.org/2000/svg">
<path d="M589.941 192.457C631.953 136.579 603.134 83.6753 581.87 55.35C569.247 40.0962 536.09 3.97122 515.728 23.0174C504.688 36.931 503.118 55.6144 499.541 72.4588C493.316 98.4538 492.866 127.822 479.135 151.247C449.468 177.257 454.306 56.6791 442.036 42.5117C425.44 22.4353 413.358 90.1837 419.946 99.8635C420.707 102.897 424.088 104.745 426.806 102.808C430.314 100.253 428.933 93.93 427.919 90.147C424.397 77.4673 405.424 41.7403 389.272 51.1078C377.9 62.2859 379.029 79.6346 371.704 93.2688C366.48 105.709 352.769 108.989 341.799 101.733C251.985 51.1924 142.218 45.6279 52.152 99.6347C34.0067 109.062 20.1381 123.272 -0.546811 126.88C-85.1109 137.59 -148.073 54.588 -213.026 13.4288C-236.326 -2.02475 -242.322 12.1415 -242.598 37.0834C-243.279 62.3788 -242.071 87.1815 -234.508 111.441C-217.247 172.73 -168.48 190.738 -121.073 222.92C-91.8083 242.681 -49.9647 308.639 -97.4959 326.568C-117.602 335.967 -142.738 340.813 -162.225 346.662C-217.731 360.266 -239.698 403.331 -236.748 459.269L-245.373 458.982C-245.048 420.791 -236.3 393.555 -220.583 374.336C-199.294 348.304 -156.897 342.406 -117.933 331.082C-104.122 327.484 -84.6739 320.138 -79.6831 305.153C-73.2482 275.084 -98.2082 241.085 -121.569 223.583C-176.564 186.4 -223.106 171.823 -239.899 98.6262C-245.924 69.5273 -265.365 -26.2554 -208.418 6.87806C-141.713 44.7262 -59.111 160.252 24.8553 113.533C110.965 56.8727 221.431 42.3163 316.709 83.1816C328.512 87.4605 339.464 94.0084 351.218 98.2456C370.293 101.697 373.668 63.8137 386.159 53.3091C401.593 34.7276 436.527 87.0158 431.289 101.478C428.98 108.395 419.027 107.857 417.236 100.86C410.491 90.4158 425.92 20.1912 442.85 41.9913C452.027 50.1116 459.546 171.959 476.091 144.62C491.174 104.579 486.29 56.1937 513.576 20.9821C550.878 -15.0878 677.242 123.669 596.601 196.264L589.941 192.457Z" fill="url(#paint0_linear_805_625)"/>
<path d="M297.259 235.023C298.561 235.023 299.619 236.081 299.619 237.383C299.619 238.685 298.561 239.743 297.259 239.743C295.957 239.743 294.899 238.685 294.899 237.383C294.899 236.081 295.957 235.023 297.259 235.023Z" fill="white"/>
<path d="M174.331 283.031C175.633 283.031 176.691 284.088 176.691 285.391C176.691 286.693 175.633 287.75 174.331 287.75C173.029 287.75 171.972 286.693 171.972 285.391C171.972 284.088 173.029 283.031 174.331 283.031Z" fill="white"/>
<path d="M218.068 116.793C218.101 116.793 218.127 116.819 218.127 116.851C218.127 116.884 218.101 116.91 218.068 116.91C218.036 116.91 218.01 116.884 218.01 116.851C218.01 116.819 218.036 116.793 218.068 116.793Z" fill="#4F4FC8"/>
<path d="M132.955 189.66C133.699 189.66 134.303 190.265 134.303 191.009C134.303 191.753 133.699 192.357 132.955 192.357C132.211 192.357 131.606 191.753 131.606 191.009C131.606 190.265 132.211 189.66 132.955 189.66Z" fill="#4F4FC8"/>
<path d="M55.7622 299.885C57.4365 299.885 58.7959 301.245 58.7959 302.919C58.7959 304.594 57.4365 305.953 55.7622 305.953C54.0879 305.953 52.7285 304.594 52.7285 302.919C52.7285 301.245 54.0879 299.885 55.7622 299.885Z" fill="#4F4FC8"/>
<path d="M173.533 322.834L180.338 314.261L172.451 306.67L181.025 313.475L188.615 305.589L181.811 314.162L189.697 321.753L181.124 314.948L173.533 322.834Z" fill="white"/>
<path d="M173.533 322.834L180.338 314.261L172.451 306.67L181.025 313.475L188.615 305.589L181.811 314.162L189.697 321.753L181.124 314.948L173.533 322.834Z" fill="white"/>
<path d="M121.608 86.043C126.832 84.6992 130.796 84.3921 135.324 84.5692C140.95 84.7923 145.085 86.7916 149.248 83.4929C157.189 74.3997 162.997 86.4768 176.822 75.062C190.644 63.6538 198.345 61.1158 204.628 61.7269C209.369 62.1889 215.589 61.9306 217.641 61.4417M119.761 78.3209C129.425 76.965 130.258 71.9336 141.81 67.8532C153.364 63.778 161 73.1741 174.126 69.4073C187.257 65.6391 185.989 42.5927 202.581 49.4448C207.566 51.5037 211.37 54.7741 215.612 53.5102M117.151 70.0153C126.326 71.1521 131.189 61.5031 139.286 60.0546C143.82 59.3447 148.856 59.135 153.357 60.2435C158.56 60.726 160.847 63.596 169.178 59.7429C177.51 55.8951 182.398 43.2268 191.925 40.4919C198.5 38.6666 206.807 46.2137 213.637 45.3364M115.61 62.5985C129.226 63.9626 130.605 48.0651 146.026 52.5066C151.31 53.7589 156.834 55.4008 162.012 53.534C166.405 51.9081 170.568 49.7789 172.911 45.6175C184.749 26.4554 194.95 36.2552 211.635 37.8377M113.961 54.5637C129.652 54.4251 128.477 40.638 139.871 41.6327C144.052 41.4367 150.781 49.4066 157.257 39.9441C163.732 30.4815 184.506 26.8076 209.48 29.6324M198.451 68.8681L198.586 69.3905M198.586 69.3905C198.831 69.3273 199.067 69.272 199.295 69.2247C203.848 68.2648 214.044 68.5875 215.106 71.2435C215.579 72.4307 213.934 74.2628 210.464 76.403C210.218 76.5499 209.974 76.7072 209.724 76.8607C207.133 78.4795 204.45 80.15 199.399 81.4494C193.821 82.8846 183.058 81.7888 182.378 79.1458C181.784 76.8372 191.916 71.1065 198.586 69.3905ZM130.723 89.3895C127.542 90.2079 124.776 92.206 125.821 95.5122C126.494 97.6503 130.801 98.5025 134.728 98.0767C135.217 98.0288 135.722 97.9325 136.228 97.8022C139.796 96.8843 143.525 94.2152 143.314 92.2702C143.072 90.0494 137.696 88.8539 133.748 88.962C132.764 88.9923 131.725 89.1315 130.723 89.3895ZM123.807 36.1033C124.633 35.891 125.766 35.7498 126.457 36.2958C127.394 37.035 127.859 37.9567 127.835 39.0321C127.787 41.2889 125.673 43.8096 123.602 45.3059C121.715 46.6713 119.277 47.8666 117.391 48.3517C115.923 48.7293 114.91 48.6447 114.615 48.1248C113.084 45.4223 115.374 41.6812 118.326 39.173C120.076 37.6816 122.125 36.5361 123.807 36.1033ZM167.383 36.1415C166.108 36.4694 164.873 37.4276 164.181 38.7195C162.232 42.334 155.72 44.7945 154.691 47.2869C152.866 51.7103 158.051 51.3452 162.319 50.2473C162.486 50.2043 162.648 50.1627 162.814 50.1144C168.156 48.6508 172.703 41.539 171.229 38.1035C170.434 36.2476 168.882 35.7559 167.383 36.1415ZM195.481 52.9088C192.086 53.7823 190.335 57.6466 190.537 59.9893C190.635 61.128 191.38 61.3204 192.362 61.0678C194.222 60.5894 196.936 58.521 197.849 58.108C200.26 57.0254 205.684 56.0923 200.231 53.5356C198.409 52.6847 196.818 52.5648 195.481 52.9088Z" stroke="black" stroke-width="0.0801115" stroke-miterlimit="10"/>
<path d="M138.138 74.6559C135.116 76.1749 131.354 78.6048 134.189 80.6837C136.438 82.3326 148.295 79.6776 149.348 78.4544C151.503 75.9508 151.905 74.5944 149.696 71.9607C147.487 69.3269 140.973 73.2303 138.138 74.6559Z" stroke="black" stroke-width="0.0801115"/>
<path d="M134.8 205.336L129.891 207.712L129.089 203.429L129.055 203.239L128.982 202.854C130.386 201.757 132.732 201.199 132.732 201.199L134.27 204.278L134.8 205.336Z" fill="#990A0A"/>
<path d="M187.345 247.048L150.673 260.05L150.669 260.05L142.793 262.843L124.497 210.98L131.373 205.307L164.583 193.533L167.012 199.251L187.345 247.048Z" fill="#FF635F"/>
<path d="M187.344 247.048L150.672 260.05L150.668 260.05L131.649 206.09L131.372 205.307L164.583 193.534L167.012 199.251L187.344 247.048Z" fill="#990A0A"/>
<path d="M221.4 208.36C221.944 208.145 222.484 207.949 223.017 207.772L222.294 213.289L221.668 218.039L220.715 225.284L220.476 227.126L219.179 236.991L218.814 239.768C218.814 239.768 216.782 248.393 206.508 244.511C205.975 244.311 205.414 244.082 204.829 243.826C201.645 242.443 197.723 240.312 193.78 238.006C191.827 236.864 189.868 235.677 187.995 234.508C186.891 233.823 185.818 233.146 184.792 232.494C184.713 232.443 184.635 232.392 184.557 232.341C180.247 229.591 176.788 227.257 175.538 226.412C175.211 226.186 175.036 226.067 175.036 226.067L172.433 218.18L170.303 211.718L168.702 206.869L167.721 203.893C167.725 203.892 167.756 203.891 167.815 203.894C167.823 203.889 167.838 203.893 167.846 203.892C167.868 203.892 167.891 203.891 167.918 203.894C168.08 203.893 168.332 203.905 168.674 203.933C168.724 203.935 168.774 203.938 168.828 203.945C168.836 203.944 168.845 203.943 168.85 203.948C168.913 203.95 168.972 203.957 169.031 203.964C169.039 203.964 169.049 203.963 169.058 203.968C169.558 204.02 170.19 204.113 170.937 204.268C172.848 204.671 175.508 205.498 178.614 207.194C180.385 208.154 182.31 209.406 184.322 211.027C184.628 211.267 184.935 211.52 185.245 211.782C187.646 213.819 190.04 215.797 192.284 217.629C192.608 217.891 192.933 218.153 193.253 218.415C195.326 220.1 197.239 221.635 198.879 222.933C199.134 223.139 199.385 223.331 199.626 223.524C199.88 223.721 200.121 223.914 200.357 224.098C202.886 226.095 204.469 227.305 204.469 227.305L206.34 220.931L207.798 215.952C211.451 213.292 214.961 211.235 218.27 209.692C218.981 209.359 219.679 209.054 220.369 208.772C220.714 208.628 221.059 208.49 221.4 208.36Z" fill="#6E53D8"/>
<path d="M223.75 202.21L223.384 204.977L216.437 202.333L212.257 200.742L212.952 198.379L213.189 198.464L213.74 198.659L216.714 199.713L223.085 201.975L223.198 202.015L223.75 202.21Z" fill="#6E53D8"/>
<path d="M175.535 226.215C175.442 226.497 175.272 227.096 175.286 227.806C175.303 228.596 175.55 229.525 176.387 230.288C177.541 231.34 177.938 232.425 178.05 233.242C178.13 233.81 178.076 234.256 178.044 234.473C174.278 236.881 166.035 242.13 165.744 242.168C154.707 231.717 159.888 212.073 159.888 212.073L172.429 217.984L172.673 207.908L192.281 217.432C192.605 217.694 192.929 217.956 193.249 218.218C195.98 220.435 198.436 222.394 200.354 223.902C195.977 228.18 188.114 231.168 184.788 232.297C180.368 229.48 176.808 227.078 175.535 226.215Z" fill="#514FCF"/>
<path d="M242.987 192.986C242.987 192.986 239.385 198.528 233.195 198.285C232.538 198.26 231.94 198.234 231.405 198.215C226.897 198.042 226.448 198.046 226.448 198.046C226.448 198.046 225.787 197.904 225.106 198.182C224.588 198.386 224.067 198.825 223.805 199.742C223.746 199.946 223.693 200.127 223.646 200.295C223.195 201.894 223.2 202.015 223.2 202.015L223.086 201.975L213.742 198.659L213.191 198.464L213.454 197.484L214.366 194.084L242.987 192.986Z" fill="#6B373E"/>
<path d="M225.107 198.182C224.589 198.386 224.067 198.825 223.806 199.742C223.746 199.946 223.694 200.127 223.647 200.295C223.196 201.894 223.201 202.015 223.201 202.015L223.087 201.975C222.391 200.573 221.493 198.828 220.965 198.071C220.015 196.702 221.238 196.62 222.718 197.506C223.615 198.038 224.527 198.164 225.107 198.182Z" fill="#8A524F"/>
<path d="M233.298 193.358L231.594 193.423L214.366 194.084L213.454 197.484L213.191 198.464L213.742 198.659C215.944 197.056 219.48 194.971 223.229 194.679C228.554 194.266 230.826 194.081 232.509 194.115C233.471 194.748 234.812 195.335 236.274 195.076C238.135 194.749 239.301 193.752 239.883 193.105L233.298 193.358Z" fill="#402124"/>
<path d="M223.387 204.977L223.018 207.772C222.485 207.949 221.945 208.145 221.401 208.36C221.06 208.49 220.72 208.623 220.37 208.772C219.68 209.054 218.982 209.359 218.272 209.692C214.962 211.234 211.452 213.292 207.799 215.952L212.259 200.742L216.44 202.333L223.387 204.977Z" fill="#7599FF"/>
<path d="M216.715 199.713L216.439 202.334L214.165 223.87L206.34 220.931L212.258 200.743L212.953 198.379L213.19 198.465L216.715 199.713Z" fill="#8F9FFF"/>
<g opacity="0.75">
<path d="M199.625 223.525C196.249 228.366 183.573 217.03 178.793 212.555C176.225 210.156 173.858 208.608 171.672 207.713C170.64 207.294 169.65 207.017 168.701 206.87C167.671 206.707 166.686 206.691 165.747 206.799C163.046 207.104 161.548 205.653 160.957 204.876C163.512 204.032 165.913 203.85 167.72 203.893C167.725 203.893 167.756 203.892 167.814 203.894C167.823 203.889 167.837 203.893 167.846 203.893C167.868 203.892 167.891 203.891 167.918 203.895C168.079 203.893 168.332 203.906 168.674 203.933C168.724 203.936 168.773 203.939 168.827 203.945C168.836 203.945 168.845 203.944 168.85 203.948C168.913 203.951 168.972 203.958 169.03 203.964C169.039 203.964 169.048 203.964 169.057 203.968C170.229 204.067 170.932 204.237 170.932 204.237L170.937 204.268C172.848 204.671 175.507 205.499 178.614 207.194C180.385 208.155 182.31 209.406 184.322 211.027C184.628 211.267 184.934 211.521 185.245 211.783C187.645 213.819 190.04 215.798 192.284 217.63C192.608 217.891 192.932 218.154 193.253 218.415C195.65 220.363 197.833 222.106 199.625 223.525Z" fill="#7E98FD"/>
</g>
<path d="M193.254 218.414C191.737 219.021 189.622 219.385 187.384 218.316C184.277 216.831 184.149 213.05 184.324 211.026C184.63 211.266 184.936 211.52 185.247 211.782C188.001 214.115 190.742 216.377 193.254 218.414Z" fill="#B9CEF9"/>
<path d="M233.561 304.851C233.561 304.851 221.933 337.55 224.555 355.681C226.029 364.357 226.904 365.734 226.904 365.734C226.904 365.734 227.11 366.292 227.096 366.876C227.083 367.564 226.759 368.286 225.42 368.158C225.403 368.19 224.39 367.523 222.705 366.097C221.878 365.397 220.892 364.513 219.786 363.442C219.623 363.282 219.455 363.122 219.287 362.954C219.072 362.746 218.857 362.53 218.638 362.305C218.17 361.833 217.684 361.326 217.187 360.793C216.939 360.528 216.686 360.251 216.428 359.968C215.706 359.178 214.963 358.322 214.201 357.408C214.064 357.251 213.932 357.091 213.795 356.925C213.004 355.968 212.192 354.939 211.378 353.847C211.189 353.607 211.009 353.362 210.829 353.113C209.767 351.676 208.688 350.127 207.609 348.466C207.461 348.243 207.314 348.015 207.17 347.786C206.73 347.099 206.29 346.392 205.853 345.668C205.709 345.426 205.561 345.185 205.417 344.939C205.239 344.635 205.06 344.333 204.883 344.025C204.532 343.419 204.18 342.804 203.832 342.174C203.822 342.153 203.808 342.13 203.799 342.108C203.451 341.475 203.102 340.828 202.758 340.172C202.584 339.838 202.41 339.503 202.235 339.159C202.065 338.82 201.889 338.476 201.718 338.127C201.543 337.784 201.373 337.431 201.202 337.078C201.041 336.752 200.885 336.42 200.728 336.085C200.704 336.037 200.679 335.985 200.655 335.936C200.513 335.631 200.371 335.322 200.229 335.013C200.102 334.734 199.973 334.457 199.851 334.174C199.684 333.812 199.522 333.442 199.364 333.07C199.182 332.664 199.005 332.248 198.831 331.828C198.683 331.474 198.534 331.116 198.385 330.758C198.013 329.842 197.646 328.909 197.286 327.957C197.326 327.955 197.894 327.422 198.832 326.353C199.06 326.092 199.31 325.799 199.576 325.475C199.713 325.313 199.85 325.141 199.992 324.965C200.996 323.723 202.213 322.09 203.55 320.062C203.648 319.92 203.741 319.772 203.834 319.625C204.127 319.178 204.423 318.713 204.719 318.23C204.821 318.069 204.922 317.908 205.019 317.742C205.222 317.411 205.425 317.075 205.623 316.731C205.728 316.556 205.829 316.382 205.93 316.207C206.036 316.033 206.137 315.854 206.238 315.67C206.756 314.765 207.276 313.815 207.795 312.807C207.899 312.61 208.004 312.408 208.109 312.202C208.318 311.795 208.526 311.372 208.738 310.947C208.842 310.727 208.95 310.504 209.063 310.279C209.163 310.068 209.263 309.858 209.362 309.643C209.466 309.424 209.57 309.2 209.673 308.975C210.726 306.693 211.759 304.201 212.738 301.504C212.904 301.044 213.066 300.58 213.232 300.106C213.337 299.797 213.442 299.487 213.547 299.169C213.644 298.891 213.731 298.614 213.824 298.332C213.912 298.063 214.001 297.79 214.085 297.518C214.117 297.413 214.149 297.304 214.185 297.2C214.67 295.645 215.132 294.023 215.567 292.349C215.657 292.013 215.743 291.673 215.824 291.333C215.995 290.652 216.158 289.963 216.32 289.265C220.298 291.215 226.223 292.86 230.712 293.942C234.326 294.813 237.013 295.317 237.013 295.317C234.958 301.105 233.561 304.851 233.561 304.851Z" fill="#7798FF"/>
<path d="M254.043 234.728C253.898 237.024 253.597 239.498 253.116 242.166C253.105 242.243 253.091 242.319 253.075 242.397C253.02 242.691 252.963 242.994 252.903 243.297C252.843 243.605 252.783 243.917 252.719 244.23C252.654 244.542 252.59 244.859 252.521 245.176C252.441 245.538 252.361 245.906 252.277 246.282C252.211 246.581 252.143 246.884 252.069 247.188C251.981 247.582 251.883 247.98 251.786 248.379C251.682 248.819 251.573 249.264 251.46 249.713C251.405 249.925 251.351 250.144 251.296 250.361C251.086 251.191 250.867 252.036 250.639 252.898C250.564 253.17 250.49 253.447 250.415 253.719C250.364 253.923 250.309 254.132 250.25 254.341C250.203 254.518 250.151 254.699 250.099 254.877C249.993 255.263 249.887 255.654 249.776 256.044C249.666 256.434 249.555 256.83 249.444 257.225C249.421 257.32 249.393 257.415 249.365 257.51C249.167 258.21 248.962 258.918 248.75 259.627C248.255 261.336 247.733 263.067 247.198 264.817C247.007 265.444 246.814 266.071 246.618 266.703C246.559 266.894 246.498 267.085 246.438 267.276C244.866 272.304 243.201 277.368 241.607 282.078C241.55 282.242 241.499 282.406 241.442 282.565C240.901 284.162 240.368 285.719 239.855 287.216C239.802 287.371 239.751 287.526 239.693 287.676C239.633 287.859 239.572 288.036 239.507 288.214C239.462 288.351 239.414 288.487 239.365 288.619C239.289 288.851 239.208 289.078 239.127 289.306C239.05 289.534 238.969 289.757 238.892 289.98C238.346 291.551 237.823 293.04 237.328 294.42C237.316 294.456 237.304 294.492 237.292 294.529C237.292 294.529 237.284 294.556 237.268 294.602C237.256 294.634 237.244 294.67 237.227 294.716C237.151 294.934 237.013 295.317 237.013 295.317C237.013 295.317 234.326 294.813 230.712 293.941C226.223 292.86 220.298 291.214 216.32 289.265C216.397 288.938 216.47 288.608 216.543 288.277C216.588 288.06 216.638 287.833 216.683 287.611C216.733 287.389 216.779 287.168 216.824 286.941C216.994 286.126 217.156 285.303 217.308 284.462C217.411 283.892 217.515 283.326 217.615 282.765C217.719 282.204 217.82 281.652 217.92 281.101C218.039 280.45 218.158 279.802 218.277 279.164C218.399 278.477 218.521 277.793 218.644 277.124C218.822 276.147 218.995 275.184 219.166 274.238C219.291 273.537 219.418 272.84 219.54 272.158C219.57 272.008 219.596 271.859 219.621 271.71C220.002 269.584 220.361 267.553 220.699 265.614C221.598 260.485 222.347 256.005 222.924 252.196C224.323 242.992 224.7 237.727 223.675 236.778C223.037 236.187 221.399 236.331 219.179 236.991C215.377 238.112 209.876 240.753 204.829 243.826C203.99 244.339 203.161 244.865 202.355 245.394C196.502 249.257 181.76 261.673 166.56 261.915C159.776 262.027 152.906 259.712 146.692 253.137L168.224 240.554L178.034 234.824C178.034 234.824 178.116 234.82 178.285 234.791C178.749 234.715 179.876 234.465 181.817 233.641C182.594 233.31 183.508 232.884 184.556 232.341C187.846 230.639 192.524 227.768 198.879 222.934C200.564 221.652 202.365 220.235 204.29 218.661C205.47 217.694 206.639 216.791 207.797 215.952C211.45 213.292 214.96 211.235 218.27 209.692C218.98 209.36 219.678 209.054 220.368 208.772C220.713 208.629 221.058 208.49 221.399 208.36C221.943 208.146 222.484 207.95 223.016 207.772C223.477 207.606 223.939 207.459 224.391 207.32C225.039 207.12 225.68 206.942 226.311 206.783C226.623 206.704 226.935 206.629 227.246 206.558C227.86 206.413 228.47 206.292 229.064 206.193C229.359 206.141 229.653 206.093 229.948 206.051C231.114 205.876 232.229 205.774 233.296 205.733C233.556 205.723 233.812 205.718 234.064 205.717C234.297 205.713 234.531 205.718 234.765 205.717C234.787 205.716 234.81 205.72 234.832 205.719C235.111 205.722 235.381 205.735 235.651 205.746C235.659 205.746 235.668 205.751 235.682 205.75L235.704 205.749C235.718 205.753 235.731 205.753 235.745 205.752C235.984 205.765 236.213 205.779 236.443 205.801C236.483 205.804 236.52 205.807 236.56 205.81C236.691 205.819 236.822 205.833 236.948 205.85C237.061 205.859 237.173 205.872 237.282 205.886C237.3 205.885 237.313 205.889 237.331 205.889C237.43 205.903 237.53 205.917 237.63 205.931C237.801 205.951 237.968 205.976 238.131 206.002C238.145 206.006 238.158 206.005 238.172 206.009C238.375 206.041 238.575 206.079 238.773 206.116C238.792 206.12 238.809 206.123 238.827 206.127C238.945 206.15 239.063 206.173 239.181 206.2C239.212 206.203 239.24 206.211 239.267 206.219C239.298 206.222 239.329 206.23 239.361 206.238C239.407 206.25 239.447 206.257 239.493 206.268C239.506 206.273 239.516 206.271 239.529 206.276C239.656 206.307 239.783 206.338 239.91 206.369C239.924 206.373 239.937 206.377 239.951 206.381C240.005 206.397 240.06 206.408 240.114 206.424C240.291 206.471 240.469 206.523 240.641 206.575C240.65 206.579 240.655 206.578 240.664 206.583C240.669 206.582 240.673 206.582 240.678 206.587C240.737 206.603 240.791 206.623 240.85 206.639C240.882 206.651 240.91 206.658 240.942 206.671C240.96 206.675 240.977 206.679 240.996 206.687C241.119 206.727 241.237 206.767 241.351 206.808C241.41 206.828 241.474 206.853 241.533 206.873C241.584 206.893 241.629 206.91 241.679 206.93C241.766 206.963 241.852 206.996 241.939 207.033C241.976 207.045 242.012 207.061 242.044 207.073C242.076 207.086 242.107 207.103 242.14 207.115C242.199 207.139 242.263 207.164 242.322 207.193C242.336 207.197 242.35 207.205 242.363 207.21L242.528 207.284C242.56 207.301 242.592 207.313 242.625 207.33L242.629 207.334C242.688 207.358 242.748 207.387 242.807 207.417C242.867 207.446 242.931 207.474 242.991 207.508C243.069 207.55 243.146 207.588 243.219 207.63C243.315 207.676 243.403 207.731 243.495 207.781C243.702 207.899 243.9 208.022 244.088 208.145C244.121 208.171 244.157 208.191 244.19 208.217C244.315 208.297 244.435 208.383 244.55 208.473C244.689 208.576 244.823 208.683 244.948 208.79C249.628 212.756 254.957 220.144 254.043 234.728Z" fill="#514FCF"/>
<path d="M220.017 360.675C220.078 360.731 224.009 364.371 227.096 366.876C227.083 367.564 226.759 368.286 225.42 368.157C225.358 368.29 208.04 356.4 197.286 327.957C197.326 327.955 197.894 327.422 198.832 326.352C201.286 332.484 209.819 352.442 220.017 360.675Z" fill="#FEFFFF"/>
<path d="M237.327 294.42C237.315 294.456 237.303 294.492 237.291 294.529C237.291 294.529 237.283 294.556 237.267 294.602C237.255 294.639 237.238 294.679 237.226 294.716C237.149 294.934 237.012 295.317 237.012 295.317C234.956 301.105 233.559 304.851 233.559 304.851C233.559 304.851 221.931 337.549 224.554 355.681C226.028 364.357 226.903 365.733 226.903 365.733C226.903 365.733 227.109 366.291 227.095 366.876C227.081 367.564 226.758 368.286 225.419 368.157C225.402 368.19 224.389 367.523 222.703 366.096L214.184 297.199C214.96 294.708 215.68 292.061 216.319 289.265C216.396 288.938 216.469 288.608 216.541 288.277C224.029 292.028 233.237 293.782 237.327 294.42Z" fill="#C4ABFF"/>
<g opacity="0.69">
<path d="M239.849 287.213C239.527 288.16 239.202 289.084 238.891 289.981C234.896 289.002 225.757 288.013 218.963 296.733C212.053 305.595 207.242 332.952 205.415 344.938C202.553 340.112 199.745 334.465 197.285 327.957C197.325 327.955 197.892 327.422 198.831 326.353C202.467 322.188 211.604 309.911 216.319 289.265C216.496 288.504 216.664 287.729 216.822 286.942C216.993 286.127 217.155 285.303 217.307 284.462C218.138 279.902 218.913 275.65 219.62 271.71C221.352 272.825 223.245 274.158 225.336 275.749C225.388 275.792 231.983 280.987 239.849 287.213Z" fill="#191868"/>
</g>
<path d="M237.292 294.529C237.292 294.529 237.284 294.557 237.268 294.602C237.256 294.634 237.244 294.67 237.227 294.716C237.151 294.934 237.013 295.317 237.013 295.317C234.958 301.105 233.561 304.851 233.561 304.851C233.561 304.851 221.933 337.549 224.555 355.681C226.029 364.357 226.904 365.733 226.904 365.733C226.904 365.733 227.11 366.291 227.096 366.876C227.083 367.564 226.759 368.286 225.42 368.158C225.403 368.19 224.39 367.523 222.705 366.097C221.604 365.164 220.217 363.906 218.638 362.304C216.399 345.056 221.183 322.243 221.183 322.243L230.712 293.941L230.998 293.09C233.02 293.696 235.137 294.203 237.292 294.529Z" fill="#D2B9FD"/>
<path d="M254.043 234.728C253.892 237.092 253.581 239.641 253.075 242.397C252.916 243.279 252.726 244.207 252.521 245.176C252.3 246.199 252.054 247.269 251.786 248.38C251.682 248.819 251.573 249.264 251.46 249.713C251.203 250.746 250.93 251.808 250.639 252.898C250.514 253.374 250.385 253.855 250.25 254.341C249.966 255.381 249.67 256.434 249.365 257.511C248.689 259.89 247.956 262.34 247.198 264.817C247.007 265.444 246.814 266.071 246.618 266.703L236.646 263.411C236.646 263.411 237.874 232.199 237.797 230.653C237.735 229.379 238.056 212.118 238.172 206.009C239.062 206.155 239.896 206.347 240.664 206.583C242.45 207.125 243.894 207.896 244.948 208.79C249.628 212.756 254.957 220.144 254.043 234.728Z" fill="#6651D4"/>
<path d="M236.948 205.85C236.822 205.833 236.69 205.819 236.56 205.811C236.578 205.81 236.595 205.814 236.613 205.813C236.726 205.822 236.839 205.836 236.948 205.85Z" fill="#191868"/>
<path d="M237.281 205.886C237.259 205.882 237.235 205.879 237.213 205.875C237.253 205.878 237.29 205.882 237.331 205.889C237.312 205.889 237.3 205.885 237.281 205.886Z" fill="#191868"/>
<path d="M237.628 205.931C237.529 205.917 237.429 205.903 237.33 205.889C237.528 205.913 237.723 205.936 237.912 205.965C237.817 205.955 237.723 205.941 237.628 205.931Z" fill="#191868"/>
<path d="M254.044 234.729C252.309 234.251 250.394 233.049 248.859 231.419C247.632 230.127 246.646 228.567 246.169 226.887C245.296 223.794 242.278 219.975 237.97 217.265C235.076 215.45 231.594 214.137 227.788 213.887C231.464 211.572 235.188 209.484 238.137 207.912C238.494 207.723 238.842 207.538 239.172 207.364C239.705 207.083 240.202 206.821 240.665 206.583C240.67 206.583 240.674 206.583 240.678 206.587C240.737 206.603 240.792 206.623 240.851 206.639C240.878 206.647 240.91 206.659 240.942 206.671C240.96 206.675 240.978 206.679 240.996 206.687C241.12 206.728 241.238 206.768 241.352 206.809C241.411 206.829 241.475 206.854 241.534 206.874C241.584 206.894 241.629 206.911 241.68 206.931C241.766 206.964 241.853 206.996 241.94 207.033C241.976 207.045 242.012 207.062 242.045 207.074C242.077 207.086 242.108 207.103 242.14 207.115C242.199 207.14 242.263 207.164 242.323 207.194C242.337 207.198 242.35 207.206 242.364 207.21C242.405 207.231 242.442 207.248 242.483 207.268C242.533 207.284 242.579 207.31 242.625 207.331C242.63 207.33 242.629 207.33 242.629 207.334C242.688 207.359 242.748 207.388 242.808 207.417C242.867 207.447 242.931 207.475 242.991 207.509C243.069 207.551 243.146 207.588 243.22 207.631C243.316 207.677 243.404 207.732 243.496 207.782C243.702 207.899 243.9 208.023 244.089 208.146C244.126 208.171 244.158 208.192 244.19 208.218C244.315 208.298 244.435 208.383 244.551 208.474C244.69 208.577 244.823 208.684 244.949 208.791C249.629 212.757 254.958 220.144 254.044 234.729Z" fill="#191868"/>
<path d="M240.665 206.583C240.202 206.821 239.705 207.082 239.172 207.363C238.842 207.538 238.493 207.722 238.137 207.911C235.187 209.484 231.464 211.572 227.788 213.887C227.415 213.861 227.032 213.844 226.65 213.84C224.848 213.824 223.42 213.618 222.293 213.289C219.523 212.484 218.565 210.939 218.27 209.693C218.981 209.36 219.678 209.054 220.369 208.772C220.713 208.629 221.059 208.49 221.399 208.36C221.944 208.146 222.484 207.95 223.016 207.772C223.477 207.606 223.939 207.459 224.391 207.32C225.045 207.125 225.68 206.942 226.312 206.783C226.623 206.704 226.935 206.629 227.246 206.559C227.861 206.418 228.467 206.296 229.064 206.193C229.359 206.141 229.653 206.094 229.949 206.051C231.114 205.876 232.229 205.775 233.297 205.734C233.557 205.724 233.812 205.718 234.064 205.718C234.298 205.713 234.531 205.718 234.765 205.717C234.787 205.717 234.81 205.72 234.832 205.72C235.111 205.722 235.381 205.735 235.651 205.747C235.66 205.746 235.669 205.751 235.682 205.75L235.705 205.749C235.718 205.753 235.732 205.753 235.745 205.752C235.984 205.765 236.213 205.779 236.443 205.801C236.484 205.805 236.52 205.807 236.56 205.81C236.691 205.819 236.823 205.833 236.949 205.85C237.039 205.855 237.124 205.865 237.214 205.875C237.236 205.879 237.26 205.882 237.282 205.886C237.301 205.885 237.313 205.89 237.331 205.889C237.431 205.903 237.531 205.917 237.63 205.931C237.724 205.941 237.819 205.955 237.914 205.965C237.959 205.977 238.004 205.984 238.045 205.987C238.077 205.995 238.104 205.998 238.131 206.002C238.145 206.006 238.158 206.005 238.172 206.009C238.375 206.041 238.575 206.079 238.774 206.116C238.792 206.12 238.809 206.123 238.828 206.127C238.945 206.15 239.063 206.173 239.181 206.2C239.213 206.204 239.24 206.211 239.267 206.219C239.299 206.222 239.33 206.231 239.362 206.238C239.407 206.25 239.448 206.257 239.493 206.269C239.507 206.273 239.516 206.272 239.53 206.276C239.656 206.307 239.784 206.338 239.911 206.369C239.924 206.374 239.938 206.377 239.951 206.381C240.006 206.397 240.06 206.409 240.115 206.425C240.292 206.472 240.469 206.523 240.641 206.575C240.65 206.579 240.656 206.578 240.665 206.583Z" fill="#1F197E"/>
<path d="M233.491 243.309L233.052 243.219C233.077 243.096 235.554 230.836 233.824 225.938C233.433 224.829 232.756 224.087 231.812 223.732C229.319 222.796 225.72 224.791 225.684 224.81L200.994 236.969L200.796 236.567L225.474 224.414C225.618 224.332 229.278 222.299 231.969 223.312C233.043 223.716 233.811 224.549 234.248 225.788C236.019 230.805 233.596 242.801 233.491 243.309Z" fill="black"/>
<path d="M207.959 344.782L207.531 344.647C207.569 344.524 211.42 332.27 216.74 317.332C222.054 302.415 226.949 277.369 226.997 277.118L227.438 277.203C227.389 277.455 222.488 302.534 217.163 317.483C211.845 332.412 207.997 344.659 207.959 344.782Z" fill="#161B70"/>
<path d="M237.293 294.529C237.293 294.529 237.285 294.556 237.269 294.602C237.257 294.634 237.245 294.67 237.228 294.716C237.151 294.934 237.014 295.317 237.014 295.317C237.014 295.317 234.326 294.813 230.712 293.941C226.224 292.86 220.299 291.214 216.321 289.265C216.398 288.938 216.471 288.608 216.543 288.277C216.593 288.055 216.639 287.838 216.684 287.611C216.733 287.389 216.779 287.168 216.824 286.941C219.134 288.268 224.569 291.172 230.999 293.09C233.02 293.696 235.138 294.203 237.293 294.529Z" fill="#161B70"/>
<path d="M253.076 242.397C252.211 247.124 250.641 253.172 248.751 259.627L245.619 256.212L242.488 252.806L240.416 250.55C240.982 249.253 241.589 247.891 242.245 246.495C246.103 238.262 253.076 242.397 253.076 242.397Z" fill="#3C3FB6"/>
<path d="M250.249 254.342C249.965 255.381 249.668 256.434 249.364 257.511L244.89 256.465C244.518 256.381 244.285 256.017 244.356 255.646L244.695 253.827C244.77 253.429 245.159 253.176 245.549 253.265L250.249 254.342Z" fill="#6651D4"/>
<g opacity="0.88">
<path d="M254.041 234.728C253.889 237.093 253.578 239.642 253.073 242.397C252.208 247.128 250.638 253.168 248.748 259.628L245.616 256.213L244.406 254.898L246.81 248.248C246.81 248.248 250.889 235.734 247.578 220.957C244.608 207.717 236.482 205.944 234.829 205.72C239.418 205.8 242.912 207.067 244.946 208.791C249.626 212.757 254.955 220.144 254.041 234.728Z" fill="#7E98FD"/>
</g>
<path d="M226.311 206.783C225.68 206.943 225.044 207.125 224.391 207.32C225.039 207.12 225.68 206.943 226.311 206.783Z" fill="#6651D4"/>
<path d="M226.649 213.84C227.031 213.844 227.413 213.86 227.787 213.886C225.677 215.211 223.588 216.613 221.666 218.039C220.098 219.199 218.648 220.377 217.39 221.544C215.16 223.611 211.706 226.196 207.807 228.883C203.317 231.989 198.245 235.234 193.778 238.006C187.114 242.147 181.807 245.24 181.807 245.24L174.811 242.826L168.223 240.554L178.034 234.824C178.034 234.824 178.115 234.82 178.284 234.791C178.749 234.715 179.876 234.465 181.816 233.641C182.593 233.31 183.507 232.884 184.555 232.341C187.846 230.639 192.523 227.768 198.878 222.933C200.563 221.652 202.364 220.235 204.289 218.661C205.469 217.694 206.638 216.791 207.796 215.952C211.449 213.292 214.959 211.235 218.269 209.692C218.564 210.938 219.522 212.484 222.292 213.289C223.419 213.618 224.847 213.824 226.649 213.84Z" fill="#6651D4"/>
<path d="M229.063 206.193C228.465 206.296 227.859 206.418 227.245 206.559C227.859 206.414 228.469 206.292 229.063 206.193Z" fill="#6651D4"/>
<path d="M333.374 331.871C333.374 331.871 332.16 333.597 328.156 335.543C324.901 337.124 319.793 338.856 311.991 339.923C302.818 341.313 296.467 341.444 292.132 341.076C285.224 340.492 283.414 338.653 283.414 338.653C283.414 338.653 283.317 338.451 283.146 338.089C282.022 335.719 277.681 326.43 276.172 321.183C275.115 317.522 272.681 314.373 270.928 312.459C269.78 311.21 268.925 310.483 268.925 310.483C268.925 310.483 266.954 308.879 263.825 306.34C268.227 304.001 271.419 301.03 273.66 298.303C275.848 295.641 277.139 293.211 277.777 291.821L279.452 293.683C286.03 300.991 292.501 308.087 295.505 311.107C299.948 315.568 306.674 319.455 311.27 321.821C314.24 323.352 316.322 324.242 316.322 324.242C316.322 324.242 322.927 328.526 328.73 328.959C331.874 329.197 332.971 330.031 333.317 330.746C333.619 331.35 333.374 331.871 333.374 331.871Z" fill="#7798FF"/>
<path d="M285.72 313.408C287.163 315.7 286.761 318.548 284.822 319.769C282.882 320.99 280.141 320.122 278.698 317.829C277.254 315.537 277.656 312.69 279.595 311.468C281.534 310.247 284.276 311.116 285.72 313.408Z" fill="#181868"/>
<g opacity="0.81">
<path d="M311.268 321.821C294.316 320.329 278.831 315.367 270.926 312.459C269.778 311.209 268.923 310.483 268.923 310.483C268.923 310.483 266.952 308.879 263.823 306.339C263.721 306.258 263.624 306.176 263.517 306.091C263.43 306.022 263.345 305.949 263.258 305.88C270.997 301.532 275.755 294.679 277.601 291.625C277.657 291.69 277.719 291.756 277.775 291.821L279.45 293.683C286.028 300.99 292.499 308.087 295.503 311.107C299.946 315.567 306.672 319.455 311.268 321.821Z" fill="#D2AEFF"/>
</g>
<path d="M277.776 291.821C277.138 293.211 275.848 295.641 273.659 298.303C271.419 301.03 268.227 304 263.824 306.339C263.588 306.146 263.343 305.949 263.097 305.748C263.059 305.718 263.018 305.688 262.98 305.657C262.892 305.584 262.804 305.512 262.716 305.439C262.587 305.335 262.457 305.233 262.327 305.126C258.706 302.188 252.915 297.572 246.98 292.868C236.421 284.482 225.405 275.799 225.336 275.748C210.831 264.725 206.088 266.143 195.347 266.712C189.834 267.009 182.784 267.059 174.464 266.449C169.364 266.074 165.158 265.216 161.706 264.095C153.874 261.557 149.885 257.694 148 255.17C147.366 254.323 146.97 253.625 146.742 253.179C146.567 252.836 146.497 252.64 146.497 252.64C146.497 252.64 146.501 252.636 146.51 252.636C146.782 252.473 151.116 249.966 156.274 247.19C157.242 246.667 158.241 246.139 159.25 245.611C161.451 244.462 163.695 243.329 165.746 242.365C169.677 240.517 172.917 239.283 173.876 239.681C174.241 239.834 174.695 239.947 175.206 240.031C175.893 240.135 176.68 240.186 177.512 240.194C181.012 240.221 185.212 239.525 185.212 239.525C185.212 239.525 187.638 239.046 190.832 238.456C196.023 237.498 203.252 236.259 205.425 236.337C205.985 236.294 206.54 236.259 207.087 236.233C218.229 235.693 225.863 238.572 230.637 241.466C231.314 241.88 231.936 242.291 232.499 242.692C235.626 244.926 237.034 246.87 237.034 246.87L240.414 250.55L242.486 252.806L244.408 254.898L245.618 256.212L248.749 259.627L260.356 272.267C260.356 272.267 268.592 281.586 277.283 291.274C277.447 291.456 277.612 291.638 277.776 291.821Z" fill="#6D50D6"/>
<path d="M246.98 292.868C236.421 284.482 225.405 275.799 225.336 275.748C210.831 264.725 206.088 266.143 195.347 266.712C189.834 267.009 182.784 267.059 174.464 266.449C169.364 266.074 165.158 265.216 161.706 264.095C153.874 261.557 149.885 257.694 148 255.17C147.366 254.323 146.97 253.625 146.742 253.179C146.567 252.836 146.497 252.64 146.497 252.64C146.497 252.64 146.501 252.636 146.51 252.636C146.782 252.473 151.116 249.966 156.274 247.19C157.242 246.667 158.241 246.139 159.25 245.611C161.451 244.462 163.695 243.329 165.746 242.365C169.677 240.517 172.917 239.283 173.876 239.681C174.241 239.834 174.695 239.947 175.206 240.031C175.893 240.135 176.68 240.186 177.512 240.194C181.012 240.221 185.212 239.525 185.212 239.525C185.212 239.525 187.638 239.046 190.832 238.456C196.023 237.498 203.252 236.259 205.425 236.337C205.985 236.294 206.54 236.259 207.087 236.233C218.229 235.693 225.863 238.572 230.637 241.466C235.058 251.906 243.787 274.043 246.98 292.868Z" fill="#504FCF"/>
<path d="M277.776 291.821C277.137 293.211 275.847 295.641 273.658 298.303C273.36 298.014 273.01 297.673 272.618 297.292C266.31 291.169 249.042 274.179 244.419 267.25C239.838 260.373 243.88 257.186 245.617 256.212L248.852 259.735L250.895 261.961L252.625 263.849L254.669 266.075L256.291 267.837L258.331 270.058L259.981 271.859L260.356 272.267C260.356 272.267 260.952 272.94 261.994 274.109C262.553 274.748 263.252 275.533 264.055 276.441C264.666 277.132 265.342 277.892 266.069 278.709C266.745 279.469 267.468 280.281 268.229 281.132C268.876 281.862 269.553 282.618 270.247 283.4C270.938 284.178 271.646 284.972 272.374 285.784C273.035 286.527 273.707 287.278 274.392 288.042C275.34 289.106 276.306 290.188 277.283 291.274C277.447 291.456 277.611 291.638 277.776 291.821Z" fill="#4F4FC8"/>
<path d="M242.486 252.806C241.523 256.383 235.779 263.584 219.341 255.195C211.621 251.26 208.253 247.189 206.984 243.73C219.483 241.925 226.665 241.438 232.494 242.692L232.498 242.692C235.625 244.926 237.034 246.87 237.034 246.87L242.486 252.806Z" fill="#191868"/>
<path d="M232.496 242.692C226.667 241.438 219.484 241.924 206.985 243.729C205.801 240.491 206.447 237.79 207.088 236.233C207.285 236.225 207.478 236.213 207.671 236.206C208.053 236.191 208.43 236.181 208.802 236.176C209.071 236.17 209.341 236.169 209.61 236.168C209.897 236.165 210.182 236.168 210.464 236.17C210.69 236.175 210.918 236.181 211.138 236.186C211.466 236.191 211.791 236.201 212.106 236.22C212.273 236.227 212.439 236.234 212.601 236.246C212.821 236.256 213.041 236.27 213.262 236.283C213.343 236.289 213.421 236.295 213.501 236.301C213.731 236.314 213.956 236.333 214.181 236.356C214.452 236.382 214.722 236.406 214.989 236.433C215.142 236.449 215.291 236.467 215.44 236.483C215.679 236.51 215.913 236.542 216.148 236.573C216.46 236.611 216.762 236.657 217.065 236.703C217.087 236.707 217.11 236.711 217.128 236.71C217.431 236.757 217.725 236.808 218.019 236.86C218.322 236.912 218.625 236.967 218.92 237.028C219.82 237.204 220.681 237.409 221.507 237.629C221.77 237.696 222.025 237.767 222.275 237.842C222.543 237.917 222.802 237.997 223.057 238.077C223.57 238.238 224.066 238.403 224.549 238.577C224.791 238.667 225.027 238.752 225.26 238.841C225.492 238.931 225.72 239.022 225.948 239.116C226.852 239.481 227.693 239.871 228.477 240.268C228.674 240.369 228.866 240.468 229.054 240.569C229.687 240.9 230.275 241.241 230.822 241.579C231.034 241.71 231.241 241.842 231.439 241.969C231.462 241.987 231.486 241.998 231.509 242.016C231.596 242.071 231.683 242.13 231.766 242.186C232.02 242.356 232.264 242.521 232.496 242.692Z" fill="#221880"/>
<path d="M207.086 236.233C206.444 237.79 205.798 240.492 206.983 243.73C205.442 243.955 203.816 244.198 202.106 244.461C185.239 247.044 165.49 246.033 159.248 245.611C161.45 244.462 163.693 243.329 165.744 242.366C169.676 240.517 172.916 239.283 173.874 239.682C174.239 239.834 174.694 239.947 175.204 240.031C175.891 240.135 176.679 240.186 177.51 240.194C181.01 240.222 185.211 239.525 185.211 239.525C185.211 239.525 187.636 239.046 190.83 238.456C196.022 237.498 203.25 236.259 205.423 236.337C205.983 236.294 206.539 236.259 207.086 236.233Z" fill="#6A52D6"/>
<path d="M269.932 299.899L256.596 285.001C256.467 284.868 242.932 270.938 231.181 263.802C219.605 256.773 212.511 256.335 187.154 257.51C186.928 257.52 186.701 257.53 186.478 257.539C162.591 258.456 158.916 248.319 158.77 247.882L159.196 247.739C159.231 247.842 162.951 257.992 186.478 257.089C186.695 257.081 186.914 257.072 187.134 257.062C212.595 255.881 219.731 256.325 231.414 263.418C243.214 270.584 256.79 284.556 256.925 284.696L270.267 299.6L269.932 299.899Z" fill="black"/>
<path d="M177.511 240.194L177.476 240.568C177.503 242.565 168.692 258.288 161.705 264.095C153.873 261.557 149.885 257.694 148 255.17C147.365 254.323 146.97 253.625 146.742 253.179C146.567 252.836 146.496 252.64 146.496 252.64C146.496 252.64 146.501 252.636 146.509 252.636C146.782 252.473 151.115 249.965 156.273 247.19C159.367 245.53 162.758 243.769 165.745 242.365C169.677 240.517 172.917 239.282 173.875 239.681C174.24 239.834 174.695 239.947 175.205 240.031C175.892 240.134 176.68 240.186 177.511 240.194Z" fill="#4F43BC"/>
<path d="M333.373 331.871C333.373 331.871 332.159 333.597 328.155 335.543C316.328 332.853 305.792 326.47 297.598 319.889C301.955 320.724 306.555 321.405 311.269 321.821C314.239 323.351 316.321 324.242 316.321 324.242C316.321 324.242 322.926 328.525 328.729 328.959C331.873 329.197 332.97 330.031 333.316 330.746C333.618 331.35 333.373 331.871 333.373 331.871Z" fill="#7DAAF9"/>
<path d="M333.373 331.871C333.373 331.871 329.386 337.544 311.99 339.923C288.201 343.531 283.413 338.653 283.413 338.653C283.413 338.653 283.316 338.45 283.145 338.088C290.337 339.385 306.577 341.312 321.502 336.009C326.935 334.08 330.708 332.305 333.316 330.746C333.618 331.35 333.373 331.871 333.373 331.871Z" fill="#FFFDFE"/>
<path d="M277.775 291.821C277.365 292.713 276.688 294.028 275.682 295.562C275.117 296.419 274.443 297.348 273.658 298.303C271.418 301.03 268.226 304.001 263.824 306.339C263.587 306.146 263.342 305.949 263.096 305.748C262.97 305.644 262.841 305.542 262.716 305.439C262.586 305.336 262.456 305.233 262.326 305.126C264.943 303.786 268.812 301.351 272.618 297.292C273.399 296.458 274.181 295.557 274.943 294.58C275.744 293.561 276.528 292.461 277.282 291.274C277.446 291.456 277.611 291.638 277.775 291.821Z" fill="black"/>
<g opacity="0.47">
<path d="M306.097 339.431C294.683 334.707 271.768 302.673 270.798 301.312L271.163 301.052C271.4 301.383 294.973 334.341 306.269 339.015L306.097 339.431Z" fill="#1C1569"/>
</g>
<path d="M311.27 321.821C306.556 321.405 301.956 320.724 297.598 319.89C288.728 312.773 282.594 305.426 280.505 302.281C279.304 300.472 277.563 298.073 275.683 295.562C276.689 294.028 277.367 292.713 277.777 291.821L279.452 293.684C286.03 300.991 292.501 308.087 295.505 311.107C296.337 311.942 297.253 312.761 298.218 313.55C298.538 313.812 298.862 314.069 299.191 314.326C300.024 314.972 300.883 315.595 301.755 316.195C301.931 316.313 302.102 316.433 302.277 316.552C303.85 317.615 305.455 318.6 306.985 319.484C307.325 319.682 307.661 319.876 307.995 320.061C308.082 320.111 308.169 320.157 308.252 320.204C308.931 320.582 309.587 320.938 310.215 321.269C310.344 321.336 310.468 321.404 310.592 321.466C310.821 321.592 311.05 321.708 311.27 321.821Z" fill="#D2B9FD"/>
<g opacity="0.64">
<path d="M277.777 291.821C277.366 292.713 276.689 294.028 275.683 295.562C275.437 295.235 275.191 294.908 274.944 294.58C270.326 288.46 265.187 282.031 265.187 282.031C265.187 282.031 249.164 264.898 242.106 256.347C235.049 247.796 225.902 242.833 225.902 242.833C225.902 242.833 218.902 238.583 203.994 238.948C197.226 239.113 193.205 238.823 190.832 238.456C196.024 237.498 203.252 236.259 205.425 236.337C205.985 236.294 206.541 236.259 207.088 236.233C228.582 235.188 237.035 246.87 237.035 246.87L242.487 252.806L245.618 256.212L260.357 272.267C260.357 272.267 268.593 281.586 277.283 291.274C277.448 291.456 277.612 291.638 277.777 291.821Z" fill="#7EAEFF"/>
</g>
<g opacity="0.68">
<path d="M292.13 341.076C285.222 340.491 283.412 338.652 283.412 338.652C283.412 338.652 283.315 338.45 283.144 338.088C282.02 335.719 277.679 326.43 276.17 321.182C274.424 315.136 268.923 310.482 268.923 310.482C268.923 310.482 266.952 308.878 263.823 306.339C263.721 306.258 263.624 306.176 263.517 306.09C263.342 305.949 263.165 305.802 262.979 305.657L269.794 301.227C287.401 316.538 291.291 334.769 292.13 341.076Z" fill="#191868"/>
</g>
<path d="M178.046 234.67C178.032 234.77 178.026 234.824 178.034 234.824C177.896 235.09 177.745 235.356 177.575 235.623C176.712 236.995 175.43 238.36 173.877 239.682C165.539 246.789 149.294 252.709 146.511 252.636C146.417 252.635 146.335 252.625 146.276 252.609C145.264 252.347 144.375 251.873 143.664 251.37C142.741 250.723 142.121 250.042 141.926 249.753C141.873 249.674 141.812 249.339 141.747 248.834C141.39 246.085 140.927 238.22 140.927 238.22C140.927 238.22 140.573 236.149 140.073 233.181C139.625 230.521 139.06 227.142 138.518 223.902C138.138 221.603 137.773 219.376 137.473 217.519C137.455 217.398 137.433 217.278 137.419 217.162C137.006 214.577 136.734 212.786 136.766 212.673L136.766 212.668C136.944 212.522 137.124 212.381 137.303 212.252C137.316 212.238 137.329 212.228 137.342 212.219C137.35 212.214 137.359 212.205 137.368 212.2C141.463 209.231 146.677 209.435 146.677 209.435C146.677 209.435 146.779 209.405 146.97 209.348C148.773 208.816 158.322 205.984 158.322 205.979C158.815 205.727 159.301 205.501 159.788 205.307C159.823 205.293 159.862 205.278 159.898 205.263C160.252 205.119 160.606 204.993 160.957 204.876C161.258 204.779 161.556 204.687 161.849 204.609C164.067 203.993 166.124 203.856 167.72 203.893C167.725 203.893 167.755 203.892 167.814 203.894C167.822 203.889 167.837 203.893 167.845 203.893C167.867 203.892 167.89 203.891 167.917 203.895C168.183 203.907 168.435 203.92 168.673 203.933C168.723 203.936 168.773 203.939 168.827 203.945C168.836 203.945 168.844 203.944 168.849 203.948C168.912 203.951 168.971 203.958 169.03 203.964C169.038 203.964 169.048 203.964 169.057 203.968C170.229 204.067 170.932 204.237 170.932 204.237L170.937 204.268L171.671 207.713L172.494 211.589L173.881 218.139L175.603 226.243C175.603 226.243 175.578 226.303 175.537 226.412C175.445 226.694 175.275 227.294 175.288 228.003C175.305 228.793 175.552 229.722 176.39 230.485C177.544 231.537 177.941 232.622 178.053 233.44C178.133 234.007 178.078 234.454 178.046 234.67Z" fill="#6E53D8"/>
<path d="M141.746 248.834C141.389 246.085 140.926 238.22 140.926 238.22C140.926 238.22 140.572 236.149 140.072 233.181C140.254 232.648 140.368 232.339 140.368 232.339L142.341 225.458C142.341 225.458 145.847 230.076 147.329 236.635C148.758 242.973 148.42 247.046 141.746 248.834Z" fill="#3736B0"/>
<path d="M175.534 226.215C175.441 226.497 175.271 227.096 175.284 227.806C175.301 228.596 175.549 229.525 176.386 230.288C177.54 231.34 177.937 232.425 178.049 233.242C178.129 233.81 178.075 234.256 178.043 234.473C174.277 236.881 166.034 242.13 165.743 242.168C154.706 231.717 159.887 212.073 159.887 212.073L172.428 217.984C172.428 217.984 176.807 227.078 175.534 226.215Z" fill="#514FCF"/>
<path d="M178.614 207.195C177.767 208.656 175.909 211.005 172.495 211.589C171.826 211.71 171.096 211.755 170.303 211.719C169.264 211.664 168.119 211.461 166.855 211.065C161.845 209.487 160.268 207.136 159.899 205.263C162.841 204.083 165.664 203.847 167.721 203.893C167.726 203.893 167.756 203.892 167.815 203.895C167.823 203.889 167.838 203.894 167.846 203.893C168.017 203.891 168.35 203.901 168.828 203.946C168.837 203.945 168.845 203.944 168.85 203.949C168.913 203.951 168.972 203.958 169.031 203.965C169.039 203.964 169.049 203.964 169.058 203.968C170.23 204.067 170.933 204.237 170.933 204.237L170.938 204.269C172.848 204.671 175.508 205.499 178.614 207.195Z" fill="#1C1569"/>
<path d="M152.479 209.784C149.926 209.882 147.916 209.289 147.874 209.276L148.006 208.846C148.092 208.873 156.752 211.426 160.765 204.76L161.149 204.992C158.926 208.685 155.357 209.674 152.479 209.784Z" fill="#1C1569"/>
<path d="M173.916 240.326C166.164 240.623 163.172 228.34 163.141 228.211L156.754 209.112L157.179 208.971L163.573 228.089C163.609 228.24 166.779 241.234 174.915 239.765L174.995 240.206C174.626 240.273 174.266 240.313 173.916 240.326Z" fill="#1C1569"/>
<path d="M141.54 244.891L141.198 244.6C141.483 244.265 142.907 243.621 145.27 242.622C145.626 242.472 145.964 242.329 146.101 242.265C147.784 237.639 142.828 229.513 142.778 229.43L142.644 229.214L142.876 229.108C143.084 229.014 163.85 219.603 172.186 218.197L172.261 218.64C164.454 219.957 145.591 228.378 143.291 229.414C144.104 230.788 148.169 238.019 146.507 242.464C146.498 242.591 146.417 242.624 145.444 243.036C144.358 243.495 141.812 244.572 141.54 244.891Z" fill="#1C1569"/>
<path d="M141.193 240.752L140.956 240.371C141.112 240.275 144.789 238.001 146.48 237.892L146.508 238.34C144.929 238.442 141.23 240.729 141.193 240.752Z" fill="#1C1569"/>
<path d="M149.349 226.614L148.9 226.615C148.895 224.821 146.434 218.788 146.409 218.729L146.824 218.559C146.927 218.81 149.344 224.733 149.349 226.614Z" fill="#1C1569"/>
<path d="M154.617 224.31C154.045 222.582 148.309 209.425 148.251 209.293L148.663 209.113C148.899 209.655 154.465 222.423 155.042 224.169L154.617 224.31Z" fill="#1C1569"/>
<path d="M169.6 219.137C167.651 217.51 167.657 211.601 167.658 211.35L168.107 211.351C168.106 211.411 168.1 217.3 169.888 218.793L169.6 219.137Z" fill="#1C1569"/>
<path d="M175.38 226.573C171.124 222.448 170.977 212.162 170.973 211.726L171.422 211.721C171.422 211.826 171.572 222.257 175.693 226.25L175.38 226.573Z" fill="#1C1569"/>
<path d="M142.909 233.316L142.553 233.042C143.096 232.337 144.376 231.979 144.43 231.964L144.548 232.397C144.537 232.4 143.36 232.73 142.909 233.316Z" fill="#1C1569"/>
<path d="M146.339 252.824L146.211 252.394C146.45 252.323 170.21 245.126 177.851 234.692L178.214 234.956C170.484 245.512 146.579 252.752 146.339 252.824Z" fill="#1C1569"/>
<g opacity="0.65">
<path d="M176.39 230.485C177.544 231.537 177.941 232.622 178.052 233.44C173.883 236.344 159.791 245.68 155.15 242.736C149.676 239.267 159.156 229.373 163.983 227.543C168.211 225.939 172.553 225.215 175.288 228.003C175.305 228.793 175.552 229.722 176.39 230.485Z" fill="#7E98FD"/>
</g>
<path d="M160.863 265.413C160.858 265.414 160.078 265.793 158.633 266.406C153.921 268.41 142.125 272.937 127.059 275.169C120.234 276.185 112.735 276.729 104.918 276.351C104.918 276.364 103.715 276.244 101.952 275.858C99.7918 275.38 96.7933 274.502 94.1564 272.968C89.9711 270.537 86.6969 266.462 89.1436 259.752C89.7162 258.176 90.6113 256.448 91.8826 254.567C92.3583 253.861 92.8607 253.15 93.3907 252.438C93.7666 251.93 94.1512 251.421 94.5538 250.907C98.5304 245.781 103.633 240.514 108.914 235.581C111.443 233.22 114.018 230.93 116.528 228.772C120.337 225.499 124.005 222.519 127.175 220.022C128.665 218.841 130.048 217.773 131.279 216.828C133.888 214.823 135.836 213.379 136.766 212.674L136.766 212.669C137.032 212.47 137.21 212.328 137.302 212.253C137.315 212.239 137.328 212.229 137.341 212.22C137.35 212.211 137.359 212.202 137.363 212.197C137.363 212.197 137.362 212.196 137.367 212.201C137.444 212.323 138.671 214.204 139.984 217.046C140.749 218.719 141.544 220.719 142.153 222.888C142.304 223.426 142.446 223.977 142.566 224.534C142.697 225.121 142.814 225.714 142.909 226.313C143.534 230.314 143.257 234.569 140.927 238.221C140.931 238.329 119.972 252.38 119.388 257.653C119.425 257.66 119.465 257.667 119.501 257.671C119.618 257.684 119.821 257.699 120.104 257.715C120.271 257.727 120.46 257.737 120.681 257.747C123.21 257.875 129.173 258.032 135.92 257.696C142.533 257.362 149.904 256.553 155.545 254.773C156.273 254.548 156.973 254.302 157.637 254.038C157.637 254.038 157.816 254.74 158.09 255.794C158.29 256.559 158.538 257.511 158.806 258.516C159.026 259.347 159.258 260.224 159.487 261.055C160.103 263.264 160.671 265.192 160.863 265.413Z" fill="#6E53D8"/>
<path d="M158.808 258.516C144.477 263.62 106.029 270.81 94.1585 272.968C89.9732 270.537 86.6989 266.462 89.1457 259.752C89.7183 258.176 90.6134 256.448 91.8847 254.566C92.3604 253.861 92.8628 253.15 93.3927 252.438C93.7687 251.93 94.1533 251.421 94.5559 250.906L142.344 225.458L142.911 226.313C143.536 230.314 143.259 234.569 140.929 238.22C140.933 238.328 119.974 252.379 119.39 257.653C119.427 257.66 119.467 257.667 119.503 257.67C119.62 257.684 119.823 257.699 120.106 257.715C120.273 257.727 120.462 257.737 120.683 257.747C125.692 257.999 144.154 258.369 155.547 254.773C156.275 254.548 156.975 254.302 157.639 254.038C157.639 254.038 157.818 254.74 158.092 255.794C158.292 256.559 158.54 257.511 158.808 258.516Z" fill="#514ED1"/>
<path d="M143.403 257.108C143.054 257.148 142.705 257.185 142.356 257.22C142.433 257.212 142.503 257.205 142.575 257.194C142.852 257.17 143.125 257.141 143.403 257.108Z" fill="#909FFD"/>
<path d="M145.698 256.831C145.461 256.863 145.224 256.89 144.987 256.921C145.326 256.876 145.666 256.833 146.001 256.788C145.903 256.801 145.801 256.819 145.698 256.831Z" fill="#909FFD"/>
<path d="M149.458 256.242C149.391 256.253 149.329 256.266 149.262 256.277C149.267 256.277 149.266 256.272 149.266 256.272C149.346 256.261 149.428 256.248 149.507 256.231C149.494 256.237 149.476 256.237 149.458 256.242Z" fill="#909FFD"/>
<path d="M101.955 275.858C95.5536 274.446 81.8071 269.489 91.8851 254.566C92.3608 253.86 92.8632 253.15 93.3931 252.438C98.8706 252.834 107.696 254.665 109.638 262.222C111.17 268.2 106.56 272.842 101.955 275.858Z" fill="#191868"/>
<path d="M98.5174 253.297L98.1687 253.014C98.3276 252.817 114.277 233.234 128.733 221.064L129.022 221.406C114.6 233.549 98.6764 253.1 98.5174 253.297Z" fill="#1C1569"/>
<path d="M120.563 234.137L120.565 234.19C120.584 234.805 120.508 235.401 120.345 235.964C119.674 238.353 117.523 240.147 114.904 240.247C111.997 240.359 109.495 238.339 108.917 235.581C109.168 235.346 109.416 235.118 109.667 234.883C110.136 234.448 110.609 234.016 111.082 233.584C112.905 231.928 114.734 230.317 116.53 228.771C118.796 229.519 120.467 231.611 120.563 234.137Z" fill="#929EFE"/>
<path d="M120.56 234.191C120.579 234.806 120.502 235.402 120.34 235.965C120.173 235.95 120.006 235.915 119.842 235.863C119.256 235.683 118.747 235.29 118.421 234.759L116.824 232.142C116.719 231.976 116.566 231.855 116.38 231.796C116.162 231.727 115.925 231.759 115.727 231.875C115.552 231.99 115.419 232.161 115.373 232.365C115.323 232.573 115.358 232.783 115.468 232.967L117.065 235.587C117.799 236.799 117.41 238.382 116.199 239.124C115.602 239.484 114.869 239.589 114.188 239.408L114.007 239.348C113.447 239.159 112.974 238.772 112.667 238.276L110.751 235.369C110.646 235.189 110.47 235.056 110.261 235.005C110.053 234.96 109.843 234.99 109.659 235.1C109.571 235.162 109.488 235.228 109.429 235.321C109.383 235.075 109.671 235.126 109.662 234.884C110.131 234.448 110.604 234.017 111.077 233.585C111.699 233.75 112.244 234.165 112.584 234.713L114.18 237.334C114.286 237.5 114.443 237.619 114.625 237.676C114.843 237.744 115.085 237.712 115.278 237.597C115.453 237.487 115.586 237.316 115.632 237.107C115.682 236.899 115.652 236.688 115.537 236.504L113.941 233.889C113.207 232.677 113.595 231.094 114.807 230.351C115.438 229.963 116.208 229.871 116.917 230.095C117.513 230.279 118.016 230.664 118.342 231.195L119.952 233.815C120.048 233.978 120.205 234.097 120.388 234.157C120.442 234.177 120.502 234.189 120.56 234.191Z" fill="#DB05C0"/>
<path d="M119.435 272.771C112.267 273.406 106.922 271.93 106.851 271.916L106.944 271.476C107.002 271.489 110.91 272.734 119.329 272.342C126.769 271.996 139.671 268.257 157.75 263.305L157.844 263.842C154.477 264.546 129.38 271.889 119.435 272.771Z" fill="#1C1569"/>
<path d="M180.092 255.278C179.885 255.389 178.814 255.924 177.397 256.585C175.169 257.627 172.095 258.989 170.215 259.515C171.933 259.09 177.485 257.713 178.154 257.589C178.966 257.436 179.248 258.684 177.907 259.198C176.569 259.707 160.868 265.503 160.868 265.503C160.868 265.503 160.668 264.885 160.363 263.931C159.524 261.264 157.892 255.946 157.639 254.037C157.639 254.037 158.248 253.771 159.229 253.459C160.507 253.055 162.425 252.577 164.449 252.536C164.638 252.529 164.862 252.507 165.116 252.465L165.164 252.459C165.361 252.433 165.576 252.394 165.808 252.349C166.82 252.158 168.119 251.838 169.463 251.499C172.733 250.686 176.26 249.774 176.517 250.375C176.753 250.923 173.955 251.982 171.489 252.8C169.781 253.364 168.231 253.815 167.955 253.892C168.254 253.841 169.984 253.509 171.945 253.093C172.083 253.061 172.217 253.033 172.355 253C174.275 252.581 176.331 252.085 177.443 251.678C179.905 250.771 179.928 251.955 179.928 251.955C179.928 251.955 180.556 252.852 176.807 253.957C176.03 254.189 175.222 254.436 174.432 254.687C171.405 255.643 168.604 256.617 168.604 256.617C168.604 256.617 172.112 256.061 175.353 255.276C177.061 254.86 178.696 254.383 179.697 253.891C180.8 253.373 181.082 254.741 180.092 255.278Z" fill="#B5504E"/>
<path d="M168.065 249.967C167.328 251.374 165.807 252.349 165.807 252.349L165.164 252.459L165.116 252.465L159.229 253.459L159.202 253.465C159.202 253.465 165.746 250.285 167.389 248.61C167.456 248.607 168.802 248.555 168.065 249.967Z" fill="#B5504E"/>
<path d="M167.955 253.893C168.276 253.835 170.23 253.464 172.354 253.001L160.362 263.932C159.523 261.264 157.891 255.946 157.638 254.038C157.638 254.038 158.247 253.771 159.228 253.46L159.202 253.465C159.202 253.465 165.746 250.286 167.388 248.61C167.455 248.608 168.801 248.555 168.065 249.967C167.328 251.374 165.807 252.349 165.807 252.349C169.294 251.686 176.156 249.526 176.516 250.375C176.915 251.303 168.63 253.696 167.955 253.893Z" fill="#693741"/>
<path d="M171.488 252.8L169.461 251.498C172.732 250.685 176.258 249.773 176.515 250.374C176.752 250.923 173.954 251.982 171.488 252.8Z" fill="#D67B5F"/>
<path d="M176.806 253.957C176.029 254.189 175.221 254.436 174.431 254.687L171.944 253.093C172.081 253.061 172.216 253.033 172.354 253.001C174.274 252.581 176.33 252.085 177.442 251.678C179.904 250.771 179.927 251.955 179.927 251.955C179.927 251.955 180.555 252.852 176.806 253.957Z" fill="#D67B5F"/>
<path d="M180.09 255.278C179.883 255.389 178.812 255.924 177.395 256.585L175.35 255.276C177.059 254.86 178.694 254.383 179.695 253.891C180.798 253.373 181.079 254.741 180.09 255.278Z" fill="#D67B5F"/>
<path d="M160.862 265.413C160.857 265.413 160.077 265.793 158.631 266.406C157.496 262.564 156.154 257.234 155.544 254.773C156.271 254.548 156.972 254.302 157.636 254.038C157.636 254.038 157.815 254.74 158.089 255.794C158.89 258.885 160.509 265.009 160.862 265.413Z" fill="#490479"/>
<path d="M120.689 257.971C120.26 257.987 119.859 257.962 119.461 257.892L119.526 257.447C119.64 257.46 119.839 257.475 120.117 257.491L120.118 257.491C120.284 257.502 120.471 257.513 120.69 257.523L120.689 257.971Z" fill="#1C1569"/>
<path d="M140.928 238.22C140.932 238.328 119.974 252.379 119.39 257.652C114.289 256.532 117.109 251.361 126.45 242.985C135.791 234.608 141.902 224.271 141.902 224.271C141.902 224.271 145.702 228.963 140.928 238.22Z" fill="#3736B0"/>
<path d="M141.124 238.328L140.729 238.113C145.283 229.73 140.754 222.311 140.708 222.237L141.088 221.999C141.136 222.076 145.8 229.717 141.124 238.328Z" fill="#1C1569"/>
<path d="M158.092 255.794C149.043 261.491 129.125 262.511 123.868 261.424C120.052 260.632 119.884 258.738 120.105 257.715C124.32 257.971 146.117 258.594 157.638 254.037C157.638 254.037 157.817 254.739 158.092 255.794Z" fill="#7E98FD"/>
<path d="M143.912 221.917C143.325 222.299 142.736 222.623 142.153 222.888C140.917 223.456 139.698 223.772 138.517 223.902C133.606 224.437 129.329 221.722 127.175 220.022C131.822 216.353 135.395 213.709 136.766 212.673L136.766 212.669C136.944 212.523 137.123 212.381 137.302 212.253C137.315 212.239 137.328 212.229 137.341 212.22C137.35 212.211 137.359 212.201 137.363 212.197C137.363 212.197 137.363 212.196 137.367 212.2C141.462 209.232 146.677 209.436 146.677 209.436C146.677 209.436 146.778 209.406 146.969 209.349C148.556 213.114 149.337 218.376 143.912 221.917Z" fill="#221983"/>
<path d="M158.091 255.793C152.161 259.529 141.564 261.252 133.482 261.693C134.46 260.011 135.319 258.631 135.92 257.696C136.221 257.679 136.525 257.663 136.83 257.643C137.059 257.629 137.288 257.616 137.516 257.603C137.633 257.594 137.749 257.59 137.87 257.581L137.946 257.578C138.107 257.563 138.269 257.552 138.43 257.546C138.574 257.535 138.717 257.526 138.86 257.516C139.313 257.48 139.77 257.449 140.231 257.409C140.473 257.391 140.714 257.368 140.956 257.35L140.983 257.349C141.073 257.341 141.162 257.334 141.256 257.325C141.391 257.311 141.525 257.301 141.659 257.287C141.704 257.28 141.749 257.279 141.794 257.273C141.82 257.267 141.847 257.266 141.874 257.265C142.035 257.25 142.196 257.235 142.357 257.22C142.707 257.184 143.055 257.148 143.404 257.108C143.525 257.094 143.64 257.081 143.761 257.067C143.824 257.06 143.882 257.054 143.941 257.047C144.097 257.032 144.249 257.012 144.401 256.993C144.598 256.972 144.795 256.946 144.987 256.921C145.224 256.89 145.461 256.862 145.698 256.831C145.801 256.818 145.903 256.8 146.001 256.788C146.032 256.782 146.064 256.782 146.095 256.776C146.31 256.745 146.519 256.718 146.725 256.684C147.122 256.628 147.515 256.569 147.908 256.504C148.056 256.48 148.203 256.456 148.351 256.433C148.431 256.421 148.507 256.404 148.587 256.392C148.658 256.38 148.725 256.368 148.788 256.357C148.93 256.334 149.074 256.31 149.216 256.282C149.235 256.282 149.248 256.277 149.261 256.277C149.328 256.266 149.391 256.253 149.457 256.242C149.475 256.236 149.493 256.236 149.507 256.231C149.757 256.185 150.006 256.14 150.246 256.091C150.362 256.068 150.474 256.046 150.586 256.024C150.738 255.996 150.884 255.962 151.031 255.934C151.258 255.885 151.481 255.841 151.704 255.788C151.806 255.766 151.909 255.743 152.011 255.717C152.185 255.684 152.354 255.641 152.519 255.603C152.541 255.598 152.568 255.593 152.59 255.587C152.612 255.581 152.635 255.577 152.657 255.571C152.701 255.561 152.741 255.55 152.786 255.539C152.83 255.529 152.875 255.518 152.915 255.507C153.062 255.47 153.208 255.433 153.355 255.396C153.697 255.311 154.036 255.217 154.364 255.123C154.404 255.113 154.444 255.102 154.48 255.092C154.662 255.04 154.84 254.989 155.013 254.938C155.191 254.886 155.368 254.829 155.546 254.773C155.661 254.737 155.777 254.701 155.888 254.666C156.069 254.605 156.247 254.544 156.424 254.483C156.841 254.342 157.244 254.191 157.638 254.037C157.638 254.037 157.817 254.739 158.091 255.793Z" fill="#7EB2FF"/>
<path d="M141.012 257.344C141.092 257.341 141.178 257.334 141.258 257.326C141.163 257.334 141.075 257.341 140.985 257.35C140.993 257.345 141.003 257.344 141.012 257.344Z" fill="#514ED1"/>
<path d="M152.787 255.539C152.742 255.55 152.702 255.561 152.657 255.571C152.697 255.561 152.733 255.55 152.769 255.54L152.787 255.539Z" fill="#514ED1"/>
<path d="M141.01 257.344C141.229 257.322 141.444 257.304 141.659 257.287C141.525 257.301 141.391 257.312 141.256 257.326C141.176 257.333 141.09 257.341 141.01 257.344Z" fill="#7E98FD"/>
<path d="M142.575 257.193C142.973 257.156 143.367 257.114 143.761 257.067C143.64 257.081 143.524 257.095 143.403 257.108C143.054 257.148 142.706 257.184 142.357 257.22C142.195 257.235 142.034 257.25 141.873 257.265C142.11 257.243 142.342 257.216 142.575 257.193Z" fill="#7E98FD"/>
<path d="M149.458 256.242C149.391 256.253 149.328 256.266 149.262 256.277C149.267 256.277 149.266 256.272 149.266 256.272C149.332 256.265 149.395 256.253 149.458 256.242Z" fill="#7E98FD"/>
<path d="M166.789 193.283C167.002 198.849 164.229 203.839 159.896 206.701C157.627 208.203 154.936 209.118 152.02 209.23C151.078 209.267 150.155 209.217 149.257 209.089C142.035 208.068 136.358 202.002 136.069 194.462C135.744 185.98 142.355 178.836 150.841 178.511C159.323 178.185 166.463 184.802 166.789 193.283Z" fill="#7E98FD"/>
<path d="M166.315 197.708C166.299 197.767 166.288 197.826 166.268 197.885C165.284 201.53 162.988 204.659 159.895 206.7C157.626 208.203 154.934 209.118 152.019 209.23C151.077 209.266 150.154 209.216 149.256 209.089C145.299 208.531 141.806 206.455 139.409 203.452C139.23 203.234 139.06 203.008 138.898 202.776L164.585 193.601L166.315 197.708Z" fill="#BF3030"/>
<path d="M161.188 203.875C161.188 203.875 160.304 204.497 159.244 204.735C159.281 204.734 159.328 206.901 159.328 206.901L149.777 208.53L148.861 206.319L146.558 200.492L145.632 198.143L144.976 196.479L144.299 194.77C144.299 194.77 146.457 192.002 149.59 190.426C151.027 189.702 152.675 189.225 154.41 189.387C154.41 189.387 155.146 190.388 156.136 191.738C156.141 191.747 156.168 191.782 156.216 191.847C156.239 191.883 156.268 191.918 156.297 191.957C156.311 191.978 156.33 192.001 156.344 192.022C156.415 192.123 156.496 192.227 156.572 192.332C156.794 192.634 157.069 193.005 157.287 193.311C157.33 193.368 157.368 193.42 157.41 193.477C157.43 193.503 157.449 193.529 157.468 193.555C157.525 193.634 157.581 193.714 157.643 193.792C157.685 193.853 157.709 193.883 157.709 193.883C159.496 196.325 161.346 198.851 161.346 198.851C161.346 198.851 161.886 199.589 162.166 200.558C162.18 200.589 162.186 200.62 162.196 200.651C162.474 201.678 162.441 202.946 161.188 203.875Z" fill="#E45A53"/>
<path d="M160.435 188.905C160.476 191.249 157.711 193.883 157.711 193.883C157.711 193.883 157.687 193.853 157.645 193.792C157.602 193.735 157.545 193.651 157.47 193.556C157.451 193.529 157.432 193.503 157.412 193.477C157.374 193.425 157.332 193.368 157.289 193.311C157.071 193.006 156.796 192.634 156.574 192.332C156.489 192.219 156.413 192.11 156.346 192.022C156.332 192.001 156.313 191.979 156.299 191.957C156.27 191.913 156.241 191.878 156.218 191.847C156.17 191.782 156.143 191.747 156.138 191.738C153.535 191.466 151.732 192.455 150.375 193.509C149.926 193.858 149.526 194.22 149.161 194.54C149.061 194.629 148.97 194.713 148.897 194.801C148.544 195.205 148.435 195.601 148.443 195.942C148.46 196.615 148.927 197.095 148.927 197.095C148.927 197.095 151.186 199.407 150.633 199.986C150.081 200.568 149.639 200.307 149.639 200.307L149.621 200.299L148.168 199.685L146.56 200.492L146.512 200.517L147.62 203.182C147.62 203.182 143.626 200.694 143.622 200.605C142.114 199.8 141.85 198.665 141.933 197.777C142.006 196.993 142.347 196.404 142.347 196.404C142.347 196.404 139.797 195.627 140.171 192.85C140.272 192.083 140.513 191.462 140.845 190.96C142.326 188.711 145.575 188.855 145.539 188.875C145.386 186.76 146.275 185.927 147.098 185.603L147.103 185.603C147.767 185.344 148.389 185.419 148.389 185.419C148.581 183.642 149.424 181.014 152.416 180.791C157.752 180.411 157.627 186.538 157.627 186.538C158.362 185.917 159.057 186.106 159.057 186.106C159.057 186.106 160.148 186.225 160.42 188.632C160.432 188.722 160.437 188.811 160.435 188.905Z" fill="#310141"/>
<path d="M160.435 188.905C155.272 190.15 149.949 187.439 147.103 185.603C147.767 185.344 148.388 185.419 148.388 185.419C148.458 184.774 148.614 184.013 148.927 183.296C149.482 182.044 150.512 180.931 152.416 180.791C156.582 180.496 157.419 184.17 157.584 185.789C157.633 186.245 157.626 186.538 157.626 186.538C158.362 185.917 159.057 186.105 159.057 186.105C159.057 186.105 160.147 186.225 160.42 188.632C160.432 188.721 160.436 188.811 160.435 188.905Z" fill="#740351"/>
<path d="M161.189 203.874C161.189 203.874 160.305 204.497 159.245 204.735C159.281 204.734 159.328 206.901 159.328 206.901L149.778 208.53L148.862 206.319L146.559 200.491L148.167 199.685L149.619 200.298L149.638 200.306C149.638 200.306 150.08 200.568 150.632 199.985C151.184 199.407 148.926 197.095 148.926 197.095C148.926 197.095 148.459 196.615 148.442 195.941C148.433 195.601 148.543 195.205 148.896 194.801C148.969 194.712 149.186 194.408 149.16 194.539C149.024 195.223 151.5 200.738 157.115 203.012C159.121 203.823 161.244 202.615 162.166 200.558C162.181 200.589 162.187 200.619 162.197 200.651C162.475 201.678 162.442 202.946 161.189 203.874Z" fill="#5E2C30"/>
<path d="M153.464 196.562C153.661 196.923 153.683 197.292 153.513 197.385C153.342 197.479 153.042 197.262 152.844 196.901C152.647 196.54 152.624 196.171 152.795 196.077C152.966 195.984 153.266 196.201 153.464 196.562Z" fill="#442620"/>
<path d="M157.328 194.59C157.526 194.951 157.548 195.32 157.377 195.414C157.206 195.507 156.906 195.29 156.709 194.929C156.511 194.568 156.489 194.199 156.66 194.106C156.83 194.012 157.13 194.229 157.328 194.59Z" fill="#442620"/>
<path d="M156.648 200.126C155.835 200.157 155.139 199.923 155.125 199.918C155.067 199.898 155.035 199.834 155.056 199.776C155.076 199.717 155.139 199.687 155.198 199.705C155.304 199.742 157.808 200.582 158.675 198.626C158.7 198.57 158.766 198.545 158.823 198.569C158.88 198.594 158.904 198.661 158.88 198.718C158.403 199.794 157.466 200.094 156.648 200.126Z" fill="#442620"/>
<path d="M154.26 193.997L156.935 197.027C157.061 197.159 157.096 197.356 157.017 197.52C156.868 197.83 156.758 198.288 156.296 198.52L154.26 193.997Z" fill="#5E2C30"/>
<path d="M154.716 199.067C154.43 199.292 153.974 199.274 153.43 199.014C152.86 198.744 152.273 198.247 151.776 197.616C150.785 196.355 150.455 194.89 151.057 194.416C151.18 194.319 151.334 194.271 151.509 194.264C152.194 194.238 153.208 194.864 153.998 195.867C154.495 196.499 154.839 197.187 154.968 197.804C155.091 198.395 155.001 198.843 154.716 199.067ZM159.208 196.803C158.923 197.027 158.465 197.008 157.92 196.75C157.35 196.479 156.764 195.982 156.267 195.351C155.77 194.72 155.426 194.033 155.297 193.415C155.174 192.824 155.264 192.376 155.549 192.152C155.671 192.055 155.824 192.006 155.999 191.999C156.684 191.973 157.699 192.6 158.489 193.603C158.986 194.235 159.33 194.922 159.458 195.54C159.581 196.131 159.493 196.579 159.208 196.803ZM159.678 195.495C159.543 194.844 159.183 194.124 158.665 193.465C157.561 192.063 156.132 191.408 155.41 191.975C155.054 192.255 154.936 192.782 155.077 193.46C155.187 193.986 155.448 194.555 155.814 195.101L154.368 196.002C154.304 195.911 154.244 195.818 154.175 195.73C153.072 194.327 151.641 193.671 150.919 194.239C150.196 194.808 150.496 196.351 151.6 197.754C151.658 197.828 151.721 197.893 151.782 197.964L148.309 199.726L148.411 199.927L151.933 198.139C152.372 198.613 152.857 198.99 153.333 199.217C153.677 199.38 153.995 199.457 154.271 199.446C154.497 199.437 154.695 199.37 154.855 199.244C155.211 198.964 155.328 198.437 155.187 197.759C155.082 197.255 154.84 196.71 154.498 196.184L155.944 195.284C155.994 195.353 156.037 195.423 156.091 195.489C156.608 196.148 157.223 196.667 157.824 196.953C158.167 197.116 158.486 197.193 158.762 197.182C158.988 197.173 159.185 197.106 159.345 196.98C159.701 196.7 159.82 196.173 159.678 195.495Z" fill="#5CFF85"/>
<path d="M159.896 206.7C157.626 208.203 154.935 209.118 152.02 209.23C151.078 209.266 150.155 209.216 149.256 209.089C149.299 208.683 148.33 205.904 148.33 205.904C148.33 205.904 148.46 205.904 148.698 205.903C150.244 205.907 156.234 205.849 159.258 204.825C159.404 204.774 159.542 204.724 159.67 204.669L159.896 206.7Z" fill="#6E0576"/>
<path d="M152.029 209.455C151.092 209.491 150.149 209.443 149.226 209.312C141.761 208.257 136.134 202.015 135.844 194.471C135.514 185.877 142.238 178.617 150.832 178.287C159.425 177.957 166.682 184.681 167.012 193.275C167.223 198.767 164.609 203.856 160.02 206.888C157.648 208.457 154.884 209.345 152.029 209.455ZM150.85 178.735C142.503 179.056 135.972 186.106 136.293 194.454C136.574 201.78 142.04 207.842 149.288 208.867C150.186 208.994 151.102 209.041 152.011 209.006C154.785 208.9 157.47 208.038 159.773 206.513C164.23 203.569 166.769 198.627 166.565 193.292C166.244 184.945 159.194 178.415 150.85 178.735Z" fill="white"/>
<path d="M244.08 193.254L202.728 194.841L202.627 192.216L243.979 190.629L244.08 193.254Z" fill="#23863C"/>
<path d="M202.629 192.216L221.288 190.251L254.304 188.984L254.385 191.085L244.082 193.255L243.981 190.629L202.629 192.216Z" fill="#5CFF85"/>
<path d="M253.554 169.424L220.865 170.678L221.616 190.239L254.304 188.984L253.554 169.424Z" fill="#4DFF72"/>
<path d="M252.731 170.244L221.75 171.433L222.47 190.206L253.452 189.017L252.731 170.244Z" fill="#0F2133"/>
<mask id="mask0_805_625" style="mask-type:luminance" maskUnits="userSpaceOnUse" x="171" y="154" width="133" height="37">
<path d="M303.96 154.397L171.049 159.393L221.935 190.237L253.373 189.253L303.96 154.397Z" fill="url(#paint1_linear_805_625)"/>
</mask>
<g mask="url(#mask0_805_625)">
<g opacity="0.72">
<path d="M303.96 154.397L171.049 159.393L221.935 190.237L253.373 189.253L303.96 154.397Z" fill="#5CFF85"/>
</g>
</g>
<path d="M230.127 146.821L257.011 116.546L271.701 129.823L250.488 156.219L238.683 159.647L230.127 146.821Z" fill="#FFB7AB"/>
<path d="M228.463 144.327L238.683 159.647L257.446 154.2L249.577 172.962L221.014 163.394L228.463 144.327Z" fill="#FF635F"/>
<path d="M249.56 173.105C249.55 173.103 249.541 173.102 249.531 173.098L220.967 163.529C220.93 163.516 220.9 163.49 220.882 163.453C220.866 163.418 220.864 163.377 220.879 163.34L228.329 144.273C228.348 144.223 228.394 144.189 228.447 144.183C228.5 144.179 228.552 144.202 228.581 144.246L238.743 159.479L257.404 154.06C257.458 154.047 257.516 154.062 257.552 154.102C257.588 154.144 257.598 154.203 257.577 154.254L249.71 173.017C249.684 173.077 249.622 173.112 249.56 173.105ZM221.202 163.304L249.496 172.783L257.196 154.42L238.722 159.784C238.662 159.8 238.597 159.778 238.562 159.726L228.496 144.634L221.202 163.304Z" fill="#FFB7AB"/>
<path d="M221.103 163.504L220.924 163.28L234.063 152.742L234.242 152.966L221.103 163.504Z" fill="#FFB7AB"/>
<path d="M249.436 172.984L247.057 157.179L247.34 157.137L249.72 172.941L249.436 172.984Z" fill="#FFB7AB"/>
<path d="M228.546 144.444L228.38 144.209L238.705 136.951L238.871 137.186L228.546 144.444Z" fill="#FFB7AB"/>
<path d="M257.301 154.204L257.061 147.865L257.348 147.854L257.589 154.193L257.301 154.204Z" fill="#FFB7AB"/>
<path d="M262.225 141.645C262.144 141.591 254.053 136.303 251.152 134.517C248.939 133.156 247.595 131.29 247.464 129.401C247.335 127.543 248.31 125.741 250.363 124.046C255.206 120.046 262.73 121.509 262.806 121.526L262.717 121.965C262.642 121.952 255.326 120.53 250.649 124.392C248.715 125.989 247.793 127.664 247.911 129.37C248.033 131.113 249.299 132.849 251.388 134.135C254.294 135.924 262.39 141.216 262.471 141.269L262.225 141.645Z" fill="#161B70"/>
<path d="M266.719 126.56C261.433 125.935 253.307 121.413 252.937 121.205L253.156 120.814C253.253 120.868 262.895 126.241 267.917 126.182L267.921 126.632C267.542 126.635 267.139 126.61 266.719 126.56Z" fill="#161B70"/>
<path d="M258.17 146.738C258.13 146.718 254.132 144.762 249.921 141.849C247.622 140.258 246.528 137.126 247.375 134.565C248.357 131.597 251.626 129.984 256.345 130.143C260.521 130.28 263.407 131.34 264.919 133.283C266.395 135.182 265.976 137.203 265.957 137.288L265.518 137.192C265.523 137.174 265.909 135.281 264.559 133.551C263.131 131.722 260.361 130.73 256.33 130.591C251.824 130.441 248.715 131.94 247.801 134.705C247.013 137.085 248.035 139.997 250.177 141.479C254.357 144.373 258.327 146.314 258.367 146.333L258.17 146.738Z" fill="#161B70"/>
<path d="M259.04 145.564C258.93 145.468 247.83 136.05 237.943 138.293L237.844 137.856C247.951 135.566 259.221 145.126 259.333 145.223L259.04 145.564Z" fill="#161B70"/>
<path d="M242.123 158.859C238.942 158.348 236.881 156.123 236.142 155.19C235.58 154.479 235.162 152.975 235.498 151.221C235.631 150.521 235.906 149.682 236.449 148.831C234.051 146.613 232.527 144.341 232.409 144.162L232.783 143.915C232.811 143.957 234.328 146.219 236.719 148.439C237.292 147.664 238.105 146.896 239.254 146.232C243.793 143.616 250.262 146.355 251.901 148.779C252.535 149.714 252.629 150.656 252.169 151.434C251.298 152.902 248.674 153.508 244.781 153.138C241.711 152.86 238.931 151.05 236.787 149.138C236.306 149.911 236.06 150.67 235.938 151.306C235.631 152.912 236.011 154.301 236.494 154.911C237.201 155.803 239.168 157.93 242.193 158.415L242.123 158.859ZM237.054 148.744C239.158 150.63 241.881 152.423 244.823 152.691C248.48 153.038 251.017 152.497 251.783 151.205C252.15 150.586 252.06 149.814 251.53 149.031C250.01 146.785 243.733 144.169 239.478 146.622C238.37 147.26 237.595 148 237.054 148.744Z" fill="#161B70"/>
<path d="M237.384 157.665L237.102 157.316C237.156 157.272 242.652 152.894 246.438 157.231L246.1 157.526C242.601 153.517 237.596 157.493 237.384 157.665Z" fill="#161B70"/>
<path d="M194.277 156.354L193.874 157.615L205.597 179.757L227.385 165.863L227.642 164.468L205.872 178.588L194.277 156.354Z" fill="#C2563E"/>
<path d="M227.642 164.468L205.873 178.588L194.278 156.354L215.586 143.928L227.642 164.468Z" fill="#FBD5A6"/>
<path d="M207.978 151.653C208.441 151.588 208.95 151.579 209.504 151.629C209.95 151.66 210.264 151.626 210.445 151.528C210.58 151.454 210.643 151.318 210.633 151.118C210.622 150.919 210.546 150.633 210.402 150.262L210.922 149.979C211.322 150.895 212.122 152.453 213.318 154.655L212.798 154.938C212.043 153.765 211.133 152.927 210.067 152.422C209.002 151.917 207.887 151.981 206.726 152.612C205.912 153.055 205.381 153.661 205.135 154.429C204.889 155.198 204.975 155.967 205.393 156.736C205.705 157.309 206.107 157.735 206.601 158.014C207.094 158.293 207.627 158.472 208.198 158.553C208.77 158.633 209.559 158.702 210.567 158.759L211.444 158.81C212.714 158.882 213.745 158.991 214.538 159.136C215.33 159.282 216.047 159.551 216.691 159.944C217.334 160.336 217.865 160.917 218.283 161.686C219.03 163.058 219.153 164.364 218.654 165.602C218.155 166.841 217.211 167.837 215.824 168.592C215.1 168.985 214.467 169.231 213.926 169.33C213.384 169.43 212.831 169.466 212.27 169.439C211.823 169.408 211.51 169.443 211.329 169.541C211.193 169.615 211.13 169.752 211.141 169.951C211.152 170.15 211.228 170.435 211.372 170.807L210.852 171.089C210.461 170.228 209.508 168.402 207.991 165.611L208.511 165.329C209.445 166.795 210.494 167.826 211.659 168.423C212.824 169.021 214.077 168.955 215.42 168.225C216.235 167.782 216.791 167.152 217.089 166.336C217.387 165.519 217.266 164.613 216.725 163.618C216.266 162.774 215.594 162.211 214.708 161.93C213.823 161.649 212.569 161.471 210.946 161.396C209.76 161.338 208.778 161.246 207.998 161.123C207.218 161 206.493 160.735 205.822 160.328C205.151 159.921 204.598 159.317 204.164 158.518C203.475 157.252 203.355 156.061 203.805 154.948C204.255 153.834 205.082 152.948 206.29 152.292C206.953 151.932 207.516 151.719 207.978 151.653Z" fill="#FF635F"/>
<path d="M289.144 164.872L289.081 164.676L296.334 162.387L295.759 161.113L289.889 158.929L289.961 158.736L295.911 160.95L296.618 162.514L296.507 162.548L289.144 164.872Z" fill="#FFB7AB"/>
<path d="M289.975 158.726L242.713 161.451L242.806 167.967L289.17 164.857L289.975 158.726Z" fill="#FFB7AB"/>
<path d="M242.751 163.641L242.734 163.362L289.741 160.506L289.704 160.788L242.751 163.641Z" fill="#161B70"/>
<path d="M242.782 165.878L242.764 165.599L289.479 162.496L289.446 162.779L242.782 165.878Z" fill="#161B70"/>
<path d="M294.724 160.54L293.927 163.381L294.769 163.146L297.82 162.114C298.034 162.035 298.028 161.649 297.812 161.576L294.724 160.54Z" fill="#FF635F"/>
<path d="M90.5417 353.059C90.668 353.052 90.7913 353.03 90.9203 353.036C90.9487 353.037 90.9615 353.037 90.9874 353.038C91.3451 352.654 91.7234 352.282 92.0855 351.9C92.4145 351.552 92.7736 351.238 93.1237 350.915C92.6661 350.387 92.0204 349.717 91.1669 349.008C90.0622 348.103 88.6231 347.14 86.8294 346.393C86.3598 346.193 85.8597 346.009 85.3394 345.844C80.2066 344.208 76.2327 340.577 74.9202 335.919C74.7929 335.466 74.1317 335.537 74.1061 336.012C73.9826 338.467 73.6442 342.116 78.5507 345.898C79.8862 346.933 81.6111 347.976 83.8335 349.005C84.5917 349.357 85.281 349.688 85.9082 350.009C88.2553 351.199 89.7383 352.165 90.6449 352.951C90.6058 352.991 90.5728 353.026 90.5417 353.059Z" fill="#8396F4"/>
<g opacity="0.78">
<path d="M93.1615 350.957C92.703 350.421 92.042 349.733 91.1668 349.007C90.106 349.197 88.7094 349.376 87.163 348.191C85.3979 346.842 79.9685 344.917 78.5493 345.899C79.8861 346.934 81.6102 347.974 83.8352 349.004C87.4179 350.668 89.4908 351.957 90.6446 352.954C91.8083 353.789 92.5663 353.646 93.038 353.26C93.4478 352.926 94.5293 352.06 93.1615 350.957Z" fill="#4F4FC8"/>
</g>
<path d="M95.015 369.817L95.0053 369.817L88.418 369.654L88.1488 369.646C87.5727 369.636 87.0344 369.959 86.7966 370.492C86.1132 371.982 84.413 374.929 81.3929 375.573C79.4672 375.986 78.3647 375.167 77.7402 374.189C77.74 374.184 77.7351 374.185 77.7351 374.185C77.4586 373.75 77.2762 373.282 77.1547 372.874C76.9108 372.064 77.4331 371.218 78.2832 371.117C78.7028 371.062 79.2551 371.063 79.9785 371.154C82.5146 371.484 84.3265 367.406 85.0611 365.98C85.3019 365.525 85.7255 365.206 86.2247 365.095L91.523 363.966L93.754 363.493L94.7101 363.287L94.9263 367.969L95.015 369.817Z" fill="#9CABF6"/>
<g opacity="0.78">
<path d="M92.0038 369.935L87.1599 369.818C87.1085 368.537 88.7088 367.015 89.648 366.066C90.3622 365.342 90.4006 364.645 90.2657 364.129L90.7409 364.025L90.8073 364.329L92.0038 369.935Z" fill="#4F4FC8"/>
</g>
<path d="M150.114 340.855L141.469 339.868C139.975 339.702 138.474 340.066 137.222 340.907L134.116 342.994L128.904 346.488L128.617 346.759C128.578 345.606 128.368 344.828 128.368 344.828C128.269 344.381 128.163 343.901 128.051 343.388C127.447 340.63 126.662 337.084 126.148 334.797C126.153 334.787 126.152 334.782 126.147 334.777C125.838 333.399 125.633 332.482 125.623 332.482C127.963 330.666 129.01 327.837 129.079 327.638C129.079 327.633 129.084 327.633 129.084 327.628C129.732 325.971 129.271 322.853 128.996 321.386C128.904 320.891 128.834 320.582 128.834 320.582C128.803 319.806 128.481 319.191 128.162 318.763C127.838 318.339 127.24 318.257 126.826 318.59L124.016 320.881C122.319 322.949 119.751 321.695 119.751 321.695C119.751 321.695 117.769 320.004 114.7 321.096L114.716 319.709C114.716 319.709 117.326 320.2 118.913 318.16L115.329 315.008C115.329 315.008 114.751 314.355 113.107 315.586C111.468 316.813 110.688 317.588 110.688 317.588C110.688 317.588 110.665 317.607 110.628 317.638C110.442 317.794 109.894 318.368 110.265 319.231C110.439 319.627 110.97 320.329 111.343 321.116C111.378 321.172 111.395 321.224 111.421 321.275C110.637 320.616 109.818 320.04 109.278 319.745C109.013 319.597 108.762 319.545 108.533 319.569C107.505 319.663 106.786 321.223 106.046 322.374C105.856 322.674 105.733 322.958 105.671 323.21C105.671 323.21 105.671 323.219 105.672 323.223C105.436 324.163 105.905 324.749 105.905 324.749L110.047 327.912L110.26 328.076L110.27 328.081C110.272 328.128 110.273 328.153 110.273 328.153C110.289 328.435 110.325 328.707 110.379 328.983C110.379 329.007 110.384 329.031 110.39 329.055C110.534 329.759 110.777 330.44 111.051 331.047C111.23 331.453 111.428 331.823 111.613 332.152C111.877 332.621 112.118 333.018 112.322 333.423C112.847 334.438 113.151 335.443 113.088 337.479C113.004 340.164 111.457 341.752 110.168 342.614L110.163 342.614C109.214 343.252 108.409 343.49 108.409 343.49L100.06 346.439C97.3576 347.016 95.3099 348.244 93.6259 350.103C92.9962 351.158 92.2865 352.156 91.6454 353.208C91.5178 353.417 91.3821 353.608 91.2393 353.783C91.2091 353.857 91.1938 353.899 91.1938 353.899C90.1965 356.304 89.6735 359.533 90.2508 362.197L91.008 365.773L91.0777 366.077L92.2718 371.685L92.5664 373.054L93.2468 376.25L90.5573 379.884C89.8013 380.898 89.8919 382.309 90.7823 383.213C92.9836 385.47 96.916 389.524 98.2078 390.988C98.4691 391.285 98.5244 391.695 98.3851 392.055C97.871 393.347 98.3312 394.427 99.1332 395.042C100.038 395.731 101.3 395.147 101.3 395.147C103.796 393.637 103.84 391.731 103.553 390.567C103.41 389.992 103.102 389.473 102.696 389.038C101.087 387.328 96.6309 381.228 96.7764 381.14C103.121 378.837 105.334 374.696 105.938 370.743C106.287 368.451 106.097 366.218 105.853 364.448C105.809 364.201 105.777 363.971 105.744 363.742C106.151 363.741 106.558 363.729 106.961 363.732C108.644 363.722 110.204 363.732 111.644 363.66C114.665 363.519 117.154 363.016 119.114 361.182C119.114 361.182 119.119 361.182 119.124 361.186C119.199 361.246 119.67 361.62 120.527 362.075C122.16 362.945 125.271 364.116 129.899 363.848C133.278 363.651 135.598 361.461 136.749 360.503C137.213 360.12 137.883 360.103 138.368 360.463C139.578 361.349 141.836 362.947 143.81 363.971C145.235 364.715 146.667 364.312 147.742 363.732C148.146 363.505 148.501 363.26 148.785 363.037C149.189 362.714 149.222 362.113 148.839 361.764L142.208 355.613C141.789 355.226 141.207 355.063 140.656 355.19L131.801 356.27C131.252 356.325 130.737 356.307 130.255 356.231C130.004 356.191 129.767 356.131 129.536 356.064C129.841 355.754 132.329 353.212 134.726 350.778C136.57 348.915 138.359 347.116 139.043 346.465C140.572 345.003 143.493 345.841 145.894 346.133C146.202 346.173 146.513 346.161 146.823 346.1C149.23 345.615 150.198 344.152 150.57 342.909C150.715 342.457 150.775 342.028 150.8 341.691C150.831 341.268 150.528 340.9 150.114 340.855Z" fill="#8396F4"/>
<path d="M120.066 345.423C119.947 345.381 119.821 345.449 119.783 345.567L119.19 347.391C119.152 347.509 119.215 347.636 119.333 347.674C119.359 347.684 119.386 347.687 119.412 347.686C119.503 347.682 119.588 347.621 119.617 347.53L120.21 345.706C120.248 345.588 120.184 345.461 120.066 345.423Z" fill="#4F4FC8"/>
<path d="M118.809 346.023C118.689 345.982 118.563 346.05 118.526 346.166L117.932 347.99C117.894 348.108 117.958 348.235 118.076 348.273C118.102 348.283 118.129 348.286 118.155 348.285C118.246 348.281 118.33 348.22 118.359 348.129L118.953 346.305C118.991 346.187 118.927 346.061 118.809 346.023Z" fill="#4F4FC8"/>
<path d="M106.574 349.32C106.455 349.277 106.329 349.347 106.29 349.465L105.697 351.289C105.658 351.407 105.723 351.534 105.841 351.572C105.867 351.582 105.893 351.585 105.919 351.584C106.01 351.58 106.094 351.52 106.124 351.428L106.718 349.604C106.756 349.486 106.692 349.359 106.574 349.32Z" fill="#4F4FC8"/>
<path d="M105.316 349.919C105.198 349.878 105.07 349.946 105.033 350.064L104.439 351.888C104.401 352.007 104.465 352.133 104.583 352.171C104.609 352.181 104.635 352.183 104.661 352.182C104.752 352.178 104.837 352.119 104.866 352.027L105.46 350.203C105.498 350.084 105.434 349.958 105.316 349.919Z" fill="#4F4FC8"/>
<path d="M94.9898 353.585C94.8706 353.542 94.7447 353.611 94.7065 353.728L94.1125 355.553C94.0744 355.672 94.1386 355.798 94.2567 355.836C94.283 355.846 94.3098 355.849 94.3357 355.847C94.427 355.844 94.5104 355.783 94.5399 355.692L95.1339 353.867C95.172 353.749 95.1079 353.623 94.9898 353.585Z" fill="#4F4FC8"/>
<path d="M95.9829 355.93C95.8646 355.887 95.737 355.956 95.6997 356.074L95.1057 357.898C95.0675 358.016 95.1317 358.142 95.2498 358.18C95.2761 358.189 95.3029 358.192 95.3288 358.191C95.4201 358.188 95.5036 358.129 95.5331 358.037L96.1271 356.213C96.1652 356.095 96.101 355.968 95.9829 355.93Z" fill="#4F4FC8"/>
<path d="M96.6325 376.52C96.5126 376.477 96.3866 376.547 96.3492 376.664L95.7561 378.489C95.7179 378.607 95.7821 378.733 95.9002 378.771C95.9265 378.78 95.9525 378.783 95.9784 378.782C96.0698 378.779 96.154 378.719 96.1835 378.628L96.7767 376.803C96.8148 376.685 96.7506 376.558 96.6325 376.52Z" fill="#4F4FC8"/>
<path d="M102.681 367.091C102.562 367.049 102.436 367.115 102.398 367.234L101.804 369.059C101.766 369.177 101.83 369.303 101.948 369.341C101.974 369.35 102 369.353 102.026 369.352C102.118 369.349 102.202 369.29 102.231 369.197L102.825 367.373C102.863 367.255 102.799 367.129 102.681 367.091Z" fill="#4F4FC8"/>
<path d="M94.4919 377.827C94.372 377.784 94.2468 377.853 94.2086 377.97L93.6154 379.794C93.5773 379.913 93.6414 380.039 93.7596 380.077C93.7858 380.086 93.8119 380.089 93.8377 380.088C93.9291 380.085 94.0133 380.025 94.0428 379.933L94.636 378.109C94.6742 377.991 94.61 377.865 94.4919 377.827Z" fill="#4F4FC8"/>
<path d="M97.8424 367.47C97.7212 367.496 97.6442 367.616 97.6701 367.737L98.0709 369.613C98.0939 369.722 98.1915 369.795 98.2991 369.791C98.312 369.79 98.3249 369.789 98.3377 369.786C98.4589 369.759 98.536 369.641 98.51 369.52L98.1092 367.643C98.0833 367.521 97.9618 367.44 97.8424 367.47Z" fill="#4F4FC8"/>
<path d="M97.0551 368.62C96.9339 368.647 96.8561 368.766 96.8819 368.886L97.2835 370.763C97.3065 370.872 97.4042 370.945 97.5117 370.941C97.5246 370.94 97.5375 370.939 97.5504 370.936C97.6716 370.91 97.7486 370.791 97.7227 370.669L97.3219 368.793C97.2959 368.67 97.1763 368.595 97.0551 368.62Z" fill="#4F4FC8"/>
<path d="M123.401 356.651C123.445 356.688 123.498 356.704 123.552 356.702C123.613 356.7 123.674 356.671 123.717 356.618C123.795 356.522 123.781 356.382 123.685 356.303L122.199 355.09C122.103 355.011 121.96 355.025 121.883 355.123C121.804 355.219 121.819 355.36 121.915 355.438L123.401 356.651Z" fill="#4F4FC8"/>
<path d="M122.302 356.479C122.206 356.401 122.066 356.415 121.986 356.511C121.908 356.608 121.922 356.75 122.018 356.828L123.504 358.041C123.549 358.078 123.602 358.094 123.655 358.092C123.717 358.09 123.778 358.062 123.82 358.01C123.899 357.913 123.884 357.772 123.788 357.693L122.302 356.479Z" fill="#4F4FC8"/>
<path d="M130.23 360.063L128.745 358.849C128.648 358.77 128.506 358.785 128.428 358.881C128.349 358.978 128.364 359.118 128.46 359.197L129.946 360.411C129.991 360.447 130.044 360.464 130.097 360.462C130.159 360.459 130.22 360.431 130.263 360.379C130.341 360.282 130.327 360.142 130.23 360.063Z" fill="#4F4FC8"/>
<path d="M106.791 352.909C106.693 352.83 106.552 352.844 106.474 352.942C106.395 353.038 106.409 353.179 106.506 353.257L107.992 354.47C108.037 354.507 108.09 354.523 108.143 354.521C108.205 354.519 108.266 354.49 108.308 354.438C108.387 354.341 108.373 354.201 108.276 354.122L106.791 352.909Z" fill="#4F4FC8"/>
<path d="M121.896 326.611C121.55 326.625 121.345 326.608 121.335 326.607C121.212 326.596 121.122 326.486 121.134 326.363C121.145 326.24 121.25 326.143 121.378 326.161C121.424 326.165 125.927 326.528 128.924 321.935C128.992 321.832 129.131 321.802 129.235 321.87C129.339 321.938 129.368 322.077 129.3 322.181C126.79 326.026 123.254 326.557 121.896 326.611Z" fill="#4F4FC8"/>
<path d="M118.454 323.796C118.467 324.141 118.199 324.432 117.854 324.446C117.509 324.46 117.218 324.191 117.204 323.846C117.19 323.501 117.458 323.209 117.804 323.195C118.149 323.182 118.44 323.451 118.454 323.796Z" fill="#0F2133"/>
<path d="M126.86 318.567L124.019 320.88C124.019 320.88 126.568 322.796 128.834 320.584C128.834 320.584 128.853 319.628 128.117 318.696C127.811 318.31 127.241 318.256 126.86 318.567Z" fill="#0F2133"/>
<path d="M115.719 324.756C115.629 324.76 115.541 324.707 115.503 324.62C114.695 322.738 115.743 322.04 115.788 322.012C115.892 321.946 116.032 321.975 116.098 322.08C116.165 322.184 116.135 322.322 116.032 322.388C116.001 322.41 115.267 322.93 115.916 324.442C115.965 324.556 115.912 324.689 115.799 324.737C115.773 324.749 115.746 324.755 115.719 324.756Z" fill="#4F4FC8"/>
<path d="M110.632 325.384C110.64 325.355 110.644 325.337 110.644 325.337L110.649 325.336C110.645 325.356 110.641 325.369 110.632 325.384Z" fill="#8396F4"/>
<g opacity="0.78">
<path d="M131.046 356.076C131.025 356.075 128.959 355.998 126.883 354.294L126.741 354.468L126.834 354.25C126.547 354.011 126.273 353.751 126.013 353.472C127.843 351.764 128.456 349.657 128.589 347.952C128.734 346.171 128.368 344.828 128.368 344.828C128.269 344.381 128.163 343.901 128.051 343.388C127.516 340.946 126.84 337.888 126.335 335.631C125.925 333.792 125.63 332.484 125.622 332.485C125.622 332.485 125.607 332.496 125.592 332.509C125.609 332.494 125.623 332.482 125.623 332.482C127.963 330.666 129.01 327.837 129.079 327.638C125.755 333.499 118.868 330.767 116.159 328.396C113.963 326.471 111.306 327.353 110.383 327.752C110.391 327.222 110.445 326.802 110.445 326.802C110.445 326.802 110.57 325.731 109.917 325.073C110.734 325.25 111.631 325.373 112.481 325.339C112.874 325.323 113.258 325.275 113.617 325.181C113.838 325.123 114.025 324.973 114.128 324.768C114.235 324.558 114.246 324.313 114.159 324.093C113.96 323.591 113.5 322.837 112.49 321.894C113.47 321.327 114.702 321.098 114.702 321.098L114.718 319.712C111.827 319.696 110.802 317.896 110.802 317.896L110.629 317.639C110.444 317.796 109.897 318.37 110.267 319.231C110.437 319.621 110.959 320.315 111.332 321.093C111.303 321.107 111.269 321.113 111.248 321.14C111.172 321.238 111.188 321.378 111.286 321.455C111.524 321.641 111.733 321.818 111.929 321.99C111.998 322.097 112.047 322.177 112.047 322.187C112.065 322.174 112.085 322.163 112.103 322.149C113.108 323.068 113.554 323.787 113.741 324.259C113.781 324.359 113.775 324.47 113.727 324.565C113.681 324.656 113.602 324.721 113.504 324.746C111.071 325.382 107.274 323.794 107.236 323.778C107.123 323.731 106.99 323.782 106.942 323.897C106.416 323.5 105.982 322.891 105.989 322.821C105.345 323.999 106.032 324.874 106.032 324.874L110.272 328.113C110.272 328.128 110.273 328.153 110.273 328.153C110.289 328.435 110.325 328.707 110.379 328.983C110.38 329.008 110.385 329.031 110.39 329.055C110.534 329.759 110.777 330.44 111.051 331.048C111.23 331.453 111.428 331.824 111.613 332.152C112.548 333.803 113.176 334.641 113.089 337.479C113.004 340.164 111.457 341.752 110.168 342.614C115.709 342.826 116.078 335.288 116.092 333.64C116.723 334.593 118.442 336.932 120.889 337.058C125.227 337.28 123.332 341.919 125.404 343.179C125.738 343.383 126.095 343.528 126.45 343.605C126.249 346.617 125.608 349.447 124.015 350.383C123.811 349.923 123.625 349.432 123.459 348.921C123.421 348.804 123.294 348.738 123.175 348.777C123.058 348.815 122.993 348.943 123.031 349.061C123.204 349.592 123.399 350.105 123.613 350.586C124.348 352.236 125.335 353.586 126.519 354.567C126.538 354.591 126.561 354.612 126.598 354.642C128.8 356.449 130.944 356.522 131.034 356.525C131.039 356.526 131.044 356.526 131.049 356.525C131.166 356.521 131.261 356.425 131.264 356.305C131.267 356.181 131.17 356.08 131.046 356.076Z" fill="#4F4FC8"/>
</g>
<path d="M98.5556 328.004C100.566 337.41 109.855 343.428 119.259 341.416C123.815 340.443 127.72 337.752 130.253 333.842C132.787 329.931 133.645 325.269 132.671 320.713C130.661 311.308 121.371 305.289 111.968 307.3C102.562 309.31 96.546 318.598 98.5556 328.004Z" stroke="white" stroke-width="0.480671" stroke-miterlimit="10"/>
<path d="M159.572 79.6363C159.663 91.8259 149.855 101.782 137.666 101.873C125.476 101.964 115.521 92.1557 115.43 79.9661C115.338 67.7766 125.146 57.8209 137.336 57.7299C149.526 57.6388 159.481 67.4468 159.572 79.6363Z" fill="url(#paint2_linear_805_625)"/>
<mask id="mask1_805_625" style="mask-type:alpha" maskUnits="userSpaceOnUse" x="115" y="57" width="45" height="45">
<path d="M159.572 79.6371C159.663 91.8266 149.855 101.782 137.666 101.873C125.476 101.964 115.521 92.1564 115.43 79.9669C115.338 67.7773 125.146 57.8217 137.336 57.7306C149.526 57.6395 159.481 67.4475 159.572 79.6371Z" fill="url(#paint3_linear_805_625)"/>
</mask>
<g mask="url(#mask1_805_625)">
</g>
<mask id="mask2_805_625" style="mask-type:luminance" maskUnits="userSpaceOnUse" x="78" y="33" width="114" height="94">
<path d="M78.3789 58.6091L174.485 33.8831L191.955 101.784L95.8484 126.51L78.3789 58.6091Z" fill="white"/>
</mask>
<g mask="url(#mask2_805_625)">
<path d="M79.7524 114.814C84.9756 113.47 88.9397 113.163 93.4682 113.34C99.0945 113.563 103.229 115.562 107.392 112.264C115.333 103.171 121.141 115.248 134.966 103.833C148.788 92.4247 156.489 89.8867 162.772 90.4978C167.513 90.9598 173.733 90.7014 175.785 90.2126M75.9715 106.893C86.9259 106.375 88.4019 100.705 99.9545 96.6241C111.508 92.5488 119.144 101.945 132.27 98.1782C145.401 94.41 144.133 71.3636 160.725 78.2157C165.71 80.2746 167.613 82.4304 173.469 82.249M74.9825 98.6549C84.6313 100.422 89.3325 90.274 97.4302 88.8255C101.964 88.1156 107 87.9058 111.501 89.0144C116.704 89.4968 118.991 92.3668 127.322 88.5138C135.654 84.666 140.542 71.9977 150.069 69.2627C156.644 67.4375 163.517 73.8053 170.867 74.0638M73.6578 91.255C87.2739 92.6191 88.7488 76.836 104.17 81.2775C109.454 82.5298 114.978 84.1716 120.156 82.3049C124.549 80.679 128.712 78.5497 131.055 74.3884C142.893 55.2263 152.964 65.0597 169.649 66.6422M71.8099 83.2712C84.1071 83.4488 86.6208 69.4088 98.0145 70.4036C102.196 70.2075 108.925 78.1775 115.401 68.715C121.876 59.2524 141.915 56.8145 167.611 58.6127M88.8666 118.16C85.6856 118.979 82.9196 120.977 83.9652 124.283C84.6377 126.421 88.9446 127.273 92.8725 126.848C93.3614 126.8 93.8656 126.703 94.3723 126.573C97.9397 125.655 101.669 122.986 101.458 121.041C101.216 118.82 95.8403 117.625 91.8919 117.733C90.9084 117.763 89.8694 117.902 88.8666 118.16ZM81.9513 64.8742C82.7765 64.6619 83.9097 64.5207 84.6015 65.0667C85.5379 65.8059 86.0033 66.7275 85.9793 67.803C85.9306 70.0597 83.817 72.5805 81.746 74.0767C79.8586 75.4422 77.4207 76.6375 75.5351 77.1226C74.0674 77.5002 73.0544 77.4156 72.7591 76.8956C71.2285 74.1931 73.5182 70.452 76.4704 67.9438C78.2196 66.4524 80.2694 65.3069 81.9513 64.8742ZM156.73 98.1613C156.975 98.0982 157.211 98.0429 157.439 97.9956C161.992 97.0357 172.188 97.3584 173.25 100.014C173.723 101.202 172.078 103.034 168.608 105.174C168.362 105.321 168.118 105.478 167.868 105.632C165.277 107.25 162.594 108.921 157.543 110.22C151.965 111.655 141.202 110.56 140.522 107.917C139.928 105.608 150.06 99.8774 156.73 98.1613ZM125.527 64.9124C124.252 65.2403 123.017 66.1984 122.325 67.4903C120.376 71.1048 113.864 73.5654 112.835 76.0578C111.01 80.4812 116.195 80.1161 120.463 79.0182C120.63 78.9752 120.792 78.9335 120.958 78.8853C126.3 77.4216 130.847 70.3098 129.373 66.8744C128.578 65.0184 127.026 64.5267 125.527 64.9124ZM153.313 81.5484C149.918 82.4219 148.167 86.2862 148.37 88.6341C148.467 89.7676 149.214 89.9652 150.195 89.7126C152.055 89.2342 154.768 87.1606 155.682 86.7528C158.094 85.6702 163.517 84.7371 158.064 82.1804C156.24 81.3243 154.65 81.2044 153.313 81.5484ZM109.149 50.5425C109.295 50.5049 109.424 50.5053 109.556 50.5437C112.517 51.4692 107.567 50.9497 109.149 50.5425Z" stroke="black" stroke-width="0.0801115" stroke-miterlimit="10"/>
<path d="M184.829 66.0994C184.114 63.918 172.874 65.4948 157.096 69.6332C157.397 70.2091 157.67 70.7978 157.919 71.4027C166.978 69.0903 173.034 68.1547 173.381 69.2133C173.731 70.2818 168.177 73.1448 159.353 76.6715C153.54 78.9962 146.302 81.6117 138.394 84.1921C130.921 86.6345 123.914 88.6963 118.044 90.2284C108.282 92.7775 101.671 93.855 101.308 92.7458C100.949 91.647 106.808 88.6635 116.046 85.0048C115.892 84.3782 115.768 83.7389 115.671 83.0937C99.9494 89.2202 89.5004 94.7615 90.2284 96.9901C90.969 99.2563 103.055 97.4697 119.787 92.9718C125.811 91.3525 132.435 89.3825 139.352 87.1267C146.656 84.7415 153.509 82.2884 159.573 79.9223C175.19 73.8269 185.554 68.3215 184.829 66.0994Z" fill="#4F4FC8"/>
</g>
<defs>
<linearGradient id="paint0_linear_805_625" x1="-314.54" y1="250.306" x2="589.353" y2="540.528" gradientUnits="userSpaceOnUse">
<stop stop-color="#FF7337"/>
<stop offset="0.5" stop-color="#A75894"/>
<stop offset="1" stop-color="#7E98FD"/>
</linearGradient>
<linearGradient id="paint1_linear_805_625" x1="237.316" y1="189.266" x2="237.631" y2="156.83" gradientUnits="userSpaceOnUse">
<stop stop-color="white"/>
<stop offset="1"/>
</linearGradient>
<linearGradient id="paint2_linear_805_625" x1="129.532" y1="59.9051" x2="142.506" y2="99.9892" gradientUnits="userSpaceOnUse">
<stop stop-color="#FFB7AB"/>
<stop offset="0.12" stop-color="#9F81B6"/>
<stop offset="0.44" stop-color="#3F4AC0"/>
<stop offset="0.86" stop-color="#232881"/>
<stop offset="0.99" stop-color="#070741"/>
</linearGradient>
<linearGradient id="paint3_linear_805_625" x1="129.532" y1="59.9058" x2="142.506" y2="99.9899" gradientUnits="userSpaceOnUse">
<stop stop-color="#FFB7AB"/>
<stop offset="0.12" stop-color="#9F81B6"/>
<stop offset="0.44" stop-color="#3F4AC0"/>
<stop offset="0.86" stop-color="#232881"/>
<stop offset="0.99" stop-color="#070741"/>
</linearGradient>
</defs>
</svg>
