<svg width="620" height="619" viewBox="0 0 620 619" fill="none" xmlns="http://www.w3.org/2000/svg">
<path d="M529.678 266.819C532.811 266.819 535.356 269.115 535.356 271.943C535.356 274.771 532.811 277.068 529.678 277.068C526.544 277.068 524 274.771 524 271.943C524 269.115 526.544 266.819 529.678 266.819Z" fill="white"/>
<path d="M233.88 371.078C237.013 371.078 239.558 373.374 239.558 376.203C239.558 379.031 237.013 381.327 233.88 381.327C230.746 381.327 228.202 379.031 228.202 376.203C228.202 373.374 230.746 371.078 233.88 371.078Z" fill="white"/>
<path d="M339.122 10.0576C339.2 10.0576 339.263 10.1145 339.263 10.1847C339.263 10.2548 339.2 10.3117 339.122 10.3117C339.045 10.3117 338.981 10.2548 338.981 10.1847C338.981 10.1145 339.045 10.0576 339.122 10.0576Z" fill="#4F4FC8"/>
<path d="M134.317 168.304C136.107 168.304 137.561 169.616 137.561 171.232C137.561 172.848 136.107 174.16 134.317 174.16C132.526 174.16 131.072 172.848 131.072 171.232C131.072 169.616 132.526 168.304 134.317 168.304Z" fill="#4F4FC8"/>
<path d="M231.956 457.518L248.331 438.899L229.353 422.415L249.984 437.193L268.248 420.065L251.874 438.685L270.852 455.169L250.221 440.391L231.956 457.518Z" fill="white"/>
<path d="M231.956 457.518L248.331 438.899L229.353 422.415L249.984 437.193L268.248 420.065L251.874 438.685L270.852 455.169L250.221 440.391L231.956 457.518Z" fill="white"/>
<path d="M138.695 202.421L127.106 207.521L125.073 198.129L124.986 197.712L124.801 196.868C128.103 194.497 133.659 193.324 133.659 193.324L137.404 200.094L138.695 202.421Z" fill="#990A0A"/>
<path d="M264.789 293.908L178.061 321.609L178.052 321.609L159.427 327.561L114.418 213.659L130.581 201.383L209.123 176.3L215.063 188.866L264.789 293.908Z" fill="#FF635F"/>
<path d="M264.862 293.829L178.231 321.512L178.222 321.513L131.486 203.084L130.806 201.367L209.26 176.299L215.193 188.857L264.862 293.829Z" fill="#990A0A"/>
<path d="M346.109 209.046C347.401 208.587 348.683 208.167 349.947 207.789L348.388 219.889L347.037 230.308L344.982 246.201L344.466 250.241L341.67 271.878L340.881 277.968C340.881 277.968 336.295 296.87 311.679 288.13C310.401 287.68 309.056 287.165 307.654 286.59C300.021 283.488 290.603 278.726 281.132 273.58C276.44 271.031 271.735 268.383 267.234 265.779C264.58 264.251 262.002 262.741 259.534 261.288C259.345 261.175 259.158 261.061 258.969 260.948C248.611 254.82 240.292 249.622 237.287 247.739C236.499 247.236 236.078 246.972 236.078 246.972L229.635 229.598L224.363 215.36L220.4 204.679L217.972 198.121C217.983 198.121 218.056 198.119 218.196 198.126C218.216 198.115 218.25 198.124 218.271 198.124C218.324 198.122 218.378 198.121 218.442 198.13C218.828 198.13 219.43 198.162 220.247 198.229C220.365 198.236 220.484 198.243 220.613 198.259C220.634 198.259 220.654 198.256 220.666 198.266C220.817 198.273 220.957 198.29 221.097 198.305C221.118 198.305 221.141 198.304 221.162 198.314C222.358 198.44 223.867 198.656 225.654 199.013C230.222 199.937 236.589 201.81 244.047 205.598C248.299 207.744 252.927 210.532 257.773 214.133C258.51 214.667 259.248 215.23 259.997 215.812C265.782 220.334 271.551 224.729 276.957 228.799C277.738 229.38 278.519 229.963 279.29 230.544C284.284 234.289 288.891 237.7 292.842 240.584C293.456 241.041 294.059 241.469 294.64 241.898C295.253 242.336 295.833 242.764 296.401 243.174C302.492 247.611 306.302 250.301 306.302 250.301L310.573 236.342L313.9 225.437C322.532 219.672 330.841 215.226 338.687 211.907C340.371 211.191 342.026 210.535 343.663 209.93C344.481 209.622 345.3 209.324 346.109 209.046Z" fill="#6E53D8"/>
<path d="M352.716 195.693L351.924 201.782L335.246 195.814L325.208 192.222L326.8 187.031L327.369 187.224L328.692 187.664L335.829 190.047L351.12 195.162L351.393 195.254L352.716 195.693Z" fill="#6E53D8"/>
<path d="M236.909 247.643C236.697 248.261 236.309 249.573 236.363 251.13C236.427 252.865 237.044 254.91 239.063 256.602C241.846 258.935 242.824 261.326 243.115 263.122C243.323 264.37 243.206 265.349 243.137 265.824C234.232 271.033 214.739 282.385 214.048 282.462C187.425 259.29 199.188 216.273 199.188 216.273L229.261 229.509L229.539 207.397L276.565 228.712C277.346 229.292 278.127 229.875 278.898 230.456C285.474 235.38 291.387 239.731 296.003 243.08C285.697 252.381 267.042 258.777 259.149 261.187C248.527 254.911 239.97 249.564 236.909 247.643Z" fill="#514FCF"/>
<path d="M398.845 175.527C398.845 175.527 390.364 187.847 375.504 187.176C373.927 187.108 372.49 187.037 371.206 186.982C360.385 186.504 359.308 186.503 359.308 186.503C359.308 186.503 357.717 186.174 356.091 186.781C354.854 187.226 353.616 188.196 353.014 190.241C352.878 190.697 352.758 191.101 352.65 191.477C351.614 195.042 351.628 195.314 351.628 195.314L351.354 195.22L328.837 187.613L327.508 187.168L328.111 184.981L330.202 177.396L398.845 175.527Z" fill="#6B373E"/>
<path d="M355.949 186.836C354.726 187.271 353.501 188.22 352.907 190.221C352.772 190.667 352.654 191.062 352.546 191.43C351.523 194.918 351.538 195.184 351.538 195.184L351.267 195.092C349.572 192.01 347.39 188.174 346.114 186.508C343.816 183.492 346.718 183.337 350.258 185.307C352.403 186.489 354.572 186.785 355.949 186.836Z" fill="#8A524F"/>
<path d="M375.674 176.226L371.582 176.34L330.206 177.493L328.108 185.186L327.503 187.404L328.833 187.856C334.081 184.266 342.519 179.607 351.517 179.02C364.301 178.191 369.755 177.817 373.798 177.928C376.129 179.383 379.367 180.74 382.873 180.184C387.334 179.479 390.109 177.24 391.488 175.785L375.674 176.226Z" fill="#402124"/>
<path d="M351.617 201.666L350.823 207.786C349.561 208.164 348.281 208.582 346.992 209.041C346.185 209.318 345.378 209.605 344.55 209.923C342.916 210.527 341.264 211.182 339.583 211.897C331.751 215.209 323.457 219.647 314.841 225.402L325.004 192.152L335.003 195.727L351.617 201.666Z" fill="#7599FF"/>
<path d="M335.23 190.149L334.656 195.854L329.94 242.75L311.489 236.187L324.798 192.302L326.363 187.165L326.921 187.356L335.23 190.149Z" fill="#8F9FFF"/>
<g opacity="0.75">
<path d="M294.712 242.549C286.784 253.152 256.145 227.897 244.584 217.934C238.375 212.592 232.669 209.13 227.416 207.11C224.939 206.167 222.564 205.536 220.291 205.191C217.824 204.811 215.469 204.754 213.227 204.972C206.779 205.59 203.155 202.359 201.719 200.633C207.801 198.826 213.534 198.476 217.857 198.608C217.868 198.607 217.942 198.605 218.082 198.612C218.102 198.601 218.136 198.611 218.157 198.61C218.21 198.609 218.264 198.607 218.329 198.616C218.716 198.616 219.319 198.649 220.138 198.716C220.257 198.723 220.376 198.73 220.505 198.746C220.526 198.745 220.546 198.743 220.558 198.753C220.71 198.76 220.85 198.777 220.99 198.792C221.011 198.791 221.034 198.791 221.055 198.801C223.86 199.043 225.545 199.433 225.545 199.433L225.558 199.502C230.137 200.429 236.52 202.31 243.996 206.112C248.259 208.266 252.898 211.065 257.756 214.68C258.494 215.215 259.235 215.78 259.985 216.364C265.784 220.904 271.567 225.316 276.986 229.401C277.769 229.984 278.552 230.569 279.325 231.153C285.113 235.496 290.384 239.385 294.712 242.549Z" fill="#7E98FD"/>
</g>
<path d="M279.396 230.915C275.801 232.212 270.778 232.967 265.419 230.577C257.979 227.258 257.562 218.966 257.916 214.533C258.652 215.066 259.389 215.628 260.137 216.209C266.761 221.381 273.354 226.397 279.396 230.915Z" fill="#B9CEF9"/>
<path d="M374.896 418.556C374.896 418.556 348.463 489.642 355.166 529.246C358.889 548.201 360.99 551.22 360.99 551.22C360.99 551.22 361.492 552.442 361.476 553.717C361.463 555.217 360.722 556.786 357.565 556.478C357.526 556.548 355.121 555.073 351.111 551.927C349.144 550.383 346.797 548.436 344.161 546.077C343.772 545.724 343.372 545.373 342.971 545.002C342.459 544.545 341.946 544.068 341.423 543.572C340.309 542.534 339.148 541.418 337.963 540.245C337.37 539.663 336.766 539.052 336.151 538.432C334.428 536.693 332.654 534.81 330.831 532.801C330.506 532.457 330.189 532.104 329.863 531.74C327.971 529.635 326.03 527.374 324.08 524.975C323.628 524.448 323.197 523.911 322.766 523.364C320.224 520.208 317.637 516.807 315.048 513.162C314.694 512.672 314.34 512.171 313.995 511.671C312.939 510.161 311.882 508.612 310.833 507.023C310.486 506.493 310.13 505.963 309.783 505.423C309.356 504.758 308.926 504.094 308.499 503.42C307.655 502.091 306.808 500.741 305.971 499.361C305.948 499.314 305.913 499.263 305.89 499.215C305.052 497.827 304.213 496.41 303.384 494.972C302.963 494.239 302.544 493.504 302.121 492.751C301.711 492.008 301.287 491.254 300.875 490.49C300.453 489.737 300.041 488.964 299.629 488.192C299.241 487.477 298.863 486.75 298.484 486.016C298.427 485.909 298.366 485.795 298.309 485.688C297.965 485.021 297.622 484.343 297.278 483.666C296.97 483.056 296.66 482.448 296.362 481.829C295.96 481.036 295.566 480.225 295.184 479.412C294.743 478.521 294.314 477.611 293.894 476.691C293.534 475.917 293.173 475.132 292.812 474.348C291.909 472.343 291.017 470.3 290.141 468.216C290.236 468.213 291.557 467.062 293.736 464.748C294.266 464.185 294.845 463.551 295.462 462.849C295.781 462.497 296.099 462.125 296.427 461.744C298.755 459.055 301.573 455.519 304.664 451.123C304.891 450.814 305.105 450.494 305.32 450.175C305.997 449.206 306.682 448.197 307.364 447.149C307.599 446.8 307.833 446.451 308.056 446.092C308.524 445.373 308.994 444.646 309.449 443.898C309.692 443.519 309.924 443.141 310.158 442.763C310.401 442.384 310.634 441.996 310.867 441.597C312.06 439.634 313.257 437.572 314.449 435.384C314.689 434.955 314.931 434.518 315.17 434.071C315.651 433.187 316.129 432.269 316.617 431.345C316.855 430.869 317.103 430.383 317.363 429.896C317.592 429.438 317.82 428.981 318.049 428.515C318.287 428.038 318.524 427.551 318.761 427.064C321.175 422.108 323.535 416.693 325.761 410.83C326.14 409.829 326.508 408.821 326.885 407.791C327.123 407.118 327.361 406.445 327.598 405.753C327.819 405.149 328.017 404.546 328.227 403.933C328.427 403.349 328.628 402.754 328.817 402.162C328.89 401.934 328.963 401.698 329.045 401.47C330.14 398.089 331.182 394.561 332.157 390.918C332.361 390.187 332.552 389.446 332.733 388.706C333.116 387.225 333.48 385.725 333.841 384.207C343.266 388.54 357.267 392.25 367.869 394.7C376.405 396.675 382.748 397.829 382.748 397.829C378.077 410.413 374.896 418.556 374.896 418.556Z" fill="#7798FF"/>
<path d="M423.96 266.886C423.681 271.923 423.039 277.345 421.971 283.192C421.948 283.361 421.916 283.528 421.882 283.697C421.758 284.342 421.633 285.007 421.498 285.671C421.364 286.345 421.231 287.028 421.086 287.713C420.942 288.398 420.798 289.092 420.644 289.786C420.463 290.579 420.283 291.385 420.094 292.208C419.948 292.863 419.793 293.528 419.626 294.192C419.428 295.056 419.207 295.928 418.988 296.802C418.752 297.765 418.507 298.739 418.251 299.721C418.126 300.187 418.004 300.666 417.88 301.142C417.403 302.959 416.905 304.808 416.389 306.695C416.219 307.291 416.049 307.898 415.879 308.494C415.765 308.94 415.639 309.398 415.505 309.856C415.398 310.243 415.279 310.64 415.162 311.028C414.919 311.873 414.678 312.729 414.427 313.583C414.175 314.437 413.922 315.303 413.671 316.168C413.618 316.376 413.554 316.584 413.491 316.793C413.039 318.324 412.57 319.875 412.088 321.427C410.958 325.166 409.766 328.955 408.543 332.785C408.106 334.157 407.666 335.53 407.218 336.912C407.082 337.33 406.943 337.748 406.806 338.166C403.21 349.17 399.392 360.25 395.734 370.556C395.603 370.914 395.486 371.273 395.355 371.621C394.113 375.115 392.889 378.521 391.711 381.797C391.59 382.134 391.472 382.474 391.339 382.803C391.202 383.202 391.061 383.59 390.912 383.979C390.81 384.278 390.698 384.576 390.586 384.865C390.411 385.372 390.225 385.869 390.038 386.368C389.862 386.867 389.675 387.355 389.499 387.844C388.244 391.279 387.042 394.537 385.904 397.555C385.877 397.635 385.849 397.714 385.821 397.795C385.821 397.795 385.804 397.854 385.766 397.954C385.738 398.024 385.711 398.103 385.673 398.202C385.496 398.68 385.18 399.517 385.18 399.517C385.18 399.517 378.759 398.355 370.12 396.367C359.389 393.901 345.219 390.166 335.679 385.805C335.854 385.089 336.017 384.366 336.18 383.642C336.282 383.166 336.393 382.669 336.494 382.183C336.607 381.697 336.71 381.212 336.81 380.715C337.193 378.93 337.554 377.125 337.89 375.283C338.12 374.034 338.35 372.795 338.572 371.566C338.803 370.336 339.026 369.127 339.249 367.919C339.512 366.492 339.776 365.073 340.041 363.676C340.311 362.169 340.582 360.672 340.854 359.205C341.249 357.064 341.635 354.954 342.013 352.883C342.291 351.347 342.572 349.819 342.842 348.323C342.909 347.996 342.966 347.67 343.023 347.343C343.868 342.684 344.662 338.235 345.41 333.984C347.399 322.747 349.051 312.928 350.312 304.58C353.37 284.408 354.112 272.86 351.641 270.756C350.102 269.445 346.203 269.727 340.93 271.129C331.902 273.51 318.871 279.192 306.932 285.833C304.95 286.941 302.989 288.079 301.084 289.225C287.249 297.581 252.485 324.526 216.263 324.742C200.099 324.847 183.654 319.625 168.648 305.063L219.591 277.893L242.802 265.519C242.802 265.519 242.995 265.512 243.398 265.453C244.503 265.295 247.182 264.77 251.781 263C253.624 262.291 255.791 261.375 258.272 260.205C266.063 256.536 277.125 250.333 292.127 239.854C296.105 237.075 300.356 234.003 304.897 230.588C307.68 228.491 310.44 226.533 313.175 224.715C321.802 218.953 330.107 214.51 337.949 211.193C339.632 210.478 341.286 209.822 342.922 209.217C343.74 208.909 344.559 208.611 345.367 208.333C346.658 207.874 347.94 207.455 349.203 207.077C350.297 206.722 351.393 206.409 352.467 206.113C354.006 205.687 355.527 205.31 357.028 204.974C357.767 204.807 358.509 204.649 359.249 204.501C360.708 204.195 362.159 203.941 363.571 203.736C364.272 203.628 364.972 203.53 365.674 203.442C368.447 203.082 371.102 202.883 373.645 202.815C374.264 202.799 374.873 202.793 375.473 202.796C376.03 202.792 376.587 202.806 377.144 202.811C377.197 202.809 377.252 202.818 377.304 202.817C377.969 202.828 378.613 202.862 379.256 202.893C379.277 202.892 379.298 202.902 379.33 202.901L379.385 202.9C379.417 202.909 379.449 202.909 379.481 202.908C380.051 202.941 380.598 202.975 381.146 203.03C381.243 203.038 381.33 203.044 381.426 203.052C381.737 203.073 382.051 203.106 382.353 203.147C382.621 203.169 382.889 203.2 383.149 203.233C383.192 203.232 383.223 203.241 383.266 203.24C383.503 203.274 383.742 203.306 383.978 203.339C384.387 203.387 384.787 203.446 385.176 203.505C385.209 203.514 385.24 203.512 385.273 203.521C385.758 203.597 386.235 203.683 386.71 203.769C386.754 203.778 386.796 203.786 386.839 203.795C387.12 203.846 387.402 203.899 387.683 203.961C387.759 203.97 387.824 203.987 387.889 204.004C387.965 204.013 388.039 204.032 388.115 204.049C388.224 204.075 388.321 204.092 388.429 204.118C388.462 204.128 388.484 204.125 388.517 204.135C388.82 204.207 389.124 204.276 389.427 204.348C389.46 204.358 389.492 204.365 389.525 204.375C389.655 204.411 389.786 204.437 389.916 204.474C390.339 204.58 390.763 204.697 391.176 204.815C391.197 204.824 391.21 204.822 391.231 204.832C391.242 204.832 391.252 204.832 391.264 204.842C391.405 204.878 391.535 204.923 391.676 204.959C391.753 204.986 391.818 205.004 391.895 205.031C391.938 205.04 391.98 205.05 392.024 205.067C392.319 205.158 392.602 205.25 392.874 205.341C393.016 205.386 393.17 205.443 393.311 205.487C393.432 205.533 393.54 205.571 393.661 205.617C393.868 205.691 394.075 205.763 394.283 205.846C394.371 205.873 394.457 205.911 394.534 205.938C394.611 205.966 394.686 206.004 394.763 206.031C394.905 206.086 395.059 206.141 395.201 206.206C395.234 206.216 395.267 206.234 395.299 206.244L395.694 206.41C395.771 206.448 395.848 206.475 395.925 206.513L395.935 206.521C396.077 206.577 396.22 206.642 396.363 206.708C396.506 206.773 396.66 206.837 396.803 206.912C396.991 207.006 397.176 207.09 397.352 207.184C397.582 207.287 397.793 207.41 398.014 207.521C398.51 207.784 398.986 208.059 399.439 208.333C399.517 208.39 399.604 208.436 399.683 208.493C399.982 208.672 400.271 208.862 400.549 209.062C400.883 209.291 401.205 209.528 401.508 209.766C412.78 218.569 425.702 234.894 423.96 266.886Z" fill="#514FCF"/>
<path d="M343.886 540.025C344.031 540.149 353.435 548.181 360.812 553.714C360.8 555.217 360.056 556.787 356.885 556.479C356.742 556.767 315.43 530.442 289.157 468.095C289.252 468.093 290.579 466.94 292.767 464.624C298.753 478.066 319.523 521.833 343.886 540.025Z" fill="#FEFFFF"/>
<path d="M383.676 395.85C383.649 395.929 383.622 396.007 383.595 396.087C383.595 396.087 383.578 396.146 383.542 396.245C383.515 396.325 383.477 396.412 383.45 396.492C383.278 396.966 382.969 397.796 382.969 397.796C378.355 410.354 375.213 418.48 375.213 418.48C375.213 418.48 349.107 489.422 355.701 528.939C359.364 547.853 361.436 550.866 361.436 550.866C361.436 550.866 361.93 552.084 361.914 553.357C361.901 554.854 361.169 556.419 358.055 556.113C358.017 556.183 355.645 554.711 351.69 551.573L329.995 401.441C331.728 396.035 333.328 390.286 334.734 384.213C334.905 383.504 335.064 382.786 335.224 382.069C352.721 390.381 374.159 394.38 383.676 395.85Z" fill="#C4ABFF"/>
<g opacity="0.69">
<path d="M389.981 380.356C389.246 382.417 388.507 384.428 387.798 386.379C378.335 384.161 356.72 381.815 340.929 400.711C324.868 419.918 314.308 479.541 310.345 505.672C303.442 495.076 296.644 482.691 290.643 468.432C290.737 468.43 292.062 467.277 294.248 464.962C302.714 455.945 323.934 429.331 334.464 384.354C334.861 382.696 335.235 381.009 335.586 379.293C335.965 377.517 336.323 375.722 336.657 373.889C338.487 363.952 340.193 354.685 341.747 346.099C345.871 348.569 350.38 351.516 355.366 355.032C355.489 355.127 371.219 366.605 389.981 380.356Z" fill="#191868"/>
</g>
<path d="M383.596 396.058C383.596 396.058 383.579 396.116 383.542 396.215C383.514 396.285 383.487 396.363 383.451 396.462C383.278 396.936 382.969 397.766 382.969 397.766C378.356 410.324 375.215 418.45 375.215 418.45C375.215 418.45 349.114 489.39 355.706 528.907C359.368 547.82 361.439 550.833 361.439 550.833C361.439 550.833 361.933 552.052 361.917 553.324C361.904 554.821 361.173 556.386 358.06 556.08C358.021 556.15 355.65 554.678 351.696 551.54C349.114 549.489 345.858 546.723 342.146 543.206C336.471 505.62 346.951 456.059 346.951 456.059L368.297 394.647L368.938 392.801C373.65 394.158 378.582 395.305 383.596 396.058Z" fill="#D2B9FD"/>
<path d="M424.926 266.35C424.639 271.494 423.986 277.037 422.887 283.025C422.541 284.942 422.126 286.958 421.676 289.064C421.19 291.288 420.646 293.612 420.055 296.024C419.823 296.979 419.583 297.945 419.333 298.92C418.763 301.165 418.157 303.471 417.511 305.837C417.233 306.873 416.946 307.917 416.646 308.972C416.015 311.229 415.354 313.516 414.676 315.854C413.168 321.021 411.532 326.34 409.837 331.717C409.409 333.078 408.979 334.439 408.541 335.811L385.245 328.447C385.245 328.447 387.235 260.523 387.012 257.154C386.831 254.382 387.098 216.811 387.197 203.513C389.273 203.848 391.219 204.283 393.013 204.812C397.183 206.028 400.565 207.735 403.042 209.703C414.041 218.43 426.646 234.618 424.926 266.35Z" fill="#6651D4"/>
<path d="M384.553 203.469C384.25 203.427 383.933 203.393 383.619 203.371C383.663 203.37 383.705 203.379 383.748 203.378C384.019 203.401 384.292 203.435 384.553 203.469Z" fill="#191868"/>
<path d="M385.357 203.542C385.304 203.533 385.246 203.525 385.192 203.516C385.29 203.524 385.378 203.532 385.476 203.549C385.432 203.551 385.401 203.541 385.357 203.542Z" fill="#191868"/>
<path d="M386.193 203.64C385.954 203.605 385.713 203.572 385.475 203.538C385.952 203.596 386.419 203.653 386.876 203.723C386.647 203.699 386.42 203.664 386.193 203.64Z" fill="#191868"/>
<path d="M425.697 266.686C421.563 265.606 416.977 262.935 413.281 259.335C410.329 256.482 407.941 253.046 406.757 249.36C404.59 242.571 397.308 234.149 386.994 228.129C380.063 224.095 371.753 221.149 362.705 220.524C371.368 215.533 380.152 211.04 387.111 207.659C387.953 207.252 388.775 206.855 389.554 206.48C390.812 205.876 391.984 205.314 393.077 204.803C393.088 204.803 393.098 204.803 393.109 204.813C393.25 204.849 393.38 204.894 393.521 204.93C393.585 204.947 393.662 204.974 393.738 205.002C393.782 205.011 393.824 205.02 393.868 205.038C394.161 205.128 394.444 205.219 394.715 205.311C394.856 205.355 395.009 205.412 395.15 205.456C395.271 205.502 395.378 205.54 395.499 205.585C395.705 205.659 395.912 205.732 396.119 205.814C396.206 205.841 396.293 205.879 396.369 205.906C396.446 205.934 396.521 205.971 396.597 205.999C396.739 206.054 396.892 206.108 397.034 206.174C397.067 206.183 397.1 206.201 397.132 206.211C397.23 206.257 397.318 206.294 397.416 206.34C397.537 206.376 397.647 206.434 397.756 206.479C397.767 206.479 397.765 206.477 397.766 206.488C397.907 206.543 398.05 206.608 398.192 206.673C398.334 206.739 398.488 206.802 398.631 206.878C398.818 206.971 399.002 207.054 399.178 207.148C399.407 207.251 399.618 207.373 399.837 207.485C400.332 207.747 400.806 208.021 401.258 208.294C401.347 208.35 401.423 208.397 401.501 208.454C401.799 208.632 402.087 208.822 402.364 209.022C402.698 209.25 403.018 209.486 403.32 209.724C414.555 218.502 427.435 234.782 425.697 266.686Z" fill="#191868"/>
<path d="M393.298 205.114C392.195 205.633 391.012 206.204 389.743 206.818C388.956 207.199 388.127 207.603 387.277 208.016C380.253 211.452 371.388 216.018 362.645 221.09C361.749 221.025 360.831 220.979 359.914 220.964C355.594 220.891 352.165 220.404 349.456 219.648C342.79 217.8 340.449 214.344 339.706 211.567C341.399 210.842 343.063 210.177 344.709 209.564C345.531 209.252 346.355 208.95 347.168 208.668C348.466 208.203 349.756 207.779 351.027 207.395C352.127 207.035 353.229 206.717 354.31 206.418C355.87 205.996 357.388 205.604 358.897 205.263C359.641 205.094 360.387 204.933 361.131 204.783C362.6 204.484 364.049 204.225 365.479 204.007C366.184 203.899 366.888 203.799 367.594 203.709C370.383 203.344 373.054 203.142 375.611 203.073C376.234 203.057 376.846 203.051 377.45 203.054C378.009 203.049 378.57 203.064 379.13 203.068C379.183 203.066 379.238 203.075 379.291 203.074C379.96 203.086 380.608 203.119 381.255 203.151C381.276 203.15 381.297 203.16 381.329 203.159L381.384 203.158C381.417 203.168 381.449 203.167 381.481 203.166C382.054 203.2 382.604 203.234 383.156 203.289C383.253 203.297 383.34 203.304 383.437 203.312C383.75 203.333 384.066 203.367 384.369 203.408C384.585 203.421 384.789 203.445 385.006 203.469C385.059 203.478 385.116 203.486 385.17 203.495C385.213 203.494 385.244 203.503 385.287 203.502C385.526 203.536 385.766 203.568 386.004 203.602C386.23 203.626 386.457 203.66 386.686 203.684C386.795 203.711 386.904 203.727 387 203.735C387.077 203.752 387.144 203.761 387.208 203.77C387.241 203.779 387.273 203.777 387.306 203.787C387.794 203.863 388.274 203.95 388.751 204.037C388.795 204.047 388.837 204.054 388.881 204.064C389.164 204.116 389.447 204.169 389.73 204.232C389.806 204.241 389.872 204.258 389.937 204.276C390.013 204.284 390.088 204.303 390.164 204.32C390.274 204.347 390.371 204.364 390.48 204.391C390.513 204.401 390.536 204.398 390.568 204.408C390.873 204.48 391.179 204.551 391.484 204.624C391.517 204.633 391.549 204.641 391.582 204.651C391.713 204.688 391.845 204.714 391.975 204.751C392.401 204.859 392.827 204.977 393.242 205.096C393.264 205.106 393.277 205.104 393.298 205.114Z" fill="#1F197E"/>
<path d="M376.268 285.444L375.215 285.237C375.272 284.966 380.825 258 376.545 247.169C375.578 244.718 373.937 243.067 371.671 242.266C365.685 240.152 357.141 244.473 357.055 244.515L298.409 270.797L297.922 269.907L356.543 243.638C356.884 243.46 365.571 239.055 372.033 241.343C374.612 242.256 376.472 244.108 377.555 246.848C381.936 257.941 376.502 284.328 376.268 285.444Z" fill="black"/>
<path d="M316.454 505.19L315.452 504.887C315.537 504.621 324.175 478.013 336.162 445.592C348.136 413.214 358.848 358.772 358.953 358.226L359.984 358.422C359.878 358.968 349.151 413.482 337.152 445.929C325.171 478.331 316.539 504.924 316.454 505.19Z" fill="#161B70"/>
<path d="M385.358 396.41C385.358 396.41 385.34 396.47 385.302 396.571C385.274 396.642 385.246 396.721 385.209 396.822C385.031 397.304 384.713 398.148 384.713 398.148C384.713 398.148 378.263 396.977 369.583 394.972C358.803 392.485 344.566 388.718 334.983 384.319C335.158 383.598 335.322 382.868 335.486 382.138C335.599 381.647 335.701 381.167 335.802 380.666C335.915 380.175 336.019 379.686 336.12 379.185C341.691 382.17 354.791 388.713 370.243 393.094C375.103 394.476 380.188 395.643 385.358 396.41Z" fill="#161B70"/>
<path d="M422.882 282.848C420.973 293.161 417.436 306.345 413.149 320.412L405.634 312.884L398.117 305.378L393.145 300.405C394.447 297.582 395.845 294.618 397.357 291.582C406.248 273.67 422.882 282.848 422.882 282.848Z" fill="#3C3FB6"/>
<path d="M416.471 308.806C415.825 311.084 415.149 313.393 414.454 315.752L403.749 313.362C402.859 313.169 402.292 312.365 402.45 311.55L403.205 307.56C403.371 306.686 404.293 306.139 405.225 306.342L416.471 308.806Z" fill="#6651D4"/>
<g opacity="0.88">
<path d="M425.084 266.37C424.797 271.516 424.143 277.06 423.042 283.05C421.158 293.336 417.667 306.456 413.439 320.485L406.039 312.986L403.18 310.099L408.601 295.666C408.601 295.666 417.763 268.497 409.623 236.252C402.324 207.361 383.321 203.338 379.46 202.818C390.166 203.083 398.35 205.913 403.142 209.706C414.169 218.436 426.806 234.63 425.084 266.37Z" fill="#7E98FD"/>
</g>
<path d="M358.945 205.489C357.433 205.834 355.912 206.23 354.35 206.656C355.9 206.22 357.433 205.834 358.945 205.489Z" fill="#6651D4"/>
<path d="M358.924 220.947C359.838 220.963 360.754 221.008 361.647 221.073C356.643 223.951 351.689 226.999 347.137 230.104C343.422 232.631 339.989 235.199 337.017 237.746C331.748 242.258 323.565 247.888 314.323 253.734C303.681 260.489 291.649 267.54 281.053 273.562C265.243 282.556 252.645 289.266 252.645 289.266L235.846 283.798L220.028 278.651L243.313 266.216C243.313 266.216 243.507 266.21 243.911 266.15C245.019 265.991 247.706 265.463 252.321 263.686C254.17 262.973 256.343 262.053 258.832 260.877C266.648 257.19 277.746 250.957 292.796 240.426C296.787 237.634 301.052 234.547 305.607 231.115C308.4 229.008 311.168 227.041 313.912 225.214C322.567 219.424 330.898 214.959 338.766 211.626C339.508 214.38 341.843 217.808 348.492 219.641C351.195 220.391 354.615 220.874 358.924 220.947Z" fill="#6651D4"/>
<path d="M365.574 204.207C364.141 204.43 362.687 204.695 361.215 205.002C362.687 204.684 364.15 204.421 365.574 204.207Z" fill="#6651D4"/>
<path d="M616.352 478.278C616.352 478.278 613.506 482.047 604.01 486.242C596.292 489.648 584.156 493.349 565.571 495.533C543.723 498.398 528.573 498.554 518.218 497.655C501.715 496.228 497.343 492.148 497.343 492.148C497.343 492.148 497.105 491.701 496.686 490.902C493.933 485.671 483.297 465.165 479.541 453.6C476.909 445.532 471.006 438.56 466.766 434.317C463.988 431.546 461.928 429.932 461.928 429.932C461.928 429.932 457.177 426.365 449.634 420.719C460.069 415.67 467.597 409.207 472.861 403.26C478.004 397.454 481.011 392.14 482.492 389.098L486.545 393.226C502.459 409.423 518.112 425.155 525.371 431.855C536.106 441.751 552.27 450.436 563.308 455.732C570.44 459.157 575.434 461.156 575.434 461.156C575.434 461.156 591.324 470.709 605.183 471.781C612.693 472.371 615.335 474.227 616.183 475.804C616.921 477.138 616.352 478.278 616.352 478.278Z" fill="#7798FF"/>
<path d="M501.747 437.08C505.245 442.128 504.374 448.354 499.802 450.988C495.23 453.621 488.69 451.663 485.192 446.615C481.694 441.567 482.563 435.341 487.135 432.707C491.706 430.073 498.249 432.032 501.747 437.08Z" fill="#181868"/>
<g opacity="0.81">
<path d="M563.395 456.248C522.869 452.614 485.74 441.374 466.776 434.81C463.997 432.036 461.935 430.419 461.935 430.419C461.935 430.419 457.18 426.849 449.631 421.196C449.386 421.015 449.151 420.834 448.894 420.642C448.682 420.49 448.479 420.327 448.267 420.174C466.619 410.766 477.777 395.785 482.094 389.104C482.23 389.248 482.379 389.393 482.515 389.537L486.572 393.671C502.499 409.886 518.164 425.637 525.428 432.344C536.172 442.252 552.348 450.946 563.395 456.248Z" fill="#D2AEFF"/>
</g>
<path d="M482.393 392.198C480.909 395.251 477.895 400.585 472.742 406.411C467.465 412.38 459.922 418.867 449.465 423.934C448.894 423.504 448.302 423.063 447.707 422.614C447.617 422.547 447.517 422.48 447.426 422.412C447.214 422.249 447.001 422.088 446.788 421.924C446.476 421.694 446.161 421.466 445.848 421.227C437.103 414.671 423.116 404.368 408.785 393.868C383.287 375.152 356.689 355.772 356.522 355.658C321.51 331.04 310.211 334.07 284.544 335.103C271.37 335.643 254.514 335.608 234.6 334.088C222.396 333.155 212.313 331.176 204.025 328.632C185.221 322.871 175.569 314.267 170.987 308.661C169.444 306.779 168.477 305.23 167.919 304.244C167.491 303.482 167.316 303.049 167.316 303.049C167.316 303.049 167.327 303.04 167.348 303.04C167.994 302.686 178.282 297.245 190.532 291.229C192.831 290.096 195.206 288.953 197.601 287.809C202.831 285.319 208.161 282.867 213.038 280.784C222.383 276.788 230.094 274.133 232.398 275.033C233.276 275.377 234.365 275.635 235.589 275.831C237.234 276.074 239.118 276.203 241.107 276.239C249.477 276.372 259.5 274.923 259.5 274.923C259.5 274.923 265.285 273.917 272.905 272.682C285.291 270.675 302.539 268.092 307.737 268.31C309.074 268.226 310.402 268.161 311.709 268.115C338.334 267.156 356.675 273.664 368.176 280.146C369.806 281.075 371.306 281.994 372.664 282.89C380.208 287.882 383.634 292.201 383.634 292.201L391.826 300.388L396.847 305.407L401.505 310.06L404.437 312.985L412.026 320.583L440.157 348.705C440.157 348.705 460.128 369.431 481.198 390.981C481.596 391.387 481.995 391.793 482.393 392.198Z" fill="#6D50D6"/>
<path d="M408.696 394.367C383.207 375.665 356.619 356.3 356.452 356.186C321.453 331.587 310.157 334.615 284.501 335.646C271.332 336.186 254.481 336.151 234.576 334.632C222.376 333.7 212.296 331.722 204.011 329.18C185.214 323.423 175.566 314.826 170.986 309.224C169.443 307.344 168.477 305.796 167.919 304.81C167.491 304.049 167.316 303.617 167.316 303.617C167.316 303.617 167.327 303.608 167.347 303.607C167.994 303.254 178.277 297.817 190.523 291.806C192.821 290.674 195.195 289.532 197.589 288.389C202.817 285.901 208.145 283.451 213.021 281.37C222.362 277.377 230.07 274.724 232.373 275.623C233.25 275.967 234.339 276.225 235.563 276.42C237.207 276.663 239.091 276.792 241.079 276.828C249.446 276.961 259.465 275.513 259.465 275.513C259.465 275.513 265.248 274.508 272.865 273.274C285.246 271.269 302.487 268.688 307.684 268.906C309.02 268.822 310.348 268.757 311.654 268.712C338.269 267.753 356.603 274.257 368.1 280.734C378.978 303.836 400.502 352.811 408.696 394.367Z" fill="#504FCF"/>
<path d="M482.62 390.752C481.148 393.779 478.159 399.067 473.048 404.843C472.331 404.204 471.491 403.451 470.55 402.611C455.407 389.091 413.947 351.579 402.777 336.331C391.708 321.199 401.201 314.313 405.292 312.218L413.068 319.99L417.981 324.9L422.14 329.064L427.054 333.973L430.953 337.86L435.856 342.759L439.823 346.732L440.725 347.632C440.725 347.632 442.159 349.117 444.665 351.693C446.009 353.103 447.692 354.835 449.623 356.836C451.092 358.36 452.717 360.036 454.467 361.837C456.092 363.514 457.832 365.305 459.66 367.181C461.218 368.791 462.844 370.458 464.515 372.182C466.176 373.897 467.88 375.649 469.629 377.44C471.22 379.078 472.835 380.734 474.483 382.42C476.764 384.766 479.087 387.151 481.435 389.546C481.829 389.948 482.226 390.35 482.62 390.752Z" fill="#4F4FC8"/>
<path d="M397.709 305.885C395.511 313.768 381.982 329.562 342.395 310.683C323.805 301.827 315.626 292.762 312.486 285.092C342.341 281.362 359.514 280.436 373.5 283.328L373.51 283.328C381.059 288.329 384.487 292.655 384.487 292.655L397.709 305.885Z" fill="#191868"/>
<path d="M373.839 283.942C359.817 281.021 342.599 281.96 312.665 285.736C309.73 278.477 311.202 272.456 312.695 268.991C313.168 268.978 313.63 268.955 314.093 268.942C315.008 268.917 315.912 268.903 316.806 268.899C317.451 268.892 318.098 268.895 318.744 268.897C319.433 268.898 320.115 268.909 320.793 268.921C321.333 268.936 321.881 268.953 322.41 268.968C323.197 268.988 323.976 269.016 324.732 269.066C325.133 269.085 325.531 269.104 325.921 269.134C326.451 269.16 326.979 269.195 327.509 269.23C327.703 269.244 327.889 269.261 328.083 269.275C328.634 269.309 329.174 269.356 329.716 269.412C330.365 269.475 331.016 269.535 331.655 269.599C332.023 269.639 332.381 269.682 332.739 269.721C333.314 269.787 333.877 269.862 334.441 269.936C335.19 270.027 335.917 270.136 336.644 270.247C336.697 270.256 336.753 270.265 336.796 270.264C337.524 270.375 338.23 270.495 338.937 270.617C339.665 270.738 340.395 270.868 341.103 271.009C343.268 271.421 345.34 271.898 347.329 272.406C347.962 272.56 348.575 272.724 349.176 272.898C349.822 273.071 350.445 273.255 351.059 273.439C352.296 273.808 353.49 274.186 354.653 274.587C355.236 274.792 355.807 274.986 356.367 275.191C356.927 275.397 357.476 275.604 358.027 275.82C360.205 276.653 362.235 277.542 364.126 278.445C364.602 278.674 365.067 278.899 365.52 279.129C367.047 279.881 368.469 280.655 369.792 281.422C370.304 281.719 370.803 282.017 371.282 282.306C371.337 282.345 371.395 282.372 371.45 282.411C371.662 282.535 371.873 282.671 372.073 282.796C372.687 283.181 373.278 283.555 373.839 283.942Z" fill="#221880"/>
<path d="M312.456 269.446C310.959 272.954 309.482 279.05 312.418 286.397C308.722 286.876 304.823 287.392 300.722 287.952C260.276 293.454 212.807 290.767 197.801 289.689C203.058 287.134 208.415 284.618 213.316 282.48C222.708 278.378 230.457 275.653 232.771 276.574C233.652 276.927 234.747 277.191 235.976 277.391C237.629 277.64 239.522 277.771 241.519 277.807C249.928 277.94 259.999 276.45 259.999 276.45C259.999 276.45 265.812 275.415 273.468 274.146C285.913 272.083 303.243 269.427 308.465 269.648C309.808 269.561 311.143 269.494 312.456 269.446Z" fill="#6A52D6"/>
<path d="M463.933 409.817L431.584 376.64C431.271 376.343 398.476 345.298 370.151 329.296C342.247 313.532 325.262 312.417 264.635 314.487C264.093 314.505 263.552 314.522 263.019 314.537C205.898 316.066 196.804 293.603 196.441 292.636L197.457 292.328C197.543 292.557 206.746 315.049 263.005 313.543C263.524 313.529 264.046 313.514 264.573 313.496C325.45 311.416 342.536 312.546 370.697 328.453C399.141 344.523 432.034 375.66 432.363 375.972L464.725 409.163L463.933 409.817Z" fill="black"/>
<path d="M240.86 278.067L240.789 278.888C240.913 283.277 220.366 317.634 203.874 330.246C185.116 324.508 175.487 315.938 170.916 310.355C169.377 308.481 168.413 306.938 167.856 305.956C167.428 305.197 167.254 304.766 167.254 304.766C167.254 304.766 167.265 304.757 167.286 304.757C167.93 304.405 178.192 298.986 190.411 292.995C197.741 289.413 205.777 285.615 212.861 282.594C222.183 278.614 229.875 275.97 232.173 276.866C233.048 277.209 234.135 277.466 235.356 277.661C236.997 277.903 238.877 278.032 240.86 278.067Z" fill="#4F43BC"/>
<path d="M616.482 477.679C616.482 477.679 613.627 481.472 604.101 485.693C575.712 479.499 550.305 465.165 530.496 450.443C540.951 452.379 551.981 453.979 563.277 454.998C570.431 458.444 575.44 460.456 575.44 460.456C575.44 460.456 591.378 470.065 605.279 471.144C612.813 471.736 615.463 473.603 616.313 475.19C617.053 476.533 616.482 477.679 616.482 477.679Z" fill="#7DAAF9"/>
<path d="M616.361 477.244C616.361 477.244 606.943 490.004 565.219 495.036C508.168 502.721 496.531 491.585 496.531 491.585C496.531 491.585 496.292 491.125 495.871 490.302C513.184 493.381 552.252 498.07 587.959 486.371C600.958 482.114 609.972 478.174 616.194 474.697C616.936 476.07 616.361 477.244 616.361 477.244Z" fill="#FFFDFE"/>
<path d="M482.397 390.178C481.447 392.125 479.873 394.995 477.524 398.339C476.205 400.206 474.628 402.229 472.787 404.307C467.533 410.24 460.022 416.688 449.609 421.725C449.041 421.297 448.451 420.859 447.859 420.413C447.557 420.183 447.246 419.956 446.944 419.727C446.633 419.498 446.32 419.271 446.008 419.033C452.198 416.148 461.338 410.89 470.279 402.069C472.114 400.256 473.95 398.297 475.736 396.17C477.612 393.952 479.446 391.557 481.206 388.968C481.603 389.372 482.001 389.775 482.397 390.178Z" fill="black"/>
<g opacity="0.47">
<path d="M550.957 494.238C523.718 483.665 468.362 413.099 466.02 410.102L466.879 409.54C467.451 410.271 524.396 482.871 551.353 493.332L550.957 494.238Z" fill="#1C1569"/>
</g>
<path d="M563.395 456.006C552.157 454.994 541.183 453.406 530.782 451.486C509.446 435.696 494.619 419.457 489.552 412.517C486.637 408.526 482.42 403.228 477.869 397.684C480.219 394.34 481.792 391.47 482.742 389.523L486.788 393.642C502.67 409.802 518.291 425.498 525.535 432.183C527.54 434.031 529.746 435.846 532.068 437.597C532.838 438.177 533.617 438.749 534.408 439.318C536.411 440.752 538.475 442.136 540.57 443.469C540.991 443.733 541.402 443.999 541.822 444.264C545.6 446.627 549.452 448.82 553.121 450.792C553.937 451.233 554.742 451.665 555.544 452.076C555.754 452.188 555.962 452.292 556.16 452.396C557.788 453.239 559.361 454.033 560.868 454.772C561.175 454.922 561.472 455.073 561.769 455.213C562.32 455.494 562.868 455.753 563.395 456.006Z" fill="#D2B9FD"/>
<g opacity="0.64">
<path d="M482.694 391.741C481.742 393.693 480.165 396.57 477.811 399.921C477.214 399.196 476.616 398.473 476.019 397.748C464.815 384.2 452.362 369.963 452.362 369.963C452.362 369.963 413.614 331.972 396.518 313.031C379.423 294.09 357.448 282.992 357.448 282.992C357.448 282.992 340.618 273.504 305.056 273.998C288.912 274.22 279.306 273.499 273.634 272.643C285.994 270.644 303.206 268.071 308.393 268.289C309.727 268.205 311.053 268.14 312.357 268.095C363.614 266.244 384.134 292.096 384.134 292.096L397.32 305.256L404.895 312.807L440.543 348.401C440.543 348.401 460.474 369.054 481.502 390.529C481.899 390.933 482.297 391.337 482.694 391.741Z" fill="#7EAEFF"/>
</g>
<g opacity="0.68">
<path d="M517.343 497.691C500.977 496.272 496.641 492.217 496.641 492.217C496.641 492.217 496.405 491.773 495.99 490.979C493.26 485.78 482.713 465.398 478.988 453.904C474.678 440.659 461.522 430.379 461.522 430.379C461.522 430.379 456.811 426.834 449.33 421.223C449.087 421.043 448.855 420.863 448.6 420.673C448.18 420.36 447.757 420.037 447.313 419.716L463.31 410.178C505.429 443.988 515.171 483.897 517.343 497.691Z" fill="#191868"/>
</g>
<path d="M242.345 266.579C242.314 266.796 242.3 266.915 242.321 266.915C242 267.493 241.65 268.073 241.255 268.654C239.246 271.637 236.245 274.597 232.597 277.457C213.017 292.835 174.635 305.451 168.025 305.233C167.802 305.229 167.608 305.204 167.467 305.168C165.058 304.574 162.932 303.519 161.23 302.405C159.02 300.969 157.528 299.466 157.057 298.829C156.929 298.656 156.773 297.923 156.605 296.817C155.675 290.795 154.342 273.577 154.342 273.577C154.342 273.577 153.44 269.038 152.165 262.535C151.023 256.705 149.58 249.301 148.197 242.201C147.226 237.164 146.296 232.284 145.528 228.215C145.481 227.95 145.424 227.687 145.389 227.433C144.331 221.768 143.633 217.845 143.705 217.597L143.705 217.587C144.124 217.272 144.545 216.965 144.966 216.688C144.996 216.658 145.027 216.636 145.058 216.616C145.078 216.605 145.099 216.586 145.119 216.575C154.75 210.164 167.134 210.719 167.134 210.719C167.134 210.719 167.374 210.655 167.826 210.534C172.09 209.408 194.673 203.409 194.673 203.399C195.835 202.856 196.981 202.373 198.131 201.959C198.215 201.927 198.307 201.895 198.391 201.864C199.226 201.556 200.064 201.287 200.893 201.039C201.606 200.833 202.309 200.638 203.004 200.473C208.251 199.172 213.128 198.914 216.917 199.029C216.928 199.028 217.001 199.026 217.14 199.033C217.16 199.022 217.194 199.032 217.215 199.031C217.267 199.03 217.322 199.028 217.386 199.037C218.017 199.068 218.614 199.103 219.182 199.136C219.3 199.143 219.418 199.15 219.547 199.166C219.567 199.165 219.588 199.163 219.599 199.173C219.75 199.18 219.889 199.197 220.029 199.212C220.049 199.211 220.072 199.211 220.093 199.22C222.878 199.461 224.551 199.848 224.551 199.848L224.564 199.917L226.41 207.467L228.478 215.965L231.966 230.324L236.294 248.091C236.294 248.091 236.237 248.22 236.144 248.459C235.933 249.075 235.546 250.383 235.6 251.934C235.663 253.664 236.278 255.701 238.289 257.387C241.06 259.713 242.034 262.096 242.324 263.886C242.531 265.13 242.414 266.105 242.345 266.579Z" fill="#6E53D8"/>
<path d="M155.978 296.833C155.068 290.84 153.769 273.705 153.769 273.705C153.769 273.705 152.885 269.188 151.637 262.716C152.046 261.56 152.304 260.89 152.304 260.89L156.708 245.945C156.708 245.945 165.007 256.071 168.646 270.383C172.153 284.21 171.481 293.073 155.978 296.833Z" fill="#3736B0"/>
<path d="M236.44 247.83C236.229 248.444 235.844 249.749 235.898 251.298C235.961 253.024 236.573 255.058 238.574 256.74C241.333 259.061 242.303 261.439 242.591 263.226C242.797 264.467 242.681 265.441 242.612 265.913C233.784 271.095 214.459 282.387 213.773 282.464C187.383 259.416 199.048 216.629 199.048 216.629L228.859 229.793C228.859 229.793 239.474 249.74 236.44 247.83Z" fill="#514FCF"/>
<path d="M244.06 206.549C242.075 209.769 237.693 214.933 229.535 216.158C227.935 216.411 226.188 216.496 224.29 216.398C221.799 216.255 219.052 215.782 216.014 214.878C203.967 211.28 200.12 206.037 199.181 201.882C206.193 199.329 212.947 198.864 217.874 199.01C217.885 199.009 217.958 199.007 218.099 199.014C218.119 199.003 218.153 199.013 218.174 199.012C218.582 199.012 219.381 199.039 220.526 199.148C220.547 199.148 220.568 199.146 220.58 199.156C220.731 199.162 220.872 199.179 221.013 199.195C221.033 199.194 221.056 199.194 221.077 199.204C223.887 199.447 225.575 199.838 225.575 199.838L225.588 199.908C230.176 200.84 236.57 202.729 244.06 206.549Z" fill="#1C1569"/>
<path d="M181.389 212.093C175.27 212.258 170.435 210.896 170.333 210.867L170.637 209.914C170.844 209.975 191.68 215.834 201.104 201.09L202.031 201.613C196.812 209.78 188.284 211.907 181.389 212.093Z" fill="#1C1569"/>
<path d="M232.938 278.654C214.682 279.145 207.272 252.286 207.195 252.004L191.588 210.207L192.587 209.907L208.209 251.745C208.3 252.077 216.148 280.488 235.276 277.451L235.477 278.415C234.609 278.554 233.762 278.632 232.938 278.654Z" fill="#1C1569"/>
<path d="M155.705 288.253L154.881 287.607C155.552 286.877 158.927 285.493 164.531 283.348C165.375 283.028 166.178 282.72 166.503 282.583C170.377 272.459 158.316 254.512 158.193 254.33L157.868 253.851L158.418 253.625C158.913 253.421 208.142 233.189 227.975 230.273L228.166 231.248C209.593 233.978 164.869 252.077 159.417 254.304C161.396 257.34 171.306 273.302 167.476 283.027C167.457 283.307 167.266 283.378 164.959 284.261C162.382 285.247 156.346 287.558 155.705 288.253Z" fill="#1C1569"/>
<path d="M154.213 279.264L153.634 278.415C154.004 278.206 162.738 273.253 166.783 273.049L166.864 274.04C163.086 274.233 154.301 279.213 154.213 279.264Z" fill="#1C1569"/>
<path d="M173.764 248.609L172.718 248.602C172.656 244.695 166.754 231.512 166.694 231.381L167.656 231.019C167.902 231.568 173.699 244.512 173.764 248.609Z" fill="#1C1569"/>
<path d="M186.469 243.667C185.081 239.891 171.268 211.105 171.129 210.817L172.087 210.433C172.657 211.62 186.059 239.552 187.462 243.37L186.469 243.667Z" fill="#1C1569"/>
<path d="M222.526 232.351C217.975 228.773 217.826 215.915 217.823 215.369L218.861 215.382C218.861 215.511 219.007 228.325 223.182 231.608L222.526 232.351Z" fill="#1C1569"/>
<path d="M236.435 248.542C226.448 239.482 225.821 217.091 225.8 216.143L226.841 216.142C226.846 216.37 227.48 239.074 237.152 247.847L236.435 248.542Z" fill="#1C1569"/>
<path d="M158.295 263.118L157.438 262.506C158.713 260.965 161.76 260.204 161.888 260.173L162.184 261.128C162.156 261.134 159.355 261.836 158.295 263.118Z" fill="#1C1569"/>
<path d="M167.019 305.477L166.701 304.527C167.27 304.374 223.896 288.975 241.865 266.092L242.74 266.683C224.562 289.832 167.592 305.324 167.019 305.477Z" fill="#1C1569"/>
<g opacity="0.65">
<path d="M238.512 257.066C241.299 259.405 242.279 261.801 242.571 263.602C232.703 269.906 199.333 290.153 188.164 283.579C174.99 275.833 197.33 254.261 208.799 250.336C218.847 246.894 229.194 245.392 235.807 251.583C235.871 253.322 236.489 255.371 238.512 257.066Z" fill="#7E98FD"/>
</g>
<path d="M201.207 334.049C201.196 334.049 199.349 334.866 195.924 336.18C184.761 340.479 156.795 350.166 120.973 354.747C104.747 356.835 86.8987 357.872 68.2658 356.88C68.2674 356.91 65.3967 356.623 61.1868 355.739C56.0256 354.644 48.8565 352.656 42.5293 349.237C32.4867 343.816 24.565 334.81 30.1928 320.14C31.5096 316.695 33.5903 312.923 36.5623 308.822C37.6744 307.284 38.8498 305.735 40.091 304.184C40.9713 303.077 41.8724 301.968 42.8159 300.848C52.1353 289.687 64.132 278.238 76.5661 267.527C82.5185 262.4 88.5848 257.428 94.498 252.746C103.474 245.646 112.123 239.186 119.599 233.773C123.115 231.214 126.378 228.9 129.281 226.851C135.436 222.507 140.033 219.379 142.227 217.852L142.226 217.842C142.854 217.411 143.275 217.103 143.492 216.94C143.522 216.91 143.553 216.888 143.584 216.868C143.603 216.849 143.625 216.829 143.636 216.818C143.636 216.818 143.634 216.817 143.645 216.827C143.831 217.097 146.81 221.248 150.023 227.511C151.896 231.198 153.849 235.601 155.365 240.371C155.74 241.555 156.097 242.766 156.399 243.99C156.728 245.282 157.024 246.585 157.268 247.901C158.878 256.69 158.345 266.019 152.902 273.981C152.915 274.218 103.41 304.608 102.177 316.163C102.264 316.18 102.359 316.197 102.446 316.205C102.726 316.237 103.209 316.274 103.884 316.315C104.282 316.345 104.733 316.371 105.259 316.396C111.287 316.73 125.495 317.198 141.558 316.602C157.301 316.006 174.836 314.384 188.221 310.597C189.948 310.118 191.608 309.593 193.182 309.027C193.182 309.027 193.63 310.571 194.315 312.89C194.814 314.572 195.433 316.666 196.1 318.875C196.65 320.704 197.229 322.632 197.8 324.46C199.331 329.318 200.742 333.559 201.207 334.049Z" fill="#6E53D8"/>
<path d="M196.173 318.86C162.095 329.799 70.4743 344.827 42.186 349.331C32.1165 343.891 24.1737 334.853 29.8174 320.133C31.1378 316.675 33.2243 312.891 36.2045 308.775C37.3197 307.231 38.4984 305.677 39.743 304.121C40.6257 303.01 41.5292 301.897 42.4754 300.773L155.858 245.747L157.238 247.64C158.852 256.46 158.318 265.821 152.86 273.811C152.873 274.049 103.232 304.545 101.996 316.141C102.083 316.157 102.178 316.174 102.266 316.182C102.546 316.214 103.031 316.252 103.708 316.293C104.107 316.322 104.559 316.349 105.086 316.374C117.059 317.034 161.168 318.231 188.273 310.554C190.004 310.073 191.669 309.545 193.247 308.978C193.247 308.978 193.697 310.527 194.383 312.854C194.883 314.542 195.504 316.643 196.173 318.86Z" fill="#514ED1"/>
<path d="M159.457 314.779C158.619 314.867 157.782 314.946 156.943 315.023C157.126 315.006 157.296 314.99 157.468 314.964C158.135 314.913 158.791 314.851 159.457 314.779Z" fill="#909FFD"/>
<path d="M164.978 314.179C164.409 314.247 163.84 314.306 163.271 314.373C164.086 314.276 164.901 314.181 165.706 314.085C165.47 314.112 165.225 314.152 164.978 314.179Z" fill="#909FFD"/>
<path d="M174.024 312.899C173.864 312.923 173.714 312.951 173.554 312.975C173.565 312.975 173.563 312.964 173.563 312.964C173.755 312.939 173.951 312.912 174.142 312.876C174.111 312.887 174.067 312.887 174.024 312.899Z" fill="#909FFD"/>
<path d="M59.9812 355.762C44.7298 352.539 11.9207 341.403 35.4209 308.943C36.5302 307.408 37.7026 305.863 38.9406 304.315C51.9667 305.296 72.9891 309.487 77.8307 326.071C81.6485 339.189 70.8336 349.257 59.9812 355.762Z" fill="#191868"/>
<path d="M52.3333 306.508L51.4951 305.881C51.8675 305.453 89.2338 262.866 123.267 236.495L123.966 237.252C90.012 263.564 52.7058 306.081 52.3333 306.508Z" fill="#1C1569"/>
<path d="M104.325 265.006L104.331 265.123C104.394 266.471 104.23 267.775 103.861 269.007C102.334 274.227 97.2701 278.113 91.0414 278.279C84.1285 278.463 78.1143 273.986 76.6569 267.929C77.2482 267.42 77.8309 266.925 78.4222 266.416C79.5245 265.471 80.6366 264.535 81.7487 263.598C86.0367 260.008 90.3414 256.515 94.5675 253.163C99.9807 254.85 104.019 259.47 104.325 265.006Z" fill="#929EFE"/>
<path d="M104.254 265.158C104.329 266.514 104.178 267.825 103.822 269.063C103.425 269.023 103.028 268.942 102.638 268.822C101.241 268.408 100.016 267.526 99.2179 266.345L95.3088 260.53C95.0518 260.16 94.6836 259.89 94.2398 259.752C93.7201 259.595 93.1603 259.658 92.6983 259.908C92.2884 260.156 91.9836 260.528 91.8851 260.976C91.7763 261.435 91.8693 261.898 92.14 262.307L96.0496 268.131C97.8476 270.825 97.007 274.302 94.176 275.903C92.7804 276.678 91.0517 276.887 89.4306 276.468L88.998 276.33C87.6633 275.896 86.5233 275.03 85.7733 273.927L81.0927 267.46C80.8339 267.06 80.4115 266.762 79.9149 266.644C79.4189 266.537 78.9242 266.598 78.4932 266.836C78.2889 266.969 78.0964 267.113 77.9599 267.315C77.8394 266.772 78.5248 266.892 78.4908 266.359C79.5787 265.413 80.6764 264.475 81.7742 263.537C83.2548 263.919 84.5671 264.852 85.3991 266.07L89.3087 271.894C89.5657 272.264 89.945 272.532 90.3789 272.662C90.8986 272.819 91.4679 272.757 91.9188 272.508C92.3293 272.27 92.636 271.897 92.7337 271.439C92.8426 270.98 92.7607 270.516 92.4788 270.106L88.5699 264.293C86.7719 261.599 87.6124 258.122 90.4434 256.521C91.9191 255.685 93.7354 255.503 95.4263 256.02C96.8461 256.443 98.0569 257.306 98.8548 258.488L102.796 264.311C103.032 264.673 103.409 264.941 103.844 265.079C103.974 265.124 104.116 265.151 104.254 265.158Z" fill="#DB05C0"/>
<path d="M101.947 348.99C84.7394 350.291 71.8558 346.829 71.6834 346.794L71.8963 345.797C72.0344 345.827 81.4609 348.736 101.682 348.014C119.55 347.376 150.452 339.134 193.76 328.236L194 329.459C185.93 330.992 125.822 347.186 101.947 348.99Z" fill="#1C1569"/>
<path d="M247.297 311.02C246.812 311.26 244.293 312.413 240.958 313.834C235.713 316.075 228.473 319 224.031 320.108C228.093 319.218 241.222 316.336 242.807 316.081C244.729 315.767 245.461 318.538 242.299 319.637C239.145 320.724 202.112 333.089 202.112 333.089C202.112 333.089 201.607 331.716 200.832 329.594C198.706 323.661 194.561 311.832 193.864 307.598C193.864 307.598 195.299 307.026 197.616 306.365C200.634 305.508 205.169 304.507 209.978 304.477C210.425 304.466 210.957 304.424 211.559 304.34L211.674 304.327C212.14 304.276 212.648 304.196 213.197 304.103C215.595 303.71 218.666 303.041 221.843 302.33C229.577 300.628 237.914 298.714 238.555 300.053C239.144 301.274 232.547 303.536 226.725 305.273C222.694 306.472 219.031 307.423 218.38 307.587C219.087 307.481 223.183 306.799 227.823 305.936C228.149 305.868 228.467 305.81 228.793 305.743C233.336 304.872 238.199 303.834 240.821 302.967C246.63 301.031 246.742 303.656 246.742 303.656C246.742 303.656 248.28 305.66 239.424 307.995C237.588 308.486 235.679 309.009 233.814 309.54C226.667 311.567 220.057 313.64 220.057 313.64C220.057 313.64 228.369 312.514 236.032 310.873C240.073 310.003 243.935 308.997 246.289 307.936C248.886 306.821 249.623 309.86 247.297 311.02Z" fill="#B5504E"/>
<path d="M218.652 299.342C216.965 302.455 213.387 304.58 213.387 304.58L211.859 304.806L211.744 304.819L197.758 306.856L197.695 306.868C197.695 306.868 213.139 299.982 216.972 296.299C217.131 296.296 220.338 296.219 218.652 299.342Z" fill="#B5504E"/>
<path d="M218.424 307.747C219.186 307.629 223.815 306.863 228.847 305.897L200.776 329.656C198.676 323.761 194.584 312.009 193.906 307.801C193.906 307.801 195.344 307.23 197.664 306.569L197.601 306.581C197.601 306.581 213.029 299.748 216.866 296.101C217.026 296.097 220.224 296.016 218.529 299.106C216.833 302.186 213.257 304.293 213.257 304.293C221.52 302.922 237.745 298.344 238.635 300.223C239.622 302.276 220.022 307.332 218.424 307.747Z" fill="#693741"/>
<path d="M227.124 305.477L222.214 302.49C229.996 300.76 238.386 298.815 239.029 300.174C239.621 301.414 232.982 303.712 227.124 305.477Z" fill="#D67B5F"/>
<path d="M239.866 308.024C238.021 308.52 236.102 309.05 234.227 309.587L228.207 305.943C228.535 305.875 228.855 305.816 229.182 305.748C233.749 304.866 238.637 303.816 241.273 302.939C247.112 300.98 247.224 303.634 247.224 303.634C247.224 303.634 248.768 305.661 239.866 308.024Z" fill="#D67B5F"/>
<path d="M247.697 310.87C247.21 311.111 244.683 312.271 241.339 313.699L236.399 310.723C240.452 309.848 244.325 308.837 246.686 307.771C249.291 306.65 250.029 309.704 247.697 310.87Z" fill="#D67B5F"/>
<path d="M201.45 332.906C201.439 332.906 199.622 333.717 196.255 335.023C193.487 326.63 190.194 314.989 188.694 309.616C190.391 309.14 192.024 308.617 193.571 308.056C193.571 308.056 194.011 309.589 194.683 311.891C196.648 318.643 200.613 332.018 201.45 332.906Z" fill="#490479"/>
<path d="M104.804 316.677C103.778 316.705 102.817 316.639 101.863 316.476L102.004 315.494C102.279 315.525 102.756 315.561 103.421 315.603L103.425 315.603C103.821 315.631 104.27 315.659 104.795 315.685L104.804 316.677Z" fill="#1C1569"/>
<path d="M153.063 273.94C153.076 274.177 103.745 304.485 102.517 316.01C90.3748 313.454 96.9148 302.199 118.838 284.065C140.761 265.931 154.96 243.443 154.96 243.443C154.96 243.443 164.12 253.787 153.063 273.94Z" fill="#3736B0"/>
<path d="M154.269 274.002L153.363 273.527C163.547 255.388 153.013 239.172 152.906 239.01L153.768 238.5C153.879 238.667 164.728 255.368 154.269 274.002Z" fill="#1C1569"/>
<path d="M194.664 312.091C173.084 324.813 125.26 326.722 112.601 324.153C103.409 322.282 102.954 317.99 103.457 315.676C113.589 316.341 165.972 318.193 193.525 308.105C193.525 308.105 193.976 309.698 194.664 312.091Z" fill="#7E98FD"/>
<path d="M160.72 238.63C159.329 239.458 157.932 240.159 156.549 240.729C153.615 241.954 150.713 242.624 147.898 242.886C136.187 243.96 125.892 237.898 120.698 234.112C131.686 226.137 140.138 220.395 143.38 218.144L143.379 218.134C143.801 217.817 144.225 217.508 144.648 217.229C144.679 217.199 144.709 217.177 144.74 217.157C144.76 217.138 144.782 217.118 144.792 217.107C144.792 217.107 144.79 217.106 144.802 217.116C154.491 210.669 166.948 211.226 166.948 211.226C166.948 211.226 167.189 211.163 167.644 211.041C171.545 219.36 173.568 230.953 160.72 238.63Z" fill="#221983"/>
<path d="M194.659 312.043C180.538 320.279 155.158 323.917 135.778 324.736C138.075 320.994 140.095 317.923 141.513 315.844C142.232 315.814 142.963 315.783 143.694 315.744C144.242 315.718 144.791 315.694 145.339 315.669C145.618 315.651 145.898 315.645 146.189 315.626L146.37 315.621C146.757 315.591 147.144 315.57 147.531 315.56C147.875 315.54 148.218 315.522 148.562 315.502C149.647 315.431 150.743 315.37 151.848 315.29C152.428 315.255 153.006 315.209 153.586 315.174L153.652 315.172C153.867 315.156 154.08 315.141 154.306 315.124C154.629 315.096 154.949 315.075 155.271 315.047C155.379 315.033 155.486 315.032 155.594 315.019C155.657 315.006 155.722 315.005 155.786 315.003C156.172 314.973 156.559 314.941 156.945 314.911C157.782 314.839 158.617 314.765 159.453 314.682C159.743 314.655 160.02 314.626 160.31 314.599C160.46 314.584 160.6 314.571 160.739 314.557C161.114 314.527 161.479 314.485 161.843 314.446C162.314 314.403 162.786 314.349 163.247 314.296C163.815 314.231 164.382 314.175 164.95 314.11C165.197 314.084 165.441 314.045 165.676 314.02C165.751 314.007 165.827 314.007 165.902 313.994C166.415 313.931 166.918 313.874 167.41 313.801C168.362 313.685 169.303 313.56 170.245 313.423C170.598 313.373 170.951 313.323 171.304 313.273C171.496 313.248 171.678 313.211 171.869 313.187C172.04 313.163 172.2 313.137 172.35 313.113C172.692 313.063 173.036 313.014 173.377 312.955C173.421 312.954 173.452 312.944 173.485 312.943C173.644 312.919 173.794 312.892 173.954 312.868C173.997 312.857 174.04 312.857 174.072 312.846C174.671 312.748 175.267 312.652 175.843 312.547C176.121 312.498 176.389 312.452 176.655 312.404C177.019 312.345 177.369 312.272 177.722 312.213C178.265 312.108 178.798 312.014 179.331 311.899C179.577 311.851 179.822 311.804 180.067 311.748C180.484 311.676 180.888 311.584 181.283 311.503C181.335 311.491 181.401 311.48 181.453 311.468C181.505 311.456 181.56 311.446 181.612 311.434C181.719 311.411 181.814 311.388 181.921 311.365C182.027 311.343 182.134 311.319 182.229 311.297C182.581 311.216 182.931 311.136 183.282 311.056C184.102 310.873 184.91 310.669 185.697 310.467C185.792 310.445 185.887 310.421 185.973 310.4C186.408 310.287 186.834 310.177 187.248 310.065C187.674 309.952 188.097 309.83 188.522 309.707C188.798 309.628 189.074 309.552 189.339 309.474C189.773 309.342 190.197 309.209 190.622 309.077C191.618 308.769 192.579 308.441 193.521 308.104C193.521 308.104 193.971 309.678 194.659 312.043Z" fill="#7EB2FF"/>
<path d="M153.699 315.291C153.893 315.285 154.099 315.269 154.292 315.252C154.065 315.27 153.851 315.286 153.635 315.304C153.656 315.292 153.678 315.291 153.699 315.291Z" fill="#514ED1"/>
<path d="M182.034 311.373C181.927 311.396 181.831 311.42 181.724 311.442C181.82 311.42 181.904 311.396 181.99 311.374L182.034 311.373Z" fill="#514ED1"/>
<path d="M153.699 315.291C154.226 315.243 154.743 315.205 155.259 315.168C154.936 315.199 154.614 315.222 154.291 315.252C154.098 315.27 153.892 315.285 153.699 315.291Z" fill="#7E98FD"/>
<path d="M157.468 314.965C158.424 314.885 159.37 314.794 160.316 314.691C160.025 314.72 159.748 314.751 159.457 314.78C158.619 314.868 157.782 314.947 156.943 315.023C156.555 315.055 156.168 315.089 155.78 315.121C156.351 315.073 156.908 315.013 157.468 314.965Z" fill="#7E98FD"/>
<path d="M174.024 312.899C173.864 312.923 173.714 312.951 173.554 312.975C173.565 312.975 173.563 312.964 173.563 312.964C173.723 312.948 173.874 312.923 174.024 312.899Z" fill="#7E98FD"/>
<path d="M215.284 176.478C215.958 188.678 209.511 199.553 199.291 205.731C193.938 208.976 187.564 210.926 180.632 211.111C178.393 211.17 176.196 211.042 174.055 210.744C156.847 208.357 143.163 194.949 142.249 178.423C141.221 159.834 156.734 144.319 176.91 143.782C197.074 143.245 214.256 157.889 215.284 176.478Z" fill="#7E98FD"/>
<path d="M214.267 185.929C214.231 186.058 214.206 186.188 214.161 186.318C211.918 194.34 206.52 201.195 199.184 205.636C193.802 208.903 187.394 210.867 180.425 211.054C178.174 211.114 175.965 210.985 173.813 210.685C164.335 209.372 155.92 204.719 150.098 198.043C149.664 197.558 149.249 197.055 148.855 196.539L210.01 176.831L214.267 185.929Z" fill="#BF3030"/>
<path d="M202.171 199.425C202.171 199.425 200.089 200.77 197.577 201.269C197.663 201.267 197.84 206.014 197.84 206.014L175.19 209.382L172.947 204.522L167.298 191.714L165.029 186.551L163.419 182.894L161.76 179.14C161.76 179.14 166.805 173.123 174.205 169.738C177.597 168.181 181.5 167.171 185.63 167.562C185.63 167.562 187.408 169.77 189.802 172.745C189.814 172.764 189.88 172.842 189.995 172.986C190.052 173.064 190.122 173.142 190.19 173.228C190.225 173.275 190.271 173.324 190.305 173.372C190.477 173.594 190.671 173.824 190.855 174.056C191.392 174.721 192.056 175.54 192.585 176.214C192.687 176.339 192.78 176.454 192.882 176.58C192.929 176.637 192.975 176.695 193.021 176.752C193.158 176.925 193.296 177.101 193.444 177.274C193.547 177.409 193.605 177.475 193.605 177.475C197.925 182.86 202.395 188.427 202.395 188.427C202.395 188.427 203.702 190.056 204.396 192.183C204.431 192.251 204.446 192.318 204.471 192.387C205.162 194.642 205.122 197.418 202.171 199.425Z" fill="#E45A53"/>
<path d="M200.043 166.819C200.209 171.951 193.719 177.661 193.719 177.661C193.719 177.661 193.661 177.595 193.557 177.46C193.455 177.334 193.317 177.15 193.135 176.938C193.089 176.881 193.042 176.823 192.996 176.766C192.903 176.651 192.801 176.525 192.698 176.4C192.17 175.726 191.506 174.907 190.969 174.242C190.764 173.992 190.58 173.751 190.419 173.558C190.385 173.511 190.339 173.462 190.304 173.414C190.235 173.318 190.165 173.24 190.109 173.172C189.994 173.028 189.928 172.951 189.916 172.932C183.723 172.281 179.466 174.41 176.274 176.689C175.217 177.445 174.278 178.229 173.42 178.921C173.185 179.114 172.972 179.296 172.801 179.487C171.974 180.365 171.725 181.229 171.755 181.975C171.816 183.45 172.94 184.511 172.94 184.511C172.94 184.511 178.376 189.62 177.081 190.875C175.785 192.139 174.728 191.557 174.728 191.557L174.684 191.539L171.214 190.165L167.416 191.899L167.303 191.952L170.015 197.811C170.015 197.811 160.45 192.281 160.439 192.084C156.83 190.291 156.169 187.802 156.34 185.859C156.49 184.144 157.284 182.862 157.284 182.862C157.284 182.862 151.201 181.107 152.007 175.035C152.223 173.357 152.778 172.003 153.55 170.91C157.003 166.017 164.728 166.401 164.644 166.443C164.218 161.811 166.306 160.004 168.251 159.312L168.262 159.312C169.833 158.758 171.313 158.937 171.313 158.937C171.717 155.05 173.642 149.313 180.744 148.886C193.412 148.165 193.298 161.577 193.298 161.577C195.028 160.232 196.684 160.66 196.684 160.66C196.684 160.66 199.28 160.946 199.999 166.22C200.03 166.416 200.043 166.611 200.043 166.819Z" fill="#310141"/>
<path d="M200.432 166.916C188.14 169.549 175.345 163.47 168.492 159.37C170.07 158.814 171.557 158.993 171.557 158.993C171.705 157.574 172.054 155.902 172.781 154.33C174.067 151.587 176.494 149.158 181.037 148.889C190.977 148.327 193.087 156.431 193.531 159.999C193.662 161.003 193.654 161.647 193.654 161.647C195.392 160.295 197.057 160.725 197.057 160.725C197.057 160.725 199.665 161.012 200.388 166.314C200.419 166.512 200.432 166.708 200.432 166.916Z" fill="#740351"/>
<path d="M202.164 199.367C202.164 199.367 200.077 200.715 197.561 201.215C197.647 201.212 197.824 205.967 197.824 205.967L175.128 209.341L172.88 204.473L167.22 191.644L171.026 189.907L174.503 191.283L174.548 191.301C174.548 191.301 175.608 191.884 176.906 190.619C178.204 189.361 172.756 184.243 172.756 184.243C172.756 184.243 171.63 183.18 171.569 181.703C171.538 180.956 171.788 180.09 172.616 179.211C172.788 179.019 173.294 178.356 173.237 178.643C172.934 180.139 178.995 192.288 192.436 197.39C197.238 199.213 202.257 196.606 204.393 192.114C204.429 192.182 204.444 192.249 204.468 192.318C205.161 194.577 205.121 197.357 202.164 199.367Z" fill="#5E2C30"/>
<path d="M183.647 183.295C184.126 184.088 184.189 184.895 183.788 185.096C183.386 185.296 182.671 184.817 182.193 184.024C181.714 183.232 181.651 182.424 182.052 182.224C182.454 182.023 183.169 182.503 183.647 183.295Z" fill="#442620"/>
<path d="M192.945 179.013C193.424 179.806 193.487 180.613 193.085 180.814C192.684 181.014 191.969 180.535 191.49 179.742C191.012 178.949 190.949 178.142 191.35 177.942C191.752 177.741 192.467 178.221 192.945 179.013Z" fill="#442620"/>
<path d="M191.361 191.068C189.418 191.117 187.742 190.577 187.709 190.566C187.569 190.52 187.49 190.376 187.538 190.246C187.583 190.116 187.734 190.051 187.876 190.093C188.13 190.178 194.156 192.115 196.154 187.774C196.213 187.649 196.368 187.594 196.506 187.65C196.643 187.707 196.705 187.857 196.648 187.983C195.547 190.372 193.318 191.019 191.361 191.068Z" fill="#442620"/>
<path d="M185.58 177.667L191.983 184.336C192.283 184.626 192.372 185.056 192.191 185.412C191.848 186.087 191.601 187.084 190.519 187.58L185.58 177.667Z" fill="#5E2C30"/>
<path d="M186.761 188.841C186.085 189.328 184.996 189.279 183.688 188.697C182.319 188.091 180.904 186.986 179.698 185.586C177.293 182.791 176.463 179.561 177.886 178.531C178.176 178.322 178.542 178.219 178.959 178.208C180.594 178.164 183.035 179.562 184.951 181.786C186.155 183.185 186.998 184.707 187.324 186.067C187.635 187.369 187.435 188.354 186.761 188.841ZM197.417 183.954C196.743 184.441 195.649 184.388 194.342 183.81C192.973 183.202 191.557 182.096 190.352 180.697C189.146 179.298 188.305 177.779 187.979 176.418C187.668 175.116 187.868 174.131 188.542 173.644C188.832 173.435 189.195 173.329 189.613 173.318C191.247 173.275 193.689 174.674 195.605 176.899C196.81 178.298 197.652 179.818 197.977 181.18C198.289 182.481 198.091 183.467 197.417 183.954ZM198.501 181.084C198.158 179.65 197.277 178.058 196.021 176.599C193.344 173.49 189.912 172.02 188.206 173.253C187.363 173.861 187.098 175.018 187.455 176.513C187.732 177.671 188.372 178.929 189.264 180.139L185.838 182.089C185.682 181.888 185.537 181.684 185.368 181.487C182.693 178.377 179.256 176.905 177.55 178.141C175.842 179.376 176.605 182.778 179.282 185.887C179.423 186.05 179.576 186.196 179.722 186.352L171.483 190.157L171.732 190.6L180.088 186.74C181.15 187.792 182.319 188.633 183.464 189.141C184.289 189.506 185.05 189.682 185.708 189.665C186.248 189.65 186.719 189.506 187.097 189.232C187.94 188.624 188.204 187.467 187.846 185.972C187.581 184.862 186.987 183.658 186.154 182.494L189.58 180.544C189.7 180.695 189.807 180.851 189.935 180.998C191.191 182.457 192.675 183.613 194.118 184.253C194.942 184.619 195.706 184.795 196.364 184.777C196.904 184.763 197.372 184.618 197.751 184.344C198.591 183.736 198.859 182.579 198.501 181.084Z" fill="#5CFF85"/>
<path d="M199.077 205.413C193.682 208.704 187.259 210.682 180.275 210.87C178.019 210.931 175.805 210.801 173.648 210.5C173.739 209.599 171.335 203.404 171.335 203.404C171.335 203.404 171.645 203.407 172.217 203.41C175.921 203.451 190.275 203.445 197.492 201.233C197.842 201.123 198.171 201.015 198.476 200.896L199.077 205.413Z" fill="#6E0576"/>
<path d="M180.659 211.603C178.433 211.662 176.189 211.537 173.988 211.232C156.202 208.765 142.629 194.973 141.715 178.44C140.673 159.603 156.449 143.836 176.882 143.291C197.309 142.747 214.774 157.629 215.815 176.466C216.481 188.503 210.415 199.598 199.591 206.144C193.994 209.533 187.448 211.422 180.659 211.603ZM176.936 144.274C157.092 144.803 141.77 160.115 142.781 178.411C143.669 194.468 156.852 207.862 174.123 210.258C176.262 210.556 178.442 210.678 180.605 210.62C187.199 210.444 193.559 208.611 198.991 205.317C209.506 198.961 215.398 188.186 214.751 176.494C213.74 158.198 196.775 143.746 176.936 144.274Z" fill="white"/>
<path d="M401.718 176.582L302.275 179.556L301.971 173.381L401.414 170.408L401.718 176.582Z" fill="#23863C"/>
<path d="M302.001 173.42L346.835 169.178L426.222 166.835L426.467 171.744L401.737 176.621L401.431 170.485L302.001 173.42Z" fill="#5CFF85"/>
<path d="M423.942 124.356L345.853 126.444L348.228 169.56L426.317 167.472L423.942 124.356Z" fill="#4DFF72"/>
<path d="M421.982 126.137L347.979 128.115L350.258 169.488L424.262 167.51L421.982 126.137Z" fill="#0F2133"/>
<mask id="mask0_220_2343" style="mask-type:luminance" maskUnits="userSpaceOnUse" x="225" y="91" width="321" height="80">
<path d="M545.18 91.7231L225.975 100.902L348.805 170.172L424.31 168.439L545.18 91.7231Z" fill="url(#paint0_linear_220_2343)"/>
</mask>
<g mask="url(#mask0_220_2343)">
<g opacity="0.72">
<path d="M545.18 91.7231L225.975 100.902L348.805 170.172L424.31 168.439L545.18 91.7231Z" fill="#5CFF85"/>
</g>
</g>
<path d="M368.693 76.3704L433.698 8.64533L467.646 37.2465L416.221 96.202L388.196 104.233L368.693 76.3704Z" fill="#FFB7AB"/>
<path d="M365.228 69.6653L388.696 103.191L433.565 90.3355L413.874 132.244L346.516 112.231L365.228 69.6653Z" fill="#FF635F"/>
<path d="M413.826 132.559C413.803 132.557 413.781 132.553 413.758 132.545L346.403 112.532C346.314 112.506 346.244 112.448 346.205 112.369C346.168 112.291 346.167 112.199 346.203 112.118L364.915 69.555C364.964 69.4432 365.073 69.3652 365.2 69.3504C365.328 69.3394 365.448 69.3877 365.517 69.484L388.85 102.816L433.475 90.0299C433.602 89.9976 433.739 90.0279 433.823 90.1169C433.908 90.2077 433.927 90.3383 433.875 90.4516L414.187 132.359C414.124 132.493 413.974 132.573 413.826 132.559ZM346.972 112.024L413.691 131.849L432.961 90.8358L388.784 103.494C388.641 103.532 388.487 103.486 388.407 103.371L365.292 70.3487L346.972 112.024Z" fill="#FFB7AB"/>
<path d="M346.418 111.944L346.007 111.458L377.622 87.687L378.034 88.1727L346.418 111.944Z" fill="#FFB7AB"/>
<path d="M414.109 132.097L409.405 97.7652L410.058 97.6613L414.762 131.993L414.109 132.097Z" fill="#FFB7AB"/>
<path d="M364.331 70.4555L363.952 69.9439L388.795 53.486L389.173 53.9976L364.331 70.4555Z" fill="#FFB7AB"/>
<path d="M433.394 91.3135L433.134 77.5375L433.787 77.5023L434.046 91.2783L433.394 91.3135Z" fill="#FFB7AB"/>
<path d="M444.143 64.0376C443.957 63.9245 425.424 52.693 418.77 48.9103C413.694 46.0253 410.686 41.9818 410.515 37.8234C410.346 33.7302 412.755 29.7046 417.673 25.8548C429.278 16.7714 446.76 19.5948 446.936 19.628L446.696 20.6012C446.522 20.5752 429.524 17.8317 418.318 26.6026C413.682 30.2298 411.408 33.974 411.563 37.7304C411.722 41.5679 414.558 45.3308 419.348 48.0551C426.014 51.8441 444.557 63.0835 444.745 63.1968L444.143 64.0376Z" fill="#161B70"/>
<path d="M455.95 31.3118C443.323 30.148 424.15 20.1547 423.277 19.6963L423.829 18.7822C424.057 18.9023 446.806 30.7772 458.848 30.3792L458.828 31.4138C457.919 31.4419 456.955 31.4045 455.95 31.3118Z" fill="#161B70"/>
<path d="M434.925 75.4072C434.832 75.3654 425.549 71.2385 415.834 64.9961C410.531 61.5868 408.178 54.6899 410.359 48.9544C412.888 42.3084 420.711 38.549 431.823 38.6448C441.657 38.7227 448.385 40.9208 451.807 45.154C455.15 49.2919 454.016 53.8039 453.965 53.9941L452.937 53.8056C452.949 53.7642 453.996 49.5381 450.939 45.7707C447.706 41.7841 441.248 39.7304 431.756 39.642C421.146 39.5519 413.709 43.0518 411.353 49.2425C409.325 54.5723 411.523 60.9848 416.464 64.1603C426.109 70.3611 435.326 74.4573 435.419 74.4974L434.925 75.4072Z" fill="#161B70"/>
<path d="M437.33 72.5489C437.072 72.3346 411.106 51.2378 387.263 56.9178L387.054 55.9161C411.428 50.1163 437.792 71.5319 438.055 71.7486L437.33 72.5489Z" fill="#161B70"/>
<path d="M396.499 101.844C388.999 100.876 384.277 96.0141 382.594 93.9683C381.312 92.4104 380.431 89.0719 381.354 85.1319C381.721 83.5604 382.433 81.6705 383.781 79.7392C378.258 74.9109 374.812 69.9147 374.545 69.5224L375.449 68.9493C375.513 69.0423 378.945 74.0141 384.448 78.8477C385.862 77.0844 387.845 75.3218 390.615 73.777C401.559 67.6815 416.687 73.453 420.397 78.7806C421.83 80.8364 421.985 82.9387 420.838 84.7008C418.669 88.0297 412.408 89.5277 403.21 88.9128C395.956 88.4583 389.501 84.5637 384.559 80.4066C383.365 82.161 382.726 83.8705 382.391 85.2972C381.547 88.9041 382.348 91.9879 383.449 93.325C385.058 95.2806 389.566 99.9279 396.698 100.849L396.499 101.844ZM385.219 79.511C390.069 83.6118 396.39 87.4713 403.343 87.9115C411.983 88.4875 418.032 87.1399 419.94 84.2115C420.855 82.8079 420.698 81.0864 419.498 79.3649C416.059 74.4281 401.375 68.9204 391.118 74.6353C388.447 76.1231 386.556 77.8191 385.219 79.511Z" fill="#161B70"/>
<path d="M385.603 99.167L384.952 98.3841C385.085 98.2815 398.537 87.9733 407.299 97.695L406.469 98.3883C398.371 89.4015 386.123 98.7625 385.603 99.167Z" fill="#161B70"/>
<path d="M281.832 94.3302L280.982 97.0992L310.63 147.077L361.068 117.797L361.558 114.719L311.184 144.503L281.832 94.3302Z" fill="#C2563E"/>
<path d="M361.656 114.892L311.505 144.542L282.281 94.5909L331.487 68.6518L361.656 114.892Z" fill="#FBD5A6"/>
<path d="M314.298 85.2993C315.367 85.193 316.55 85.2136 317.843 85.3676C318.883 85.4706 319.609 85.4207 320.02 85.2182C320.328 85.0665 320.462 84.7732 320.418 84.3338C320.375 83.896 320.17 83.2629 319.802 82.4365L320.984 81.8579C322 83.8999 324.004 87.3822 326.992 92.3078L325.808 92.8885C323.945 90.2555 321.751 88.3445 319.227 87.1522C316.702 85.96 314.118 86.0121 311.478 87.3058C309.628 88.2136 308.451 89.5016 307.951 91.1688C307.451 92.838 307.723 94.5317 308.767 96.2534C309.546 97.5354 310.52 98.5017 311.693 99.1515C312.865 99.8034 314.121 100.238 315.457 100.46C316.793 100.682 318.633 100.894 320.982 101.099L323.027 101.279C325.985 101.537 328.391 101.858 330.247 102.239C332.103 102.622 333.794 103.269 335.327 104.18C336.86 105.092 338.148 106.41 339.192 108.13C341.055 111.2 341.465 114.076 340.421 116.754C339.377 119.433 337.277 121.546 334.124 123.092C332.478 123.899 331.029 124.388 329.78 124.564C328.53 124.74 327.25 124.776 325.942 124.673C324.9 124.571 324.176 124.622 323.765 124.822C323.456 124.975 323.322 125.27 323.367 125.707C323.41 126.146 323.615 126.778 323.984 127.604L322.802 128.183C321.812 126.262 319.426 122.179 315.638 115.935L316.82 115.356C319.127 118.648 321.663 120.992 324.427 122.396C327.191 123.799 330.098 123.752 333.15 122.256C335.002 121.347 336.235 120.009 336.852 118.24C337.469 116.472 337.103 114.475 335.752 112.247C334.606 110.359 332.99 109.07 330.905 108.384C328.821 107.698 325.89 107.208 322.11 106.917C319.349 106.695 317.058 106.417 315.232 106.085C313.407 105.755 311.698 105.116 310.1 104.169C308.503 103.224 307.161 101.855 306.076 100.067C304.356 97.233 303.967 94.6115 304.908 92.2022C305.848 89.7933 307.689 87.9148 310.433 86.57C311.941 85.8316 313.23 85.4091 314.298 85.2993Z" fill="#FF635F"/>
<path d="M510.132 114.816L509.999 114.385L527.323 108.863L526.056 106.071L512.337 101.576L512.522 101.145L526.429 105.698L527.984 109.128L527.72 109.211L510.132 114.816Z" fill="#FFB7AB"/>
<path d="M512.165 98.9274L398.952 108.485L398.605 123.343L509.708 112.972L512.165 98.9274Z" fill="#FFB7AB"/>
<path d="M398.516 113.618L398.499 112.974L511.589 103.167L511.477 103.822L398.516 113.618Z" fill="#161B70"/>
<path d="M398.592 118.483L398.572 117.84L510.961 107.481L510.859 108.136L398.592 118.483Z" fill="#161B70"/>
<path d="M523.8 105.05L521.662 111.45L523.671 110.864L530.962 108.34C531.475 108.149 531.496 107.287 530.992 107.14L523.8 105.05Z" fill="#FF635F"/>
<path d="M31.4343 523.242C31.737 523.216 32.0337 523.159 32.3418 523.161C32.4096 523.163 32.4402 523.161 32.502 523.163C33.3899 522.274 34.3262 521.413 35.2244 520.529C36.0407 519.726 36.9262 518.995 37.7907 518.244C36.7409 517.093 35.2532 515.636 33.2718 514.108C30.706 512.156 27.3453 510.102 23.1184 508.554C22.0122 508.14 20.8317 507.764 19.6013 507.429C7.4633 504.13 -1.73458 496.27 -4.48014 485.914C-4.7463 484.907 -6.33369 485.114 -6.43521 486.181C-6.93786 491.698 -8.05537 499.91 3.36008 508.041C6.46673 510.265 10.5043 512.48 15.7326 514.631C17.5162 515.366 19.1368 516.058 20.61 516.732C26.123 519.233 29.5882 521.293 31.6903 522.992C31.5933 523.085 31.5113 523.165 31.4343 523.242Z" fill="#8396F4"/>
<g opacity="0.78">
<path d="M38.4776 518.266C37.4152 517.075 35.8765 515.55 33.8246 513.955C31.2522 514.462 27.8712 514.965 24.2376 512.369C20.09 509.414 7.15498 505.396 3.65539 507.734C6.79529 510.004 10.8688 512.258 16.1504 514.455C24.6546 518.003 29.5489 520.8 32.2509 522.995C34.9896 524.82 36.8282 524.441 37.9963 523.529C39.0109 522.737 41.687 520.688 38.4776 518.266Z" fill="#4F4FC8"/>
</g>
<path d="M42.8612 559.752L42.838 559.753L27.105 559.251L26.4622 559.227C25.0864 559.191 23.8111 559.892 23.2601 561.06C21.6747 564.327 17.707 570.778 10.5164 572.131C5.93137 573 3.27368 571.171 1.75198 569.005C1.75136 568.994 1.73979 568.995 1.73979 568.995C1.06597 568.031 0.616077 566.996 0.313081 566.097C-0.29434 564.307 0.926309 562.456 2.95287 562.251C3.95305 562.139 5.2716 562.154 7.00166 562.37C13.0671 563.151 17.2662 554.21 18.9758 551.088C19.5365 550.089 20.5381 549.398 21.7263 549.163L34.3415 546.792L39.6535 545.798L41.9297 545.365L42.5918 555.681L42.8612 559.752Z" fill="#9CABF6"/>
<g opacity="0.78">
<path d="M35.7737 559.906L24.2843 559.545C24.1228 556.741 27.8704 553.447 30.0678 551.39C31.7389 549.821 31.8085 548.297 31.4727 547.165L32.5962 546.949L32.7631 547.615L35.7737 559.906Z" fill="#4F4FC8"/>
</g>
<path d="M174.084 497.084L153.568 494.74C150.022 494.344 146.476 495.108 143.536 496.921L136.239 501.417L123.995 508.949L123.323 509.534C123.197 507.012 122.675 505.306 122.675 505.306C122.424 504.326 122.159 503.274 121.879 502.148C120.361 496.104 118.391 488.331 117.103 483.318C117.114 483.296 117.113 483.286 117.101 483.275C116.325 480.254 115.81 478.243 115.787 478.244C121.276 474.322 123.671 468.158 123.828 467.723C123.828 467.712 123.839 467.712 123.838 467.701C125.324 464.092 124.135 457.262 123.438 454.049C123.205 452.964 123.029 452.285 123.029 452.285C122.932 450.587 122.15 449.236 121.38 448.292C120.6 447.359 119.179 447.167 118.21 447.887L111.62 452.836C107.663 457.323 101.538 454.525 101.538 454.525C101.538 454.525 96.7896 450.783 89.5499 453.106L89.5459 450.074C89.5459 450.074 95.7456 451.202 99.4449 446.775L90.8531 439.805C90.8531 439.805 89.4622 438.363 85.6055 441.021C81.7596 443.669 79.9346 445.347 79.9346 445.347C79.9346 445.347 79.8796 445.389 79.7932 445.455C79.3582 445.793 78.0778 447.035 78.9827 448.93C79.4087 449.801 80.6887 451.349 81.5956 453.077C81.6813 453.201 81.7224 453.315 81.7865 453.428C79.9075 451.969 77.9489 450.692 76.6608 450.035C76.0281 449.706 75.4306 449.586 74.8887 449.633C72.4561 449.816 70.8011 453.212 69.0813 455.716C68.6413 456.368 68.3585 456.985 68.2195 457.534C68.2195 457.534 68.2206 457.554 68.2212 457.565C67.6911 459.615 68.8221 460.907 68.8221 460.907L78.7354 467.914L79.2453 468.277L79.2689 468.287C79.2749 468.391 79.2779 468.444 79.2779 468.444C79.3251 469.063 79.4168 469.657 79.5533 470.263C79.5564 470.316 79.5689 470.367 79.5834 470.42C79.9446 471.963 80.5427 473.458 81.2102 474.792C81.647 475.684 82.1272 476.498 82.5773 477.22C83.2158 478.251 83.8012 479.126 84.2954 480.015C85.5707 482.247 86.3228 484.451 86.2378 488.904C86.1213 494.774 82.5032 498.213 79.4747 500.071L79.4632 500.071C77.2355 501.446 75.3333 501.949 75.3333 501.949L55.6413 508.22C49.2538 509.424 44.4391 512.066 40.5059 516.094C39.0463 518.389 37.3954 520.557 35.9085 522.843C35.6125 523.298 35.297 523.712 34.964 524.092C34.8947 524.253 34.8597 524.345 34.8597 524.345C32.5706 529.583 31.431 536.635 32.8813 542.473L34.7863 550.312L34.9608 550.978L37.9639 563.268L38.7044 566.27L40.4156 573.274L34.1542 581.164C32.3939 583.366 32.6523 586.453 34.7904 588.45C40.0768 593.435 49.5209 602.386 52.6275 605.615C53.2558 606.269 53.3996 607.169 53.0805 607.954C51.9021 610.768 53.0262 613.139 54.9456 614.502C57.1122 616.027 60.0837 614.778 60.0837 614.778C65.9525 611.528 65.9965 607.362 65.2819 604.81C64.9255 603.55 64.1789 602.407 63.2032 601.447C59.3384 597.672 48.5889 584.235 48.9309 584.046C63.8962 579.146 69.0114 570.134 70.3208 561.503C71.0777 556.496 70.5566 551.609 69.9249 547.733C69.8132 547.19 69.7305 546.688 69.6442 546.187C70.609 546.192 71.5727 546.176 72.5286 546.192C76.5163 546.206 80.2128 546.26 83.6247 546.133C90.779 545.89 96.6617 544.844 101.25 540.875C101.25 540.875 101.262 540.874 101.274 540.885C101.452 541.016 102.58 541.846 104.627 542.858C108.522 544.795 115.931 547.424 126.89 546.939C134.891 546.579 140.321 541.841 143.019 539.771C144.107 538.943 145.695 538.92 146.855 539.716C149.751 541.682 155.15 545.224 159.859 547.507C163.26 549.164 166.64 548.315 169.171 547.068C170.12 546.581 170.955 546.052 171.62 545.572C172.567 544.874 172.627 543.559 171.709 542.788L155.805 529.191C154.801 528.337 153.416 527.967 152.114 528.234L131.163 530.405C129.864 530.514 128.643 530.463 127.498 530.286C126.902 530.193 126.34 530.056 125.79 529.905C126.501 529.233 132.321 523.728 137.926 518.456C142.238 514.421 146.421 510.525 148.021 509.116C151.6 505.952 158.549 507.846 164.246 508.537C164.978 508.632 165.715 508.611 166.446 508.486C172.138 507.477 174.386 504.298 175.229 501.587C175.558 500.601 175.688 499.664 175.736 498.928C175.796 498.003 175.068 497.193 174.084 497.084Z" fill="#8396F4"/>
<path d="M103.233 506.569C102.953 506.474 102.662 506.62 102.577 506.875L101.266 510.843C101.182 511.1 101.335 511.379 101.612 511.465C101.673 511.487 101.736 511.494 101.797 511.492C102.01 511.487 102.204 511.356 102.269 511.158L103.58 507.19C103.665 506.933 103.51 506.656 103.233 506.569Z" fill="#4F4FC8"/>
<path d="M100.205 507.871C99.9237 507.778 99.6324 507.924 99.5497 508.177L98.2363 512.143C98.152 512.4 98.3068 512.679 98.584 512.765C98.6457 512.787 98.7085 512.794 98.7688 512.792C98.9818 512.787 99.1739 512.656 99.2392 512.458L100.553 508.492C100.637 508.235 100.482 507.958 100.205 507.871Z" fill="#4F4FC8"/>
<path d="M70.7637 515.033C70.484 514.936 70.1929 515.086 70.1085 515.341L68.7952 519.309C68.7109 519.566 68.8657 519.844 69.1429 519.931C69.2046 519.952 69.2654 519.96 69.3258 519.958C69.5388 519.952 69.7329 519.823 69.7981 519.624L71.1113 515.656C71.1957 515.399 71.0408 515.12 70.7637 515.033Z" fill="#4F4FC8"/>
<path d="M67.7353 516.333C67.4577 516.24 67.1627 516.386 67.0801 516.641L65.7668 520.609C65.6826 520.868 65.8373 521.145 66.1145 521.231C66.1762 521.252 66.2369 521.258 66.2973 521.256C66.5103 521.251 66.7045 521.124 66.7697 520.924L68.083 516.956C68.1672 516.697 68.0125 516.42 67.7353 516.333Z" fill="#4F4FC8"/>
<path d="M42.8907 524.294C42.611 524.198 42.3198 524.345 42.2353 524.6L40.9221 528.568C40.8378 528.827 40.9926 529.104 41.2697 529.19C41.3314 529.212 41.3942 529.219 41.4545 529.217C41.6675 529.212 41.8597 529.081 41.925 528.883L43.2382 524.915C43.3226 524.658 43.1678 524.381 42.8907 524.294Z" fill="#4F4FC8"/>
<path d="M45.2794 529.386C45.0016 529.289 44.7066 529.437 44.6241 529.694L43.3108 533.66C43.2264 533.917 43.3811 534.194 43.6583 534.28C43.72 534.302 43.7828 534.309 43.8431 534.307C44.0561 534.302 44.2486 534.176 44.3136 533.975L45.627 530.009C45.7114 529.752 45.5565 529.473 45.2794 529.386Z" fill="#4F4FC8"/>
<path d="M46.8428 574.102C46.5613 574.005 46.2702 574.154 46.1876 574.409L44.8763 578.377C44.7919 578.634 44.9467 578.911 45.2238 578.997C45.2855 579.019 45.3464 579.026 45.4067 579.024C45.6197 579.019 45.8138 578.89 45.8791 578.692L47.1905 574.724C47.2748 574.467 47.12 574.188 46.8428 574.102Z" fill="#4F4FC8"/>
<path d="M61.3985 553.625C61.1189 553.529 60.8274 553.671 60.7432 553.93L59.4299 557.898C59.3455 558.155 59.5003 558.432 59.7774 558.519C59.8391 558.54 59.9 558.547 59.9603 558.546C60.1733 558.54 60.3676 558.413 60.4327 558.211L61.746 554.245C61.8304 553.988 61.6757 553.711 61.3985 553.625Z" fill="#4F4FC8"/>
<path d="M41.6915 576.94C41.41 576.844 41.1206 576.99 41.0361 577.245L39.7248 581.213C39.6404 581.47 39.7952 581.747 40.0723 581.834C40.134 581.855 40.1949 581.862 40.2552 581.861C40.4682 581.855 40.6623 581.726 40.7275 581.526L42.039 577.56C42.1234 577.303 41.9686 577.026 41.6915 576.94Z" fill="#4F4FC8"/>
<path d="M49.8069 554.438C49.5285 554.491 49.3556 554.75 49.42 555.015L50.4152 559.113C50.4724 559.351 50.7003 559.513 50.9479 559.506C50.9777 559.505 51.0074 559.503 51.0368 559.497C51.3151 559.442 51.4881 559.186 51.4238 558.922L50.4285 554.822C50.364 554.555 50.081 554.376 49.8069 554.438Z" fill="#4F4FC8"/>
<path d="M47.9101 556.935C47.6318 556.99 47.457 557.247 47.5212 557.51L48.5185 561.61C48.5757 561.848 48.8036 562.01 49.0512 562.003C49.081 562.003 49.1107 562 49.1401 561.994C49.4185 561.94 49.5914 561.682 49.527 561.417L48.5317 557.319C48.4671 557.05 48.1886 556.883 47.9101 556.935Z" fill="#4F4FC8"/>
<path d="M111.336 530.994C111.442 531.075 111.569 531.113 111.696 531.109C111.841 531.106 111.985 531.045 112.084 530.93C112.266 530.721 112.226 530.412 111.995 530.236L108.421 527.529C108.189 527.353 107.851 527.38 107.673 527.593C107.49 527.802 107.53 528.111 107.762 528.287L111.336 530.994Z" fill="#4F4FC8"/>
<path d="M108.67 530.546C108.438 530.37 108.106 530.398 107.922 530.608C107.739 530.819 107.779 531.13 108.011 531.306L111.585 534.013C111.691 534.094 111.818 534.131 111.945 534.128C112.09 534.124 112.234 534.065 112.333 533.952C112.516 533.741 112.475 533.431 112.244 533.255L108.67 530.546Z" fill="#4F4FC8"/>
<path d="M127.745 538.401L124.171 535.692C123.937 535.516 123.603 535.545 123.421 535.754C123.238 535.966 123.278 536.274 123.51 536.45L127.086 539.159C127.192 539.24 127.319 539.278 127.446 539.274C127.591 539.271 127.735 539.21 127.834 539.097C128.016 538.886 127.976 538.577 127.745 538.401Z" fill="#4F4FC8"/>
<path d="M71.3476 522.793C71.1141 522.617 70.7781 522.644 70.5975 522.857C70.4148 523.066 70.4551 523.375 70.6867 523.551L74.2623 526.258C74.369 526.339 74.4961 526.377 74.6225 526.373C74.7681 526.37 74.912 526.309 75.0104 526.194C75.1931 525.985 75.1528 525.676 74.9213 525.5L71.3476 522.793Z" fill="#4F4FC8"/>
<path d="M107.828 465.733C107.001 465.756 106.511 465.715 106.488 465.712C106.192 465.684 105.973 465.44 105.998 465.167C106.021 464.896 106.27 464.686 106.576 464.727C106.687 464.736 117.465 465.637 124.488 455.558C124.649 455.332 124.98 455.267 125.231 455.421C125.482 455.574 125.555 455.881 125.396 456.109C119.513 464.547 111.074 465.642 107.828 465.733Z" fill="#4F4FC8"/>
<path d="M99.4014 459.617C99.445 460.374 98.8158 461.005 97.9956 461.028C97.1753 461.051 96.4753 460.456 96.4317 459.7C96.388 458.943 97.0172 458.309 97.8374 458.286C98.6576 458.264 99.3577 458.86 99.4014 459.617Z" fill="#0F2133"/>
<path d="M119.59 448.214L112.882 453.246C112.882 453.246 119.025 457.518 124.365 452.699C124.365 452.699 124.383 450.595 122.594 448.526C121.854 447.67 120.492 447.538 119.59 448.214Z" fill="#0F2133"/>
<path d="M92.8806 461.698C92.6695 461.704 92.4628 461.588 92.3727 461.396C90.4319 457.281 92.8563 455.783 92.9605 455.722C93.2017 455.581 93.5283 455.647 93.6866 455.877C93.8449 456.106 93.7786 456.404 93.5413 456.547C93.4684 456.593 91.772 457.71 93.3312 461.018C93.449 461.267 93.3294 461.556 93.0653 461.659C93.0063 461.684 92.9428 461.696 92.8806 461.698Z" fill="#4F4FC8"/>
<path d="M80.5987 463.055C80.6179 462.991 80.627 462.95 80.627 462.95L80.6384 462.949C80.6294 462.992 80.6197 463.023 80.5987 463.055Z" fill="#8396F4"/>
<g opacity="0.78">
<path d="M129.717 530.204C129.667 530.201 124.788 529.988 119.835 526.222L119.505 526.599L119.719 526.126C119.033 525.597 118.38 525.025 117.756 524.409C122.025 520.718 123.407 516.131 123.669 512.411C123.956 508.526 123.052 505.585 123.052 505.585C122.803 504.607 122.539 503.557 122.26 502.433C120.922 497.088 119.232 490.397 117.971 485.459C116.947 481.434 116.212 478.572 116.193 478.572C116.193 478.572 116.158 478.596 116.121 478.624C116.161 478.593 116.194 478.567 116.194 478.567C121.662 474.652 124.048 468.497 124.205 468.063C116.538 480.789 100.197 474.678 93.7293 469.442C88.4886 465.192 82.2427 467.06 80.0758 467.913C80.0801 466.755 80.1937 465.839 80.1937 465.839C80.1937 465.839 80.4552 463.504 78.8935 462.053C80.8286 462.455 82.9502 462.744 84.9545 462.688C85.8832 462.662 86.7869 462.564 87.6313 462.367C88.1516 462.246 88.5875 461.921 88.8256 461.475C89.0707 461.019 89.0896 460.485 88.8767 460.003C88.3914 458.902 87.2841 457.246 84.8706 455.165C87.1676 453.949 90.0667 453.475 90.0667 453.475L90.0631 450.449C83.2384 450.352 80.7635 446.399 80.7635 446.399L80.349 445.834C79.9158 446.174 78.6423 447.416 79.5432 449.302C79.9553 450.159 81.208 451.686 82.112 453.392C82.0449 453.422 81.9653 453.433 81.9172 453.493C81.7402 453.705 81.7827 454.011 82.0159 454.182C82.5819 454.592 83.0819 454.983 83.5507 455.364C83.7151 455.598 83.834 455.774 83.8353 455.797C83.8756 455.767 83.924 455.745 83.9663 455.715C86.3651 457.742 87.4395 459.323 87.8961 460.357C87.9927 460.576 87.9837 460.818 87.8733 461.025C87.7662 461.222 87.5813 461.362 87.3513 461.414C81.6288 462.751 72.6157 459.203 72.5258 459.167C72.258 459.061 71.9472 459.171 71.8355 459.42C70.5836 458.542 69.5403 457.203 69.5545 457.05C68.07 459.61 69.7181 461.534 69.7181 461.534L79.8248 468.698C79.8266 468.73 79.8298 468.785 79.8298 468.785C79.8767 469.403 79.968 469.996 80.1039 470.601C80.107 470.654 80.1194 470.705 80.1339 470.757C80.4935 472.298 81.0891 473.79 81.7539 475.123C82.1889 476.013 82.6671 476.825 83.1154 477.547C85.3709 481.171 86.8807 483.016 86.7604 489.211C86.6439 495.072 83.0396 498.505 80.023 500.361C93.1101 500.941 93.7501 484.491 93.7328 480.892C95.2511 482.986 99.3798 488.13 105.16 488.458C115.406 489.035 111.076 499.125 116.004 501.92C116.8 502.374 117.645 502.697 118.486 502.873C118.105 509.445 116.678 515.612 112.947 517.622C112.451 516.613 111.996 515.537 111.588 514.418C111.495 514.16 111.194 514.013 110.915 514.097C110.638 514.177 110.49 514.454 110.583 514.713C111.007 515.877 111.484 517.001 112.003 518.055C113.788 521.675 116.161 524.643 118.984 526.81C119.031 526.864 119.086 526.91 119.173 526.976C124.426 530.969 129.49 531.176 129.703 531.184C129.714 531.185 129.726 531.185 129.737 531.185C130.014 531.177 130.235 530.969 130.239 530.709C130.243 530.438 130.01 530.215 129.717 530.204Z" fill="#4F4FC8"/>
</g>
<path d="M51.9449 468.531C56.9392 489.125 79.2389 502.427 101.645 498.176C112.501 496.118 121.767 490.296 127.734 481.788C133.7 473.277 135.652 463.1 133.233 453.124C128.239 432.533 105.937 419.229 83.5334 423.479C61.1217 427.727 46.9525 447.937 51.9449 468.531Z" stroke="white" stroke-width="1.15663" stroke-miterlimit="10"/>
<defs>
<linearGradient id="paint0_linear_220_2343" x1="385.736" y1="168.236" x2="386.818" y2="96.1845" gradientUnits="userSpaceOnUse">
<stop stop-color="white"/>
<stop offset="1"/>
</linearGradient>
</defs>
</svg>
