<svg width="1512" height="1652" viewBox="0 0 1512 1652" fill="none" xmlns="http://www.w3.org/2000/svg">
<path d="M107.005 270.509C119.574 267.276 129.112 266.537 140.009 266.963C153.548 267.5 163.496 272.31 173.514 264.373C192.621 242.492 206.597 271.553 239.866 244.086C273.125 216.634 291.654 210.527 306.773 211.998C318.181 213.109 333.15 212.488 338.087 211.311M102.559 251.928C125.814 248.665 127.818 236.558 155.617 226.739C183.419 216.933 201.792 239.543 233.377 230.479C264.974 221.412 261.922 165.955 301.849 182.444C313.844 187.398 322.998 195.267 333.204 192.226M96.2786 231.942C118.356 234.677 130.058 211.459 149.543 207.974C160.453 206.265 172.572 205.761 183.402 208.428C195.922 209.589 201.424 216.495 221.471 207.224C241.521 197.965 253.283 167.481 276.206 160.9C292.028 156.508 312.017 174.669 328.452 172.557M92.5714 214.095C125.336 217.378 128.653 179.124 165.761 189.811C178.476 192.825 191.767 196.775 204.226 192.283C214.798 188.371 224.816 183.247 230.455 173.234C258.94 127.124 283.486 150.706 323.635 154.513M88.6022 194.761C126.359 194.427 123.532 161.252 150.949 163.645C161.012 163.174 177.202 182.352 192.785 159.582C208.367 136.812 258.354 127.972 318.448 134.769M291.911 229.182L292.234 230.438M292.234 230.438C292.825 230.286 293.394 230.153 293.941 230.04C304.898 227.73 329.432 228.506 331.988 234.897C333.125 237.754 329.167 242.163 320.817 247.313C320.224 247.666 319.638 248.045 319.037 248.414C312.803 252.309 306.346 256.329 294.192 259.456C280.769 262.909 254.871 260.272 253.235 253.913C251.806 248.357 276.184 234.568 292.234 230.438ZM128.936 278.562C121.282 280.531 114.626 285.339 117.142 293.295C118.761 298.44 129.124 300.49 138.576 299.466C139.752 299.351 140.965 299.119 142.185 298.805C150.769 296.597 159.743 290.174 159.236 285.494C158.651 280.15 145.717 277.273 136.216 277.533C133.85 277.606 131.349 277.941 128.936 278.562ZM112.296 150.34C114.282 149.829 117.009 149.489 118.673 150.803C120.927 152.582 122.047 154.8 121.989 157.387C121.872 162.818 116.786 168.884 111.802 172.484C107.261 175.77 101.394 178.646 96.857 179.813C93.3253 180.722 90.8876 180.518 90.1771 179.267C86.494 172.764 92.0038 163.762 99.1076 157.726C103.317 154.138 108.249 151.381 112.296 150.34ZM217.151 150.432C214.084 151.221 211.113 153.527 209.447 156.635C204.757 165.333 189.087 171.254 186.61 177.251C182.22 187.895 194.697 187.016 204.966 184.375C205.368 184.271 205.757 184.171 206.156 184.055C219.012 180.533 229.953 163.42 226.406 155.153C224.493 150.687 220.758 149.504 217.151 150.432ZM284.764 190.779C276.595 192.881 272.381 202.179 272.866 207.817C273.102 210.557 274.896 211.02 277.259 210.412C281.734 209.26 288.266 204.283 290.462 203.29C296.264 200.685 309.315 198.439 296.194 192.287C291.808 190.24 287.982 189.951 284.764 190.779Z" stroke="black" stroke-width="0.192771" stroke-miterlimit="10"/>
<path d="M146.783 243.109C139.513 246.764 130.46 252.611 137.282 257.614C142.694 261.582 171.224 255.193 173.758 252.25C178.945 246.225 179.911 242.961 174.596 236.624C169.28 230.286 153.606 239.679 146.783 243.109Z" stroke="black" stroke-width="0.192771"/>
<path d="M198.364 269.096C198.583 298.427 174.982 322.384 145.651 322.603C116.319 322.822 92.363 299.221 92.1439 269.89C91.9247 240.558 115.526 216.602 144.857 216.383C174.189 216.164 198.145 239.764 198.364 269.096Z" fill="url(#paint0_linear_601_393)"/>
<mask id="mask0_601_393" style="mask-type:alpha" maskUnits="userSpaceOnUse" x="92" y="216" width="107" height="107">
<path d="M198.364 269.097C198.583 298.428 174.982 322.384 145.651 322.603C116.319 322.823 92.363 299.222 92.1439 269.89C91.9247 240.559 115.526 216.602 144.857 216.383C174.189 216.164 198.145 239.765 198.364 269.097Z" fill="url(#paint1_linear_601_393)"/>
</mask>
<g mask="url(#mask0_601_393)">
</g>
<mask id="mask1_601_393" style="mask-type:luminance" maskUnits="userSpaceOnUse" x="3" y="159" width="274" height="223">
<path d="M3 218.498L234.26 159L276.296 322.39L45.0366 381.888L3 218.498Z" fill="white"/>
</mask>
<g mask="url(#mask1_601_393)">
<path d="M6.30489 353.742C18.8733 350.508 28.4119 349.77 39.3088 350.196C52.8474 350.732 62.7953 355.543 72.8135 347.606C91.9212 325.725 105.897 354.786 139.166 327.319C172.425 299.867 190.954 293.76 206.073 295.231C217.481 296.342 232.45 295.721 237.387 294.544M-2.79307 334.682C23.5662 333.435 27.1179 319.791 54.9168 309.972C82.7189 300.166 101.092 322.776 132.677 313.712C164.273 304.644 161.222 249.188 201.149 265.676C213.144 270.631 217.722 275.818 231.814 275.382M-5.17289 314.859C18.0448 319.11 29.3573 294.692 48.8426 291.207C59.7532 289.498 71.8713 288.994 82.7017 291.661C95.2215 292.822 100.724 299.728 120.77 290.457C140.821 281.198 152.583 250.714 175.506 244.133C191.327 239.741 207.866 255.064 225.554 255.686M-8.36046 297.053C24.4038 300.335 27.9527 262.356 65.0609 273.044C77.776 276.057 91.0671 280.008 103.526 275.516C114.098 271.604 124.116 266.48 129.754 256.467C158.24 210.357 182.472 234.019 222.621 237.827M-12.8072 277.841C16.7835 278.269 22.832 244.485 50.2486 246.878C60.3115 246.406 76.502 265.584 92.0845 242.815C107.667 220.045 155.886 214.179 217.717 218.506M28.2361 361.795C20.5819 363.764 13.926 368.572 16.4419 376.528C18.0603 381.672 28.4238 383.723 37.8754 382.698C39.0519 382.583 40.2653 382.352 41.4844 382.038C50.0687 379.829 59.0427 373.407 58.5354 368.726C57.9512 363.383 45.0168 360.506 35.5158 360.766C33.1493 360.839 30.6492 361.174 28.2361 361.795ZM11.5959 233.573C13.5817 233.062 16.3084 232.722 17.973 234.036C20.2263 235.815 21.3463 238.033 21.2884 240.62C21.1713 246.051 16.0853 252.116 11.102 255.717C6.56043 259.003 0.694002 261.879 -3.84321 263.046C-7.37494 263.955 -9.81261 263.751 -10.5231 262.5C-14.2062 255.997 -8.69647 246.995 -1.59259 240.959C2.61644 237.371 7.54884 234.614 11.5959 233.573ZM191.534 313.671C192.125 313.519 192.694 313.386 193.24 313.272C204.197 310.963 228.732 311.739 231.288 318.13C232.425 320.987 228.467 325.395 220.117 330.545C219.524 330.899 218.938 331.277 218.336 331.647C212.102 335.542 205.646 339.562 193.492 342.689C180.069 346.142 154.171 343.505 152.535 337.145C151.105 331.59 175.484 317.801 191.534 313.671ZM116.451 233.665C113.384 234.454 110.413 236.759 108.747 239.868C104.056 248.566 88.3871 254.486 85.91 260.484C81.5194 271.128 93.997 270.249 104.265 267.607C104.668 267.504 105.057 267.404 105.456 267.288C118.312 263.766 129.253 246.653 125.706 238.386C123.793 233.92 120.058 232.737 116.451 233.665ZM183.313 273.696C175.143 275.798 170.929 285.096 171.418 290.746C171.651 293.473 173.448 293.949 175.811 293.341C180.285 292.19 186.814 287.2 189.014 286.219C194.816 283.614 207.867 281.369 194.746 275.217C190.357 273.157 186.53 272.868 183.313 273.696ZM77.0419 199.087C77.3938 198.996 77.7023 198.997 78.0208 199.09C85.1466 201.317 73.2336 200.067 77.0419 199.087Z" stroke="black" stroke-width="0.192771" stroke-miterlimit="10"/>
<path d="M259.141 236.522C257.419 231.272 230.374 235.067 192.407 245.025C193.13 246.411 193.786 247.827 194.386 249.283C216.186 243.719 230.757 241.467 231.592 244.015C232.434 246.585 219.071 253.475 197.838 261.961C183.848 267.555 166.432 273.848 147.404 280.058C129.421 285.935 112.56 290.896 98.4349 294.583C74.9446 300.717 59.0366 303.309 58.1644 300.64C57.2995 297.996 71.3981 290.817 93.6281 282.013C93.2569 280.506 92.9591 278.967 92.7265 277.415C54.8952 292.157 29.7519 305.491 31.5036 310.853C33.2856 316.306 62.3673 312.007 102.63 301.184C117.125 297.288 133.065 292.547 149.708 287.119C167.284 281.38 183.776 275.477 198.367 269.783C235.946 255.116 260.885 241.869 259.141 236.522Z" fill="#4F4FC8"/>
</g>
<path d="M2248.09 692.271C2399.21 491.277 2295.54 300.982 2219.06 199.095C2173.65 144.227 2054.38 14.2848 1981.14 82.7943C1941.43 132.842 1935.78 200.046 1922.91 260.636C1900.53 354.14 1898.91 459.778 1849.52 544.039C1742.8 637.597 1760.21 203.876 1716.07 152.915C1656.37 80.7003 1612.92 324.393 1636.61 359.211C1639.35 370.122 1651.51 376.77 1661.29 369.803C1673.9 360.612 1668.94 337.868 1665.29 324.26C1652.62 278.651 1584.38 150.141 1526.28 183.836C1485.37 224.044 1489.43 286.447 1463.09 335.49C1444.29 380.238 1394.97 392.037 1355.51 365.935C1032.45 184.14 637.621 164.124 313.651 358.388C248.382 392.297 198.496 443.412 124.092 456.389C-180.086 494.912 -406.56 196.354 -640.199 48.3039C-724.008 -7.28286 -745.577 43.6733 -746.568 133.39C-749.019 224.378 -744.674 313.594 -717.469 400.856C-655.381 621.313 -479.966 686.089 -309.444 801.845C-204.177 872.929 -53.6645 1110.18 -224.635 1174.67C-296.958 1208.48 -387.37 1225.91 -457.466 1246.95C-657.123 1295.88 -736.138 1450.79 -725.529 1652L-756.55 1650.97C-755.382 1513.59 -723.914 1415.62 -667.38 1346.49C-590.806 1252.85 -438.302 1231.64 -298.147 1190.91C-248.47 1177.96 -178.514 1151.54 -160.562 1097.64C-137.416 989.48 -227.197 867.186 -311.226 804.234C-509.043 670.486 -676.455 618.052 -736.86 354.76C-758.534 250.091 -828.463 -94.441 -623.623 24.7407C-383.686 160.881 -86.5641 576.429 215.464 408.381C525.203 204.572 922.55 152.213 1265.27 299.206C1307.72 314.597 1347.12 338.15 1389.4 353.391C1458.01 365.807 1470.15 229.539 1515.08 191.754C1570.6 124.916 1696.25 312.997 1677.41 365.017C1669.11 389.899 1633.31 387.965 1626.86 362.796C1602.6 325.227 1658.1 72.6281 1719 151.043C1752.01 180.252 1779.05 618.541 1838.57 520.2C1892.82 376.174 1875.25 202.13 1973.4 75.4731C2107.58 -54.2709 2562.11 444.839 2272.04 705.965L2248.09 692.271Z" fill="url(#paint2_linear_601_393)"/>
<defs>
<linearGradient id="paint0_linear_601_393" x1="126.078" y1="221.617" x2="157.297" y2="318.071" gradientUnits="userSpaceOnUse">
<stop stop-color="#FFB7AB"/>
<stop offset="0.12" stop-color="#9F81B6"/>
<stop offset="0.44" stop-color="#3F4AC0"/>
<stop offset="0.86" stop-color="#232881"/>
<stop offset="0.99" stop-color="#070741"/>
</linearGradient>
<linearGradient id="paint1_linear_601_393" x1="126.078" y1="221.618" x2="157.297" y2="318.071" gradientUnits="userSpaceOnUse">
<stop stop-color="#FFB7AB"/>
<stop offset="0.12" stop-color="#9F81B6"/>
<stop offset="0.44" stop-color="#3F4AC0"/>
<stop offset="0.86" stop-color="#232881"/>
<stop offset="0.99" stop-color="#070741"/>
</linearGradient>
<linearGradient id="paint2_linear_601_393" x1="-1005.34" y1="900.354" x2="2245.97" y2="1944.29" gradientUnits="userSpaceOnUse">
<stop stop-color="#FF7337"/>
<stop offset="0.5" stop-color="#A75894"/>
<stop offset="1" stop-color="#7E98FD"/>
</linearGradient>
</defs>
</svg>
