<svg width="781" height="333" viewBox="0 0 781 333" fill="none" xmlns="http://www.w3.org/2000/svg">
<g clip-path="url(#clip0_901_642)">
<path d="M250.7 265.201H215.077V327.72H128.71V265.201H0V201.338L134.423 4.70581H215.077V199.993H250.7V265.201ZM128.71 199.993V162.347C128.71 155.289 129.046 145.877 129.383 133.777C130.055 121.677 130.391 115.626 130.727 114.954H128.374C123.333 126.382 117.62 136.802 111.235 146.886L75.6132 199.993H128.71Z" fill="#30344B"/>
<path d="M506.777 166.717C506.777 223.858 497.032 265.873 478.212 292.427C459.057 318.981 429.82 332.426 390.165 332.426C351.518 332.426 322.617 318.645 302.79 290.746C283.298 262.848 273.553 221.505 273.553 166.717C273.553 109.24 282.962 67.2246 302.454 40.3348C321.609 13.4449 350.846 0 390.501 0C428.812 0 458.049 14.1172 477.54 42.0154C497.032 69.9136 506.777 111.257 506.777 166.717ZM360.256 166.717C360.256 203.354 362.608 228.564 366.977 242.009C371.682 255.79 379.075 262.512 389.829 262.512C400.583 262.512 408.312 255.453 413.017 241.336C417.386 227.219 419.738 202.346 419.738 166.717C419.738 130.752 417.386 105.879 413.017 91.4254C408.312 76.9722 400.919 69.9136 390.165 69.9136C379.411 69.9136 371.682 76.9722 367.313 90.7532C362.608 104.534 360.256 129.743 360.256 166.717Z" fill="#30344B"/>
<path d="M781 265.201H745.378V327.72H659.011V265.201H530.301V201.338L664.724 4.70581H745.378V199.993H781V265.201ZM659.347 199.993V162.347C659.347 155.289 659.683 145.877 660.019 133.777C660.691 121.677 661.028 115.626 661.364 114.954H659.011C653.97 126.382 648.257 136.802 641.872 146.886L605.914 200.329H659.347V199.993Z" fill="#30344B"/>
</g>
<g clip-path="url(#clip1_901_642)">
<path d="M562.073 152.966C562.073 152.966 560.146 92.0217 501.583 89.0212C435.31 85.6206 439.431 154.699 439.431 154.699C439.431 154.699 457.778 145.498 496.731 146.631C541.334 147.765 562.073 152.966 562.073 152.966Z" fill="white"/>
<path d="M549.575 33.2113C546.583 20.4758 531.494 32.6779 505.37 25.2766C483.634 19.0756 476.521 2.73937 469.209 8.40702C461.897 14.0747 472.067 32.6779 503.31 43.2798C526.575 51.2145 553.031 48.0806 549.575 33.2113Z" fill="#8E93AD"/>
<path d="M231.504 37.4121C233.365 24.4765 249.518 35.3451 274.844 25.6101C295.982 17.542 301.633 0.672372 309.41 5.67324C317.187 10.7408 308.612 30.1442 278.434 43.4132C255.966 53.3482 229.31 52.4814 231.504 37.4121Z" fill="#8E93AD"/>
<path d="M217.742 150.699C217.742 150.699 220.534 89.7546 279.03 87.5542C345.303 85.0204 340.318 154.032 340.318 154.032C340.318 154.032 322.104 144.631 283.151 145.164C238.548 145.764 217.742 150.699 217.742 150.699Z" fill="white"/>
<path d="M505.105 88.4878C538.342 100.623 540.137 138.963 540.004 148.898C554.029 151.499 560.743 154.966 560.743 154.966C560.743 154.966 565.463 89.9547 505.105 88.4878Z" fill="#EFEFEF"/>
<path d="M284.615 87.4875C317.852 99.623 319.646 137.963 319.513 147.898C333.539 150.499 340.253 153.966 340.253 153.966C340.253 153.966 345.039 88.9545 284.615 87.4875Z" fill="#EFEFEF"/>
<path d="M311.138 139.296C311.138 121.493 296.78 107.091 279.032 107.091C261.284 107.091 246.926 121.493 246.926 139.296C246.926 141.897 247.258 144.497 247.856 146.898C257.296 146.164 268.995 145.498 283.153 145.297C293.723 145.164 302.696 145.764 310.274 146.631C310.872 144.364 311.138 141.897 311.138 139.296Z" fill="#231F20"/>
<path d="M271.719 137.43C277.446 137.43 282.089 132.773 282.089 127.028C282.089 121.283 277.446 116.626 271.719 116.626C265.992 116.626 261.35 121.283 261.35 127.028C261.35 132.773 265.992 137.43 271.719 137.43Z" fill="white"/>
<path d="M468.811 140.363C469.076 122.56 483.634 108.358 501.316 108.625C519.064 108.891 533.222 123.494 532.957 141.23C532.89 143.831 532.558 146.431 531.959 148.832C522.52 147.965 510.821 147.165 496.729 146.765C486.16 146.498 477.186 146.965 469.608 147.765C469.076 145.364 468.811 142.897 468.811 140.363Z" fill="#231F20"/>
<path d="M518.762 128.724C518.838 122.979 514.258 118.261 508.531 118.184C502.805 118.108 498.101 122.703 498.025 128.447C497.948 134.191 502.529 138.91 508.255 138.986C513.982 139.062 518.686 134.468 518.762 128.724Z" fill="white"/>
<path d="M495.266 233.78C494.202 233.78 493.138 233.246 492.54 232.313C492.474 232.246 485.959 222.778 471.668 213.509C458.573 204.975 435.972 194.839 403.002 194.839C402.869 194.839 402.736 194.839 402.603 194.839C352.15 194.973 314.593 231.513 314.194 231.913C312.865 233.179 310.804 233.179 309.475 231.913C308.212 230.579 308.212 228.512 309.475 227.178C309.873 226.778 319.512 217.31 335.798 207.708C350.887 198.84 374.684 188.238 402.536 188.172C402.669 188.172 402.802 188.172 403.002 188.172C437.833 188.172 461.697 199.04 475.59 208.108C490.878 218.11 497.725 228.179 498.057 228.579C499.055 230.112 498.722 232.179 497.193 233.179C496.529 233.58 495.864 233.78 495.266 233.78Z" fill="#8E93AD"/>
<path d="M300.302 216.11C295.051 224.578 294.12 235.513 297.909 244.715C298.242 245.515 299.039 246.115 299.97 245.848C300.768 245.648 301.499 244.648 301.1 243.781C297.644 235.313 298.375 225.512 303.161 217.777C304.291 215.977 301.432 214.243 300.302 216.11Z" fill="#8E93AD"/>
<path d="M499.056 218.71C505.371 224.845 507.764 234.513 505.172 242.915C504.507 244.982 507.764 245.849 508.362 243.781C511.354 234.247 508.562 223.311 501.383 216.31C499.854 214.843 497.461 217.244 499.056 218.71Z" fill="#8E93AD"/>
<path d="M328.885 136.163C328.021 135.362 327.157 134.629 326.094 134.229C324.432 133.629 322.637 134.029 320.909 133.762C317.053 133.029 314.793 129.028 311.403 126.961C306.484 123.96 299.77 125.761 295.716 129.895C293.256 132.429 290.996 136.029 287.473 136.096C285.811 136.163 284.216 135.362 282.554 135.096C278.3 134.362 274.311 137.029 270.124 138.03C266.135 139.03 261.748 138.496 258.092 136.629C253.638 134.296 249.384 129.961 244.598 131.362C240.012 132.762 238.283 138.763 233.763 140.363C230.572 141.563 226.717 140.097 223.659 141.563C220.535 143.097 219.405 146.898 218.674 150.365L279.097 145.297L337.992 151.765C338.059 145.497 333.406 140.363 328.885 136.163Z" fill="#504FCF"/>
<path d="M340.319 156.433C339.92 156.433 339.521 156.366 339.189 156.166C338.989 156.099 320.909 147.031 283.219 147.565C239.48 148.165 218.541 152.966 218.275 153.032C217.544 153.232 216.746 153.032 216.148 152.499C215.55 152.032 215.217 151.232 215.284 150.498C215.284 149.832 216.081 134.562 224.258 118.76C231.835 104.024 247.523 86.2206 278.965 85.0204C298.773 84.2869 314.461 89.6879 325.429 101.157C344.905 121.36 342.845 152.832 342.778 154.166C342.712 154.966 342.246 155.699 341.515 156.166C341.183 156.366 340.718 156.433 340.319 156.433ZM286.476 142.63C314.394 142.63 331.146 147.698 337.926 150.298C337.859 141.764 336.197 119.426 321.839 104.557C311.802 94.1553 297.444 89.2878 279.097 89.9546C255.766 90.8214 238.749 101.29 228.578 121.027C223.061 131.762 221.133 142.43 220.469 147.565C227.98 146.164 248.254 143.097 283.086 142.63C284.282 142.63 285.412 142.63 286.476 142.63Z" fill="#231F20"/>
<path d="M452.991 138.763C457.511 138.163 461.965 140.697 466.485 140.097C470.607 139.497 473.864 136.429 477.586 134.496C481.774 132.295 486.693 131.495 491.346 132.295C497.927 133.429 504.109 137.563 510.756 136.63C516.672 135.763 521.126 131.029 526.444 128.428C533.423 125.027 542.131 125.428 548.778 129.495C555.426 133.562 559.746 141.164 559.813 148.965C559.813 149.565 559.813 150.165 559.414 150.632C558.949 151.232 558.084 151.299 557.353 151.299C554.628 151.299 551.969 150.832 549.244 150.365C526.045 146.631 502.38 146.165 478.849 147.031C472.601 147.231 466.286 147.565 460.037 148.565C453.656 149.565 447.806 152.699 441.691 153.832C440.893 147.631 446.876 139.563 452.991 138.763Z" fill="#504FCF"/>
<path d="M439.496 157.1C439.097 157.1 438.632 156.966 438.233 156.766C437.502 156.366 437.037 155.633 437.037 154.766C436.97 153.432 435.375 121.96 455.051 102.024C466.218 90.7549 481.906 85.4873 501.781 86.5541C533.156 88.1544 548.578 106.158 556.023 121.027C563.999 136.963 564.531 152.232 564.598 152.899C564.598 153.699 564.265 154.433 563.667 154.899C563.069 155.366 562.271 155.566 561.54 155.366C561.34 155.299 540.402 150.232 496.729 149.032C459.039 147.965 440.826 156.766 440.626 156.9C440.227 157.033 439.829 157.1 439.496 157.1ZM496.995 91.2883C480.776 91.2883 467.814 96.0225 458.507 105.424C444.016 120.093 442.022 142.364 441.823 150.965C448.935 148.365 466.816 143.231 496.729 144.098C531.561 145.031 551.835 148.365 559.28 149.832C558.682 144.631 556.887 133.829 551.436 123.027C541.465 103.224 524.648 92.6219 501.382 91.4217C499.986 91.355 498.457 91.2883 496.995 91.2883Z" fill="#231F20"/>
</g>
<defs>
<clipPath id="clip0_901_642">
<rect width="781" height="332.426" fill="white"/>
</clipPath>
<clipPath id="clip1_901_642">
<rect width="349.247" height="241.109" fill="white" transform="translate(215.277 4.80615)"/>
</clipPath>
</defs>
</svg>
