<svg width="375" height="404" viewBox="0 0 375 404" fill="none" xmlns="http://www.w3.org/2000/svg">
<g clip-path="url(#clip0_715_1316)">
<path d="M257.492 197.221C257.86 197.122 258.239 197.341 258.338 197.709C258.437 198.077 258.218 198.457 257.849 198.555C257.481 198.654 257.102 198.435 257.003 198.067C256.904 197.698 257.123 197.319 257.492 197.221Z" fill="white"/>
<path d="M343.949 242.183C344.594 242.01 345.258 242.393 345.431 243.037C345.603 243.682 345.22 244.346 344.575 244.518C343.931 244.691 343.267 244.308 343.094 243.663C342.921 243.019 343.305 242.355 343.949 242.183Z" fill="white"/>
<path d="M291.647 157.133C292.292 156.96 292.955 157.343 293.128 157.988C293.301 158.632 292.917 159.296 292.273 159.468C291.628 159.641 290.964 159.258 290.791 158.614C290.619 157.969 291.002 157.306 291.647 157.133Z" fill="#4F4FC8"/>
<path d="M279.991 219.265C280.543 219.117 281.112 219.446 281.26 219.998C281.408 220.551 281.08 221.119 280.527 221.267C279.974 221.415 279.406 221.087 279.257 220.535C279.109 219.982 279.438 219.413 279.991 219.265Z" fill="#4F4FC8"/>
<path d="M-179.028 354.562C-198.262 402.286 -167.691 434.399 -147.175 450.482C-135.293 458.919 -104.833 478.279 -93.9809 460.861C-88.7793 448.867 -91.2215 435.288 -91.8858 422.633C-92.4107 402.969 -97.6839 382.008 -92.3812 362.74C-76.2373 338.599 -56.7124 425.23 -45.2885 432.962C-29.6622 444.071 -33.9743 393.612 -40.5024 387.986C-41.6215 385.975 -44.3779 385.306 -45.9423 387.2C-47.9497 389.685 -45.7639 393.917 -44.3217 396.412C-39.4027 404.754 -19.1054 426.534 -9.40309 416.798C-3.44484 406.685 -7.55228 394.569 -4.94028 383.482C-3.59448 373.643 5.53124 368.699 14.7147 371.767C88.2105 390.578 167.329 373.617 221.093 318.066C232.201 307.908 239.357 295.164 253.379 288.659C311.476 264.932 372.059 311.934 426.09 328.814C445.602 335.359 447.168 324.147 442.614 306.365C438.28 288.255 432.697 270.855 422.698 255.052C398.75 214.775 360.64 211.267 320.798 197.426C296.223 188.955 253.904 150.044 284.29 128.243C296.799 117.731 313.75 109.497 326.494 101.626C363.376 81.379 370.795 46.5821 358.043 7.38229L364.231 5.9431C371.274 33.1518 370.24 54.1786 362.724 70.8349C352.543 93.3955 323.516 105.667 297.964 121.14C288.828 126.33 276.397 135.257 275.702 146.86C276.853 169.46 301.078 188.87 321.024 196.859C367.215 212.81 403.089 214.304 428.972 263.134C438.8 282.669 470.868 347.049 424.06 334.348C369.415 320.156 288.67 253.778 237.857 302.986C187.413 359.669 111.629 391.065 36.0898 380.173C26.8815 379.38 17.846 376.813 8.68006 376.041C-5.54197 377.222 -0.72649 404.793 -7.60865 414.64C-15.0456 430.789 -49.8472 400.278 -48.877 389.001C-48.5522 383.643 -41.3721 382.129 -38.7657 386.762C-31.9792 392.9 -29.5765 445.757 -45.7683 433.487C-53.8406 429.464 -82.3953 344.285 -88.9542 366.871C-92.0537 398.207 -79.3648 431.669 -92.0628 461.898C-111.719 494.645 -228.009 420.092 -184.489 353.125L-179.028 354.562Z" fill="url(#paint0_linear_715_1316)"/>
<path d="M225.591 325.338C227.607 333.338 222.754 341.459 214.751 343.475C206.749 345.492 198.627 340.641 196.611 332.641C194.595 324.641 199.449 316.521 207.451 314.504C215.453 312.487 223.575 317.338 225.591 325.338Z" fill="#FF635F"/>
<path d="M225.591 325.338C227.607 333.338 222.754 341.459 214.751 343.475C206.749 345.492 198.627 340.641 196.611 332.641C194.595 324.641 199.449 316.521 207.451 314.504C215.453 312.487 223.575 317.338 225.591 325.338Z" fill="url(#paint1_linear_715_1316)"/>
<path d="M225.148 323.962C225.267 324.288 225.374 324.627 225.469 324.968C225.594 325.413 225.698 325.856 225.778 326.302C233.47 326.72 238.595 327.658 238.624 328.862C238.652 330.078 233.492 331.266 225.714 332.044C221.533 332.462 216.595 332.761 211.301 332.887C205.898 333.015 200.855 332.94 196.604 332.706C188.947 332.285 183.851 331.348 183.822 330.144C183.792 328.952 188.754 327.791 196.27 327.011C196.373 326.206 196.548 325.416 196.785 324.646C183.912 325.99 174.944 328.617 175.009 331.423C175.075 334.345 184.888 336.606 198.623 337.256C202.602 337.447 206.911 337.501 211.406 337.394C215.796 337.293 220.001 337.048 223.885 336.688C237.727 335.405 247.556 332.665 247.49 329.727C247.422 326.898 238.212 324.688 225.148 323.962Z" fill="#4F4FC8"/>
<mask id="mask0_715_1316" style="mask-type:alpha" maskUnits="userSpaceOnUse" x="196" y="314" width="31" height="30">
<path d="M225.593 325.339C227.609 333.339 222.756 341.459 214.753 343.476C206.751 345.493 198.629 340.642 196.613 332.642C194.597 324.642 199.451 316.521 207.453 314.505C215.455 312.488 223.577 317.339 225.593 325.339Z" fill="#FF635F"/>
<path d="M225.593 325.339C227.609 333.339 222.756 341.459 214.753 343.476C206.751 345.493 198.629 340.642 196.613 332.642C194.597 324.642 199.451 316.521 207.453 314.505C215.455 312.488 223.577 317.339 225.593 325.339Z" fill="url(#paint2_linear_715_1316)"/>
</mask>
<g mask="url(#mask0_715_1316)">
<mask id="mask1_715_1316" style="mask-type:luminance" maskUnits="userSpaceOnUse" x="175" y="302" width="70" height="54">
<path d="M175.26 310.834L238.011 302.265L244.056 346.593L181.305 355.163L175.26 310.834Z" fill="white"/>
</mask>
<g mask="url(#mask1_715_1316)">
<path d="M171.964 346.562C175.375 346.097 177.91 346.195 180.767 346.642C184.317 347.199 186.79 348.772 189.673 346.989C195.38 341.812 198.167 349.896 207.776 343.682C217.382 337.473 222.451 336.433 226.388 337.285C229.359 337.928 233.322 338.224 234.658 338.066M170.154 341.262C177.136 341.743 178.492 338.258 186.117 336.526C193.742 334.797 197.886 341.317 206.485 339.899C215.088 338.481 215.991 323.779 226.001 329.349C229.008 331.022 230.054 332.529 233.78 332.847M170.137 335.968C176.123 337.8 179.854 331.716 185.094 331.396C188.021 331.281 191.229 331.521 194 332.556C197.262 333.246 198.499 335.234 204.065 333.408C209.631 331.584 213.668 323.916 219.909 322.886C224.212 322.215 228.097 326.76 232.737 327.467M169.846 331.179C178.376 333.05 180.479 323.155 189.926 327.11C193.182 328.294 196.562 329.743 199.982 328.943C202.887 328.237 205.684 327.195 207.477 324.73C216.4 313.459 222.055 320.436 232.514 322.672M169.266 325.982C177.047 327.004 179.681 318.29 186.829 319.763C189.494 319.948 193.169 325.497 197.975 319.977C202.78 314.458 215.663 314.394 231.817 317.432M177.494 349.357C175.417 349.641 173.515 350.703 173.933 352.876C174.201 354.281 176.868 355.139 179.389 355.159C179.703 355.165 180.03 355.141 180.36 355.096C182.69 354.778 185.251 353.362 185.262 352.113C185.272 350.688 181.954 349.533 179.443 349.31C178.817 349.256 178.148 349.268 177.494 349.357ZM177.057 315.071C177.595 314.997 178.324 314.992 178.722 315.389C179.261 315.927 179.488 316.545 179.393 317.225C179.195 318.652 177.668 320.093 176.245 320.889C174.947 321.615 173.314 322.192 172.082 322.36C171.124 322.491 170.488 322.363 170.34 322.011C169.57 320.185 171.298 317.983 173.355 316.612C174.574 315.796 175.958 315.221 177.057 315.071ZM221.991 341.696C222.151 341.674 222.305 341.656 222.453 341.643C225.41 341.371 231.849 342.329 232.326 344.091C232.537 344.879 231.359 345.918 229.001 347.018C228.834 347.093 228.668 347.175 228.498 347.254C226.736 348.089 224.911 348.949 221.614 349.399C217.971 349.897 211.23 348.407 210.995 346.682C210.79 345.174 217.636 342.291 221.991 341.696ZM204.675 318.315C203.843 318.429 202.989 318.945 202.455 319.713C200.951 321.86 196.641 322.938 195.804 324.442C194.32 327.111 197.634 327.263 200.42 326.882C200.529 326.867 200.635 326.853 200.744 326.834C204.239 326.301 207.647 322.13 206.967 319.843C206.601 318.608 205.654 318.182 204.675 318.315ZM221.056 330.913C218.839 331.216 217.443 333.536 217.398 335.039C217.375 335.765 217.834 335.945 218.475 335.858C219.689 335.692 221.562 334.578 222.172 334.387C223.781 333.879 227.287 333.689 224.021 331.665C222.928 330.988 221.929 330.794 221.056 330.913ZM195.358 307.997C195.453 307.984 195.535 307.994 195.616 308.028C197.424 308.833 194.325 308.138 195.358 307.997Z" stroke="black" stroke-width="0.0558246" stroke-miterlimit="10"/>
</g>
</g>
<path d="M398.745 178.943C403.421 196.145 397.022 213.747 383.888 224.168C379.429 227.708 374.193 230.421 368.352 232.008C356.612 235.199 344.687 233.238 334.984 227.498C325.635 221.97 318.349 212.936 315.275 201.629C309.012 178.586 322.621 154.83 345.672 148.565C368.72 142.301 392.482 155.9 398.745 178.943Z" fill="url(#paint3_linear_715_1316)"/>
<path d="M371.173 141.12C371.057 141.47 370.905 141.803 370.723 142.116C370.662 142.221 370.598 142.322 370.53 142.422C370.295 142.769 370.018 143.089 369.709 143.377C369.531 143.541 369.344 143.696 369.146 143.839C368.712 144.154 368.229 144.417 367.708 144.625C367.401 144.751 367.082 144.854 366.749 144.937C366.749 144.937 366.748 144.94 366.745 144.938C366.703 144.95 366.66 144.96 366.616 144.97C366.511 144.996 366.404 145.018 366.297 145.039C366.284 145.043 366.271 145.045 366.258 145.046C366.17 145.063 366.082 145.077 365.994 145.092C365.96 145.098 365.927 145.103 365.891 145.105C365.805 145.119 365.719 145.129 365.629 145.138C365.519 145.151 365.405 145.161 365.293 145.168C365.292 145.171 365.29 145.171 365.287 145.17C365.175 145.175 365.06 145.181 364.947 145.185C364.832 145.189 364.717 145.189 364.6 145.188C364.486 145.186 364.368 145.182 364.251 145.177C364.048 145.168 363.845 145.151 363.641 145.128C363.637 145.127 363.632 145.126 363.626 145.126C363.542 145.115 363.456 145.105 363.371 145.092C363.337 145.087 363.304 145.082 363.268 145.076C363.185 145.064 363.101 145.049 363.018 145.032C362.912 145.013 362.808 144.992 362.706 144.969C362.604 144.948 362.503 144.924 362.401 144.896C362.19 144.843 361.981 144.78 361.769 144.711C361.657 144.675 361.546 144.636 361.436 144.592C361.267 144.53 361.099 144.462 360.937 144.391C360.856 144.356 360.775 144.319 360.695 144.281C360.626 144.251 360.557 144.218 360.489 144.183C360.007 143.941 359.558 143.665 359.142 143.357C359.076 143.308 359.01 143.256 358.943 143.205C358.615 142.948 358.312 142.671 358.036 142.378C357.943 142.282 357.855 142.183 357.769 142.083C357.743 142.056 357.722 142.03 357.7 142.002C357.666 141.964 357.632 141.923 357.601 141.882C357.561 141.833 357.521 141.782 357.483 141.733C357.369 141.583 357.26 141.431 357.161 141.276C357.133 141.234 357.105 141.19 357.079 141.146C357.076 141.144 357.076 141.142 357.076 141.142C357.047 141.096 357.02 141.05 356.991 141.004C356.983 140.99 356.976 140.979 356.968 140.965C356.931 140.903 356.895 140.839 356.861 140.774C356.827 140.712 356.794 140.649 356.764 140.587C356.725 140.51 356.688 140.435 356.654 140.358C356.63 140.307 356.607 140.253 356.584 140.201C356.583 140.196 356.58 140.191 356.579 140.187C356.55 140.121 356.524 140.057 356.5 139.991C356.473 139.925 356.449 139.86 356.426 139.792C356.404 139.728 356.382 139.664 356.364 139.599C356.324 139.478 356.29 139.356 356.262 139.234C356.067 138.438 356.039 137.621 356.203 136.819L356.203 136.818C356.245 136.618 356.298 136.419 356.363 136.223C356.468 135.905 356.6 135.604 356.76 135.32C356.778 135.289 356.795 135.258 356.812 135.227C356.928 135.026 357.058 134.836 357.199 134.655C357.234 134.607 357.271 134.561 357.308 134.516C357.457 134.334 357.621 134.16 357.794 133.998C357.838 133.956 357.881 133.918 357.926 133.877C357.971 133.837 358.016 133.798 358.062 133.761C358.107 133.723 358.154 133.684 358.202 133.648C358.24 133.618 358.279 133.587 358.319 133.558C358.397 133.5 358.478 133.441 358.561 133.386C358.604 133.356 358.651 133.327 358.695 133.298C358.747 133.264 358.801 133.23 358.856 133.197C358.908 133.166 358.961 133.136 359.013 133.107C359.075 133.072 359.139 133.036 359.204 133.004C359.251 132.979 359.299 132.955 359.346 132.932C359.399 132.905 359.454 132.88 359.507 132.855C359.578 132.821 359.647 132.792 359.719 132.762C359.768 132.742 359.818 132.72 359.869 132.702C359.921 132.681 359.973 132.661 360.028 132.642C360.03 132.641 360.031 132.639 360.033 132.638C360.038 132.637 360.043 132.633 360.048 132.634C360.089 132.617 360.133 132.602 360.175 132.588C360.224 132.571 360.273 132.555 360.323 132.539C360.369 132.524 360.415 132.509 360.461 132.496C360.476 132.49 360.492 132.486 360.507 132.482L360.602 132.455C360.713 132.424 360.827 132.394 360.94 132.368C360.994 132.355 361.049 132.344 361.104 132.333C361.162 132.319 361.221 132.308 361.28 132.298C361.345 132.285 361.409 132.273 361.475 132.263C361.522 132.254 361.57 132.246 361.618 132.241C361.659 132.236 361.701 132.23 361.742 132.224C361.813 132.214 361.885 132.206 361.955 132.199C362.05 132.19 362.146 132.181 362.244 132.174C362.299 132.171 362.353 132.168 362.408 132.164C362.479 132.161 362.548 132.159 362.62 132.157C362.679 132.154 362.741 132.153 362.801 132.154C362.847 132.153 362.891 132.153 362.935 132.155C363.017 132.156 363.098 132.157 363.179 132.161C363.262 132.164 363.343 132.167 363.425 132.174C363.506 132.179 363.59 132.184 363.672 132.193C363.836 132.207 364.002 132.229 364.167 132.252C364.251 132.265 364.332 132.278 364.417 132.293C364.528 132.312 364.64 132.334 364.753 132.359C364.84 132.376 364.928 132.398 365.016 132.419C365.065 132.429 365.113 132.442 365.16 132.455C365.223 132.472 365.283 132.488 365.346 132.505C365.487 132.544 365.627 132.586 365.766 132.634C365.868 132.667 365.97 132.702 366.068 132.739C366.146 132.767 366.223 132.798 366.299 132.829C366.306 132.831 366.31 132.834 366.317 132.836C366.414 132.875 366.509 132.914 366.603 132.956C367.517 133.354 368.327 133.878 369.009 134.491C371.012 136.278 371.938 138.81 371.173 141.12Z" fill="#D153BB"/>
<path d="M371.172 141.119C370.068 144.455 365.857 146.064 361.769 144.711C359.119 143.835 357.169 141.93 356.426 139.791C357.373 139.186 359.176 138.442 362.149 138.655C362.204 138.666 364.451 134.277 369.009 134.491C371.011 136.278 371.937 138.809 371.172 141.119Z" fill="#BB02A5"/>
<mask id="mask2_715_1316" style="mask-type:alpha" maskUnits="userSpaceOnUse" x="334" y="145" width="38" height="34">
<path d="M359.86 145.1C360.2 145.132 368.291 147.495 371.266 151.462C372.158 152.652 372.194 158.948 371.442 161.305C370.848 163.167 366.641 167.184 362.874 170.507C359.106 173.829 354.225 175.04 349.441 176.678C341.4 178.748 333.421 180.275 334.232 175.67C334.915 171.79 337.756 168.071 340.898 166.019C344.143 163.946 346.091 162.968 344.51 160.72C342.952 158.558 343.737 153.74 345.309 151.85C346.38 150.561 348.024 148.947 350.018 147.62C350.911 147.024 356.559 144.79 359.86 145.1Z" fill="#890396"/>
</mask>
<g mask="url(#mask2_715_1316)">
<path d="M359.579 143.943C364.333 145.425 371.531 150.766 372.219 153.484C372.907 156.203 371.279 157.752 365.805 164.886C360.33 172.021 332.582 180.454 332.173 175.187C331.764 169.919 335.787 136.526 359.579 143.943Z" fill="#BB02A5"/>
<path d="M355.186 166.73C355.221 167.337 353.954 169.447 353.93 169.453C353.93 169.453 352.627 172.475 347.843 174.114C347.552 176.997 345.319 176.03 342.905 175.141C343.413 173.826 344.295 171.741 345.174 170.62C346.524 168.901 346.522 167.518 346.184 166.183C345.926 165.167 345.563 162.223 346.532 160.539C346.538 160.642 346.548 160.743 346.56 160.846C346.77 162.75 347.491 164.404 348.718 165.555C348.967 165.791 349.238 166.006 349.529 166.197C350.432 166.789 354.097 166.66 355.186 166.73Z" fill="#650276" fill-opacity="0.5"/>
<g opacity="0.662712">
<path d="M343.938 164.272C343.938 164.272 339.227 166.817 336.745 172.416C335.912 174.294 335.462 175.725 335.404 176.522C335.104 176.578 332.529 176.835 332.23 176.901C330.134 174.206 337.538 165.32 337.538 165.32C337.538 165.32 340.112 164.13 343.056 164.428L343.938 164.272Z" fill="#5CFF85"/>
<path d="M345.73 151.342C344.042 154.581 344.174 156.26 344.684 160.522C344.872 162.094 344.714 163.036 344.471 163.578C343.364 163.32 341.544 160.933 341.427 159.91C341.154 157.519 340.762 152.578 345.73 151.342Z" fill="#5CFF85"/>
</g>
<path d="M362.06 166.912C361.467 167.108 359.407 167.747 356.883 168.064C356.709 168.086 356.534 168.106 356.355 168.124C356.266 168.132 356.177 168.143 356.087 168.15C356.039 168.156 355.992 168.16 355.943 168.162C355.881 168.168 355.817 168.174 355.755 168.178C355.289 168.215 354.813 168.238 354.332 168.244C353.711 168.251 353.085 168.226 352.461 168.165C352.486 168.159 352.473 167.377 352.438 166.77C352.501 166.774 352.563 166.777 352.625 166.779L352.626 166.78C352.668 166.782 352.707 166.782 352.75 166.783C352.787 166.783 352.826 166.785 352.865 166.783C352.889 166.785 352.915 166.785 352.939 166.785C353.029 166.786 353.117 166.783 353.207 166.778C353.214 166.779 353.217 166.778 353.223 166.778C353.316 166.775 353.409 166.771 353.502 166.762C353.568 166.759 353.636 166.751 353.702 166.744C353.725 166.742 353.746 166.739 353.77 166.737C353.795 166.735 353.818 166.731 353.843 166.729C353.928 166.719 354.013 166.708 354.097 166.694C354.197 166.681 354.298 166.663 354.398 166.644C354.499 166.626 354.599 166.607 354.699 166.583C354.946 166.531 355.196 166.466 355.443 166.389L355.467 166.383C355.532 166.365 355.598 166.344 355.664 166.321C355.738 166.299 355.813 166.273 355.887 166.245C355.904 166.241 355.919 166.235 355.935 166.229C355.993 166.208 356.052 166.187 356.108 166.165C356.184 166.138 356.259 166.109 356.332 166.078C356.406 166.048 356.478 166.02 356.55 165.988C356.618 165.959 356.688 165.929 356.758 165.897C356.766 165.893 356.773 165.89 356.78 165.886C356.809 165.875 356.84 165.861 356.868 165.847C356.9 165.833 356.931 165.818 356.962 165.802C357.124 165.727 357.283 165.647 357.442 165.563C357.513 165.527 357.585 165.489 357.656 165.448C357.729 165.409 357.803 165.369 357.875 165.324C357.956 165.278 358.038 165.231 358.119 165.181C358.179 165.146 358.242 165.108 358.301 165.069C358.492 164.952 358.681 164.826 358.868 164.695C358.952 164.639 359.034 164.58 359.116 164.519C359.291 164.393 359.463 164.262 359.635 164.126C359.691 164.082 359.749 164.035 359.805 163.989C359.961 163.86 360.117 163.729 360.271 163.593C360.32 163.551 360.369 163.507 360.417 163.463C360.419 163.46 360.422 163.458 360.425 163.455C360.499 163.386 360.575 163.317 360.649 163.247C360.749 163.154 360.846 163.058 360.942 162.962C361.038 162.868 361.131 162.773 361.224 162.678C361.419 162.474 361.611 162.264 361.8 162.047C361.7 163.393 361.594 165.875 362.06 166.912Z" fill="#FEAB83"/>
<path d="M362.059 166.913C361.467 167.108 359.406 167.747 356.882 168.064C356.709 168.086 356.533 168.107 356.355 168.124C356.265 168.133 356.177 168.144 356.087 168.15C356.039 168.157 355.992 168.16 355.943 168.163C355.881 168.169 355.817 168.175 355.754 168.179C355.288 168.215 354.813 168.238 354.332 168.245C353.661 167.757 353.075 167.225 352.625 166.781L352.625 166.779C352.705 166.783 352.785 166.784 352.864 166.784C352.889 166.786 352.915 166.785 352.938 166.785C353.028 166.784 353.116 166.782 353.207 166.779C353.213 166.779 353.217 166.778 353.223 166.779C353.315 166.775 353.408 166.77 353.501 166.762C353.591 166.755 353.68 166.746 353.769 166.738C353.794 166.735 353.817 166.731 353.843 166.729C353.928 166.719 354.012 166.708 354.096 166.695C354.196 166.681 354.297 166.664 354.398 166.644C354.497 166.627 354.597 166.607 354.698 166.584C354.945 166.531 355.195 166.466 355.442 166.39C355.517 166.369 355.59 166.344 355.664 166.322C355.739 166.297 355.812 166.272 355.887 166.245C355.96 166.219 356.034 166.192 356.107 166.166C356.325 166.083 356.541 165.994 356.757 165.898C356.766 165.894 356.773 165.89 356.78 165.886C356.84 165.859 356.901 165.832 356.962 165.802C357.124 165.728 357.282 165.648 357.442 165.564C357.512 165.526 357.584 165.488 357.655 165.448C357.729 165.41 357.802 165.367 357.874 165.325C357.956 165.278 358.037 165.232 358.118 165.182C358.179 165.146 358.241 165.107 358.301 165.07C358.492 164.952 358.681 164.827 358.868 164.696C358.951 164.639 359.034 164.58 359.116 164.52C359.291 164.394 359.462 164.263 359.634 164.126C359.691 164.082 359.749 164.036 359.805 163.99C359.961 163.861 360.116 163.73 360.271 163.593C360.319 163.549 360.368 163.507 360.417 163.463C360.418 163.461 360.421 163.458 360.425 163.455C360.499 163.387 360.573 163.318 360.648 163.247C360.746 163.155 360.846 163.06 360.942 162.962C361.036 162.871 361.131 162.776 361.224 162.678C361.419 162.474 361.61 162.265 361.8 162.048C361.699 163.393 361.594 165.876 362.059 166.913Z" fill="#EE554F"/>
</g>
<path d="M431.917 218.236C431.916 218.419 431.908 218.601 431.894 218.78C431.87 219.067 431.828 219.35 431.768 219.627C431.26 221.945 430.193 223.678 428.56 224.876C428.151 225.176 427.708 225.443 427.227 225.677C424.05 227.228 419.31 227.338 412.978 226.228C408.761 225.487 405.382 224.403 402.554 223.205C398.142 221.335 395.076 219.186 392.268 217.634C392.772 217.239 393.239 216.836 393.673 216.429C393.981 216.142 394.271 215.852 394.547 215.561C395.823 214.211 396.764 212.824 397.452 211.465C397.564 211.244 397.669 211.023 397.768 210.803C398.849 208.405 399.17 206.126 399.189 204.329C399.212 202.04 398.75 200.529 398.75 200.529L396.447 199.838L393.368 198.917L391.829 198.455C390.886 197.175 385.154 189.621 381.263 189.717C381.006 189.724 380.757 189.762 380.518 189.839C380.518 189.839 379.983 189.236 379.263 188.15C377.338 185.241 374.099 178.87 376.28 171.329C376.369 171.413 378.314 170.585 378.314 170.585C382.799 169.453 388.128 165.857 395.126 174.031C402.125 182.204 423.421 202.289 423.421 202.289C423.421 202.289 424.504 203.458 425.898 205.267C428.42 208.541 431.959 213.912 431.917 218.236Z" fill="#504FCF"/>
<path d="M377.635 170.876L380.027 183.159L380.13 183.688L380.301 184.574C380.301 184.574 382.295 190.532 377.992 198.329C373.69 206.123 377.402 210.971 377.321 211.108C377.786 211.786 378.221 212.444 378.626 213.084C378.991 213.66 379.333 214.221 379.652 214.766C380.992 217.059 381.934 219.057 382.593 220.702C383.313 222.496 383.696 223.869 383.896 224.745C381.81 226.382 379.559 227.838 377.158 229.082C374.401 230.514 371.444 231.669 368.317 232.501C366.901 232.878 365.486 233.178 364.071 233.407C353.725 235.086 343.481 232.905 334.973 227.811C334.997 227.677 335.022 227.543 335.047 227.412C336.171 221.519 338.894 217.863 340.869 215.394C341.151 215.042 341.418 214.714 341.662 214.407C343.849 211.663 343.256 209.434 343.149 209.638C343.105 209.463 343.055 209.286 343.002 209.109C341.46 203.918 336.652 198.646 336.652 198.646C336.652 198.646 336.619 198.599 336.558 198.511L336.558 198.51C336.288 198.125 335.472 196.953 334.395 195.409C333.172 193.655 331.615 191.422 330.147 189.311C327.715 185.815 325.528 182.659 325.511 182.596L325.515 182.589C325.549 182.538 325.586 182.488 325.621 182.439C325.62 182.437 325.622 182.437 325.624 182.436C328.365 178.573 332.048 177.299 334.226 176.879C335.339 176.664 336.059 176.672 336.059 176.672C336.059 176.672 346.595 174.298 347.851 174.042C352.615 172.346 352.512 168.446 352.512 168.446C354.017 168.578 355.545 168.483 356.932 168.291C359.452 167.944 361.505 167.28 362.095 167.078C362.205 167.04 362.265 167.018 362.267 167.018C362.39 167.705 363.366 168.962 363.298 168.954C368.45 174.093 377.635 170.876 377.635 170.876Z" fill="#504FCF"/>
<path d="M383.899 224.743C381.814 226.38 379.563 227.836 377.162 229.081C374.404 230.512 371.447 231.668 368.32 232.5C366.905 232.876 365.489 233.177 364.074 233.406C353.729 235.085 343.485 232.904 334.977 227.809C335.001 227.675 335.025 227.541 335.051 227.411C341.029 227.503 356.757 227.053 369.553 220.566C374.166 218.228 377.394 216.311 379.655 214.765C380.995 217.058 381.937 219.056 382.596 220.701C383.317 222.494 383.7 223.867 383.899 224.743Z" fill="#2E2F9B"/>
<path d="M345.618 174.531L350.661 194.391L358.059 223.523C358.283 224.406 357.129 224.956 356.583 224.224C356.583 224.224 342.48 203.35 339.259 196.881C338.381 195.115 337.174 193.359 335.885 191.738C334.022 189.397 331.985 187.34 330.511 185.943C330.877 185.864 331.258 185.767 331.651 185.654C331.762 185.623 331.875 185.589 331.987 185.553C332.077 185.527 332.169 185.498 332.261 185.468C332.346 185.442 332.432 185.412 332.518 185.384C332.727 185.314 332.94 185.24 333.156 185.16C333.432 185.059 333.714 184.948 334.002 184.83C334.136 184.774 334.274 184.715 334.412 184.657C334.421 184.652 334.43 184.648 334.439 184.646C334.885 184.453 335.304 184.254 335.698 184.049C335.799 183.999 335.898 183.946 335.996 183.894C336.116 183.828 336.234 183.763 336.349 183.699C336.464 183.635 336.576 183.569 336.686 183.504C337.102 183.253 337.485 183 337.839 182.74C337.904 182.693 337.969 182.646 338.03 182.598C338.102 182.545 338.172 182.492 338.239 182.437C338.307 182.387 338.373 182.333 338.436 182.279C338.448 182.272 338.459 182.261 338.471 182.251C338.537 182.198 338.6 182.145 338.661 182.091C338.723 182.039 338.783 181.987 338.843 181.933C338.909 181.874 338.974 181.814 339.039 181.755C339.096 181.7 339.152 181.648 339.206 181.595C339.256 181.546 339.305 181.497 339.354 181.448C339.401 181.402 339.446 181.354 339.492 181.308C339.554 181.242 339.616 181.175 339.676 181.109C339.721 181.06 339.766 181.012 339.809 180.963C339.85 180.916 339.89 180.869 339.929 180.823C339.979 180.764 340.026 180.707 340.072 180.649C340.118 180.593 340.161 180.54 340.202 180.485C340.254 180.417 340.304 180.35 340.354 180.285C340.389 180.236 340.426 180.187 340.459 180.138C340.494 180.091 340.527 180.042 340.559 179.991C340.96 179.405 341.253 178.826 341.469 178.28C341.674 177.761 341.806 177.27 341.889 176.823C341.899 176.766 341.909 176.712 341.918 176.656C341.927 176.602 341.935 176.548 341.943 176.494C341.967 176.332 341.983 176.18 341.994 176.036C341.997 175.987 342 175.94 342.004 175.893C342.008 175.847 342.009 175.8 342.011 175.756C342.014 175.712 342.014 175.667 342.016 175.625C342.017 175.539 342.018 175.457 342.017 175.38C342.019 175.365 342.018 175.351 342.018 175.337C342.017 175.335 342.017 175.336 342.017 175.334C343.295 175.048 344.575 174.763 345.618 174.531Z" fill="#495BF1"/>
<g opacity="0.68">
<path d="M377.636 170.877L380.13 183.689C371.762 193.618 360.102 194.999 350.664 194.39C347.283 194.171 344.188 193.696 341.629 193.268C339.72 192.949 337.778 192.406 335.888 191.737C335.34 191.546 334.799 191.341 334.262 191.129C332.832 190.567 331.449 189.946 330.148 189.311C327.06 187.808 324.441 186.232 322.803 185.187C323.994 184.029 324.934 183.111 325.443 182.615L325.447 182.608C325.512 182.544 325.571 182.489 325.621 182.44C325.621 182.438 325.623 182.437 325.625 182.437C326.144 181.704 326.697 181.065 327.267 180.507C329.707 178.121 332.463 177.219 334.227 176.879C335.34 176.665 336.06 176.673 336.06 176.673C336.06 176.673 342.148 175.301 345.621 174.531C346.716 174.287 347.551 174.103 347.852 174.042C351.756 172.653 352.392 169.783 352.494 168.793C352.517 168.573 352.513 168.447 352.513 168.447C354.018 168.579 355.546 168.484 356.933 168.292C359.453 167.945 361.506 167.281 362.096 167.078C362.206 167.041 362.266 167.019 362.268 167.018C362.39 167.705 363.367 168.963 363.299 168.955C364.439 170.091 365.776 170.82 367.167 171.261C372.065 172.827 377.636 170.877 377.636 170.877Z" fill="#322D8B"/>
</g>
<g style="mix-blend-mode:multiply">
<path d="M359.748 233.887L359.7 193.348C359.7 193.348 360.883 179.588 357.281 168.24" stroke="#262682" stroke-width="0.229347" stroke-miterlimit="10"/>
<path d="M351.883 170.77L358.998 175.722L363.761 169.965" stroke="#262682" stroke-width="0.229347" stroke-miterlimit="10"/>
<path d="M348.876 173.609L360.045 185.247L367.329 173.683" stroke="#262682" stroke-width="0.229347" stroke-miterlimit="10"/>
<path d="M340.494 179.149L359.747 192.677L377.81 180.649" stroke="#262682" stroke-width="0.229347" stroke-miterlimit="10"/>
<path d="M337.042 183.14L359.715 206.354L380.803 184.598" stroke="#262682" stroke-width="0.229347" stroke-miterlimit="10"/>
<path d="M335.172 184.299L359.726 214.932L380.495 191.324" stroke="#262682" stroke-width="0.229347" stroke-miterlimit="10"/>
<path d="M335.854 195.251L359.73 218.148L375.65 206.282" stroke="#262682" stroke-width="0.229347" stroke-miterlimit="10"/>
</g>
<g opacity="0.39">
<path d="M383.894 224.746C379.415 228.261 374.165 230.946 368.315 232.502C366.9 232.878 365.484 233.179 364.069 233.408C365.693 231.587 368.126 228.328 370.379 223.25C373.097 217.118 376.74 214.238 378.625 213.084C382.204 218.738 383.469 222.877 383.894 224.746Z" fill="#1A1B63"/>
</g>
<g opacity="0.57">
<path d="M363.989 228.625C369.57 229.118 373.873 229.206 377.161 229.083C374.403 230.514 371.446 231.669 368.319 232.501C366.903 232.878 365.488 233.178 364.073 233.407C353.727 235.087 343.483 232.905 334.975 227.811C336.051 221.683 338.851 217.919 340.871 215.394C343.6 219.564 350.473 227.432 363.989 228.625Z" fill="#946DE0"/>
</g>
<path d="M336.506 198.172C336.524 198.285 336.544 198.397 336.558 198.511L336.558 198.513C336.568 198.564 336.575 198.614 336.583 198.666C336.577 198.644 336.216 199.144 335.526 200.057L335.526 200.059C334.862 200.936 333.897 202.195 332.653 203.736C328.856 208.442 322.471 215.776 314.209 222.939C314.221 222.988 305.16 229.786 300.503 233.277C298.893 234.483 297.81 235.293 297.81 235.293C297.81 235.293 291.565 240.421 285.407 239.021C283.421 238.57 281.443 237.437 279.688 235.233C279.599 235.123 279.511 235.011 279.424 234.895C279.407 234.874 279.391 234.852 279.375 234.83C278.117 233.136 277.08 231.193 276.234 229.109C275.346 226.931 274.668 224.602 274.165 222.246C272.525 214.579 272.733 206.629 273.644 202.729C273.71 202.444 273.78 202.183 273.853 201.942C274.598 202.168 275.471 202.38 276.45 202.52C279.926 203.023 284.715 202.645 289.655 198.922C289.938 198.71 290.221 198.485 290.506 198.25C290.643 198.767 290.787 199.293 290.94 199.829C291.197 200.751 291.477 201.705 291.783 202.706C292 203.416 292.207 204.092 292.404 204.736C293.147 207.161 293.737 209.086 294.129 210.365C294.482 211.519 294.675 212.147 294.675 212.147C294.675 212.147 294.901 212.301 295.316 211.8C295.393 211.707 295.478 211.591 295.567 211.448C295.874 210.959 298.598 208.156 301.672 205.131C304.368 202.482 307.328 199.66 309.172 198.081C311.633 195.969 317.525 190.307 321.604 186.352C322.024 185.943 322.426 185.553 322.802 185.188C323.993 184.03 324.934 183.112 325.442 182.616L325.446 182.609C325.511 182.545 325.57 182.49 325.621 182.441C325.62 182.439 325.622 182.438 325.624 182.438C325.775 182.288 325.858 182.208 325.858 182.208C325.858 182.208 328.052 183.221 330.486 185.753C331.774 187.095 333.13 188.862 334.261 191.13C334.835 192.281 335.351 193.562 335.772 194.98C336.069 195.976 336.317 197.038 336.506 198.172Z" fill="#3F4AC0"/>
<path d="M321.601 186.352C317.253 197.099 307.54 220.537 300.499 233.278C298.89 234.483 297.807 235.293 297.807 235.293C297.807 235.293 291.562 240.422 285.404 239.021L294.126 210.365C294.479 211.519 294.671 212.148 294.671 212.148C294.671 212.148 294.898 212.301 295.313 211.8C295.39 211.708 295.475 211.591 295.564 211.448C295.871 210.96 298.595 208.156 301.669 205.131C304.365 202.483 307.325 199.66 309.168 198.081C311.63 195.969 317.522 190.308 321.601 186.352Z" fill="#504FCF"/>
<path d="M289.653 198.922C288.171 203.106 281.363 222.721 279.422 234.895C279.404 234.874 279.388 234.852 279.373 234.83C276.802 231.364 275.148 226.856 274.163 222.246C272.522 214.579 272.731 206.629 273.642 202.729C273.707 202.444 273.777 202.183 273.851 201.942C274.595 202.168 275.469 202.38 276.448 202.52C279.924 203.023 284.713 202.644 289.653 198.922Z" fill="#504FCF"/>
<g opacity="0.57">
<path d="M279.721 224.643C277.425 224.751 275.39 223.343 274.166 222.246C272.526 214.579 272.734 206.629 273.645 202.729C273.711 202.444 273.781 202.182 273.854 201.941C274.598 202.168 275.472 202.38 276.451 202.52L281.288 218.394C281.288 218.394 283.45 224.469 279.721 224.643Z" fill="#946DE0"/>
</g>
<g opacity="0.6">
<path d="M336.505 198.172C336.532 198.334 336.558 198.499 336.583 198.666C336.554 198.558 327.993 210.987 314.208 222.939C314.29 222.955 297.81 235.293 297.81 235.293C297.81 235.293 286.616 244.486 279.424 234.895C279.406 234.873 279.39 234.852 279.375 234.83C278.116 233.135 277.079 231.192 276.234 229.109C279.032 229.291 283.994 228.978 292.167 226.643C306.895 222.432 312.957 222.63 323.189 212.381C333.421 202.134 335.946 196.851 335.946 196.851L336.505 198.172Z" fill="#363FA6"/>
</g>
<g opacity="0.57">
<path d="M330.485 185.753C329.472 188.399 325.348 197.015 312.119 205.875C302.215 212.654 299.178 209.785 301.671 205.131C304.367 202.483 307.327 199.66 309.171 198.081C313.114 194.698 325.857 182.208 325.857 182.208C325.857 182.208 328.051 183.221 330.485 185.753Z" fill="#946DE0"/>
</g>
<path d="M341.931 174.449C341.931 174.449 341.937 174.471 341.943 174.517L341.947 174.529C341.95 174.552 341.955 174.578 341.96 174.609C341.96 174.617 341.962 174.625 341.963 174.634C341.968 174.663 341.972 174.693 341.976 174.728C341.984 174.796 341.993 174.875 341.999 174.965C342.001 174.995 342.003 175.026 342.006 175.059C342.008 175.09 342.009 175.124 342.011 175.16C342.013 175.193 342.015 175.228 342.015 175.266C342.016 175.286 342.016 175.31 342.017 175.333C342.017 175.335 342.017 175.335 342.018 175.337C342.018 175.351 342.019 175.365 342.017 175.379C342.018 175.457 342.017 175.539 342.016 175.625C342.014 175.667 342.014 175.711 342.011 175.756C342.009 175.8 342.008 175.846 342.004 175.893C342 175.94 341.997 175.986 341.994 176.035C341.983 176.18 341.967 176.331 341.943 176.493C341.935 176.547 341.927 176.601 341.918 176.655C341.909 176.712 341.9 176.766 341.889 176.823C341.806 177.269 341.674 177.761 341.469 178.28C341.253 178.826 340.96 179.404 340.56 179.991C340.527 180.042 340.495 180.09 340.459 180.137C340.426 180.186 340.389 180.235 340.355 180.285C340.304 180.35 340.254 180.417 340.202 180.485C340.161 180.539 340.118 180.593 340.073 180.649C340.026 180.707 339.979 180.763 339.929 180.822C339.89 180.869 339.851 180.915 339.809 180.962C339.766 181.011 339.721 181.059 339.676 181.109C339.616 181.175 339.554 181.241 339.492 181.308C339.446 181.354 339.401 181.401 339.354 181.448C339.305 181.497 339.256 181.546 339.206 181.595C339.152 181.647 339.096 181.7 339.039 181.755C338.975 181.814 338.909 181.874 338.843 181.933C338.783 181.987 338.723 182.039 338.661 182.091C338.6 182.145 338.537 182.198 338.471 182.251C338.459 182.26 338.448 182.271 338.436 182.278C338.373 182.333 338.307 182.386 338.239 182.436C338.172 182.492 338.102 182.544 338.03 182.597C337.969 182.645 337.904 182.693 337.839 182.74C337.486 182.999 337.102 183.253 336.686 183.503C336.576 183.568 336.464 183.634 336.349 183.699C336.234 183.763 336.116 183.828 335.996 183.894C335.898 183.946 335.799 183.998 335.699 184.049C335.304 184.253 334.885 184.453 334.439 184.645C334.43 184.648 334.421 184.652 334.412 184.656C334.274 184.715 334.136 184.773 334.002 184.829C333.714 184.948 333.433 185.058 333.156 185.16C332.94 185.239 332.727 185.314 332.518 185.383C332.432 185.412 332.346 185.441 332.261 185.468C332.169 185.498 332.077 185.526 331.987 185.553C331.875 185.588 331.762 185.622 331.651 185.654C331.258 185.766 330.877 185.863 330.511 185.943C329.251 186.22 328.147 186.313 327.186 186.285C323.498 186.182 321.948 184.315 321.948 184.315C321.948 184.315 324.187 181.93 326.764 179.72C327.874 178.766 329.049 177.844 330.131 177.161C330.288 177.062 330.456 176.965 330.631 176.873C330.702 176.834 330.776 176.796 330.85 176.76C330.911 176.728 330.973 176.698 331.037 176.669C331.11 176.634 331.183 176.6 331.256 176.569C331.333 176.534 331.411 176.5 331.491 176.469C331.628 176.408 331.769 176.353 331.914 176.298C331.986 176.269 332.059 176.242 332.134 176.216C332.188 176.196 332.244 176.174 332.299 176.156C332.385 176.125 332.472 176.096 332.56 176.066C333.242 175.839 333.965 175.641 334.695 175.471C335.187 175.356 335.684 175.254 336.172 175.162C339.185 174.598 341.931 174.449 341.931 174.449Z" fill="#FFC34D"/>
<path d="M341.465 178.28C340.667 180.311 338.774 182.77 334.435 184.646C334.426 184.648 334.417 184.652 334.408 184.657C331.413 185.948 329.029 186.339 327.182 186.286C327.895 184.52 329.623 181.368 333.212 180.045C336.571 178.807 339.706 178.407 341.465 178.28Z" fill="#FFAD47"/>
<g opacity="0.75">
<path d="M341.93 174.449C341.93 174.449 341.935 174.471 341.942 174.517L341.945 174.529C341.948 174.55 341.954 174.578 341.958 174.609C341.958 174.617 341.96 174.624 341.961 174.634C341.966 174.662 341.971 174.693 341.974 174.728C341.982 174.796 341.991 174.875 341.997 174.965C341.999 174.995 342.001 175.026 342.004 175.059C342.007 175.09 342.007 175.124 342.009 175.159C342.012 175.193 342.013 175.228 342.013 175.266C342.014 175.29 342.013 175.312 342.014 175.337C342.016 175.351 342.015 175.365 342.015 175.379C342.016 175.457 342.016 175.538 342.015 175.625C342.012 175.667 342.012 175.711 342.01 175.755C342.007 175.8 342.006 175.846 342.002 175.893C341.999 175.94 341.996 175.986 341.993 176.035C341.981 176.18 341.964 176.334 341.941 176.493C341.933 176.547 341.925 176.601 341.916 176.655C341.907 176.712 341.898 176.766 341.887 176.823C341.804 177.269 341.672 177.761 341.467 178.28C341.251 178.826 340.958 179.404 340.558 179.991C340.525 180.041 340.493 180.09 340.457 180.137C340.424 180.186 340.388 180.235 340.353 180.285C340.302 180.35 340.252 180.417 340.201 180.484C340.159 180.539 340.116 180.593 340.071 180.649C340.025 180.707 339.978 180.763 339.927 180.822C339.888 180.869 339.849 180.915 339.807 180.962C339.765 181.011 339.719 181.059 339.675 181.109C339.614 181.175 339.552 181.241 339.49 181.307C339.445 181.354 339.4 181.401 339.352 181.448C339.303 181.497 339.255 181.546 339.204 181.595C339.15 181.647 339.094 181.7 339.037 181.755C338.973 181.814 338.907 181.874 338.841 181.933C338.781 181.986 338.721 182.039 338.66 182.091C338.598 182.145 338.535 182.198 338.469 182.251C338.458 182.26 338.446 182.271 338.434 182.278C338.371 182.333 338.305 182.386 338.237 182.436C338.17 182.492 338.1 182.544 338.029 182.597C337.968 182.645 337.903 182.693 337.837 182.74C337.484 182.999 337.1 183.253 336.684 183.503C336.574 183.568 336.462 183.634 336.347 183.699C336.233 183.763 336.115 183.828 335.995 183.894C335.897 183.946 335.797 183.998 335.697 184.049C335.303 184.253 334.883 184.453 334.438 184.645C335.582 182.658 336.099 180.746 336.287 179.108C336.395 178.174 336.398 177.33 336.35 176.609C336.312 176.043 336.243 175.555 336.171 175.162C339.183 174.597 341.93 174.449 341.93 174.449Z" fill="#FFB34D"/>
</g>
<path d="M266.839 163.714L266.679 167.648L262.267 166.856L261.171 166.093L258.567 164.281L258.187 162.73L256.907 157.507C256.881 157.402 256.896 157.303 256.94 157.219C257.027 157.051 257.222 156.946 257.43 157.001C260.227 157.762 260.598 161.674 260.618 161.751C260.619 161.753 260.618 161.752 260.618 161.752C260.708 161.88 261.841 162.771 261.844 162.77C262.596 163.234 266.839 163.714 266.839 163.714Z" fill="#FEAB83"/>
<path d="M261.31 166.994L258.415 167.005L255.927 165.47L253.107 163.73L252.53 161.312L251.204 155.768L251.148 155.532C251.092 155.301 251.303 155.096 251.53 155.155C252.368 155.373 253.077 155.872 253.67 156.505C254.728 157.633 255.42 159.187 255.823 160.326C256.132 161.205 256.271 161.838 256.271 161.838L259.293 163.245L259.302 163.248L259.321 163.281L260.795 166.035L261.31 166.994Z" fill="#FEAB83"/>
<path d="M255.515 166.844L249.263 163.236L248.779 162.272L248.315 161.345L248.315 161.343L245.463 155.647L245.354 155.431C245.257 155.239 245.395 155.023 245.602 155.014C245.612 155.014 245.622 155.013 245.632 155.014C246.116 155.041 246.92 155.208 247.808 155.891C248.304 156.271 248.824 156.812 249.333 157.578C250.193 158.874 250.65 159.65 250.892 160.111C250.966 160.253 251.02 160.366 251.06 160.456L251.061 160.458C251.189 160.746 251.16 160.786 251.16 160.786L253.594 162.26L254.744 165.002L255.515 166.844Z" fill="#FEAB83"/>
<path d="M283.662 175.403C282.599 176.278 281.451 176.866 280.349 177.259C279.342 177.619 278.371 177.815 277.537 177.918C276.969 177.987 276.46 178.015 276.043 178.02C275.292 178.03 274.832 177.972 274.83 177.966C274.754 177.703 274.666 177.446 274.559 177.195C273.84 175.49 272.34 174.061 269.153 172.417C268.378 172.017 267.51 171.64 266.622 171.292C263.33 170.007 259.783 169.152 259.783 169.152L258.04 168.725L250.999 166.995C250.999 166.995 240.947 160.218 240.184 159.837C239.917 159.703 239.802 159.528 239.769 159.359C239.706 159.053 239.898 158.765 239.898 158.765C240.776 158.587 241.6 158.542 242.369 158.598C244.78 158.764 246.627 159.9 247.801 160.887C247.989 161.045 248.159 161.198 248.312 161.345C248.507 161.533 248.674 161.703 248.812 161.852C249.115 162.184 249.271 162.4 249.271 162.4L259.887 163.405C259.887 163.405 263.107 163.499 266.839 163.703C267.184 163.721 267.533 163.741 267.885 163.762C270.847 163.937 273.973 164.18 275.975 164.496C277.916 164.806 279.548 166.636 280.802 168.712C281.166 169.315 281.5 169.94 281.796 170.553C282.572 172.141 283.119 173.66 283.412 174.561C283.584 175.085 283.67 175.401 283.662 175.403Z" fill="#FEAB83"/>
<path d="M276.044 178.019C275.293 178.029 274.833 177.971 274.831 177.965C274.755 177.702 274.667 177.445 274.56 177.194C273.841 175.489 272.341 174.06 269.154 172.416C268.379 172.016 267.511 171.639 266.623 171.291C263.331 170.006 259.784 169.152 259.784 169.152L258.041 168.724L267.325 169.343C267.325 169.343 273.285 169.081 275.05 171.548C276.491 173.561 276.795 176.031 276.044 178.019Z" fill="#FE9F7D"/>
<path d="M280.804 168.712C279.763 166.989 278.462 165.434 276.94 164.78C276.629 164.646 276.306 164.548 275.977 164.496C273.975 164.179 270.849 163.937 267.887 163.761C265.694 163.015 264.694 162.117 264.254 161.363C264.046 161.009 263.962 160.687 263.937 160.426C263.897 160.028 263.993 159.776 263.993 159.776C264.179 159.884 269.594 160.787 272.062 161.195C272.989 161.35 273.889 161.639 274.724 162.072C274.948 162.188 275.124 162.293 275.176 162.355C275.181 162.359 275.184 162.364 275.188 162.369C279.354 164.626 280.503 167.273 280.804 168.712Z" fill="#FEAB83"/>
<path d="M255.12 167.493L248.053 164.278L242.368 158.597C244.779 158.763 246.627 159.899 247.801 160.886C247.988 161.044 248.159 161.198 248.311 161.344L249.26 163.237L255.12 167.493Z" fill="#FB856D"/>
<path d="M255.928 165.47L254.743 165.002L252.687 164.193L249.891 161.359C248.333 159.213 247.909 156.725 247.807 155.891C248.303 156.272 248.824 156.813 249.332 157.578C250.192 158.875 250.649 159.65 250.892 160.112L251.159 160.786L252.616 161.669L253.109 163.73L255.928 165.47Z" fill="#FB856D"/>
<path d="M261.172 166.092C261.088 166.083 260.962 166.066 260.798 166.034C260.179 165.914 259.04 165.589 257.753 164.731C255.814 163.439 254.831 161.639 254.831 161.639L253.672 156.505C254.73 157.633 255.423 159.187 255.825 160.326C256.135 161.205 256.273 161.837 256.273 161.837L258.188 162.73L258.569 164.281L261.172 166.092Z" fill="#FB856D"/>
<path d="M280.802 168.711C279.761 166.989 278.46 165.433 276.938 164.78C276.627 164.645 276.304 164.547 275.975 164.495C273.973 164.179 270.847 163.936 267.885 163.761C265.692 163.014 264.692 162.116 264.252 161.362C265.218 161.604 266.938 161.938 269.116 161.962C271.054 161.985 273.266 162.082 275.175 162.354C275.18 162.359 275.183 162.364 275.186 162.369C279.352 164.626 280.501 167.273 280.802 168.711Z" fill="#FB856D"/>
<path d="M287.729 186.884C288.774 191.129 289.503 194.499 290.505 198.25C288.847 199.626 287.197 200.613 285.601 201.302C283.365 202.266 281.235 202.645 279.327 202.692C277.152 202.748 275.267 202.373 273.852 201.942C273.86 201.918 273.867 201.892 273.875 201.868C273.894 201.863 273.979 200.467 274.112 198.5C274.22 196.874 274.359 194.857 274.519 192.915C274.671 191.079 274.841 189.305 275.019 187.99C275.048 187.783 275.075 187.586 275.104 187.403C275.521 184.741 275.412 182.15 275.18 180.213C275.103 179.549 275.011 178.964 274.92 178.478C274.87 178.216 274.823 177.985 274.777 177.784C274.777 177.784 277.706 178.193 281.587 176.435C282.337 176.096 283.122 175.676 283.929 175.156C283.929 175.156 284.124 175.641 284.434 176.469C285.014 178.013 285.999 180.747 286.888 183.774C287.183 184.788 287.472 185.835 287.729 186.884Z" fill="#FFC34E"/>
<path d="M287.729 186.883C288.775 191.128 289.504 194.498 290.505 198.249C288.847 199.625 287.197 200.612 285.602 201.302C283.366 202.265 281.235 202.645 279.327 202.691C281.253 198.814 284.715 189.429 281.588 176.434C282.337 176.095 283.123 175.675 283.93 175.155C283.93 175.155 284.125 175.64 284.435 176.468C285.015 178.012 286 180.747 286.889 183.774C287.184 184.787 287.472 185.835 287.729 186.883Z" fill="#FFAD47"/>
<g opacity="0.56">
<path d="M287.727 186.884C288.772 191.129 289.502 194.5 290.503 198.25C283.871 203.754 277.392 203.02 273.851 201.942C273.859 201.918 273.866 201.893 273.873 201.869C273.892 201.864 273.977 200.467 274.11 198.5C278.738 191.347 285.242 185.263 286.886 183.775C287.182 184.789 287.47 185.836 287.727 186.884Z" fill="#FEA041"/>
</g>
<path d="M399.05 206.319C398.764 208.462 397.994 210.981 396.241 213.491L396.239 213.491C395.256 214.899 393.962 216.301 392.27 217.634C392.142 217.563 392.013 217.494 391.885 217.424C389.294 216.034 384.029 211.66 379.827 208.015C377.634 206.114 375.734 204.413 374.65 203.435C374.042 202.887 373.691 202.566 373.691 202.566C373.691 202.566 373.714 202.538 373.757 202.483C373.942 202.242 374.505 201.502 375.153 200.528C376.056 199.17 377.125 197.355 377.575 195.8C377.737 195.234 377.818 194.705 377.78 194.242C377.783 194.244 377.784 194.243 377.784 194.243L378.17 194.358L379.67 194.808L379.908 194.88L380.093 194.937L383.545 195.972L386.362 196.818L391.831 198.455L395.876 199.667L398.752 200.529C398.752 200.529 399.496 202.959 399.05 206.319Z" fill="#FEAE47"/>
<path d="M399.049 206.318C395.38 205.688 386.871 204.189 382.44 203.097C378.927 202.23 376.506 201.199 375.153 200.528C376.056 199.17 377.124 197.354 377.574 195.8C377.736 195.234 377.817 194.705 377.78 194.242L377.784 194.243L378.169 194.357L379.669 194.808L379.908 194.88L380.092 194.936L383.544 195.972L391.83 198.455L398.751 200.529C398.751 200.529 399.495 202.958 399.049 206.318Z" fill="#FFC34E"/>
<path d="M378.17 194.358C378.121 195.254 377.722 199.706 374.65 203.435C374.042 202.887 373.691 202.566 373.691 202.566C373.691 202.566 378.016 197.098 377.78 194.242L377.784 194.243L378.17 194.358Z" fill="#FE9C44"/>
<path d="M372.238 205.328C372.238 205.328 372.195 205.64 371.941 205.833C371.809 205.934 371.617 206.003 371.342 205.974C371.334 205.973 370.591 204.992 369.383 203.39C369.084 202.995 368.76 202.562 368.409 202.098C368.193 201.81 367.966 201.51 367.733 201.199C367.502 200.894 367.265 200.578 367.021 200.254C366.494 199.553 365.935 198.809 365.352 198.033C363.42 195.463 361.225 192.548 359.106 189.727C358.89 189.44 358.677 189.153 358.463 188.869C358.08 188.357 357.698 187.851 357.324 187.352C357.123 187.085 356.923 186.819 356.727 186.556C356.389 186.108 356.058 185.666 355.733 185.234C355.715 185.209 355.697 185.186 355.678 185.161C354.829 184.029 354.029 182.964 353.306 182.002C351.358 179.406 349.972 177.562 349.7 177.198C349.666 177.153 349.643 177.104 349.629 177.052L349.296 175.801C349.288 175.769 349.29 175.74 349.297 175.715C349.326 175.627 349.43 175.578 349.521 175.633L350.711 176.369C350.756 176.397 350.796 176.434 350.83 176.479L355.356 182.579L356.765 184.477L357.376 185.299L358.725 187.117L359.28 187.867L359.991 188.826L360.42 189.403L366.659 197.811L368.688 200.546L369.384 201.481L369.735 201.955L369.763 201.993L372.238 205.328Z" fill="#5CFF85"/>
<path d="M359.281 187.867C359.245 187.92 359.161 187.94 358.99 187.892C358.878 187.858 358.73 187.812 358.569 187.761L356.486 184.946L350.609 176.691C350.609 176.691 349.916 176.132 349.675 175.889C349.517 175.73 349.377 175.71 349.298 175.715C349.327 175.627 349.431 175.578 349.522 175.633L350.712 176.369C350.758 176.397 350.797 176.434 350.831 176.479L356.766 184.477C356.836 185.341 357.355 186.228 357.886 186.537C358.162 186.697 358.473 186.923 358.726 187.117L359.281 187.867Z" fill="#00AF60"/>
<path d="M372.239 205.327C372.239 205.327 372.197 205.639 371.943 205.833L367.924 200.403C368.143 200.44 368.403 200.489 368.69 200.546L372.239 205.327Z" fill="#00AF60"/>
<path d="M377.778 194.241C377.792 194.411 377.789 194.589 377.773 194.777C377.773 194.777 377.774 194.779 377.772 194.781C377.745 195.099 377.675 195.443 377.572 195.799C377.383 196.452 377.087 197.148 376.738 197.837C376.738 197.837 376.737 197.839 376.736 197.842C376.471 198.369 376.177 198.889 375.878 199.384L375.864 199.407C375.624 199.802 375.382 200.18 375.151 200.528C374.503 201.502 373.94 202.242 373.754 202.482C373.622 202.382 373.308 202.182 372.564 201.814C372.403 201.733 372.222 201.646 372.019 201.55C371.017 201.075 369.691 200.748 368.687 200.547C368.4 200.489 368.141 200.441 367.921 200.404C367.482 200.329 367.204 200.294 367.204 200.294C367.204 200.294 367.138 200.279 367.02 200.254C366.227 200.091 363.083 199.444 362.165 199.343C361.114 199.23 358.993 198.437 358.454 198.114C358.223 197.973 357.953 197.589 357.725 197.195C357.422 196.678 357.187 196.146 357.187 196.146C357.187 196.146 357.001 196.06 356.76 195.937C356.469 195.785 356.1 195.576 355.906 195.396C355.742 195.243 355.629 194.848 355.555 194.471C355.47 194.041 355.438 193.635 355.438 193.635C355.438 193.635 355.327 193.489 354.688 193.281C354.393 193.186 354.167 193.032 354.007 192.896C353.814 192.732 353.716 192.59 353.716 192.59C353.716 192.59 353.647 192.329 353.554 191.993C353.442 191.581 353.294 191.055 353.203 190.773C353.156 190.624 353.171 190.466 353.221 190.316C353.34 189.951 353.646 189.635 353.646 189.635C353.646 189.635 353.644 189.633 353.639 189.632C353.578 189.609 353.067 189.408 352.667 189.044C352.361 188.762 352.119 188.386 352.197 187.919C352.344 187.034 352.851 186.569 353.053 186.415C353.104 186.376 353.137 186.357 353.137 186.357L355.211 185.381L355.677 185.161C355.859 185.402 356.041 185.646 356.227 185.894C356.294 185.983 356.363 186.075 356.433 186.166C356.529 186.296 356.627 186.425 356.726 186.557L357.233 187.323C357.233 187.323 357.266 187.334 357.323 187.353C357.538 187.425 358.109 187.616 358.566 187.762C358.727 187.812 358.875 187.859 358.988 187.893C359.158 187.941 359.243 187.92 359.278 187.867C359.356 187.761 359.226 187.522 359.226 187.522C359.226 187.522 359.012 187.34 358.724 187.117C358.471 186.923 358.159 186.698 357.883 186.538C357.353 186.228 356.834 185.342 356.763 184.477C356.755 184.388 356.752 184.299 356.754 184.213C356.759 184.074 356.783 183.958 356.82 183.858C356.845 183.794 356.876 183.738 356.91 183.689C357.183 183.297 357.716 183.329 357.716 183.329L360.769 184.544C360.769 184.544 364.745 186.493 366.855 187.024C368.966 187.557 370.113 188.681 370.113 188.681C370.113 188.681 370.408 188.97 370.89 189.425C371.496 190.002 372.403 190.843 373.398 191.703C375.141 193.21 377.674 194.202 377.778 194.241Z" fill="#FEAB83"/>
<path d="M376.739 197.837C376.739 197.837 376.738 197.839 376.737 197.842C376.7 197.906 376.355 198.527 375.879 199.384L375.865 199.407C375.625 199.802 375.382 200.18 375.152 200.528C374.504 201.502 373.941 202.242 373.755 202.482C373.595 202.36 373.165 202.093 372.02 201.55C371.018 201.075 369.692 200.748 368.688 200.547C368.401 200.489 368.141 200.441 367.922 200.404C367.483 200.329 367.205 200.294 367.205 200.294C367.205 200.294 367.139 200.279 367.021 200.255C366.227 200.091 363.084 199.444 362.166 199.343C361.115 199.23 358.994 198.437 358.455 198.114C358.224 197.974 357.954 197.589 357.726 197.195C357.423 196.678 357.188 196.146 357.188 196.146C357.188 196.146 356.257 195.722 355.907 195.396C355.743 195.243 355.63 194.848 355.556 194.471C355.471 194.041 355.439 193.635 355.439 193.635C355.439 193.635 355.328 193.489 354.689 193.281C354.394 193.186 354.168 193.032 354.008 192.896C354.273 192.789 354.826 192.59 355.165 192.673C355.622 192.785 360.157 196.887 363.474 197.843C366.793 198.798 373.329 201.188 376.739 197.837Z" fill="#F8997F"/>
<path d="M358.768 185.631C357.781 184.927 357.19 184.131 356.911 183.689C356.822 183.812 356.762 183.984 356.755 184.213C356.752 184.3 356.756 184.388 356.764 184.478C356.834 185.342 357.353 186.229 357.884 186.538C358.16 186.698 358.471 186.924 358.724 187.118C359.013 187.34 359.227 187.522 359.227 187.522C359.227 187.522 359.356 187.761 359.279 187.867C359.243 187.92 359.159 187.941 358.988 187.893C358.876 187.859 358.728 187.812 358.567 187.762C358.109 187.616 357.538 187.425 357.323 187.353C357.266 187.334 357.233 187.323 357.233 187.323L356.726 186.557C356.627 186.426 356.53 186.296 356.433 186.167L356.433 186.166C356.363 186.075 356.295 185.983 356.227 185.894C356.042 185.646 355.859 185.402 355.677 185.161L355.211 185.381C355.472 185.521 355.745 185.741 355.831 186.063C354.528 186.676 355.642 186.967 357.74 187.802C360.091 188.738 362.607 188.491 362.607 188.491C362.607 188.491 360.225 186.672 358.768 185.631Z" fill="#FB856D"/>
<path d="M356.746 191.261C355.89 191.201 354.182 190.882 353.22 190.316C353.339 189.952 353.645 189.636 353.645 189.636C353.645 189.636 356.158 191.022 357.803 190.79C357.831 190.783 357.741 191.331 356.746 191.261Z" fill="#FB856D"/>
<path d="M359.622 194.42C358.791 194.612 357.305 194.825 355.554 194.472C355.47 194.042 355.437 193.636 355.437 193.636C355.437 193.636 357.836 194.311 359.604 194.282C359.689 194.28 359.704 194.401 359.622 194.42Z" fill="#FB856D"/>
<path d="M360.917 196.863C360.348 197.03 359.264 197.243 357.727 197.196C357.424 196.679 357.189 196.147 357.189 196.147C357.189 196.147 359.216 196.793 360.893 196.724C360.977 196.721 360.997 196.84 360.917 196.863Z" fill="#FB856D"/>
<path d="M376.74 197.837C376.74 197.837 376.739 197.84 376.737 197.842C376.472 198.369 376.178 198.89 375.879 199.384L375.865 199.408C375.626 199.802 375.383 200.18 375.152 200.528C374.504 201.502 373.941 202.242 373.756 202.482C373.623 202.382 373.309 202.183 372.565 201.814C375.595 199.585 377.703 194.938 377.774 194.781C377.746 195.1 377.676 195.443 377.574 195.799" fill="#FB856D"/>
<g opacity="0.29724">
<path d="M257.69 156.931C257.483 156.874 257.286 156.976 257.197 157.144C257.798 157.453 259.196 158.287 259.806 159.631C260.563 161.299 260.801 161.69 260.82 161.719C260.8 161.643 260.477 157.726 257.69 156.931Z" fill="#41EB7A"/>
<path d="M248.521 161.163C248.37 161.014 248.201 160.858 248.016 160.698C246.854 159.697 245.02 158.539 242.611 158.344C241.843 158.279 241.019 158.314 240.139 158.481C240.139 158.481 239.943 158.767 240.003 159.074C240.663 158.949 241.926 158.796 243.082 159.153C244.688 159.645 247.638 160.967 248.974 162.097L248.521 161.164L248.521 161.163Z" fill="#41EB7A"/>
<path d="M245.914 154.802C245.692 154.786 245.532 155.013 245.631 155.215L245.738 155.432C246.471 155.634 247.696 156.054 248.575 156.793C249.862 157.878 251.185 160.154 251.276 160.308C251.114 159.928 250.687 159.12 249.584 157.41C248.192 155.253 246.669 154.853 245.914 154.802Z" fill="#41EB7A"/>
<path d="M251.81 155.015C251.583 154.953 251.37 155.156 251.423 155.387L251.477 155.624C252.475 156.269 254.854 157.972 256.04 160.238C255.433 158.452 254.132 155.647 251.81 155.015Z" fill="#41EB7A"/>
<path d="M275.378 162.512C275.346 162.453 275.16 162.339 274.918 162.21C274.088 161.766 273.192 161.467 272.267 161.301C269.805 160.863 264.401 159.894 264.216 159.784C264.216 159.784 264.117 160.035 264.152 160.434C264.993 160.845 266.795 161.068 269.059 161.451C273.01 162.118 273.97 161.969 275.854 163.521C276.266 163.86 276.549 164.475 276.992 164.854C276.51 164.677 275.924 164.545 275.223 164.507C272.38 164.352 264.986 163.463 264.986 163.463C264.986 163.463 267.324 164.181 268.168 164.334C269.697 164.61 273.583 164.922 273.583 164.922C273.583 164.922 277.662 165.563 278.502 166.323C278.862 166.648 278.938 166.395 278.64 165.986C279.501 166.77 280.264 167.811 280.917 168.922C280.633 167.48 279.517 164.819 275.378 162.512Z" fill="#41EB7A"/>
</g>
<mask id="mask3_715_1316" style="mask-type:alpha" maskUnits="userSpaceOnUse" x="361" y="153" width="79" height="59">
<path d="M439.188 200.635C436.661 207.318 433.563 209.547 428.63 210.619C423.099 211.834 419.114 210.585 413.727 206.654C411.773 205.233 408.979 200.657 407.161 197.753C405.281 195.158 401.138 192.176 395.572 193.509C388.224 195.269 383.081 190.215 381.301 184.924C380.177 181.694 377.243 178.402 372.846 175.977C368.846 173.763 365.685 173.962 363.35 171.572C359.051 167.108 363.192 159.11 363.188 159.081L371.727 153.01C373.477 156.055 375.659 159.35 379.412 159.159C385.428 158.856 392.972 152.137 397.246 155.046C402.698 158.863 396.235 168.236 401.041 172.072C405.531 175.654 418.327 166.466 425.48 173.44C433.8 181.553 427.336 192.676 429.486 199.95C430.711 203.685 435.727 203.976 439.188 200.635Z" fill="#BB02A5"/>
</mask>
<g mask="url(#mask3_715_1316)">
<path d="M427.488 130.361L450.397 210.781L371.255 233.322L348.346 152.902L427.488 130.361Z" fill="#BB02A5"/>
<g opacity="0.5">
<path d="M455.72 184.585C455.72 184.585 444.403 215.565 444.047 216.375C432.585 242.425 387.024 200.861 385.157 200.337C383.11 199.764 356.617 177.067 355.754 176.471C382.659 171.895 411.103 157.144 413.498 154.194C413.555 155.907 455.72 184.585 455.72 184.585Z" fill="#680C5D"/>
</g>
<path d="M431.794 216.323C430.651 216.882 380.618 207.374 380.046 205.249C379.867 204.583 356.631 169.629 356.624 168.872C356.608 166.93 361.073 161.171 360.885 159.777L362.837 159.689C362.837 159.689 364.841 167.546 371.291 167.271C377.743 166.996 386.602 163.925 387.927 168.434C389.25 172.943 388.179 174.947 388.192 174.993C388.205 175.039 387.219 178.842 390.95 179.047C394.684 179.251 406.463 180.664 408.376 185.045C410.289 189.426 406.98 189.603 406.98 189.603C406.98 189.603 404.463 191.071 408.889 192.064C412.96 192.976 419.701 191.006 427.812 196.58C431.81 200.757 446.828 208.976 431.794 216.323Z" fill="#70026D"/>
<g opacity="0.75">
<path d="M390.527 192.24C390.443 192.22 390.222 192.113 390.277 192.179C395.97 198.974 379.933 199.032 377.091 194.421C376.896 194.104 352.518 171.968 352.51 171.211C352.493 169.229 361.065 161.105 360.871 159.692L362.118 158.929L365.034 158.284C365.034 158.284 365.905 158.661 365.803 162.286C365.701 165.91 366.624 168.198 368.036 170.673C369.448 173.147 371.246 177.086 378.082 177.872C386.318 178.819 384.842 185.612 384.842 185.612C384.842 185.612 386.713 190.71 390.527 192.24Z" fill="#4F053E"/>
</g>
<path d="M408.649 213.345C406.756 210.759 391.588 204.122 388.488 203.066C386.976 202.549 348.551 165.084 348.551 165.084L365.68 157.41C365.68 157.41 364.22 165.313 372.868 163.673C381.514 162.034 388.991 161.47 390.649 167.511C392.49 174.217 388.379 186.371 394.825 186.214C401.27 186.055 404.626 183.795 407.8 192.294C410.863 200.499 417.464 202.932 423.364 202.936C429.582 202.941 439.033 195.138 446.507 198.396C472.279 209.631 410.582 215.927 408.649 213.345Z" fill="#3F0634" fill-opacity="0.34"/>
<g opacity="0.5">
<path d="M410.337 215.075C408.055 214.279 369.743 203.79 369.694 203.7C369.645 203.613 364.902 188.841 364.855 188.754C362.677 185.504 357.401 167.625 356.696 166.306C366.53 166.598 390.968 170.777 406.904 179.796C418.141 186.154 425.271 191.008 429.612 194.289C429.631 194.806 446.394 203.941 446.446 204.467C446.72 207.223 429.222 221.661 410.337 215.075Z" fill="#70026D" fill-opacity="0.9"/>
</g>
</g>
<path d="M365.482 151.748C365.502 154.336 364.682 157.259 362.998 159.987C362.562 160.692 362.089 161.352 361.586 161.962C360.15 163.705 358.475 165.044 356.758 165.892C355.279 166.62 353.768 166.986 352.354 166.932C351.263 166.891 350.228 166.598 349.309 166.03C349.242 165.989 349.175 165.945 349.111 165.902C348.265 165.331 347.596 164.563 347.106 163.648C346.646 162.797 346.343 161.82 346.198 160.76C346.17 160.553 346.148 160.345 346.132 160.133C345.913 157.357 346.719 154.1 348.58 151.086C349.207 150.071 349.911 149.152 350.669 148.338C350.878 148.113 351.089 147.897 351.306 147.69C351.306 147.69 351.305 147.69 351.307 147.69C354.79 144.339 359.179 143.133 362.272 145.042C364.38 146.344 365.462 148.833 365.482 151.748Z" fill="#FEAB83"/>
<path d="M352.465 152.689L350.395 156.231L351.127 157.577L352.995 152.911L352.465 152.689Z" fill="#FC7F69"/>
<path d="M352.466 152.688L352.045 152.582L349.471 156.344L350.42 157.561L351.128 157.576L350.396 156.23L352.466 152.688Z" fill="#FFD292"/>
<path d="M352.67 166.935C352.984 166.934 353.302 166.911 353.621 166.871C353.3 166.913 352.984 166.934 352.67 166.935Z" fill="#FF635F"/>
<path d="M353.62 166.871C354.055 166.816 354.494 166.724 354.934 166.599C354.493 166.725 354.054 166.816 353.62 166.871Z" fill="#FF635F"/>
<path d="M354.936 166.6C355.083 166.558 355.229 166.513 355.376 166.463C355.229 166.512 355.083 166.558 354.936 166.6Z" fill="#FF635F"/>
<path d="M365.302 159.375C364.46 160.239 363.231 160.403 362.554 159.743C361.878 159.084 362.011 157.85 362.852 156.989C363.361 156.465 364.013 156.2 364.599 156.219C364.98 156.23 365.332 156.363 365.599 156.621C365.681 156.7 365.75 156.789 365.807 156.885C366.232 157.574 366.04 158.619 365.302 159.375Z" fill="#FEAB83"/>
<path d="M364.754 156.232C365.255 154.695 365.498 153.17 365.486 151.746C363.451 151.303 360.428 150.761 360.45 151.466C360.808 153.44 360.192 154.849 359.861 155.431C359.748 155.628 359.645 155.83 359.561 156.042C359.341 156.592 358.775 157.708 357.69 158.1C356.227 158.63 355.995 159.986 355.995 159.986C355.995 159.986 354.865 164.403 350.721 164.632C348.058 164.779 346.776 162.446 346.202 160.758C346.516 163.044 347.56 164.947 349.312 166.029C350.231 166.597 351.267 166.89 352.357 166.931C352.42 166.933 352.482 166.934 352.545 166.934C355.555 166.973 358.97 165.14 361.59 161.961C362.084 161.362 362.549 160.715 362.978 160.024C363.67 160.319 364.616 160.081 365.303 159.377C366.144 158.515 366.277 157.281 365.6 156.622C365.37 156.397 365.075 156.271 364.754 156.232Z" fill="#FB9177"/>
<path d="M363.678 157.445C363.62 157.527 363.343 158.183 363.773 158.407C364.202 158.63 364.449 158.077 364.449 158.077C364.449 158.077 364.649 157.784 365.095 157.926C365.541 158.069 365.744 157.422 365.41 157.174C365.077 156.926 364.352 156.486 363.678 157.445Z" fill="#EE5850"/>
<path d="M369.94 149.255C369.704 148.793 369.475 148.357 369.249 147.961C369.046 147.603 368.83 147.27 368.604 146.955C368.591 146.939 368.58 146.922 368.567 146.906C366.41 143.943 363.258 142.811 359.946 142.292C356.268 141.717 353.848 144.04 351.624 145.515C350.484 146.272 349.801 146.091 349.406 145.733C349.239 145.584 349.124 145.402 349.046 145.246C348.931 145.013 348.632 144.943 348.419 145.096C348.183 145.267 347.935 145.589 347.862 146.194C347.862 146.394 347.87 146.579 347.879 146.748C347.912 147.221 347.989 147.584 348.104 147.873C348.547 148.989 349.578 149.017 351.035 150.01C353.003 151.353 354.675 150.133 355.615 148.892C356.553 147.651 358.989 148.567 358.853 148.605C358.757 149.15 358.731 149.614 358.752 150.006C358.774 150.405 358.846 150.731 358.947 150.998C359.163 151.58 359.512 151.886 359.771 152.053C359.949 152.167 360.164 152.19 360.373 152.165C360.564 152.144 360.704 152.211 360.805 152.306C360.95 152.443 361.004 152.65 360.978 152.848L360.97 152.904C360.97 152.904 360.97 152.906 360.969 152.909C360.96 152.935 360.911 153.089 360.856 153.318C360.836 153.398 360.818 153.488 360.799 153.583C360.712 154.014 360.636 154.591 360.691 155.134C360.772 155.934 361.135 156.66 362.166 156.732C362.837 156.641 363.679 156.168 363.679 156.168C363.679 156.168 363.882 156.115 364.152 156.127C364.29 156.134 364.446 156.161 364.601 156.219C364.982 156.23 365.334 156.363 365.601 156.622C365.683 156.701 365.752 156.789 365.809 156.885L369.352 154.729L369.352 154.727L371.96 153.139C371.196 151.815 370.545 150.448 369.94 149.255Z" fill="#BB02A5"/>
<path d="M369.917 149.174C369.01 149.039 367.271 149.212 365.017 151.449C363.253 153.198 361.781 153.559 360.776 153.502C360.795 153.406 360.814 153.317 360.834 153.237C360.889 153.008 360.937 152.854 360.946 152.827C360.947 152.825 360.947 152.823 360.947 152.823L360.955 152.767C360.981 152.569 360.927 152.362 360.783 152.225C360.681 152.129 360.541 152.063 360.35 152.084C360.141 152.109 359.926 152.086 359.748 151.972C359.489 151.805 359.14 151.498 358.924 150.917C358.823 150.649 358.751 150.323 358.729 149.925C358.709 149.532 358.734 149.069 358.831 148.523C358.966 148.485 356.53 147.57 355.592 148.811C354.653 150.052 352.98 151.272 351.012 149.929C350.868 149.829 350.727 149.741 350.591 149.659C350.31 149.492 350.05 149.355 349.807 149.235C348.983 148.819 348.391 148.569 348.081 147.792C347.966 147.502 347.89 147.139 347.857 146.666C347.847 146.497 347.839 146.313 347.839 146.113C347.912 145.507 348.16 145.186 348.396 145.015C348.609 144.861 348.907 144.931 349.023 145.165C349.101 145.321 349.216 145.502 349.383 145.652C349.777 146.009 350.461 146.191 351.601 145.433C351.79 145.308 351.982 145.176 352.174 145.042C353.589 144.047 355.115 142.845 357.012 142.352C357.894 142.122 358.855 142.045 359.923 142.211C363.235 142.729 366.387 143.861 368.545 146.824C368.785 147.153 369.012 147.503 369.226 147.879C369.452 148.276 369.681 148.712 369.917 149.174Z" fill="#DD7DC7" fill-opacity="0.66"/>
<path d="M363.563 146.298C363.57 146.322 360.049 147.07 358.75 150.008C358.73 149.615 358.756 149.151 358.852 148.606C358.987 148.568 356.551 147.652 355.614 148.893C354.674 150.135 353.001 151.355 351.033 150.011C349.576 149.019 348.545 148.991 348.103 147.874C347.987 147.585 347.911 147.222 347.878 146.749C348.421 147.448 349.308 148.472 350.062 148.782C351.245 149.269 352.937 150.85 354.614 148.823C356.291 146.793 357.954 146.515 358.867 147.516C359.781 148.52 360.247 147.554 360.247 147.554C360.247 147.554 362.127 145.984 363.563 146.298Z" fill="#8F238A"/>
<path d="M360.853 153.319C360.909 153.089 360.957 152.935 360.966 152.909C360.967 152.907 360.967 152.905 360.967 152.905L360.975 152.849C361.001 152.651 360.947 152.444 360.802 152.307C360.701 152.211 360.56 152.144 360.37 152.166C360.161 152.191 359.946 152.168 359.768 152.054C359.509 151.886 359.16 151.58 358.944 150.999C359.282 151.332 359.811 151.665 360.579 151.691C361.781 151.729 361.188 152.822 360.853 153.319Z" fill="#8F238A"/>
<path d="M360.339 154.255L360.39 154.433C360.355 154.324 360.339 154.255 360.339 154.255Z" fill="#FF635F"/>
<g opacity="0.662712">
<path d="M356.872 134.466C356.82 134.545 356.078 135.669 355.995 137.356L355.995 137.357C355.973 137.834 356.003 138.358 356.117 138.914C356.08 139.217 356.064 139.506 356.059 139.771C356.056 139.874 356.056 139.974 356.057 140.072C354.851 136.821 356.533 134.279 356.553 134.25C356.614 134.161 356.732 134.14 356.821 134.199C356.91 134.258 356.931 134.378 356.872 134.466Z" fill="#5CFF85"/>
<path d="M359.812 133.172C358.473 133.946 356.428 135.691 356.183 139.2C356.163 139.498 356.155 139.811 356.162 140.136C356.164 140.206 356.166 140.277 356.168 140.349C356.128 140.256 356.092 140.164 356.058 140.072C354.852 136.821 356.535 134.279 356.554 134.25C356.615 134.161 356.733 134.139 356.822 134.198C356.911 134.257 356.933 134.377 356.873 134.466C356.821 134.545 356.079 135.669 355.996 137.355C356.037 137.155 356.09 136.956 356.154 136.76C356.259 136.443 356.39 136.141 356.55 135.856C356.567 135.825 356.585 135.794 356.602 135.763C356.718 135.563 356.847 135.372 356.988 135.19C357.022 135.143 357.059 135.096 357.097 135.052C357.245 134.87 357.409 134.695 357.581 134.533C357.625 134.491 357.669 134.452 357.713 134.412C357.758 134.371 357.803 134.332 357.849 134.295C357.894 134.257 357.941 134.218 357.989 134.182C358.026 134.151 358.065 134.12 358.105 134.091C358.183 134.033 358.264 133.974 358.347 133.919C358.39 133.889 358.436 133.86 358.48 133.831C358.533 133.796 358.587 133.763 358.642 133.73C358.693 133.699 358.747 133.668 358.799 133.64C358.861 133.604 358.925 133.568 358.99 133.536C359.037 133.511 359.084 133.487 359.132 133.464C359.184 133.437 359.239 133.411 359.292 133.387C359.363 133.353 359.432 133.323 359.504 133.293C359.553 133.273 359.603 133.251 359.653 133.233C359.706 133.212 359.757 133.191 359.812 133.172Z" fill="#5CFF85"/>
<path d="M350.608 149.742C349.259 150.765 345.357 155.358 347.104 163.648C346.644 162.797 346.341 161.82 346.196 160.76C345.794 157.855 346.575 154.33 348.578 151.086C348.966 150.459 349.382 149.869 349.824 149.318C350.066 149.438 350.327 149.575 350.608 149.742Z" fill="#41EB7A"/>
<path d="M357.031 142.434C356.729 142.833 356.037 143.618 354.857 144.241C353.921 144.737 352.901 144.994 352.193 145.124C353.608 144.128 355.134 142.926 357.031 142.434Z" fill="#5CFF85"/>
<path d="M349.405 145.735C349.206 145.724 348.89 145.813 348.509 146.265C348.166 146.674 348.093 147.331 348.104 147.874C347.947 147.48 347.863 146.951 347.861 146.195C347.934 145.59 348.182 145.268 348.418 145.098C348.631 144.944 348.929 145.014 349.045 145.247C349.123 145.403 349.239 145.585 349.405 145.735Z" fill="#5CFF85"/>
</g>
<path d="M350.284 152.594C350.524 152.7 350.572 153.116 350.393 153.523C350.213 153.93 349.873 154.175 349.634 154.069C349.394 153.963 349.346 153.548 349.525 153.141C349.705 152.733 350.045 152.489 350.284 152.594Z" fill="#4D0017"/>
<path d="M354.839 154.601C355.079 154.707 355.127 155.123 354.948 155.53C354.768 155.937 354.428 156.181 354.189 156.076C353.949 155.97 353.9 155.555 354.08 155.147C354.26 154.74 354.599 154.496 354.839 154.601Z" fill="#4D0017"/>
<path d="M357.143 154.271C356.574 153.367 355.796 152.778 354.773 152.67" stroke="#4D0017" stroke-width="0.7579" stroke-linecap="round"/>
<path d="M349.916 150.969C350.529 150.801 350.963 150.966 351.679 151.256" stroke="#4D0017" stroke-width="0.7579" stroke-linecap="round"/>
<path d="M349.096 159.338C348.997 159.525 350.334 160.177 351.247 160.162C352.542 160.142 353.535 159.486 353.423 159.374C353.268 159.22 352.722 160.027 351.234 160.059C349.827 160.089 349.191 159.16 349.096 159.338Z" fill="#4D0017"/>
<path d="M349.096 159.338C348.997 159.525 350.334 160.177 351.247 160.162C352.542 160.142 353.535 159.486 353.423 159.374C353.268 159.22 352.722 160.027 351.234 160.059C349.827 160.089 349.191 159.16 349.096 159.338Z" stroke="#CA3F3D" stroke-width="0.140596"/>
<mask id="mask4_715_1316" style="mask-type:luminance" maskUnits="userSpaceOnUse" x="253" y="110" width="44" height="44">
<path d="M295.705 126.201C298.769 137.636 291.979 149.389 280.54 152.454C270.592 155.119 260.406 150.336 255.904 141.522C255.229 140.201 254.683 138.79 254.283 137.3C251.219 125.865 258.006 114.111 269.445 111.046C276.433 109.173 283.542 110.977 288.713 115.273C292.005 118.007 294.514 121.755 295.705 126.201Z" fill="url(#paint4_radial_715_1316)"/>
</mask>
<g mask="url(#mask4_715_1316)">
<path d="M295.705 126.201C298.769 137.636 291.979 149.389 280.54 152.454C270.592 155.119 260.406 150.336 255.904 141.522C255.229 140.201 254.683 138.79 254.283 137.3C251.219 125.865 258.006 114.111 269.445 111.046C276.433 109.173 283.542 110.977 288.713 115.273C292.005 118.007 294.514 121.755 295.705 126.201Z" fill="#5CFF85"/>
</g>
<path d="M290.777 127.522C293.112 136.236 287.938 145.193 279.221 147.528C271.64 149.56 263.877 145.915 260.446 139.198C259.932 138.191 259.516 137.116 259.211 135.98C256.876 127.266 262.048 118.309 270.765 115.973C276.091 114.546 281.509 115.92 285.449 119.195C287.957 121.278 289.869 124.134 290.777 127.522Z" fill="url(#paint5_radial_715_1316)"/>
<path d="M270.054 137.727C270.502 137.616 270.954 137.889 271.065 138.336C271.176 138.783 270.904 139.236 270.456 139.347C270.009 139.458 269.556 139.185 269.445 138.738C269.334 138.291 269.607 137.838 270.054 137.727Z" fill="#102234"/>
<path d="M284.077 134.247C284.524 134.136 284.977 134.408 285.088 134.856C285.199 135.303 284.926 135.756 284.479 135.867C284.031 135.978 283.579 135.705 283.468 135.258C283.357 134.81 283.629 134.358 284.077 134.247Z" fill="#102234"/>
<path d="M278.535 138.656C280.082 138.376 280.721 137.264 281.14 137.902C281.539 138.507 280.045 139.319 278.892 139.602C277.798 139.871 276.119 139.954 276.066 139.272C276.007 138.549 277.161 138.905 278.535 138.656Z" fill="#102234"/>
</g>
<g clip-path="url(#clip1_715_1316)">
<path d="M-79.826 234.995C-107.706 265.135 -94.077 297.796 -83.3765 315.634C-76.93 325.311 -59.7593 348.423 -46.7309 338.513C-39.4504 331.043 -37.4089 320.215 -34.3069 310.582C-29.1091 295.76 -27.077 278.618 -17.6541 265.749C1.22377 252.327 -8.86344 322.527 -2.55756 331.547C5.917 344.282 17.0477 305.402 13.7873 299.347C13.5258 297.528 11.6644 296.244 9.96139 297.213C7.76105 298.496 8.18545 302.276 8.5497 304.548C9.84035 312.173 18.7589 334.2 28.748 329.695C36.057 323.844 36.4432 313.633 41.5384 306.103C45.3362 299.145 53.5342 298.051 59.4981 302.953C108.859 337.9 172.572 347.753 228.379 321.596C239.534 317.175 248.482 309.702 260.769 308.837C310.757 307.66 342.495 359.97 377.915 387.937C390.579 398.372 394.931 390.451 396.595 375.886C398.516 361.14 399.306 346.567 396.354 331.93C389.975 295.062 362.604 281.602 336.882 259.938C320.996 246.625 300.554 205.549 329.368 197.926C341.667 193.64 356.625 192.319 368.348 190.071C401.555 185.455 416.967 161.6 418.616 128.72L423.631 129.407C421.14 151.714 414.395 167.111 404.066 177.401C390.077 191.34 364.983 192.239 341.565 196.516C333.29 197.789 321.499 200.914 317.685 209.375C312.118 226.566 324.634 247.943 337.211 259.579C367.06 284.624 393.339 295.944 398.727 339.746C400.49 357.119 406.064 414.284 374.832 391.49C338.19 365.352 296.952 292.848 245.143 315.112C191.485 343.058 126.152 344.926 73.0198 315.307C66.3908 312.096 60.3949 307.609 53.7916 304.425C42.8697 301.261 38.6183 323.205 30.6969 328.595C20.5716 338.53 3.338 305.861 7.26537 297.722C9.02961 293.816 14.8045 294.729 15.4281 298.927C18.735 305.439 5.50148 345.565 -3.06393 331.803C-7.9291 326.504 -4.97603 254.818 -16.2772 269.806C-27.4899 292.307 -27.555 320.888 -45.5979 339.832C-69.5361 358.676 -134.909 269.96 -83.4825 232.369L-79.826 234.995Z" fill="url(#paint6_linear_715_1316)"/>
<path d="M224.735 327.795C223.962 334.338 218.042 339.016 211.512 338.244C204.982 337.471 200.314 331.541 201.086 324.998C201.859 318.455 207.779 313.777 214.31 314.549C220.84 315.322 225.508 321.252 224.735 327.795Z" fill="#FF635F"/>
<path d="M224.735 327.795C223.962 334.338 218.042 339.016 211.512 338.244C204.982 337.471 200.314 331.541 201.086 324.998C201.859 318.455 207.779 313.777 214.31 314.549C220.84 315.322 225.508 321.252 224.735 327.795Z" fill="url(#paint7_linear_715_1316)"/>
<path d="M224.791 326.64C224.787 326.918 224.77 327.201 224.744 327.483C224.711 327.85 224.662 328.21 224.595 328.566C230.202 331.066 233.75 333.223 233.43 334.129C233.105 335.044 228.926 334.464 222.915 332.831C219.684 331.954 215.924 330.773 211.947 329.361C207.889 327.92 204.156 326.429 201.059 325.046C195.479 322.554 191.952 320.405 192.273 319.499C192.589 318.601 196.612 319.146 202.429 320.702C202.734 320.13 203.089 319.591 203.484 319.084C193.52 316.425 186.098 315.835 185.349 317.947C184.567 320.146 191.229 324.623 201.268 329.015C204.176 330.289 207.368 331.555 210.744 332.754C214.04 333.927 217.24 334.94 220.234 335.776C230.902 338.756 238.997 339.507 239.783 337.297C240.536 335.167 234.309 330.898 224.791 326.64Z" fill="#4F4FC8"/>
<mask id="mask5_715_1316" style="mask-type:alpha" maskUnits="userSpaceOnUse" x="201" y="314" width="24" height="25">
<path d="M224.732 327.795C223.96 334.338 218.039 339.016 211.509 338.244C204.979 337.471 200.311 331.541 201.083 324.998C201.856 318.455 207.777 313.777 214.307 314.549C220.837 315.322 225.505 321.252 224.732 327.795Z" fill="#FF635F"/>
<path d="M224.732 327.795C223.96 334.338 218.039 339.016 211.509 338.244C204.979 337.471 200.311 331.541 201.083 324.998C201.856 318.455 207.777 313.777 214.307 314.549C220.837 315.322 225.505 321.252 224.732 327.795Z" fill="url(#paint8_linear_715_1316)"/>
</mask>
<g mask="url(#mask5_715_1316)">
<mask id="mask6_715_1316" style="mask-type:luminance" maskUnits="userSpaceOnUse" x="183" y="302" width="58" height="47">
<path d="M191.376 302.647L240.535 314.129L232.455 348.907L183.296 337.426L191.376 302.647Z" fill="white"/>
</mask>
<g mask="url(#mask6_715_1316)">
<path d="M178.784 328.35C181.456 328.974 183.316 329.77 185.317 330.917C187.803 332.344 189.198 334.221 191.851 333.713C197.57 331.479 197.352 338.3 206.27 336.405C215.186 334.512 219.256 335.181 221.946 336.938C223.976 338.264 226.843 339.613 227.883 339.876M178.94 323.883C184.003 326.231 186.001 324.019 192.171 324.899C198.341 325.782 199.577 331.824 206.383 333.217C213.191 334.61 218.035 323.906 223.909 330.91C225.674 333.015 226.026 334.436 228.71 335.735M180.43 319.931C184.367 323.002 188.872 319.529 192.865 320.783C195.077 321.531 197.398 322.623 199.168 324.185C201.401 325.629 201.758 327.463 206.422 327.687C211.085 327.914 216.266 323.346 221.206 324.357C224.601 325.082 226.205 329.577 229.46 331.426M181.571 316.277C187.392 320.102 191.766 313.324 197.679 318.964C199.768 320.775 201.874 322.818 204.648 323.195C207.012 323.496 209.39 323.516 211.425 322.19C221.268 316.328 223.5 323.141 230.654 327.788M182.613 312.237C188.119 315.216 192.552 309.469 197.457 312.604C199.39 313.501 200.552 318.685 205.697 315.939C210.841 313.193 220.453 316.815 231.621 323.682M182.109 332.009C180.482 331.629 178.765 331.879 178.459 333.618C178.26 334.742 180.003 336.142 181.875 336.875C182.106 336.969 182.356 337.044 182.616 337.105C184.44 337.531 186.75 337.205 187.112 336.277C187.524 335.217 185.38 333.411 183.574 332.529C183.123 332.311 182.622 332.129 182.109 332.009ZM191.511 306.322C191.933 306.42 192.477 306.623 192.661 307.033C192.91 307.587 192.903 308.113 192.64 308.593C192.087 309.601 190.542 310.24 189.256 310.428C188.084 310.6 186.703 310.565 185.739 310.339C184.988 310.164 184.551 309.887 184.54 309.583C184.484 308.002 186.396 306.852 188.317 306.416C189.457 306.155 190.651 306.12 191.511 306.322ZM217.42 338.974C217.546 339.003 217.665 339.034 217.779 339.066C220.058 339.706 224.582 342.254 224.437 343.704C224.371 344.351 223.198 344.791 221.13 344.939C220.985 344.947 220.838 344.961 220.689 344.971C219.14 345.092 217.537 345.213 214.953 344.61C212.1 343.943 207.503 340.912 207.817 339.558C208.091 338.376 214.008 338.176 217.42 338.974ZM211.158 316.608C210.506 316.456 209.724 316.598 209.108 317.018C207.379 318.19 203.864 317.767 202.814 318.649C200.951 320.216 203.376 321.274 205.559 321.784C205.645 321.804 205.727 321.823 205.813 321.84C208.567 322.439 212.289 320.299 212.432 318.401C212.509 317.375 211.925 316.788 211.158 316.608ZM219.783 330.668C218.046 330.262 216.348 331.594 215.888 332.702C215.665 333.237 215.956 333.502 216.458 333.619C217.409 333.841 219.12 333.545 219.628 333.576C220.97 333.656 223.636 334.512 221.777 332.073C221.156 331.257 220.467 330.828 219.783 330.668ZM207.147 306.261C207.222 306.278 207.28 306.309 207.33 306.357C208.449 307.473 206.337 306.072 207.147 306.261Z" stroke="black" stroke-width="0.0558246" stroke-miterlimit="10"/>
</g>
</g>
</g>
<defs>
<linearGradient id="paint0_linear_715_1316" x1="453.163" y1="141.094" x2="-244.895" y2="106.852" gradientUnits="userSpaceOnUse">
<stop stop-color="#FF7337"/>
<stop offset="0.5" stop-color="#A75894"/>
<stop offset="1" stop-color="#7E98FD"/>
</linearGradient>
<linearGradient id="paint1_linear_715_1316" x1="214.04" y1="318.934" x2="203.479" y2="342.153" gradientUnits="userSpaceOnUse">
<stop stop-color="#F9BB9E"/>
<stop offset="0.26" stop-color="#F89082"/>
<stop offset="0.53" stop-color="#F66465"/>
<stop offset="0.76" stop-color="#B25B8D"/>
<stop offset="1" stop-color="#6E52B5"/>
</linearGradient>
<linearGradient id="paint2_linear_715_1316" x1="214.042" y1="318.934" x2="203.481" y2="342.154" gradientUnits="userSpaceOnUse">
<stop stop-color="#F9BB9E"/>
<stop offset="0.26" stop-color="#F89082"/>
<stop offset="0.53" stop-color="#F66465"/>
<stop offset="0.76" stop-color="#B25B8D"/>
<stop offset="1" stop-color="#6E52B5"/>
</linearGradient>
<linearGradient id="paint3_linear_715_1316" x1="325.451" y1="155.346" x2="382.266" y2="225.18" gradientUnits="userSpaceOnUse">
<stop stop-color="#29FE85"/>
<stop offset="0.05" stop-color="#92DA96"/>
<stop offset="0.23" stop-color="#FBB6A7"/>
<stop offset="0.38" stop-color="#FAAD9F"/>
<stop offset="0.53" stop-color="#F9A496"/>
<stop offset="0.73" stop-color="#F8887C"/>
<stop offset="1" stop-color="#F76D63"/>
</linearGradient>
<radialGradient id="paint4_radial_715_1316" cx="0" cy="0" r="1" gradientUnits="userSpaceOnUse" gradientTransform="translate(274.994 131.749) rotate(-15) scale(20.3294 20.3227)">
<stop stop-color="white"/>
<stop offset="0.5" stop-color="#808080"/>
<stop offset="1"/>
</radialGradient>
<radialGradient id="paint5_radial_715_1316" cx="0" cy="0" r="1" gradientUnits="userSpaceOnUse" gradientTransform="translate(264.334 122.537) rotate(-15) scale(33.5094 33.4983)">
<stop stop-color="#BECBFF"/>
<stop offset="0.26" stop-color="#7E98FD"/>
<stop offset="0.51" stop-color="#4B70FF"/>
</radialGradient>
<linearGradient id="paint6_linear_715_1316" x1="451.418" y1="255.56" x2="-58.7625" y2="32.1118" gradientUnits="userSpaceOnUse">
<stop stop-color="#FF7337"/>
<stop offset="0.5" stop-color="#A75894"/>
<stop offset="1" stop-color="#7E98FD"/>
</linearGradient>
<linearGradient id="paint7_linear_715_1316" x1="217.956" y1="319.729" x2="203.465" y2="334.018" gradientUnits="userSpaceOnUse">
<stop stop-color="#F9BB9E"/>
<stop offset="0.26" stop-color="#F89082"/>
<stop offset="0.53" stop-color="#F66465"/>
<stop offset="0.76" stop-color="#B25B8D"/>
<stop offset="1" stop-color="#6E52B5"/>
</linearGradient>
<linearGradient id="paint8_linear_715_1316" x1="217.953" y1="319.729" x2="203.462" y2="334.018" gradientUnits="userSpaceOnUse">
<stop stop-color="#F9BB9E"/>
<stop offset="0.26" stop-color="#F89082"/>
<stop offset="0.53" stop-color="#F66465"/>
<stop offset="0.76" stop-color="#B25B8D"/>
<stop offset="1" stop-color="#6E52B5"/>
</linearGradient>
<clipPath id="clip0_715_1316">
<rect width="298.774" height="337.465" fill="white" transform="translate(97 77.3286) rotate(-15)"/>
</clipPath>
<clipPath id="clip1_715_1316">
<rect width="330.793" height="269.51" fill="white" transform="translate(-122.374 72.9722) rotate(5.88347)"/>
</clipPath>
</defs>
</svg>
