<svg width="375" height="220" viewBox="0 0 375 220" fill="none" xmlns="http://www.w3.org/2000/svg">
<path d="M310.674 102.5C310.921 102.5 311.122 102.701 311.122 102.948C311.122 103.196 310.921 103.397 310.674 103.397C310.426 103.397 310.226 103.196 310.226 102.948C310.226 102.701 310.426 102.5 310.674 102.5Z" fill="white"/>
<path d="M357.299 145.203C357.732 145.203 358.084 145.555 358.084 145.988C358.084 146.421 357.732 146.772 357.299 146.772C356.866 146.772 356.515 146.421 356.515 145.988C356.515 145.555 356.866 145.203 357.299 145.203Z" fill="white"/>
<path d="M338.806 83.1091C339.239 83.1091 339.591 83.4607 339.591 83.8937C339.591 84.3267 339.239 84.6783 338.806 84.6783C338.373 84.6783 338.021 84.3267 338.021 83.8937C338.021 83.4607 338.373 83.1091 338.806 83.1091Z" fill="#4F4FC8"/>
<path d="M321.071 120.097C321.442 120.097 321.743 120.398 321.743 120.769C321.743 121.14 321.442 121.442 321.071 121.442C320.7 121.442 320.398 121.14 320.398 120.769C320.398 120.398 320.7 120.097 321.071 120.097Z" fill="#4F4FC8"/>
<path d="M58.8487 114.582C58.8606 114.582 58.8703 114.591 58.8703 114.603C58.8703 114.615 58.8606 114.625 58.8487 114.625C58.8368 114.625 58.8271 114.615 58.8271 114.603C58.8271 114.591 58.8368 114.582 58.8487 114.582Z" fill="#4F4FC8"/>
<path d="M-0.883508 181.965C-0.267316 181.965 0.232985 182.465 0.232985 183.081C0.232985 183.698 -0.267316 184.198 -0.883508 184.198C-1.4997 184.198 -2 183.698 -2 183.081C-2 182.465 -1.4997 181.965 -0.883508 181.965Z" fill="#4F4FC8"/>
<path d="M10.7348 127.808C-9.32972 154.491 4.43429 179.755 14.5894 193.281C20.618 200.565 36.4534 217.816 46.178 208.721C51.451 202.077 52.2008 193.155 53.9092 185.111C56.8818 172.697 57.0969 158.673 63.6545 147.487C77.8235 135.066 75.5128 192.646 81.3727 199.412C89.2991 208.999 95.069 176.647 91.923 172.024C91.5594 170.576 89.9447 169.693 88.6463 170.618C86.9713 171.838 87.6305 174.858 88.1151 176.664C89.7968 182.719 98.8582 199.78 106.572 195.307C112.004 189.969 111.464 181.684 114.962 175.173C117.458 169.233 124.006 167.666 129.245 171.131C172.139 195.266 224.562 197.923 267.577 172.133C276.243 167.632 282.867 160.846 292.746 159.123C333.133 154.009 363.202 193.645 394.224 213.3C405.351 220.679 408.215 213.914 408.347 202.004C408.672 189.924 408.095 178.08 404.483 166.495C396.239 137.228 372.949 128.628 350.308 113.261C336.331 103.824 316.347 72.3268 339.047 63.7652C348.65 59.2768 360.654 56.9629 369.961 54.1696C396.471 47.6732 406.962 27.1083 405.553 0.395996L409.672 0.533135C409.517 18.7706 405.339 31.7767 397.832 40.9546C387.665 53.3858 367.417 56.2023 348.808 61.6095C342.212 63.328 332.924 66.836 330.54 73.9919C327.467 88.3508 339.388 104.586 350.544 112.944C376.809 130.7 399.037 137.661 407.057 172.615C409.935 186.511 419.22 232.25 392.023 216.428C360.165 198.354 320.715 143.187 280.614 165.496C239.489 192.554 186.731 199.505 141.227 179.99C135.591 177.947 130.36 174.82 124.746 172.797C115.636 171.148 114.025 189.239 108.059 194.255C100.688 203.129 84.0038 178.159 86.5052 171.253C87.6081 167.95 92.3614 168.207 93.2169 171.548C96.4385 176.536 89.0696 210.07 80.9839 199.66C76.6014 195.782 73.0102 137.596 65.1083 150.652C57.9051 169.772 60.2376 192.878 47.2058 209.693C29.391 226.917 -30.959 160.656 7.55427 125.99L10.7348 127.808Z" fill="url(#paint0_linear_699_1016)"/>
<path d="M17.5389 99.3687C17.5724 103.855 13.9628 107.519 9.47667 107.552C4.99058 107.586 1.32662 103.976 1.29311 99.4901C1.25959 95.004 4.86921 91.34 9.3553 91.3065C13.8414 91.273 17.5053 94.8826 17.5389 99.3687Z" fill="url(#paint1_linear_699_1016)"/>
<mask id="mask0_699_1016" style="mask-type:alpha" maskUnits="userSpaceOnUse" x="1" y="91" width="17" height="17">
<path d="M17.5408 99.3682C17.5743 103.854 13.9647 107.518 9.47863 107.552C4.99254 107.585 1.32858 103.976 1.29506 99.4896C1.26155 95.0035 4.87116 91.3395 9.35725 91.306C13.8433 91.2725 17.5073 94.8821 17.5408 99.3682Z" fill="url(#paint2_linear_699_1016)"/>
</mask>
<g mask="url(#mask0_699_1016)">
<mask id="mask1_699_1016" style="mask-type:luminance" maskUnits="userSpaceOnUse" x="-13" y="82" width="43" height="35">
<path d="M-12.3379 91.6292L23.032 82.5293L29.4612 107.519L-5.90862 116.619L-12.3379 91.6292Z" fill="white"/>
</mask>
<g mask="url(#mask1_699_1016)">
<path d="M-11.8329 112.314C-9.91066 111.819 -8.45179 111.706 -6.78517 111.772C-4.71453 111.854 -3.19304 112.59 -1.66082 111.376C1.26159 108.029 3.39914 112.474 8.48736 108.273C13.5742 104.074 16.4081 103.14 18.7204 103.365C20.4653 103.535 22.7547 103.44 23.5098 103.26M-13.2244 109.399C-9.19292 109.208 -8.64971 107.121 -4.39802 105.62C-0.145836 104.12 2.66424 107.578 7.4949 106.192C12.3275 104.805 11.8608 96.3231 17.9674 98.8449C19.802 99.6026 20.5021 100.396 22.6574 100.329M-13.5884 106.367C-10.0374 107.017 -8.3072 103.283 -5.32704 102.75C-3.65832 102.488 -1.80492 102.411 -0.14847 102.819C1.76636 102.997 2.60788 104.053 5.67394 102.635C8.74049 101.219 10.5394 96.5565 14.0454 95.5499C16.4652 94.8782 18.9947 97.2217 21.7 97.3168M-14.0759 103.644C-9.06482 104.146 -8.52203 98.3371 -2.84653 99.9717C-0.901836 100.433 1.13098 101.037 3.03653 100.35C4.65336 99.7514 6.18564 98.9678 7.04797 97.4363C11.4047 90.3841 15.1108 94.0031 21.2514 94.5855M-14.756 100.705C-10.2303 100.771 -9.3052 95.6037 -5.11199 95.9698C-3.57292 95.8976 -1.09669 98.8308 1.28657 95.3483C3.66983 91.8658 11.0447 90.9686 20.5013 91.6304M-8.47869 113.546C-9.64935 113.847 -10.6673 114.582 -10.2825 115.799C-10.035 116.586 -8.44998 116.899 -7.0044 116.743C-6.82447 116.725 -6.63889 116.69 -6.45243 116.642C-5.13951 116.304 -3.76698 115.322 -3.84457 114.606C-3.93392 113.788 -5.91217 113.349 -7.36529 113.388C-7.72724 113.399 -8.10961 113.451 -8.47869 113.546ZM-11.0237 93.9348C-10.72 93.8567 -10.303 93.8047 -10.0484 94.0057C-9.70374 94.2777 -9.53244 94.6169 -9.54129 95.0127C-9.5592 95.8432 -10.3371 96.771 -11.0992 97.3216C-11.7939 97.8241 -12.6911 98.264 -13.385 98.4426C-13.9252 98.5815 -14.298 98.5504 -14.4067 98.359C-14.97 97.3644 -14.1273 95.9876 -13.0408 95.0645C-12.3971 94.5157 -11.6427 94.0941 -11.0237 93.9348ZM16.4968 106.185C16.5872 106.162 16.6742 106.142 16.7578 106.124C18.4336 105.771 22.1861 105.89 22.5769 106.867C22.7508 107.304 22.1455 107.979 20.8684 108.766C20.7778 108.82 20.6881 108.878 20.5961 108.935C19.6426 109.53 18.6551 110.145 16.7963 110.623C14.7433 111.152 10.7823 110.748 10.5321 109.776C10.3135 108.926 14.0421 106.817 16.4968 106.185ZM5.01325 93.9489C4.54422 94.0696 4.08977 94.4222 3.83498 94.8976C3.11762 96.2279 0.721078 97.1334 0.342219 98.0507C-0.329294 99.6786 1.57908 99.5443 3.14957 99.1402C3.21109 99.1244 3.27068 99.109 3.3317 99.0913C5.29796 98.5526 6.97127 95.9353 6.42874 94.671C6.13618 93.9879 5.56495 93.8069 5.01325 93.9489ZM15.2394 100.071C13.99 100.393 13.3454 101.815 13.4202 102.679C13.4558 103.096 13.7307 103.169 14.0921 103.076C14.7764 102.9 15.7749 102.137 16.1114 101.987C16.9988 101.588 18.9948 101.245 16.9881 100.304C16.3168 99.9889 15.7315 99.9448 15.2394 100.071ZM-1.01411 88.6604C-0.960285 88.6465 -0.913105 88.6467 -0.864386 88.6608C0.225458 89.0014 -1.59656 88.8102 -1.01411 88.6604Z" stroke="black" stroke-width="0.0496219" stroke-miterlimit="10"/>
</g>
</g>
<path d="M26.8384 94.3864C26.575 93.5836 22.4386 94.1639 16.6318 95.6869C16.7424 95.8989 16.8428 96.1155 16.9345 96.3382C20.2687 95.4871 22.4973 95.1428 22.6249 95.5324C22.7537 95.9256 20.71 96.9793 17.4624 98.2772C15.3228 99.1328 12.6591 100.095 9.74891 101.045C6.99848 101.944 4.41974 102.703 2.25932 103.267C-1.3334 104.205 -3.76643 104.601 -3.89983 104.193C-4.03212 103.789 -1.87581 102.691 1.52415 101.344C1.46737 101.114 1.42182 100.878 1.38625 100.641C-4.39984 102.895 -8.24537 104.935 -7.97746 105.755C-7.7049 106.589 -3.25702 105.932 2.90099 104.276C5.11792 103.68 7.55573 102.955 10.1013 102.125C12.7893 101.247 15.3118 100.344 17.5434 99.4736C23.2909 97.2303 27.1051 95.2042 26.8384 94.3864Z" fill="#4F4FC8"/>
<path d="M269.175 177.447C269.095 182.8 264.691 187.075 259.338 186.995C253.985 186.915 249.71 182.511 249.79 177.158C249.87 171.805 254.274 167.53 259.627 167.61C264.98 167.69 269.255 172.094 269.175 177.447Z" fill="#FF635F"/>
<path d="M269.175 177.447C269.095 182.8 264.691 187.075 259.338 186.995C253.985 186.915 249.71 182.511 249.79 177.158C249.87 171.805 254.274 167.53 259.627 167.61C264.98 167.69 269.255 172.094 269.175 177.447Z" fill="url(#paint3_linear_699_1016)"/>
<path d="M269.129 176.509C269.149 176.734 269.159 176.964 269.162 177.194C269.165 177.494 269.156 177.789 269.132 178.081C273.881 179.636 276.935 181.084 276.751 181.843C276.564 182.61 273.131 182.489 268.127 181.67C265.437 181.23 262.293 180.588 258.954 179.778C255.547 178.951 252.4 178.056 249.776 177.196C245.049 175.647 242.013 174.203 242.197 173.444C242.378 172.692 245.682 172.797 250.523 173.57C250.722 173.083 250.964 172.618 251.242 172.175C242.95 170.855 236.89 170.996 236.46 172.765C236.01 174.608 241.779 177.673 250.277 180.387C252.738 181.175 255.429 181.932 258.264 182.62C261.031 183.294 263.707 183.847 266.201 184.274C275.09 185.794 281.709 185.727 282.161 183.875C282.593 182.09 277.193 179.158 269.129 176.509Z" fill="#4F4FC8"/>
<mask id="mask2_699_1016" style="mask-type:alpha" maskUnits="userSpaceOnUse" x="249" y="167" width="21" height="20">
<path d="M269.172 177.447C269.092 182.8 264.688 187.075 259.335 186.995C253.982 186.915 249.707 182.51 249.787 177.158C249.867 171.805 254.271 167.53 259.624 167.61C264.977 167.69 269.252 172.094 269.172 177.447Z" fill="#FF635F"/>
<path d="M269.172 177.447C269.092 182.8 264.688 187.075 259.335 186.995C253.982 186.915 249.707 182.51 249.787 177.158C249.867 171.805 254.271 167.53 259.624 167.61C264.977 167.69 269.252 172.094 269.172 177.447Z" fill="url(#paint4_linear_699_1016)"/>
</mask>
<g mask="url(#mask2_699_1016)">
<mask id="mask3_699_1016" style="mask-type:luminance" maskUnits="userSpaceOnUse" x="236" y="159" width="45" height="35">
<path d="M240.068 159.901L280.829 165.071L277.176 193.869L236.415 188.699L240.068 159.901Z" fill="white"/>
</mask>
<g mask="url(#mask3_699_1016)">
<path d="M232.008 181.739C234.223 182.02 235.795 182.508 237.511 183.268C239.642 184.213 240.927 185.614 243.033 184.981C247.478 182.695 247.868 188.23 254.932 185.95C261.994 183.672 265.345 183.872 267.669 185.068C269.423 185.97 271.856 186.821 272.721 186.946M231.763 178.114C236.058 179.588 237.492 177.631 242.561 177.827C247.63 178.024 249.132 182.806 254.759 183.362C260.387 183.919 263.421 174.857 268.759 180.029C270.362 181.583 270.765 182.703 273.046 183.528M232.641 174.792C236.084 176.946 239.444 173.76 242.781 174.44C244.635 174.86 246.604 175.548 248.167 176.663C250.095 177.643 250.537 179.097 254.331 178.887C258.126 178.68 261.942 174.552 266.026 174.955C268.835 175.257 270.507 178.758 273.296 179.981M233.262 171.742C238.293 174.348 241.273 168.5 246.528 172.565C248.37 173.855 250.245 175.33 252.522 175.403C254.461 175.449 256.389 175.266 257.926 174.022C265.41 168.458 267.782 173.78 273.961 176.939M233.771 168.388C238.476 170.335 241.589 165.317 245.821 167.44C247.46 168.004 248.831 172.099 252.769 169.447C256.707 166.795 264.791 168.919 274.404 173.537M235.004 184.42C233.655 184.248 232.285 184.595 232.182 186.027C232.114 186.952 233.641 187.938 235.218 188.375C235.413 188.431 235.622 188.471 235.837 188.498C237.35 188.69 239.193 188.233 239.409 187.452C239.655 186.56 237.769 185.279 236.233 184.717C235.85 184.579 235.429 184.474 235.004 184.42ZM240.485 162.858C240.835 162.903 241.292 163.021 241.475 163.337C241.722 163.765 241.761 164.19 241.587 164.601C241.224 165.462 240.025 166.109 239 166.368C238.065 166.605 236.944 166.692 236.144 166.591C235.522 166.512 235.145 166.325 235.111 166.08C234.935 164.806 236.387 163.716 237.907 163.202C238.808 162.895 239.771 162.768 240.485 162.858ZM264.173 187.093C264.278 187.106 264.377 187.121 264.472 187.138C266.371 187.464 270.245 189.146 270.248 190.331C270.248 190.86 269.335 191.313 267.673 191.607C267.556 191.626 267.438 191.649 267.318 191.67C266.074 191.897 264.786 192.13 262.644 191.858C260.278 191.558 256.304 189.492 256.446 188.371C256.57 187.392 261.345 186.734 264.173 187.093ZM257.247 169.531C256.706 169.463 256.085 169.643 255.621 170.034C254.319 171.127 251.437 171.079 250.66 171.881C249.282 173.304 251.333 173.956 253.143 174.185C253.214 174.194 253.282 174.203 253.354 174.21C255.633 174.463 258.469 172.421 258.427 170.874C258.405 170.038 257.883 169.612 257.247 169.531ZM265.397 180.179C263.957 179.996 262.693 181.215 262.412 182.15C262.276 182.601 262.534 182.791 262.95 182.844C263.739 182.944 265.1 182.56 265.514 182.543C266.607 182.495 268.837 182.965 267.129 181.148C266.558 180.54 265.964 180.25 265.397 180.179ZM253.14 161.499C253.202 161.507 253.252 161.527 253.297 161.562C254.295 162.37 252.469 161.414 253.14 161.499Z" stroke="black" stroke-width="0.0558246" stroke-miterlimit="10"/>
</g>
</g>
<path d="M75.0993 123.727C75.0694 123.707 72.0918 121.761 71.0239 121.104C70.2094 120.602 69.7148 119.916 69.6666 119.221C69.6191 118.537 69.9781 117.874 70.7336 117.25C72.5159 115.778 75.285 116.316 75.3129 116.322L75.2801 116.484C75.2526 116.479 72.56 115.956 70.8389 117.377C70.1269 117.965 69.7877 118.581 69.8313 119.209C69.8759 119.851 70.342 120.49 71.1107 120.963C72.1804 121.621 75.1597 123.569 75.1899 123.588L75.0993 123.727Z" fill="#161B70"/>
<path d="M76.7534 118.176C74.8081 117.946 71.8175 116.281 71.6813 116.205L71.7621 116.061C71.7977 116.081 75.3461 118.058 77.1946 118.037L77.1961 118.202C77.0565 118.203 76.9082 118.194 76.7534 118.176Z" fill="#161B70"/>
<path d="M402.252 114.767C402.294 126.335 395.329 136.293 385.349 140.619C381.96 142.089 378.224 142.91 374.298 142.924C366.406 142.952 359.263 139.72 354.146 134.493C349.217 129.458 346.168 122.572 346.141 114.968C346.085 99.4731 358.601 86.8683 374.096 86.8127C389.59 86.7571 402.197 99.2718 402.252 114.767Z" fill="url(#paint5_linear_699_1016)"/>
<mask id="mask4_699_1016" style="mask-type:alpha" maskUnits="userSpaceOnUse" x="362" y="86" width="28" height="20">
<path d="M383.57 87.0229C383.778 87.1002 388.451 89.9401 389.649 92.9264C390.009 93.8219 388.974 97.7742 388.107 99.1257C387.422 100.193 384.112 102.004 381.193 103.454C378.274 104.903 375.013 104.843 371.74 105.066C366.354 105.013 361.098 104.63 362.379 101.88C363.459 99.5626 365.864 97.7086 368.176 96.9502C370.558 96.1959 371.943 95.9103 371.329 94.2356C370.716 92.6185 372.017 89.7305 373.319 88.81C374.207 88.1821 375.508 87.4465 376.98 86.9493C377.64 86.726 381.554 86.2743 383.57 87.0229Z" fill="#890396"/>
</mask>
<g mask="url(#mask4_699_1016)">
<path d="M383.588 86.251C386.318 87.9782 389.931 92.5348 389.906 94.3545C389.881 96.1741 388.601 96.8713 383.972 100.424C379.344 103.976 360.542 104.602 361.169 101.231C361.797 97.8611 369.925 77.6059 383.588 86.251Z" fill="#BB02A5"/>
<path d="M377.01 99.7963C376.929 100.183 375.781 101.292 375.765 101.292C375.765 101.292 374.441 102.968 371.169 103.191C370.503 104.95 369.266 103.969 367.902 103.006C368.441 102.267 369.344 101.108 370.083 100.553C371.217 99.7024 371.448 98.8354 371.461 97.9416C371.47 97.2615 371.736 95.3549 372.626 94.4621C372.613 94.5282 372.602 94.5931 372.593 94.6593C372.404 95.8881 372.578 97.0457 373.154 97.9738C373.27 98.1631 373.404 98.3438 373.554 98.5122C374.021 99.0349 376.339 99.5695 377.01 99.7963Z" fill="#650276" fill-opacity="0.5"/>
<g opacity="0.662712">
<path d="M370.374 96.3658C370.374 96.3658 366.995 97.17 364.499 100.263C363.663 101.3 363.14 102.121 362.97 102.611C362.772 102.595 361.116 102.324 360.917 102.315C360.057 100.274 366.188 95.9481 366.188 95.9481C366.188 95.9481 368.001 95.6344 369.795 96.3158L370.374 96.3658Z" fill="#5CFF85"/>
<path d="M373.669 88.5629C372.067 90.3091 371.868 91.3842 371.472 94.1406C371.326 95.158 371.068 95.7217 370.825 96.0208C370.175 95.673 369.435 93.8711 369.534 93.2105C369.764 91.6657 370.348 88.5028 373.669 88.5629Z" fill="#5CFF85"/>
</g>
</g>
<path d="M390.378 106.166L389.814 114.267L389.79 114.616L389.749 115.2C389.749 115.2 389.998 119.269 385.992 123.434C381.988 127.597 383.5 131.259 383.426 131.331C383.604 131.834 383.766 132.319 383.912 132.789C384.044 133.211 384.164 133.62 384.272 134.015C384.727 135.678 384.982 137.088 385.119 138.23C385.269 139.475 385.279 140.4 385.256 140.983C383.675 141.659 382.02 142.193 380.307 142.57C378.338 143.004 376.291 143.232 374.192 143.228C373.242 143.226 372.305 143.177 371.38 143.083C364.615 142.398 358.563 139.31 354.087 134.688C354.125 134.608 354.162 134.528 354.2 134.451C355.894 130.946 358.214 129.111 359.866 127.895C360.101 127.722 360.324 127.561 360.528 127.41C362.36 126.057 362.362 124.561 362.261 124.671C362.263 124.553 362.261 124.434 362.258 124.314C362.163 120.801 360.035 116.69 360.035 116.69C360.035 116.69 360.023 116.654 359.999 116.589L359.999 116.588C359.895 116.302 359.58 115.43 359.165 114.281C358.693 112.977 358.093 111.315 357.527 109.745C356.59 107.146 355.749 104.8 355.749 104.758L355.753 104.754C355.783 104.728 355.814 104.703 355.844 104.678C355.844 104.677 355.846 104.677 355.847 104.677C358.213 102.716 360.735 102.536 362.17 102.638C362.904 102.691 363.354 102.817 363.354 102.817C363.354 102.817 370.354 103.098 371.184 103.148C374.453 102.886 375.044 100.424 375.044 100.424C375.965 100.759 376.938 100.956 377.839 101.069C379.477 101.275 380.875 101.203 381.278 101.175C381.353 101.17 381.395 101.167 381.396 101.167C381.358 101.618 381.758 102.57 381.717 102.554C384.083 106.64 390.378 106.166 390.378 106.166Z" fill="#504FCF"/>
<path d="M385.259 140.982C383.678 141.658 382.023 142.193 380.309 142.57C378.341 143.004 376.294 143.231 374.195 143.228C373.245 143.226 372.307 143.177 371.382 143.083C364.618 142.398 358.565 139.31 354.089 134.688C354.127 134.608 354.165 134.528 354.203 134.45C357.934 135.512 367.864 137.872 376.971 135.954C380.254 135.264 382.599 134.604 384.275 134.015C384.73 135.677 384.985 137.088 385.121 138.23C385.272 139.475 385.281 140.4 385.259 140.982Z" fill="#2E2F9B"/>
<path d="M369.702 103.079L369.528 116.374L369.273 135.877C369.264 136.468 368.449 136.619 368.23 136.069C368.23 136.069 362.897 120.616 361.966 116.02C361.712 114.766 361.25 113.462 360.715 112.23C359.94 110.45 359.01 108.818 358.32 107.695C358.563 107.707 358.818 107.71 359.083 107.705C359.158 107.704 359.234 107.702 359.311 107.698C359.372 107.697 359.434 107.695 359.497 107.691C359.554 107.689 359.613 107.685 359.672 107.682C359.814 107.673 359.961 107.662 360.109 107.649C360.299 107.631 360.494 107.609 360.695 107.583C360.788 107.571 360.885 107.558 360.981 107.544C360.987 107.543 360.994 107.542 361 107.542C361.311 107.496 361.608 107.441 361.889 107.379C361.96 107.365 362.031 107.348 362.101 107.332C362.188 107.311 362.273 107.29 362.355 107.269C362.438 107.248 362.519 107.225 362.599 107.203C362.902 107.116 363.185 107.022 363.45 106.918C363.499 106.9 363.547 106.881 363.594 106.861C363.648 106.84 363.7 106.819 363.751 106.795C363.803 106.775 363.853 106.753 363.901 106.729C363.91 106.727 363.919 106.722 363.928 106.718C363.978 106.696 364.027 106.673 364.074 106.65C364.122 106.627 364.168 106.605 364.214 106.581C364.266 106.555 364.317 106.529 364.367 106.502C364.412 106.478 364.456 106.454 364.498 106.43C364.538 106.408 364.577 106.385 364.616 106.363C364.653 106.342 364.69 106.319 364.726 106.298C364.776 106.267 364.826 106.236 364.875 106.205C364.911 106.181 364.948 106.159 364.983 106.135C365.017 106.113 365.049 106.09 365.081 106.067C365.123 106.039 365.162 106.011 365.2 105.983C365.238 105.955 365.274 105.929 365.309 105.902C365.353 105.868 365.396 105.834 365.438 105.802C365.468 105.777 365.5 105.752 365.529 105.727C365.559 105.703 365.587 105.678 365.616 105.652C365.965 105.352 366.246 105.038 366.473 104.732C366.689 104.441 366.854 104.156 366.981 103.89C366.997 103.856 367.012 103.823 367.027 103.79C367.042 103.757 367.056 103.725 367.07 103.692C367.113 103.595 367.148 103.502 367.179 103.414C367.189 103.384 367.199 103.355 367.209 103.326C367.219 103.297 367.228 103.269 367.237 103.241C367.246 103.214 367.253 103.186 367.262 103.16C367.277 103.106 367.291 103.055 367.304 103.006C367.307 102.998 367.309 102.989 367.311 102.98C367.311 102.979 367.311 102.979 367.311 102.978C368.16 103.013 369.01 103.049 369.702 103.079Z" fill="#495BF1"/>
<g opacity="0.68">
<path d="M390.379 106.166L389.791 114.616C382.88 119.434 375.342 118.342 369.53 116.375C367.449 115.67 365.589 114.852 364.058 114.154C362.915 113.633 361.789 112.967 360.717 112.23C360.406 112.019 360.101 111.799 359.801 111.576C358.999 110.983 358.236 110.362 357.528 109.746C355.845 108.285 354.469 106.857 353.618 105.927C354.559 105.401 355.302 104.984 355.704 104.758L355.708 104.754C355.759 104.726 355.805 104.701 355.845 104.678C355.845 104.677 355.847 104.677 355.848 104.677C356.296 104.305 356.75 103.997 357.201 103.743C359.131 102.658 361.009 102.555 362.171 102.638C362.905 102.691 363.354 102.817 363.354 102.817C363.354 102.817 367.399 102.979 369.705 103.08C370.432 103.111 370.986 103.136 371.185 103.149C373.864 102.933 374.745 101.241 374.975 100.638C375.026 100.504 375.045 100.424 375.045 100.424C375.966 100.759 376.939 100.957 377.84 101.069C379.478 101.275 380.875 101.204 381.279 101.176C381.354 101.171 381.396 101.167 381.397 101.167C381.358 101.618 381.759 102.57 381.718 102.554C382.242 103.458 382.957 104.139 383.754 104.649C386.56 106.453 390.379 106.166 390.379 106.166Z" fill="#322D8B"/>
</g>
<g style="mix-blend-mode:multiply">
<path d="M368.591 142.658L375.367 117.24C375.367 117.24 378.419 108.814 378.067 101.096" stroke="#262682" stroke-width="0.229347" stroke-miterlimit="10"/>
<path d="M374.26 101.774L377.887 106.073L381.838 103.264" stroke="#262682" stroke-width="0.229347" stroke-miterlimit="10"/>
<path d="M371.899 103.049L376.944 112.22L383.449 106.195" stroke="#262682" stroke-width="0.229347" stroke-miterlimit="10"/>
<path d="M365.716 105.114L375.508 116.827L388.846 112.321" stroke="#262682" stroke-width="0.229347" stroke-miterlimit="10"/>
<path d="M362.884 107.036L373.193 125.394L390.059 115.299" stroke="#262682" stroke-width="0.229347" stroke-miterlimit="10"/>
<path d="M361.518 107.448L371.76 130.773L388.737 119.463" stroke="#262682" stroke-width="0.229347" stroke-miterlimit="10"/>
<path d="M360.105 114.428L371.222 132.79L383.19 128.026" stroke="#262682" stroke-width="0.229347" stroke-miterlimit="10"/>
</g>
<g opacity="0.39">
<path d="M385.256 140.983C381.859 142.434 378.119 143.235 374.192 143.228C373.242 143.226 372.305 143.177 371.38 143.083C372.703 142.214 374.775 140.58 377.039 137.775C379.771 134.389 382.537 133.195 383.912 132.789C385.206 136.934 385.303 139.74 385.256 140.983Z" fill="#1A1B63"/>
</g>
<g opacity="0.57">
<path d="M372.132 140.072C375.546 141.318 378.227 142.095 380.308 142.57C378.339 143.004 376.293 143.232 374.194 143.228C373.244 143.226 372.306 143.177 371.381 143.083C364.617 142.398 358.564 139.31 354.088 134.688C355.791 131.028 358.178 129.139 359.867 127.896C360.877 130.968 363.863 137.054 372.132 140.072Z" fill="#946DE0"/>
</g>
<path d="M360.024 116.367C360.017 116.441 360.01 116.515 360 116.589L360 116.59C359.998 116.624 359.994 116.656 359.99 116.69C359.99 116.675 359.679 116.928 359.094 117.384L359.094 117.386C358.53 117.823 357.714 118.451 356.676 119.208C353.507 121.52 348.275 125.044 341.895 128.147C341.895 128.179 335.075 130.919 331.571 132.325C330.36 132.81 329.545 133.136 329.545 133.136C329.545 133.136 324.771 135.301 321.148 133.39C319.979 132.774 318.929 131.731 318.2 130.055C318.162 129.971 318.126 129.886 318.092 129.799C318.084 129.782 318.078 129.766 318.072 129.75C317.568 128.476 317.244 127.084 317.064 125.636C316.873 124.122 316.84 122.548 316.92 120.987C317.179 115.906 318.645 110.958 319.87 108.666C319.959 108.498 320.047 108.346 320.134 108.208C320.562 108.475 321.074 108.754 321.664 109.007C323.757 109.905 326.821 110.472 330.542 108.969C330.755 108.883 330.97 108.79 331.188 108.69C331.187 109.038 331.189 109.391 331.195 109.753C331.201 110.374 331.216 111.019 331.24 111.698C331.257 112.18 331.273 112.638 331.289 113.075C331.347 114.72 331.393 116.025 331.424 116.893C331.451 117.675 331.467 118.102 331.467 118.102C331.467 118.102 331.583 118.236 331.927 117.991C331.991 117.946 332.064 117.888 332.144 117.813C332.418 117.558 334.595 116.259 337.029 114.879C339.163 113.672 341.492 112.399 342.912 111.719C344.809 110.809 349.452 108.25 352.672 106.455C353.003 106.27 353.321 106.093 353.618 105.927C354.559 105.401 355.302 104.984 355.704 104.758L355.707 104.755C355.759 104.726 355.805 104.701 355.845 104.679C355.845 104.677 355.846 104.677 355.848 104.677C355.968 104.609 356.033 104.573 356.033 104.573C356.033 104.573 357.237 105.576 358.338 107.572C358.92 108.63 359.472 109.965 359.8 111.577C359.966 112.394 360.075 113.284 360.101 114.244C360.119 114.917 360.097 115.625 360.024 116.367Z" fill="#3F4AC0"/>
<path d="M352.67 106.455C348.141 112.461 338.12 125.52 331.569 132.324C330.358 132.809 329.544 133.135 329.544 133.135C329.544 133.135 324.769 135.301 321.146 133.389L331.422 116.892C331.45 117.675 331.465 118.101 331.465 118.101C331.465 118.101 331.581 118.235 331.925 117.991C331.989 117.946 332.062 117.887 332.142 117.812C332.416 117.558 334.594 116.258 337.028 114.878C339.161 113.671 341.49 112.399 342.91 111.719C344.807 110.808 349.45 108.249 352.67 106.455Z" fill="#504FCF"/>
<path d="M330.54 108.969C328.909 111.342 321.349 122.493 318.089 129.798C318.082 129.782 318.076 129.765 318.069 129.749C317.04 127.145 316.761 124.041 316.918 120.986C317.177 115.905 318.642 110.957 319.868 108.665C319.957 108.498 320.045 108.346 320.131 108.207C320.56 108.474 321.072 108.754 321.661 109.006C323.755 109.905 326.819 110.472 330.54 108.969Z" fill="#504FCF"/>
<g opacity="0.57">
<path d="M319.999 123.422C318.542 123.104 317.503 121.88 316.921 120.986C317.18 115.905 318.646 110.957 319.871 108.665C319.96 108.498 320.048 108.346 320.135 108.207C320.563 108.474 321.075 108.754 321.664 109.006L322.03 119.768C322.03 119.768 322.365 123.939 319.999 123.422Z" fill="#946DE0"/>
</g>
<g opacity="0.6">
<path d="M360.024 116.367C360.014 116.473 360.003 116.581 359.99 116.69C359.99 116.617 352.539 122.97 341.895 128.146C341.944 128.17 329.546 133.136 329.546 133.136C329.546 133.136 320.988 137.018 318.092 129.798C318.084 129.782 318.078 129.766 318.072 129.749C317.568 128.476 317.244 127.084 317.064 125.636C318.787 126.22 321.949 126.857 327.462 126.766C337.397 126.6 341.163 127.742 349.295 123.037C357.427 118.332 359.896 115.445 359.896 115.445L360.024 116.367Z" fill="#363FA6"/>
</g>
<g opacity="0.57">
<path d="M358.338 107.571C357.259 109.06 353.228 113.768 343.451 117.099C336.107 119.685 334.686 117.377 337.03 114.878C339.163 113.671 341.492 112.399 342.912 111.719C345.952 110.26 356.033 104.572 356.033 104.572C356.033 104.572 357.238 105.575 358.338 107.571Z" fill="#946DE0"/>
</g>
<path d="M367.407 102.408C367.407 102.408 367.407 102.423 367.403 102.453L367.403 102.461C367.402 102.476 367.4 102.493 367.398 102.513C367.397 102.519 367.397 102.524 367.396 102.53C367.394 102.548 367.392 102.568 367.388 102.591C367.382 102.634 367.374 102.686 367.363 102.743C367.359 102.762 367.355 102.782 367.351 102.803C367.348 102.823 367.342 102.845 367.337 102.867C367.334 102.888 367.329 102.911 367.322 102.934C367.32 102.947 367.316 102.962 367.312 102.977C367.312 102.978 367.312 102.978 367.312 102.979C367.31 102.988 367.308 102.997 367.305 103.006C367.292 103.055 367.278 103.106 367.263 103.16C367.254 103.186 367.247 103.213 367.238 103.241C367.229 103.268 367.22 103.297 367.21 103.326C367.2 103.354 367.19 103.383 367.18 103.413C367.149 103.502 367.114 103.594 367.071 103.692C367.057 103.724 367.043 103.757 367.028 103.789C367.013 103.823 366.998 103.855 366.982 103.889C366.855 104.155 366.69 104.441 366.474 104.732C366.247 105.038 365.966 105.351 365.617 105.652C365.588 105.678 365.56 105.703 365.529 105.727C365.501 105.752 365.469 105.776 365.439 105.801C365.397 105.834 365.354 105.867 365.31 105.901C365.275 105.928 365.239 105.955 365.201 105.982C365.163 106.011 365.124 106.038 365.082 106.067C365.05 106.089 365.018 106.112 364.984 106.134C364.949 106.158 364.912 106.18 364.876 106.204C364.827 106.235 364.777 106.267 364.727 106.298C364.691 106.319 364.654 106.341 364.617 106.362C364.578 106.385 364.539 106.407 364.499 106.43C364.457 106.453 364.413 106.477 364.368 106.502C364.318 106.528 364.267 106.554 364.215 106.581C364.169 106.604 364.123 106.627 364.075 106.649C364.028 106.673 363.979 106.695 363.929 106.718C363.92 106.721 363.911 106.726 363.902 106.729C363.854 106.752 363.804 106.775 363.752 106.795C363.701 106.818 363.649 106.839 363.595 106.861C363.548 106.881 363.5 106.899 363.451 106.918C363.186 107.021 362.903 107.116 362.6 107.203C362.52 107.225 362.439 107.247 362.356 107.268C362.274 107.29 362.189 107.311 362.102 107.332C362.032 107.348 361.961 107.364 361.89 107.379C361.609 107.441 361.312 107.495 361.001 107.541C360.995 107.541 360.988 107.542 360.982 107.543C360.886 107.557 360.789 107.571 360.696 107.583C360.495 107.609 360.3 107.631 360.11 107.648C359.962 107.662 359.815 107.672 359.673 107.681C359.614 107.685 359.555 107.688 359.498 107.691C359.435 107.694 359.373 107.697 359.312 107.698C359.235 107.702 359.159 107.704 359.084 107.705C358.819 107.71 358.564 107.706 358.321 107.695C357.485 107.657 356.778 107.53 356.181 107.351C353.887 106.667 353.229 105.236 353.229 105.236C353.229 105.236 355.033 104.117 357.018 103.165C357.874 102.754 358.765 102.373 359.558 102.127C359.673 102.091 359.794 102.058 359.919 102.03C359.971 102.017 360.023 102.006 360.076 101.996C360.119 101.986 360.163 101.978 360.208 101.97C360.259 101.96 360.311 101.952 360.362 101.944C360.416 101.935 360.471 101.927 360.526 101.921C360.622 101.906 360.72 101.895 360.82 101.885C360.87 101.879 360.92 101.874 360.971 101.87C361.009 101.867 361.047 101.863 361.085 101.86C361.144 101.856 361.204 101.852 361.264 101.848C361.729 101.82 362.215 101.818 362.701 101.834C363.029 101.844 363.358 101.864 363.679 101.888C365.661 102.04 367.407 102.408 367.407 102.408Z" fill="#FFC34D"/>
<path d="M366.471 104.731C365.631 105.87 364.032 107.094 360.998 107.541C360.992 107.541 360.986 107.542 360.979 107.543C358.886 107.849 357.326 107.694 356.178 107.351C356.921 106.363 358.533 104.678 361.004 104.451C363.317 104.24 365.348 104.516 366.471 104.731Z" fill="#FFAD47"/>
<g opacity="0.75">
<path d="M367.407 102.408C367.407 102.408 367.407 102.423 367.403 102.453L367.403 102.461C367.402 102.475 367.4 102.493 367.398 102.513C367.396 102.518 367.397 102.523 367.395 102.53C367.394 102.548 367.391 102.568 367.388 102.591C367.381 102.634 367.374 102.686 367.362 102.743C367.359 102.762 367.355 102.782 367.351 102.803C367.347 102.823 367.342 102.844 367.337 102.867C367.333 102.888 367.328 102.911 367.322 102.934C367.318 102.949 367.314 102.963 367.311 102.979C367.309 102.988 367.307 102.997 367.304 103.006C367.292 103.054 367.278 103.106 367.263 103.159C367.254 103.185 367.246 103.213 367.238 103.241C367.229 103.268 367.22 103.297 367.21 103.326C367.2 103.354 367.19 103.383 367.18 103.413C367.149 103.502 367.112 103.595 367.071 103.692C367.057 103.724 367.043 103.756 367.028 103.789C367.013 103.823 366.998 103.855 366.982 103.889C366.855 104.155 366.689 104.441 366.474 104.732C366.247 105.038 365.966 105.351 365.617 105.651C365.588 105.678 365.559 105.703 365.529 105.726C365.5 105.751 365.469 105.776 365.439 105.801C365.396 105.834 365.354 105.867 365.31 105.901C365.275 105.928 365.239 105.955 365.201 105.982C365.162 106.011 365.124 106.038 365.082 106.067C365.05 106.089 365.017 106.112 364.983 106.134C364.948 106.158 364.912 106.18 364.876 106.204C364.827 106.235 364.777 106.266 364.727 106.297C364.69 106.319 364.654 106.341 364.617 106.362C364.578 106.385 364.539 106.407 364.499 106.43C364.456 106.453 364.413 106.477 364.368 106.502C364.317 106.528 364.266 106.554 364.215 106.58C364.169 106.604 364.122 106.627 364.075 106.649C364.027 106.673 363.979 106.695 363.929 106.717C363.92 106.721 363.911 106.726 363.902 106.729C363.853 106.752 363.803 106.775 363.752 106.795C363.701 106.818 363.648 106.839 363.594 106.86C363.548 106.88 363.499 106.899 363.451 106.918C363.185 107.021 362.903 107.116 362.6 107.202C362.52 107.225 362.439 107.247 362.356 107.268C362.273 107.289 362.188 107.31 362.102 107.332C362.032 107.348 361.961 107.364 361.89 107.379C361.608 107.441 361.312 107.495 361 107.541C362.051 106.488 362.696 105.376 363.089 104.381C363.314 103.813 363.457 103.285 363.548 102.825C363.619 102.464 363.658 102.146 363.679 101.888C365.661 102.04 367.407 102.408 367.407 102.408Z" fill="#FFB34D"/>
</g>
<path d="M322.158 83.0675L321.397 85.5063L318.765 84.2689L318.206 83.6066L316.879 82.0339L316.901 80.9977L316.976 77.5087C316.977 77.4386 317.004 77.3789 317.045 77.3339C317.128 77.2429 317.268 77.2105 317.389 77.2794C319.014 78.2262 318.589 80.7409 318.589 80.7921C318.589 80.7934 318.589 80.7932 318.589 80.7932C318.624 80.8882 319.184 81.637 319.186 81.637C319.579 82.054 322.158 83.0675 322.158 83.0675Z" fill="#FEAB83"/>
<path d="M318.141 84.1953L316.325 83.7157L315.024 82.3358L313.549 80.7716L313.593 79.159L313.694 75.4613L313.698 75.3038C313.702 75.15 313.869 75.0567 314.001 75.1319C314.489 75.4091 314.85 75.841 315.115 76.3377C315.588 77.2224 315.761 78.3128 315.822 79.0943C315.869 79.6969 315.849 80.1169 315.849 80.1169L317.507 81.5064L317.512 81.5101L317.518 81.5341L317.98 83.5074L318.141 84.1953Z" fill="#FEAB83"/>
<path d="M314.535 83.1278L311.223 79.8164L311.081 79.131L310.946 78.4719L310.946 78.4708L310.116 74.4212L310.084 74.2674C310.055 74.1312 310.178 74.0189 310.309 74.0479C310.316 74.0492 310.322 74.0506 310.328 74.053C310.627 74.1511 311.103 74.3907 311.544 74.9678C311.791 75.2896 312.027 75.7162 312.217 76.2816C312.538 77.2385 312.694 77.8013 312.768 78.1314C312.791 78.2328 312.806 78.3127 312.816 78.3754L312.816 78.3767C312.848 78.5793 312.823 78.5992 312.823 78.5992L314.1 79.9317L314.361 81.8437L314.535 83.1278Z" fill="#FEAB83"/>
<path d="M330.736 93.2199C329.922 93.5896 329.104 93.7657 328.348 93.8269C327.657 93.8832 327.015 93.8431 326.475 93.7672C326.108 93.7154 325.784 93.6471 325.522 93.5803C325.049 93.4606 324.771 93.3465 324.771 93.3428C324.768 93.1653 324.755 92.9891 324.731 92.8139C324.566 91.6247 323.866 90.4769 322.145 88.9112C321.727 88.5304 321.246 88.1481 320.748 87.781C318.902 86.4224 316.822 85.2912 316.822 85.2912L315.802 84.7305L311.681 82.464C311.681 82.464 306.52 76.5276 306.105 76.1606C305.961 76.0316 305.918 75.9026 305.926 75.7915C305.938 75.5889 306.107 75.4405 306.107 75.4405C306.687 75.4765 307.21 75.5864 307.683 75.7509C309.166 76.26 310.132 77.282 310.702 78.098C310.793 78.2283 310.874 78.3534 310.945 78.4711C311.036 78.6213 311.112 78.7563 311.173 78.8726C311.308 79.1316 311.369 79.293 311.369 79.293L317.853 81.7064C317.853 81.7064 319.854 82.306 322.158 83.0602C322.372 83.13 322.587 83.2012 322.804 83.2732C324.631 83.8804 326.549 84.5577 327.75 85.0924C328.914 85.6121 329.629 87.0334 330.067 88.5456C330.193 88.9845 330.298 89.4324 330.38 89.8664C330.6 90.9921 330.688 92.0359 330.72 92.6498C330.74 93.0074 330.741 93.2199 330.736 93.2199Z" fill="#FEAB83"/>
<path d="M325.523 93.58C325.05 93.4603 324.772 93.3462 324.772 93.3425C324.768 93.165 324.756 92.9888 324.731 92.8136C324.567 91.6244 323.867 90.4766 322.146 88.9109C321.728 88.5301 321.247 88.1479 320.749 87.7807C318.902 86.4222 316.823 85.291 316.823 85.291L315.803 84.7302L321.516 86.6771C321.516 86.6771 325.295 87.5142 325.987 89.3568C326.552 90.8605 326.327 92.4602 325.523 93.58Z" fill="#FE9F7D"/>
<path d="M330.068 88.5454C329.705 87.2908 329.151 86.0974 328.307 85.432C328.135 85.2955 327.949 85.18 327.752 85.0922C326.55 84.5575 324.632 83.8803 322.806 83.273C321.557 82.4368 321.081 81.706 320.932 81.1593C320.861 80.9028 320.863 80.6867 320.891 80.5191C320.933 80.2628 321.035 80.1207 321.035 80.1207C321.134 80.2197 324.375 81.6955 325.853 82.3658C326.408 82.6181 326.923 82.9506 327.374 83.3626C327.495 83.4729 327.587 83.568 327.61 83.6155C327.612 83.6192 327.613 83.6229 327.614 83.6267C329.846 85.741 330.121 87.593 330.068 88.5454Z" fill="#FEAB83"/>
<path d="M314.179 83.4683L310.291 80.266L307.683 75.7507C309.166 76.2598 310.132 77.2818 310.702 78.0978C310.793 78.228 310.874 78.3532 310.945 78.4708L311.222 79.8165L314.179 83.4683Z" fill="#FB856D"/>
<path d="M315.025 82.336L314.361 81.8435L313.208 80.9913L311.932 78.7449C311.316 77.1386 311.468 75.5075 311.544 74.9677C311.791 75.2895 312.027 75.7161 312.217 76.2815C312.538 77.2383 312.694 77.8012 312.768 78.1313L312.823 78.5991L313.588 79.3969L313.55 80.7718L315.025 82.336Z" fill="#FB856D"/>
<path d="M318.206 83.6064C318.155 83.5863 318.079 83.5547 317.981 83.5071C317.614 83.3276 316.955 82.9327 316.292 82.1789C315.294 81.0433 314.98 79.7501 314.98 79.7501L315.116 76.3374C315.59 77.222 315.763 78.3124 315.824 79.0939C315.87 79.6966 315.851 80.1166 315.851 80.1166L316.901 80.9975L316.879 82.0337L318.206 83.6064Z" fill="#FB856D"/>
<path d="M330.066 88.5453C329.703 87.2907 329.149 86.0972 328.305 85.4318C328.133 85.2953 327.947 85.1798 327.75 85.092C326.548 84.5574 324.63 83.8801 322.803 83.2729C321.555 82.4367 321.079 81.7058 320.93 81.1592C321.494 81.4728 322.516 81.9709 323.877 82.3521C325.087 82.6918 326.457 83.1244 327.607 83.6153C327.61 83.6191 327.611 83.6228 327.612 83.6265C329.843 85.7409 330.119 87.5928 330.066 88.5453Z" fill="#FB856D"/>
<path d="M331.355 101.099C331.298 103.936 331.189 106.171 331.187 108.69C329.917 109.274 328.717 109.615 327.602 109.78C326.039 110.008 324.64 109.888 323.437 109.597C322.065 109.267 320.947 108.715 320.133 108.207C320.141 108.193 320.15 108.178 320.159 108.165C320.172 108.165 320.459 107.304 320.873 106.093C321.213 105.093 321.64 103.852 322.066 102.661C322.469 101.536 322.873 100.452 323.206 99.658C323.259 99.5331 323.309 99.4146 323.358 99.3046C324.066 97.7057 324.433 96.0638 324.613 94.8102C324.676 94.3815 324.717 93.9991 324.741 93.6791C324.754 93.5067 324.763 93.354 324.768 93.2202C324.768 93.2202 326.534 93.9684 329.262 93.5184C329.788 93.4319 330.351 93.3005 330.944 93.1102C330.944 93.1102 330.985 93.4467 331.04 94.0181C331.144 95.0833 331.302 96.9626 331.351 99.0092C331.366 99.6942 331.371 100.399 331.355 101.099Z" fill="#FFC34E"/>
<path d="M331.356 101.099C331.299 103.935 331.19 106.17 331.188 108.689C329.918 109.273 328.718 109.615 327.603 109.779C326.04 110.008 324.641 109.887 323.438 109.596C325.295 107.489 329.041 102.188 329.263 93.5178C329.789 93.4313 330.352 93.2998 330.945 93.1096C330.945 93.1096 330.986 93.446 331.041 94.0175C331.145 95.0827 331.303 96.9619 331.352 99.0085C331.367 99.6935 331.372 100.399 331.356 101.099Z" fill="#FFAD47"/>
<g opacity="0.56">
<path d="M331.354 101.099C331.297 103.935 331.188 106.17 331.186 108.689C326.106 111.025 322.169 109.477 320.132 108.207C320.14 108.193 320.149 108.178 320.158 108.164C320.171 108.164 320.458 107.303 320.872 106.093C324.973 102.386 330.07 99.6652 331.35 99.0087C331.365 99.6937 331.37 100.399 331.354 101.099Z" fill="#FEA041"/>
</g>
<path d="M381.212 126.854C381.212 126.854 381.133 127.042 380.942 127.121C380.842 127.162 380.71 127.173 380.543 127.109C380.538 127.106 380.237 126.367 379.749 125.159C379.628 124.862 379.498 124.536 379.356 124.186C379.269 123.97 379.177 123.743 379.083 123.509C378.99 123.279 378.894 123.041 378.796 122.797C378.583 122.27 378.358 121.709 378.122 121.125C377.343 119.19 376.457 116.994 375.604 114.87C375.517 114.653 375.431 114.438 375.345 114.224C375.19 113.839 375.036 113.457 374.886 113.082C374.805 112.881 374.724 112.68 374.645 112.483C374.508 112.145 374.375 111.812 374.245 111.487C374.237 111.468 374.23 111.451 374.222 111.432C373.88 110.58 373.558 109.778 373.266 109.054C372.481 107.099 371.923 105.711 371.813 105.437C371.799 105.403 371.793 105.368 371.793 105.333L371.795 104.493C371.795 104.472 371.801 104.454 371.81 104.439C371.842 104.389 371.916 104.376 371.964 104.426L372.586 105.087C372.61 105.112 372.628 105.142 372.642 105.176L374.454 109.76L375.018 111.186L375.263 111.804L375.803 113.17L376.025 113.733L376.309 114.453L376.481 114.888L378.979 121.205L379.791 123.261L380.07 123.964L380.211 124.319L380.222 124.348L381.212 126.854Z" fill="#5CFF85"/>
<path d="M376.025 113.733C375.994 113.76 375.938 113.759 375.839 113.7C375.774 113.66 375.689 113.606 375.597 113.547L374.764 111.433L372.468 105.272C372.468 105.272 372.127 104.805 372.018 104.612C371.945 104.485 371.861 104.449 371.81 104.439C371.843 104.389 371.917 104.376 371.964 104.426L372.587 105.087C372.61 105.112 372.629 105.142 372.643 105.176L375.018 111.186C374.918 111.739 375.094 112.382 375.375 112.665C375.521 112.812 375.678 113.006 375.804 113.17L376.025 113.733Z" fill="#00AF60"/>
<path d="M386.546 120.835C386.526 120.944 386.495 121.055 386.453 121.17C386.453 121.17 386.453 121.171 386.452 121.172C386.381 121.367 386.28 121.571 386.156 121.777C385.927 122.154 385.625 122.541 385.291 122.914C385.291 122.914 385.29 122.915 385.288 122.917C385.034 123.202 384.762 123.479 384.492 123.739L384.479 123.751C384.263 123.959 384.047 124.154 383.845 124.334C383.275 124.836 382.798 125.205 382.641 125.325C382.575 125.239 382.412 125.062 382.007 124.706C381.92 124.628 381.822 124.543 381.71 124.449C381.162 123.983 380.387 123.555 379.791 123.26C379.621 123.176 379.466 123.102 379.335 123.042C379.073 122.922 378.904 122.852 378.904 122.852C378.904 122.852 378.866 122.832 378.796 122.797C378.326 122.561 376.465 121.628 375.906 121.41C375.267 121.163 374.071 120.31 373.787 120.016C373.666 119.89 373.562 119.603 373.485 119.318C373.382 118.943 373.324 118.571 373.324 118.571C373.324 118.571 373.222 118.485 373.092 118.368C372.934 118.224 372.738 118.031 372.647 117.885C372.57 117.762 372.566 117.495 372.583 117.246C372.602 116.963 372.65 116.703 372.65 116.703C372.65 116.703 372.605 116.593 372.239 116.355C372.071 116.246 371.955 116.112 371.877 115.999C371.784 115.864 371.746 115.759 371.746 115.759C371.746 115.759 371.747 115.584 371.745 115.357C371.744 115.08 371.74 114.726 371.73 114.533C371.725 114.432 371.761 114.336 371.818 114.25C371.953 114.041 372.198 113.894 372.198 113.894C372.198 113.894 372.197 113.893 372.195 113.892C372.16 113.867 371.874 113.655 371.685 113.36C371.54 113.132 371.451 112.855 371.578 112.576C371.819 112.046 372.215 111.839 372.367 111.777C372.406 111.761 372.43 111.754 372.43 111.754L373.893 111.491L374.222 111.431C374.296 111.613 374.369 111.797 374.444 111.983C374.471 112.051 374.498 112.12 374.527 112.188C374.565 112.286 374.605 112.383 374.645 112.482L374.834 113.048C374.834 113.048 374.853 113.06 374.885 113.082C375.008 113.163 375.334 113.379 375.596 113.547C375.688 113.605 375.773 113.659 375.838 113.7C375.937 113.758 375.993 113.76 376.024 113.732C376.091 113.679 376.05 113.507 376.05 113.507C376.05 113.507 375.946 113.357 375.803 113.169C375.677 113.005 375.52 112.811 375.374 112.665C375.093 112.382 374.917 111.739 375.018 111.185C375.028 111.128 375.04 111.072 375.057 111.018C375.083 110.932 375.117 110.863 375.157 110.807C375.183 110.771 375.212 110.741 375.242 110.716C375.479 110.516 375.807 110.625 375.807 110.625L377.516 111.9C377.516 111.9 379.681 113.789 380.913 114.476C382.147 115.165 382.677 116.062 382.677 116.062C382.677 116.062 382.813 116.293 383.038 116.659C383.321 117.122 383.749 117.802 384.228 118.508C385.067 119.746 386.488 120.792 386.546 120.835Z" fill="#FEAB83"/>
<path d="M385.291 122.914C385.291 122.914 385.289 122.915 385.288 122.917C385.254 122.95 384.934 123.282 384.492 123.739L384.479 123.751C384.263 123.959 384.047 124.154 383.844 124.334C383.275 124.836 382.797 125.205 382.641 125.325C382.561 125.221 382.337 124.982 381.71 124.449C381.162 123.983 380.386 123.555 379.791 123.26C379.621 123.176 379.466 123.102 379.335 123.042C379.072 122.922 378.904 122.852 378.904 122.852C378.904 122.852 378.865 122.832 378.795 122.797C378.326 122.561 376.465 121.628 375.906 121.411C375.266 121.163 374.07 120.31 373.787 120.017C373.666 119.89 373.562 119.604 373.485 119.318C373.382 118.943 373.324 118.571 373.324 118.571C373.324 118.571 372.812 118.148 372.647 117.886C372.57 117.762 372.566 117.495 372.582 117.247C372.601 116.963 372.649 116.703 372.649 116.703C372.649 116.703 372.605 116.593 372.239 116.355C372.07 116.246 371.954 116.112 371.877 115.999C372.061 115.977 372.441 115.945 372.639 116.054C372.907 116.201 375.06 119.534 376.978 120.69C378.897 121.846 382.591 124.442 385.291 122.914Z" fill="#F8997F"/>
<path d="M376.079 112.246C375.579 111.638 375.343 111.04 375.242 110.716C375.166 110.779 375.099 110.876 375.056 111.019C375.04 111.073 375.028 111.129 375.017 111.186C374.916 111.74 375.093 112.383 375.373 112.666C375.519 112.812 375.677 113.006 375.803 113.17C375.946 113.358 376.049 113.508 376.049 113.508C376.049 113.508 376.091 113.679 376.024 113.733C375.993 113.761 375.937 113.759 375.838 113.7C375.773 113.66 375.688 113.606 375.596 113.547C375.333 113.379 375.008 113.164 374.885 113.082C374.853 113.061 374.834 113.048 374.834 113.048L374.645 112.483C374.605 112.384 374.566 112.287 374.526 112.189L374.527 112.189C374.498 112.12 374.471 112.051 374.443 111.984C374.369 111.797 374.295 111.614 374.222 111.432L373.893 111.492C374.033 111.623 374.167 111.807 374.167 112.023C373.247 112.189 373.896 112.558 375.071 113.434C376.387 114.415 378.005 114.683 378.005 114.683C378.005 114.683 376.818 113.143 376.079 112.246Z" fill="#FB856D"/>
<path d="M373.868 115.435C373.342 115.254 372.326 114.767 371.818 114.251C371.953 114.042 372.198 113.895 372.198 113.895C372.198 113.895 373.54 115.187 374.61 115.317C374.629 115.317 374.48 115.646 373.868 115.435Z" fill="#FB856D"/>
<path d="M375.14 117.897C374.587 117.878 373.62 117.762 372.582 117.247C372.601 116.963 372.649 116.703 372.649 116.703C372.649 116.703 374.039 117.529 375.152 117.808C375.205 117.821 375.194 117.899 375.14 117.897Z" fill="#FB856D"/>
<path d="M375.54 119.647C375.156 119.655 374.441 119.607 373.486 119.319C373.383 118.944 373.325 118.572 373.325 118.572C373.325 118.572 374.486 119.317 375.549 119.555C375.602 119.567 375.595 119.645 375.54 119.647Z" fill="#FB856D"/>
<g opacity="0.29724">
<path d="M317.562 77.2796C317.442 77.2092 317.301 77.24 317.217 77.33C317.542 77.6245 318.278 78.3824 318.435 79.3273C318.629 80.5001 318.712 80.7849 318.719 80.8063C318.72 80.7551 319.175 78.2458 317.562 77.2796Z" fill="#41EB7A"/>
<path d="M311.106 78.3924C311.036 78.2739 310.957 78.1477 310.867 78.0164C310.307 77.1936 309.353 76.16 307.876 75.6331C307.406 75.463 306.884 75.3467 306.304 75.3038C306.304 75.3038 306.133 75.4501 306.119 75.6525C306.554 75.6849 307.371 75.8012 308.035 76.2193C308.959 76.7972 310.586 78.1213 311.233 79.0541L311.106 78.3935L311.106 78.3924Z" fill="#41EB7A"/>
<path d="M310.541 73.9678C310.404 73.9209 310.266 74.0363 310.294 74.1792L310.324 74.3335C310.75 74.5832 311.447 75.0519 311.874 75.6628C312.498 76.5591 312.945 78.208 312.976 78.3198C312.938 78.0541 312.807 77.476 312.403 76.219C311.892 74.6329 311.005 74.1267 310.541 73.9678Z" fill="#41EB7A"/>
<path d="M314.201 75.0912C314.069 75.0142 313.901 75.1057 313.896 75.2594L313.89 75.4169C314.407 75.9891 315.612 77.4561 315.974 79.0753C315.894 77.8539 315.55 75.8776 314.201 75.0912Z" fill="#41EB7A"/>
<path d="M327.708 83.7491C327.698 83.7066 327.601 83.6039 327.471 83.4822C327.025 83.0647 326.514 82.7263 325.962 82.4673C324.493 81.7793 321.269 80.2643 321.172 80.1641C321.172 80.1641 321.068 80.305 321.023 80.5608C321.481 80.9598 322.573 81.4022 323.927 82.0223C326.291 83.104 326.917 83.1722 327.837 84.4612C328.039 84.7428 328.113 85.176 328.327 85.4878C328.054 85.2956 327.709 85.1146 327.276 84.9728C325.521 84.3983 321.037 82.5994 321.037 82.5994C321.037 82.5994 322.382 83.4424 322.885 83.6798C323.796 84.1097 326.179 84.9576 326.179 84.9576C326.179 84.9576 328.627 86.045 329.026 86.662C329.197 86.9262 329.287 86.7805 329.169 86.4739C329.577 87.1099 329.88 87.8905 330.103 88.6971C330.167 87.7453 329.914 85.8902 327.708 83.7491Z" fill="#41EB7A"/>
</g>
<path d="M385.975 92.1347C385.553 93.7604 384.548 95.4548 383.035 96.882C382.643 97.2508 382.236 97.5846 381.818 97.8826C380.625 98.7342 379.351 99.2918 378.133 99.535C377.084 99.7435 376.076 99.7188 375.198 99.4475C374.522 99.2386 373.922 98.8811 373.442 98.371C373.407 98.3338 373.372 98.2954 373.339 98.2571C372.905 97.7576 372.615 97.1637 372.462 96.5081C372.316 95.8975 372.291 95.2339 372.378 94.5451C372.395 94.4111 372.416 94.277 372.442 94.1416C372.77 92.3646 373.822 90.4583 375.495 88.8817C376.058 88.3507 376.654 87.8929 377.265 87.5101C377.434 87.4042 377.603 87.3043 377.773 87.211C377.773 87.211 377.773 87.211 377.774 87.211C380.519 85.6956 383.472 85.6768 385.089 87.3926C386.192 88.5625 386.451 90.3045 385.975 92.1347Z" fill="#FEAB83"/>
<path d="M384.764 94.8232C385.336 93.9437 385.744 93.0287 385.976 92.1347C384.776 91.5149 382.972 90.6679 382.868 91.113C382.76 92.4108 382.138 93.1901 381.833 93.4992C381.729 93.6042 381.631 93.7131 381.542 93.8318C381.312 94.1399 380.77 94.7442 380.024 94.8075C379.019 94.8942 378.645 95.7052 378.645 95.7052C378.645 95.7052 377.196 98.2843 374.56 97.7316C372.867 97.3769 372.456 95.6992 372.38 94.545C372.192 96.0302 372.527 97.3986 373.443 98.3709C373.924 98.8811 374.523 99.2386 375.2 99.4474C375.239 99.4595 375.278 99.4702 375.317 99.4809C377.196 100.011 379.644 99.4357 381.82 97.8826C382.23 97.5902 382.63 97.2626 383.014 96.9017C383.399 97.2031 384.031 97.2126 384.58 96.8866C385.252 96.4874 385.542 95.7363 385.229 95.2095C385.122 95.0302 384.959 94.9014 384.764 94.8232Z" fill="#FB9177"/>
<g opacity="0.662712">
<path d="M376.993 88.3793C375.976 88.7939 372.76 91.0175 372.462 96.5074C372.316 95.8967 372.291 95.2331 372.378 94.5443C372.614 92.6558 373.695 90.578 375.495 88.8809C375.843 88.5526 376.203 88.253 376.573 87.982C376.704 88.0978 376.844 88.2274 376.993 88.3793Z" fill="#41EB7A"/>
</g>
<path d="M374.433 94.1407C374.339 94.241 375.067 94.8743 375.642 95.0187C376.456 95.2234 377.189 94.9787 377.138 94.8901C377.066 94.7676 376.589 95.1813 375.651 94.9513C374.765 94.734 374.522 94.0453 374.433 94.1407Z" fill="#4D0017"/>
<path d="M374.433 94.1407C374.339 94.241 375.067 94.8743 375.642 95.0187C376.456 95.2234 377.189 94.9787 377.138 94.8901C377.066 94.7676 376.589 95.1813 375.651 94.9513C374.765 94.734 374.522 94.0453 374.433 94.1407Z" stroke="#CA3F3D" stroke-width="0.140596"/>
<mask id="mask5_699_1016" style="mask-type:luminance" maskUnits="userSpaceOnUse" x="318" y="50" width="29" height="29">
<path d="M346.542 64.4029C346.542 72.0848 340.314 78.3111 332.632 78.3111C325.951 78.3111 320.371 73.6021 319.03 67.3212C318.829 66.3802 318.724 65.4038 318.724 64.4029C318.724 56.7209 324.95 50.4929 332.632 50.4929C337.325 50.4929 341.477 52.8174 343.995 56.379C345.599 58.6453 346.542 61.4157 346.542 64.4029Z" fill="url(#paint6_radial_699_1016)"/>
</mask>
<g mask="url(#mask5_699_1016)">
<path d="M346.542 64.4029C346.542 72.0848 340.314 78.3111 332.632 78.3111C325.951 78.3111 320.371 73.6021 319.03 67.3212C318.829 66.3802 318.724 65.4038 318.724 64.4029C318.724 56.7209 324.95 50.4929 332.632 50.4929C337.325 50.4929 341.477 52.8174 343.995 56.379C345.599 58.6453 346.542 61.4157 346.542 64.4029Z" fill="#5CFF85"/>
</g>
<path d="M343.233 64.4035C343.233 70.2577 338.486 75.0025 332.632 75.0025C327.541 75.0025 323.289 71.414 322.267 66.6275C322.114 65.9104 322.033 65.1663 322.033 64.4035C322.033 58.5494 326.778 53.8032 332.632 53.8032C336.209 53.8032 339.373 55.5746 341.292 58.2888C342.514 60.0159 343.233 62.1271 343.233 64.4035Z" fill="url(#paint7_radial_699_1016)"/>
<path d="M328.535 67.3189C328.834 67.3244 329.072 67.5713 329.066 67.8703C329.06 68.1694 328.814 68.4073 328.514 68.4017C328.215 68.3962 327.978 68.1493 327.983 67.8503C327.989 67.5512 328.236 67.3133 328.535 67.3189Z" fill="#102234"/>
<path d="M337.905 67.493C338.204 67.4985 338.442 67.7454 338.436 68.0444C338.431 68.3434 338.184 68.5813 337.885 68.5758C337.586 68.5702 337.348 68.3233 337.353 68.0243C337.359 67.7253 337.606 67.4874 337.905 67.493Z" fill="#102234"/>
<path d="M333.693 69.3258C334.709 69.41 335.296 68.8202 335.452 69.2908C335.6 69.7368 334.527 69.9951 333.757 69.9787C333.027 69.9633 331.961 69.7337 332.042 69.297C332.127 68.8341 332.79 69.2509 333.693 69.3258Z" fill="#102234"/>
<defs>
<linearGradient id="paint0_linear_699_1016" x1="442.705" y1="100.183" x2="11.0254" y2="-38.4375" gradientUnits="userSpaceOnUse">
<stop stop-color="#FF7337"/>
<stop offset="0.5" stop-color="#A75894"/>
<stop offset="1" stop-color="#7E98FD"/>
</linearGradient>
<linearGradient id="paint1_linear_699_1016" x1="6.48313" y1="92.107" x2="11.2579" y2="106.859" gradientUnits="userSpaceOnUse">
<stop stop-color="#FFB7AB"/>
<stop offset="0.12" stop-color="#9F81B6"/>
<stop offset="0.44" stop-color="#3F4AC0"/>
<stop offset="0.86" stop-color="#232881"/>
<stop offset="0.99" stop-color="#070741"/>
</linearGradient>
<linearGradient id="paint2_linear_699_1016" x1="6.48508" y1="92.1066" x2="11.2599" y2="106.859" gradientUnits="userSpaceOnUse">
<stop stop-color="#FFB7AB"/>
<stop offset="0.12" stop-color="#9F81B6"/>
<stop offset="0.44" stop-color="#3F4AC0"/>
<stop offset="0.86" stop-color="#232881"/>
<stop offset="0.99" stop-color="#070741"/>
</linearGradient>
<linearGradient id="paint3_linear_699_1016" x1="263.012" y1="171.493" x2="252.492" y2="184.27" gradientUnits="userSpaceOnUse">
<stop stop-color="#F9BB9E"/>
<stop offset="0.26" stop-color="#F89082"/>
<stop offset="0.53" stop-color="#F66465"/>
<stop offset="0.76" stop-color="#B25B8D"/>
<stop offset="1" stop-color="#6E52B5"/>
</linearGradient>
<linearGradient id="paint4_linear_699_1016" x1="263.009" y1="171.493" x2="252.49" y2="184.27" gradientUnits="userSpaceOnUse">
<stop stop-color="#F9BB9E"/>
<stop offset="0.26" stop-color="#F89082"/>
<stop offset="0.53" stop-color="#F66465"/>
<stop offset="0.76" stop-color="#B25B8D"/>
<stop offset="1" stop-color="#6E52B5"/>
</linearGradient>
<linearGradient id="paint5_linear_699_1016" x1="360.287" y1="87.667" x2="384.176" y2="140.975" gradientUnits="userSpaceOnUse">
<stop stop-color="#29FE85"/>
<stop offset="0.05" stop-color="#92DA96"/>
<stop offset="0.23" stop-color="#FBB6A7"/>
<stop offset="0.38" stop-color="#FAAD9F"/>
<stop offset="0.53" stop-color="#F9A496"/>
<stop offset="0.73" stop-color="#F8887C"/>
<stop offset="1" stop-color="#F76D63"/>
</linearGradient>
<radialGradient id="paint6_radial_699_1016" cx="0" cy="0" r="1" gradientUnits="userSpaceOnUse" gradientTransform="translate(332.633 64.4019) scale(13.1877)">
<stop stop-color="white"/>
<stop offset="0.5" stop-color="#808080"/>
<stop offset="1"/>
</radialGradient>
<radialGradient id="paint7_radial_699_1016" cx="0" cy="0" r="1" gradientUnits="userSpaceOnUse" gradientTransform="translate(327.5 56.8373) scale(21.7376 21.7376)">
<stop stop-color="#BECBFF"/>
<stop offset="0.26" stop-color="#7E98FD"/>
<stop offset="0.51" stop-color="#4B70FF"/>
</radialGradient>
</defs>
</svg>
