<svg width="1512" height="877" viewBox="0 0 1512 877" fill="none" xmlns="http://www.w3.org/2000/svg">
<g clip-path="url(#clip0_511_381)">
<path d="M1170.22 404.651C1171.18 404.651 1171.96 405.432 1171.96 406.393C1171.96 407.354 1171.18 408.135 1170.22 408.135C1169.26 408.135 1168.48 407.354 1168.48 406.393C1168.48 405.432 1169.26 404.651 1170.22 404.651Z" fill="white"/>
<path d="M1351.36 570.545C1353.04 570.545 1354.4 571.911 1354.4 573.593C1354.4 575.275 1353.04 576.641 1351.36 576.641C1349.67 576.641 1348.31 575.275 1348.31 573.593C1348.31 571.911 1349.67 570.545 1351.36 570.545Z" fill="white"/>
<path d="M1279.51 329.324C1281.19 329.324 1282.56 330.69 1282.56 332.372C1282.56 334.055 1281.19 335.42 1279.51 335.42C1277.83 335.42 1276.46 334.055 1276.46 332.372C1276.46 330.69 1277.83 329.324 1279.51 329.324Z" fill="#4F4FC8"/>
<path d="M1210.61 473.012C1212.05 473.012 1213.22 474.183 1213.22 475.624C1213.22 477.066 1212.05 478.237 1210.61 478.237C1209.17 478.237 1208 477.066 1208 475.624C1208 474.183 1209.17 473.012 1210.61 473.012Z" fill="#4F4FC8"/>
<path d="M191.93 451.588C191.976 451.588 192.013 451.626 192.013 451.672C192.013 451.718 191.976 451.755 191.93 451.755C191.884 451.755 191.847 451.718 191.847 451.672C191.847 451.626 191.884 451.588 191.93 451.588Z" fill="#4F4FC8"/>
<path d="M5.02469 502.969C-72.922 606.63 -19.4516 704.773 19.9989 757.319C43.4187 785.617 104.936 852.633 142.715 817.3C163.199 791.489 166.112 756.829 172.749 725.58C184.297 677.357 185.132 622.875 210.607 579.418C265.651 531.167 256.674 754.854 279.439 781.136C310.231 818.38 332.646 692.699 320.424 674.741C319.012 669.114 312.739 665.685 307.695 669.279C301.188 674.019 303.749 685.749 305.632 692.767C312.165 716.289 347.366 782.567 377.335 765.189C398.434 744.452 396.339 712.268 409.928 686.975C419.621 663.897 445.06 657.812 465.414 671.273C632.048 765.032 835.702 775.355 1002.81 675.166C1036.47 657.677 1062.2 631.316 1100.58 624.623C1257.48 604.755 1374.29 758.733 1494.8 835.088C1538.03 863.756 1549.15 837.476 1549.67 791.206C1550.93 744.28 1548.69 698.268 1534.66 653.263C1502.63 539.565 1412.15 506.158 1324.2 446.458C1269.9 409.797 1192.27 287.437 1280.45 254.177C1317.76 236.74 1364.39 227.751 1400.55 216.9C1503.53 191.663 1544.29 111.772 1538.81 8.00024L1554.81 8.533C1554.21 79.3818 1537.98 129.908 1508.82 165.562C1469.32 213.855 1390.66 224.796 1318.37 245.803C1292.75 252.479 1256.66 266.107 1247.4 293.905C1235.47 349.687 1281.78 412.759 1325.12 445.226C1427.15 514.205 1513.5 541.247 1544.66 677.037C1555.84 731.019 1591.91 908.707 1486.25 847.24C1362.49 777.028 1209.24 562.714 1053.45 649.382C893.687 754.494 688.736 781.498 511.962 705.688C490.064 697.751 469.745 685.603 447.936 677.743C412.547 671.339 406.285 741.618 383.11 761.106C354.474 795.576 289.66 698.576 299.378 671.747C303.662 658.914 322.128 659.912 325.451 672.892C337.967 692.268 309.34 822.543 277.928 782.101C260.903 767.037 246.952 540.995 216.255 591.713C188.272 665.993 197.333 755.754 146.707 821.076C77.5002 887.99 -156.947 630.58 -7.33107 495.907L5.02469 502.969Z" fill="url(#paint0_linear_511_381)"/>
<path d="M31.4723 392.49C31.6025 409.917 17.5798 424.151 0.152275 424.281C-17.2753 424.411 -31.509 410.389 -31.6392 392.961C-31.7694 375.534 -17.7468 361.3 -0.319238 361.17C17.1083 361.04 31.3421 375.062 31.4723 392.49Z" fill="url(#paint1_linear_511_381)"/>
<mask id="mask0_511_381" style="mask-type:alpha" maskUnits="userSpaceOnUse" x="-32" y="361" width="64" height="64">
<path d="M31.4723 392.49C31.6025 409.917 17.5798 424.151 0.152275 424.281C-17.2753 424.411 -31.509 410.389 -31.6392 392.961C-31.7694 375.534 -17.7468 361.3 -0.319238 361.17C17.1083 361.04 31.3421 375.062 31.4723 392.49Z" fill="url(#paint2_linear_511_381)"/>
</mask>
<g mask="url(#mask0_511_381)">
<mask id="mask1_511_381" style="mask-type:luminance" maskUnits="userSpaceOnUse" x="-85" y="327" width="163" height="133">
<path d="M-84.6045 362.427L52.8003 327.075L77.7767 424.155L-59.6281 459.506L-84.6045 362.427Z" fill="white"/>
</mask>
<g mask="url(#mask1_511_381)">
<path d="M-82.6404 442.783C-75.1727 440.862 -69.5053 440.423 -63.0308 440.676C-54.9868 440.995 -49.0761 443.853 -43.1237 439.137C-31.7708 426.136 -23.4668 443.403 -3.7001 427.083C16.0611 410.773 27.0704 407.144 36.0534 408.018C42.8317 408.678 51.7257 408.309 54.659 407.61M-88.046 431.458C-72.3845 430.717 -70.2742 422.61 -53.7572 416.777C-37.2383 410.95 -26.3218 424.384 -7.55563 418.999C11.218 413.611 9.40487 380.661 33.128 390.458C40.2549 393.401 42.9746 396.484 51.3476 396.224M-89.46 419.68C-75.665 422.206 -68.9436 407.698 -57.3663 405.627C-50.8836 404.612 -43.6835 404.312 -37.2486 405.897C-29.8098 406.587 -26.5407 410.69 -14.6297 405.181C-2.71675 399.68 4.27176 381.568 17.8919 377.658C27.2923 375.048 37.1189 384.152 47.6282 384.522M-91.3539 409.1C-71.8868 411.051 -69.7782 388.485 -47.73 394.835C-40.1753 396.626 -32.2782 398.973 -24.8755 396.304C-18.5944 393.98 -12.6418 390.935 -9.29185 384.986C7.63312 357.59 22.0307 371.649 45.8855 373.911M-93.996 397.686C-76.4144 397.94 -72.8207 377.867 -56.5309 379.289C-50.5519 379.008 -40.9322 390.403 -31.6737 376.875C-22.4153 363.346 6.23477 359.86 42.9718 362.431M-69.6098 447.567C-74.1576 448.737 -78.1122 451.594 -76.6174 456.321C-75.6558 459.378 -69.4983 460.596 -63.8825 459.988C-63.1835 459.919 -62.4625 459.781 -61.7382 459.595C-56.6378 458.283 -51.3058 454.467 -51.6072 451.686C-51.9543 448.511 -59.6394 446.802 -65.2845 446.956C-66.6906 447 -68.176 447.199 -69.6098 447.567ZM-79.4967 371.383C-78.3168 371.08 -76.6967 370.878 -75.7077 371.659C-74.3689 372.715 -73.7034 374.033 -73.7378 375.571C-73.8074 378.797 -76.8293 382.401 -79.7901 384.54C-82.4886 386.493 -85.9742 388.201 -88.67 388.895C-90.7684 389.435 -92.2168 389.314 -92.6389 388.571C-94.8273 384.707 -91.5536 379.358 -87.3328 375.772C-84.8319 373.64 -81.9013 372.002 -79.4967 371.383ZM27.415 418.974C27.766 418.884 28.104 418.805 28.4289 418.737C34.9391 417.365 49.5167 417.826 51.035 421.624C51.7106 423.321 49.3589 425.94 44.3977 429C44.0456 429.21 43.6974 429.435 43.3399 429.655C39.6359 431.969 35.7996 434.357 28.5784 436.215C20.6029 438.267 5.21544 436.7 4.24328 432.922C3.39408 429.621 17.8788 421.428 27.415 418.974ZM-17.1963 371.438C-19.0184 371.907 -20.7839 373.277 -21.7737 375.124C-24.5605 380.291 -33.8706 383.809 -35.3423 387.373C-37.951 393.697 -30.5374 393.175 -24.4363 391.605C-24.1974 391.544 -23.9659 391.484 -23.7288 391.415C-16.0903 389.323 -9.58981 379.155 -11.6974 374.243C-12.834 371.59 -15.0531 370.887 -17.1963 371.438ZM22.5304 395.223C17.6764 396.471 15.1726 401.996 15.463 405.353C15.6012 406.974 16.6692 407.256 18.0731 406.895C20.7316 406.211 24.6107 403.247 25.9177 402.663C29.3651 401.116 37.1192 399.782 29.3235 396.126C26.7155 394.902 24.4421 394.731 22.5304 395.223ZM-40.6114 350.893C-40.4023 350.839 -40.219 350.84 -40.0298 350.895C-35.7959 352.218 -42.8741 351.475 -40.6114 350.893Z" stroke="black" stroke-width="0.192771" stroke-miterlimit="10"/>
</g>
</g>
<path d="M67.5822 373.135C66.5592 370.016 50.49 372.271 27.9317 378.188C28.3613 379.011 28.7512 379.853 29.1075 380.718C42.0604 377.411 50.7179 376.074 51.2138 377.587C51.7141 379.115 43.7746 383.208 31.1584 388.25C22.8466 391.574 12.4986 395.313 1.19303 399.003C-9.49186 402.495 -19.5097 405.442 -27.9025 407.633C-41.8595 411.277 -51.3114 412.818 -51.8296 411.232C-52.3435 409.661 -43.9667 405.395 -30.7585 400.165C-30.9791 399.269 -31.156 398.355 -31.2942 397.432C-53.7721 406.191 -68.7111 414.114 -67.6704 417.3C-66.6115 420.54 -49.3324 417.986 -25.4098 411.555C-16.7974 409.24 -7.32703 406.424 2.5621 403.198C13.0045 399.788 22.8036 396.281 31.473 392.898C53.8009 384.183 68.6185 376.312 67.5822 373.135Z" fill="#4F4FC8"/>
<path d="M1009.01 695.813C1008.7 716.608 991.59 733.215 970.794 732.904C949.999 732.593 933.392 715.482 933.703 694.687C934.014 673.892 951.124 657.285 971.92 657.596C992.715 657.907 1009.32 675.017 1009.01 695.813Z" fill="#FF635F"/>
<path d="M1009.01 695.813C1008.7 716.608 991.59 733.215 970.794 732.904C949.999 732.593 933.392 715.482 933.703 694.687C934.014 673.892 951.124 657.285 971.92 657.596C992.715 657.907 1009.32 675.017 1009.01 695.813Z" fill="url(#paint3_linear_511_381)"/>
<path d="M1008.85 692.165C1008.93 693.037 1008.96 693.932 1008.97 694.825C1008.99 695.991 1008.95 697.136 1008.86 698.274C1027.31 704.312 1039.17 709.938 1038.46 712.888C1037.73 715.867 1024.39 715.395 1004.95 712.214C994.505 710.505 982.29 708.01 969.32 704.863C956.086 701.651 943.858 698.176 933.663 694.834C915.3 688.815 903.506 683.207 904.221 680.257C904.926 677.335 917.759 677.745 936.565 680.749C937.34 678.856 938.282 677.048 939.36 675.327C907.149 670.201 883.605 670.747 881.934 677.622C880.188 684.78 902.599 696.687 935.61 707.232C945.171 710.291 955.624 713.234 966.637 715.906C977.388 718.524 987.783 720.671 997.474 722.329C1032.01 728.235 1057.72 727.977 1059.47 720.78C1061.15 713.847 1040.18 702.457 1008.85 692.165Z" fill="#4F4FC8"/>
<mask id="mask2_511_381" style="mask-type:alpha" maskUnits="userSpaceOnUse" x="933" y="657" width="77" height="76">
<path d="M1009.01 695.813C1008.7 716.608 991.588 733.215 970.792 732.904C949.997 732.593 933.39 715.482 933.701 694.687C934.012 673.892 951.122 657.285 971.918 657.596C992.713 657.907 1009.32 675.017 1009.01 695.813Z" fill="#FF635F"/>
<path d="M1009.01 695.813C1008.7 716.608 991.588 733.215 970.792 732.904C949.997 732.593 933.39 715.482 933.701 694.687C934.012 673.892 951.122 657.285 971.918 657.596C992.713 657.907 1009.32 675.017 1009.01 695.813Z" fill="url(#paint4_linear_511_381)"/>
</mask>
<g mask="url(#mask2_511_381)">
<mask id="mask3_511_381" style="mask-type:luminance" maskUnits="userSpaceOnUse" x="881" y="627" width="174" height="133">
<path d="M895.943 627.648L1054.29 647.733L1040.1 759.608L881.752 739.523L895.943 627.648Z" fill="white"/>
</mask>
<g mask="url(#mask3_511_381)">
<path d="M864.634 712.483C873.24 713.574 879.348 715.468 886.013 718.421C894.291 722.094 899.284 727.537 907.466 725.077C924.734 716.198 926.248 737.699 953.691 728.842C981.125 719.993 994.143 720.77 1003.17 725.413C1009.99 728.918 1019.44 732.224 1022.8 732.711M863.684 698.398C880.367 704.125 885.94 696.525 905.632 697.283C925.323 698.049 931.159 716.628 953.017 718.788C974.883 720.95 986.667 685.745 1007.4 705.838C1013.63 711.874 1015.2 716.226 1024.06 719.432M867.096 685.496C880.471 693.864 893.522 681.485 906.487 684.126C913.687 685.757 921.34 688.433 927.41 692.761C934.901 696.571 936.616 702.219 951.357 701.404C966.097 700.598 980.924 684.562 996.788 686.128C1007.7 687.303 1014.2 700.902 1025.03 705.651M869.508 673.647C889.053 683.769 900.626 661.05 921.043 676.844C928.199 681.853 935.481 687.586 944.33 687.869C951.862 688.046 959.35 687.334 965.323 682.504C994.394 660.886 1003.61 681.564 1027.61 693.833M871.485 660.615C889.762 668.18 901.854 648.684 918.296 656.935C924.664 659.124 929.991 675.032 945.288 664.731C960.586 654.429 991.989 662.68 1029.33 680.62M876.273 722.896C871.032 722.231 865.711 723.576 865.311 729.139C865.047 732.734 870.98 736.565 877.104 738.26C877.864 738.478 878.675 738.634 879.509 738.74C885.387 739.485 892.546 737.709 893.386 734.676C894.341 731.212 887.015 726.234 881.049 724.052C879.561 723.514 877.925 723.105 876.273 722.896ZM897.565 639.134C898.925 639.306 900.703 639.768 901.413 640.995C902.374 642.656 902.523 644.31 901.848 645.903C900.436 649.248 895.78 651.761 891.796 652.769C888.164 653.69 883.81 654.029 880.703 653.635C878.285 653.328 876.821 652.6 876.688 651.648C876.004 646.699 881.648 642.466 887.55 640.469C891.05 639.278 894.794 638.782 897.565 639.134ZM989.592 733.282C989.996 733.334 990.382 733.391 990.75 733.455C998.127 734.723 1013.18 741.258 1013.19 745.859C1013.19 747.914 1009.64 749.677 1003.19 750.816C1002.73 750.89 1002.27 750.98 1001.81 751.061C996.974 751.943 991.972 752.848 983.65 751.792C974.459 750.626 959.02 742.599 959.573 738.245C960.055 734.441 978.602 731.888 989.592 733.282ZM962.683 665.057C960.583 664.791 958.169 665.49 956.367 667.01C951.307 671.256 940.112 671.069 937.094 674.184C931.741 679.714 939.709 682.246 946.74 683.138C947.015 683.173 947.282 683.206 947.558 683.233C956.414 684.216 967.432 676.284 967.268 670.273C967.181 667.027 965.153 665.37 962.683 665.057ZM994.346 706.42C988.752 705.71 983.84 710.447 982.75 714.078C982.222 715.83 983.221 716.569 984.839 716.774C987.903 717.162 993.189 715.673 994.798 715.606C999.045 715.419 1007.71 717.244 1001.07 710.185C998.855 707.822 996.549 706.699 994.346 706.42ZM946.73 633.854C946.971 633.885 947.163 633.961 947.338 634.097C951.215 637.239 944.123 633.523 946.73 633.854Z" stroke="black" stroke-width="0.216868" stroke-miterlimit="10"/>
</g>
</g>
<path d="M255.068 487.119C254.952 487.043 243.384 479.481 239.236 476.929C236.072 474.982 234.15 472.314 233.963 469.614C233.778 466.957 235.173 464.382 238.108 461.958C245.032 456.239 255.789 458.331 255.898 458.355L255.77 458.983C255.664 458.963 245.203 456.931 238.517 462.453C235.751 464.736 234.434 467.131 234.603 469.57C234.776 472.061 236.587 474.544 239.573 476.383C243.729 478.94 255.303 486.506 255.42 486.582L255.068 487.119Z" fill="#161B70"/>
<path d="M261.491 465.552C253.934 464.658 242.316 458.193 241.787 457.896L242.101 457.336C242.239 457.414 256.024 465.096 263.205 465.012L263.211 465.654C262.668 465.659 262.092 465.623 261.491 465.552Z" fill="#161B70"/>
<path d="M1525.99 452.307C1526.15 497.244 1499.1 535.931 1460.33 552.738C1447.16 558.447 1432.65 561.637 1417.39 561.691C1386.74 561.801 1358.99 549.245 1339.11 528.939C1319.96 509.377 1308.12 482.626 1308.01 453.089C1307.79 392.892 1356.42 343.925 1416.61 343.709C1476.8 343.494 1525.78 392.111 1525.99 452.307Z" fill="url(#paint5_linear_511_381)"/>
<path d="M1483.57 342.218C1483.06 342.996 1482.47 343.706 1481.82 344.349C1481.61 344.565 1481.38 344.771 1481.15 344.968C1480.35 345.661 1479.47 346.259 1478.53 346.76C1477.99 347.042 1477.43 347.297 1476.86 347.516C1475.6 348.001 1474.25 348.326 1472.85 348.492C1472.02 348.598 1471.17 348.641 1470.31 348.627C1470.31 348.627 1470.3 348.632 1470.3 348.627C1470.19 348.628 1470.08 348.624 1469.96 348.62C1469.69 348.614 1469.42 348.597 1469.14 348.58C1469.11 348.581 1469.08 348.577 1469.04 348.572C1468.82 348.555 1468.59 348.533 1468.37 348.511C1468.28 348.503 1468.2 348.494 1468.11 348.476C1467.89 348.454 1467.68 348.422 1467.45 348.385C1467.17 348.345 1466.89 348.294 1466.61 348.239C1466.61 348.244 1466.6 348.244 1466.6 348.239C1466.32 348.179 1466.04 348.119 1465.76 348.054C1465.48 347.989 1465.2 347.915 1464.91 347.835C1464.64 347.755 1464.35 347.671 1464.07 347.581C1463.58 347.426 1463.1 347.252 1462.62 347.063C1462.61 347.058 1462.6 347.054 1462.58 347.049C1462.39 346.968 1462.18 346.888 1461.98 346.798C1461.91 346.765 1461.83 346.733 1461.75 346.694C1461.55 346.609 1461.36 346.518 1461.16 346.423C1460.92 346.309 1460.68 346.19 1460.45 346.066C1460.21 345.948 1459.98 345.824 1459.75 345.691C1459.27 345.424 1458.8 345.133 1458.34 344.827C1458.09 344.665 1457.84 344.498 1457.6 344.32C1457.23 344.057 1456.87 343.784 1456.52 343.506C1456.34 343.367 1456.17 343.224 1456 343.08C1455.85 342.96 1455.71 342.835 1455.56 342.706C1454.55 341.803 1453.63 340.837 1452.82 339.816C1452.69 339.653 1452.57 339.484 1452.44 339.315C1451.81 338.477 1451.25 337.604 1450.77 336.711C1450.6 336.416 1450.46 336.117 1450.31 335.817C1450.27 335.735 1450.23 335.658 1450.2 335.576C1450.14 335.459 1450.08 335.339 1450.03 335.218C1449.97 335.073 1449.9 334.923 1449.84 334.778C1449.66 334.338 1449.5 333.898 1449.36 333.457C1449.32 333.336 1449.28 333.21 1449.24 333.085C1449.24 333.079 1449.24 333.075 1449.24 333.075C1449.2 332.944 1449.16 332.814 1449.12 332.683C1449.11 332.644 1449.1 332.611 1449.09 332.572C1449.04 332.397 1448.99 332.218 1448.95 332.039C1448.91 331.864 1448.87 331.69 1448.84 331.52C1448.8 331.307 1448.75 331.099 1448.72 330.89C1448.7 330.749 1448.68 330.604 1448.66 330.463C1448.65 330.449 1448.65 330.434 1448.65 330.425C1448.62 330.245 1448.6 330.071 1448.59 329.896C1448.56 329.716 1448.55 329.543 1448.54 329.363C1448.53 329.193 1448.51 329.022 1448.51 328.852C1448.49 328.532 1448.49 328.212 1448.5 327.896C1448.55 325.831 1449.01 323.825 1449.93 321.979L1449.93 321.974C1450.17 321.515 1450.42 321.065 1450.71 320.63C1451.17 319.926 1451.69 319.28 1452.27 318.69C1452.33 318.627 1452.39 318.563 1452.45 318.499C1452.87 318.087 1453.31 317.708 1453.77 317.358C1453.88 317.265 1454 317.176 1454.13 317.091C1454.61 316.747 1455.12 316.43 1455.64 316.147C1455.78 316.073 1455.91 316.009 1456.05 315.939C1456.18 315.869 1456.32 315.805 1456.45 315.745C1456.59 315.68 1456.73 315.617 1456.87 315.561C1456.98 315.512 1457.09 315.462 1457.21 315.417C1457.44 315.327 1457.67 315.237 1457.91 315.157C1458.04 315.112 1458.17 315.072 1458.29 315.031C1458.44 314.981 1458.6 314.935 1458.75 314.89C1458.9 314.849 1459.05 314.809 1459.19 314.773C1459.37 314.728 1459.55 314.682 1459.73 314.646C1459.86 314.616 1459.99 314.59 1460.12 314.564C1460.27 314.534 1460.42 314.507 1460.56 314.482C1460.76 314.446 1460.94 314.419 1461.14 314.393C1461.27 314.377 1461.41 314.356 1461.54 314.345C1461.68 314.329 1461.82 314.313 1461.97 314.302C1461.97 314.302 1461.98 314.297 1461.98 314.297C1462 314.296 1462.01 314.291 1462.02 314.296C1462.13 314.28 1462.25 314.274 1462.36 314.268C1462.49 314.257 1462.62 314.251 1462.75 314.245C1462.87 314.238 1463 314.232 1463.12 314.231C1463.16 314.225 1463.2 314.225 1463.24 314.225L1463.49 314.222C1463.78 314.219 1464.08 314.22 1464.37 314.232C1464.51 314.235 1464.65 314.244 1464.79 314.252C1464.94 314.255 1465.09 314.268 1465.24 314.281C1465.41 314.294 1465.57 314.306 1465.74 314.324C1465.86 314.332 1465.98 314.345 1466.1 314.364C1466.2 314.377 1466.31 314.391 1466.41 314.404C1466.59 314.426 1466.77 314.454 1466.95 314.481C1467.19 314.522 1467.42 314.563 1467.67 314.609C1467.8 314.636 1467.94 314.665 1468.07 314.692C1468.25 314.73 1468.42 314.771 1468.59 314.812C1468.74 314.845 1468.89 314.882 1469.04 314.924C1469.15 314.952 1469.26 314.98 1469.36 315.013C1469.56 315.069 1469.76 315.126 1469.95 315.187C1470.15 315.248 1470.35 315.309 1470.54 315.379C1470.74 315.445 1470.94 315.511 1471.13 315.586C1471.52 315.728 1471.91 315.889 1472.3 316.055C1472.49 316.14 1472.68 316.226 1472.88 316.316C1473.14 316.434 1473.4 316.563 1473.66 316.696C1473.86 316.796 1474.06 316.905 1474.26 317.014C1474.37 317.071 1474.48 317.134 1474.58 317.196C1474.72 317.277 1474.86 317.358 1475 317.439C1475.32 317.625 1475.63 317.82 1475.94 318.026C1476.17 318.174 1476.39 318.327 1476.61 318.48C1476.78 318.599 1476.95 318.725 1477.11 318.849C1477.13 318.858 1477.14 318.868 1477.15 318.878C1477.36 319.036 1477.57 319.194 1477.77 319.357C1479.73 320.924 1481.36 322.726 1482.62 324.665C1486.33 330.322 1486.94 337.091 1483.57 342.218Z" fill="#D153BB"/>
<path d="M1483.57 342.217C1478.7 349.618 1467.4 350.79 1458.34 344.827C1452.46 340.967 1448.95 335.054 1448.54 329.362C1451.24 328.507 1456.11 327.872 1463.21 330.33C1463.34 330.392 1471.67 321.171 1482.62 324.666C1486.33 330.322 1486.94 337.091 1483.57 342.217Z" fill="#BB02A5"/>
<mask id="mask4_511_381" style="mask-type:alpha" maskUnits="userSpaceOnUse" x="1370" y="342" width="108" height="73">
<path d="M1453.44 344.528C1454.24 344.829 1472.4 355.861 1477.05 367.463C1478.45 370.941 1474.43 386.295 1471.06 391.545C1468.4 395.692 1455.54 402.729 1444.2 408.36C1432.86 413.991 1420.19 413.755 1407.48 414.622C1386.56 414.416 1366.14 412.928 1371.11 402.245C1375.31 393.243 1384.65 386.04 1393.63 383.094C1402.89 380.164 1408.27 379.054 1405.88 372.548C1403.5 366.266 1408.56 355.047 1413.61 351.471C1417.06 349.032 1422.12 346.174 1427.84 344.243C1430.4 343.375 1445.6 341.62 1453.44 344.528Z" fill="#890396"/>
</mask>
<g mask="url(#mask4_511_381)">
<path d="M1453.48 341.53C1464.09 348.239 1478.13 365.941 1478.03 373.01C1477.93 380.079 1472.96 382.787 1454.98 396.588C1437 410.389 1363.95 412.818 1366.39 399.725C1368.83 386.632 1400.4 307.945 1453.48 341.53Z" fill="#BB02A5"/>
<path d="M1427.92 394.149C1427.61 395.651 1423.15 399.961 1423.09 399.96C1423.09 399.96 1417.95 406.47 1405.23 407.338C1402.64 414.169 1397.84 410.358 1392.54 406.617C1394.64 403.747 1398.14 399.245 1401.01 397.09C1405.42 393.784 1406.32 390.416 1406.37 386.944C1406.4 384.302 1407.44 376.895 1410.9 373.427C1410.84 373.684 1410.8 373.936 1410.76 374.193C1410.03 378.967 1410.71 383.464 1412.95 387.069C1413.4 387.805 1413.92 388.506 1414.5 389.161C1416.31 391.192 1425.32 393.268 1427.92 394.149Z" fill="#650276" fill-opacity="0.5"/>
<g opacity="0.662712">
<path d="M1402.15 380.826C1402.15 380.826 1389.02 383.95 1379.33 395.965C1376.07 399.994 1374.04 403.182 1373.38 405.086C1372.62 405.027 1366.18 403.972 1365.41 403.937C1362.07 396.009 1385.88 379.203 1385.88 379.203C1385.88 379.203 1392.93 377.985 1399.9 380.632L1402.15 380.826Z" fill="#5CFF85"/>
<path d="M1414.95 350.513C1408.73 357.296 1407.95 361.473 1406.41 372.181C1405.85 376.133 1404.85 378.323 1403.9 379.485C1401.38 378.134 1398.5 371.134 1398.89 368.568C1399.78 362.566 1402.05 350.279 1414.95 350.513Z" fill="#5CFF85"/>
</g>
<path d="M1444.54 399.079C1442.97 399.169 1437.53 399.38 1431.18 398.505C1430.75 398.445 1430.31 398.381 1429.86 398.307C1429.64 398.269 1429.41 398.238 1429.19 398.196C1429.07 398.18 1428.95 398.158 1428.83 398.132C1428.68 398.106 1428.52 398.079 1428.36 398.048C1427.21 397.833 1426.03 397.578 1424.86 397.28C1423.34 396.891 1421.83 396.423 1420.36 395.868C1420.42 395.869 1420.9 393.957 1421.21 392.455C1421.36 392.506 1421.51 392.553 1421.66 392.598L1421.66 392.602C1421.76 392.633 1421.86 392.659 1421.96 392.689C1422.05 392.715 1422.14 392.745 1422.24 392.766C1422.3 392.786 1422.36 392.802 1422.42 392.817C1422.64 392.878 1422.85 392.931 1423.08 392.977C1423.09 392.983 1423.1 392.982 1423.12 392.987C1423.34 393.039 1423.57 393.091 1423.8 393.128C1423.97 393.165 1424.14 393.191 1424.3 393.217C1424.36 393.227 1424.41 393.234 1424.47 393.244C1424.53 393.254 1424.59 393.26 1424.66 393.27C1424.87 393.302 1425.08 393.33 1425.3 393.353C1425.55 393.385 1425.8 393.408 1426.06 393.427C1426.32 393.45 1426.58 393.467 1426.83 393.476C1427.47 393.508 1428.12 393.513 1428.77 393.488L1428.83 393.489C1429 393.486 1429.18 393.479 1429.35 393.467C1429.55 393.46 1429.75 393.448 1429.95 393.427C1429.99 393.427 1430.03 393.424 1430.07 393.419C1430.23 393.407 1430.39 393.394 1430.54 393.377C1430.74 393.36 1430.94 393.338 1431.14 393.312C1431.34 393.286 1431.53 393.264 1431.73 393.233C1431.91 393.206 1432.1 393.18 1432.29 393.149C1432.32 393.144 1432.34 393.14 1432.36 393.135C1432.43 393.127 1432.52 393.112 1432.59 393.099C1432.68 393.086 1432.77 393.068 1432.85 393.05C1433.3 392.973 1433.73 392.882 1434.18 392.781C1434.37 392.74 1434.57 392.695 1434.77 392.639C1434.98 392.593 1435.18 392.542 1435.39 392.482C1435.61 392.422 1435.84 392.362 1436.07 392.293C1436.24 392.247 1436.42 392.195 1436.59 392.14C1437.13 391.977 1437.67 391.795 1438.21 391.599C1438.45 391.515 1438.69 391.425 1438.93 391.331C1439.44 391.14 1439.94 390.932 1440.45 390.711C1440.62 390.641 1440.79 390.566 1440.96 390.491C1441.42 390.278 1441.88 390.061 1442.35 389.83C1442.5 389.759 1442.64 389.683 1442.79 389.608C1442.79 389.603 1442.8 389.599 1442.81 389.594C1443.04 389.476 1443.27 389.357 1443.49 389.234C1443.8 389.073 1444.1 388.902 1444.39 388.731C1444.69 388.566 1444.98 388.395 1445.27 388.224C1445.87 387.853 1446.48 387.469 1447.08 387.064C1445.96 390.274 1444.08 396.251 1444.54 399.079Z" fill="#FEAB83"/>
<path d="M1444.54 399.078C1442.97 399.169 1437.53 399.38 1431.18 398.505C1430.75 398.445 1430.31 398.381 1429.86 398.307C1429.64 398.269 1429.41 398.238 1429.19 398.196C1429.07 398.179 1428.95 398.157 1428.83 398.132C1428.68 398.106 1428.52 398.079 1428.36 398.048C1427.21 397.833 1426.03 397.578 1424.86 397.28C1423.54 395.654 1422.46 393.978 1421.66 392.602L1421.66 392.598C1421.85 392.659 1422.05 392.714 1422.24 392.766C1422.3 392.786 1422.36 392.802 1422.42 392.817C1422.64 392.874 1422.85 392.925 1423.08 392.977C1423.09 392.982 1423.1 392.982 1423.12 392.987C1423.34 393.039 1423.57 393.085 1423.8 393.128C1424.03 393.17 1424.25 393.207 1424.47 393.244C1424.53 393.254 1424.59 393.26 1424.66 393.27C1424.87 393.302 1425.08 393.33 1425.3 393.353C1425.55 393.385 1425.8 393.408 1426.06 393.426C1426.31 393.45 1426.57 393.467 1426.83 393.476C1427.47 393.508 1428.12 393.513 1428.77 393.488C1428.97 393.486 1429.16 393.474 1429.35 393.467C1429.55 393.455 1429.75 393.443 1429.95 393.427C1430.14 393.41 1430.34 393.394 1430.54 393.377C1431.12 393.317 1431.7 393.242 1432.29 393.148C1432.32 393.144 1432.34 393.14 1432.36 393.135C1432.52 393.108 1432.69 393.081 1432.85 393.049C1433.3 392.973 1433.73 392.882 1434.18 392.781C1434.37 392.735 1434.57 392.69 1434.77 392.639C1434.98 392.593 1435.18 392.537 1435.39 392.482C1435.61 392.422 1435.84 392.362 1436.07 392.293C1436.24 392.246 1436.42 392.191 1436.59 392.139C1437.13 391.977 1437.67 391.795 1438.22 391.599C1438.46 391.515 1438.69 391.425 1438.93 391.331C1439.44 391.139 1439.94 390.932 1440.45 390.711C1440.62 390.641 1440.79 390.566 1440.96 390.49C1441.42 390.278 1441.88 390.061 1442.35 389.829C1442.5 389.754 1442.64 389.683 1442.79 389.608C1442.79 389.603 1442.8 389.599 1442.81 389.594C1443.04 389.475 1443.26 389.357 1443.49 389.233C1443.79 389.073 1444.1 388.907 1444.39 388.731C1444.68 388.571 1444.98 388.4 1445.27 388.224C1445.87 387.853 1446.48 387.469 1447.08 387.064C1445.96 390.274 1444.08 396.25 1444.54 399.078Z" fill="#EE554F"/>
</g>
<path d="M1581.11 569.633C1580.99 570.08 1580.85 570.517 1580.7 570.944C1580.45 571.628 1580.17 572.289 1579.84 572.924C1577.09 578.237 1573.36 581.761 1568.61 583.613C1567.42 584.076 1566.16 584.438 1564.84 584.693C1556.1 586.397 1544.49 583.573 1529.8 576.737C1520.01 572.184 1512.5 567.337 1506.39 562.577C1496.87 555.143 1490.81 547.91 1484.99 542.301C1486.47 541.667 1487.87 540.99 1489.2 540.283C1490.13 539.785 1491.03 539.267 1491.89 538.739C1495.87 536.284 1499.07 533.522 1501.63 530.661C1502.05 530.196 1502.45 529.725 1502.83 529.254C1507.03 524.119 1509.3 518.781 1510.51 514.417C1512.06 508.859 1511.92 504.877 1511.92 504.877L1506.77 501.692L1499.87 497.44L1496.43 495.311C1494.97 491.579 1485.94 469.445 1476.41 467.141C1475.78 466.989 1475.15 466.92 1474.52 466.953C1474.52 466.953 1473.61 465.135 1472.56 462.02C1469.78 453.681 1466.05 436.055 1476.27 419.114C1476.43 419.377 1481.71 418.629 1481.71 418.629C1493.37 418.801 1508.68 413.52 1520.39 437.99C1532.09 462.459 1570.83 525.261 1570.83 525.261C1570.83 525.261 1572.7 528.814 1574.92 534.127C1578.92 543.745 1584.03 559.134 1581.11 569.633Z" fill="#504FCF"/>
<path d="M1564.84 584.693C1556.1 586.397 1544.48 583.573 1529.8 576.738C1504.75 565.075 1494.54 551.507 1484.99 542.301C1487.52 541.217 1489.81 540.017 1491.89 538.739C1496.53 535.883 1500.09 532.61 1502.83 529.255L1564.84 584.693Z" fill="#3F4AC1"/>
<path d="M1549.47 533.706C1548.37 532.611 1547.05 531.429 1545.58 530.197C1541.5 526.76 1536.26 522.92 1531.13 519.351C1521.3 512.505 1511.87 506.664 1511.87 506.664C1511.95 505.523 1511.92 504.877 1511.92 504.877L1505.49 500.903L1499.99 497.507C1499.27 496.972 1498.61 496.485 1498.05 496.081C1510.5 502.077 1521.41 509.533 1529.96 516.236C1536.83 521.609 1542.16 526.506 1545.54 529.77C1547.65 531.809 1548.99 533.21 1549.47 533.706Z" fill="#353EA4"/>
<g opacity="0.63">
<path d="M1579.84 572.924C1571.85 588.373 1555.55 588.722 1529.8 576.738C1504.75 565.075 1494.54 551.507 1484.99 542.301C1487.52 541.217 1489.81 540.017 1491.89 538.739C1491.89 538.739 1505.59 550.731 1525.65 561.379C1545.71 572.027 1561.18 566.941 1565.55 560.883C1568.32 557.056 1563.4 548.821 1559.41 543.282C1563.57 545.849 1567.22 547.132 1569.65 547.623C1573.61 548.873 1577.15 549.73 1580.31 550.275C1582.28 558.442 1582.93 566.942 1579.84 572.924Z" fill="#363FA6"/>
</g>
<path d="M1506.77 501.692L1499.87 497.44L1496.43 495.311C1494.97 491.579 1485.94 469.445 1476.41 467.141L1479.36 457.185C1483.04 470.334 1488.79 476.614 1496.06 480.838C1497.77 481.827 1499.56 482.704 1501.42 483.528L1506.77 501.692Z" fill="#363FA6"/>
<path d="M1479.86 418.897L1477.67 450.368L1477.58 451.723L1477.42 453.991C1477.42 453.991 1478.39 469.8 1462.83 485.978C1447.27 502.151 1453.14 516.377 1452.86 516.658C1453.55 518.612 1454.18 520.498 1454.75 522.32C1455.26 523.962 1455.73 525.551 1456.15 527.086C1457.91 533.544 1458.9 539.024 1459.43 543.459C1460.02 548.297 1460.05 551.89 1459.97 554.153C1453.82 556.779 1447.39 558.856 1440.74 560.32C1433.09 562.006 1425.14 562.89 1416.99 562.875C1413.29 562.869 1409.65 562.678 1406.06 562.312C1379.78 559.651 1356.27 547.656 1338.88 529.699C1339.03 529.388 1339.17 529.078 1339.32 528.777C1345.9 515.162 1354.91 508.034 1361.33 503.311C1362.25 502.638 1363.11 502.013 1363.9 501.426C1371.02 496.17 1371.03 490.357 1370.63 490.784C1370.64 490.327 1370.64 489.865 1370.62 489.399C1370.25 475.752 1361.99 459.779 1361.99 459.779C1361.99 459.779 1361.94 459.642 1361.85 459.389L1361.85 459.385C1361.44 458.272 1360.22 454.884 1358.61 450.423C1356.77 445.355 1354.44 438.901 1352.24 432.802C1348.6 422.704 1345.34 413.591 1345.34 413.426L1345.35 413.412C1345.47 413.31 1345.59 413.213 1345.71 413.116C1345.71 413.111 1345.71 413.111 1345.72 413.111C1354.91 405.493 1364.71 404.794 1370.28 405.192C1373.13 405.396 1374.88 405.885 1374.88 405.885C1374.88 405.885 1402.07 406.978 1405.3 407.174C1418 406.153 1420.29 396.589 1420.29 396.589C1423.87 397.892 1427.65 398.658 1431.15 399.096C1437.51 399.895 1442.94 399.618 1444.51 399.509C1444.8 399.49 1444.97 399.475 1444.97 399.475C1444.82 401.228 1446.38 404.927 1446.22 404.864C1455.41 420.737 1479.86 418.897 1479.86 418.897Z" fill="#504FCF"/>
<path d="M1459.97 554.153C1453.83 556.779 1447.4 558.856 1440.74 560.32C1433.09 562.006 1425.14 562.89 1416.99 562.875C1413.3 562.869 1409.65 562.678 1406.06 562.312C1379.78 559.651 1356.27 547.656 1338.88 529.699C1339.03 529.388 1339.17 529.078 1339.32 528.777C1353.81 532.902 1392.39 542.069 1427.77 534.62C1440.52 531.938 1449.63 529.376 1456.15 527.086C1457.91 533.544 1458.9 539.024 1459.43 543.459C1460.02 548.297 1460.06 551.89 1459.97 554.153Z" fill="#2E2F9B"/>
<path d="M1399.55 406.906L1398.87 458.554L1397.88 534.319C1397.85 536.616 1394.68 537.202 1393.83 535.064C1393.83 535.064 1373.11 475.033 1369.49 457.179C1368.51 452.306 1366.71 447.242 1364.63 442.455C1361.62 435.538 1358.01 429.199 1355.33 424.838C1356.27 424.883 1357.26 424.895 1358.29 424.877C1358.58 424.873 1358.88 424.864 1359.18 424.85C1359.42 424.845 1359.66 424.836 1359.9 424.822C1360.13 424.813 1360.35 424.798 1360.58 424.784C1361.14 424.751 1361.7 424.71 1362.28 424.657C1363.02 424.59 1363.78 424.504 1364.55 424.403C1364.92 424.355 1365.29 424.303 1365.67 424.25C1365.69 424.245 1365.72 424.241 1365.74 424.241C1366.95 424.063 1368.1 423.852 1369.19 423.61C1369.47 423.553 1369.75 423.49 1370.02 423.428C1370.36 423.345 1370.68 423.264 1371.01 423.182C1371.33 423.1 1371.64 423.012 1371.95 422.926C1373.13 422.588 1374.23 422.221 1375.26 421.82C1375.45 421.748 1375.64 421.675 1375.82 421.597C1376.03 421.515 1376.23 421.433 1376.43 421.342C1376.63 421.264 1376.82 421.177 1377.01 421.085C1377.05 421.076 1377.08 421.056 1377.12 421.041C1377.31 420.955 1377.5 420.867 1377.68 420.775C1377.87 420.689 1378.05 420.601 1378.23 420.509C1378.43 420.408 1378.63 420.306 1378.82 420.204C1379 420.107 1379.17 420.015 1379.33 419.923C1379.49 419.837 1379.64 419.749 1379.79 419.662C1379.93 419.58 1380.08 419.493 1380.22 419.41C1380.41 419.289 1380.6 419.168 1380.79 419.047C1380.94 418.955 1381.08 418.868 1381.21 418.776C1381.34 418.69 1381.47 418.601 1381.6 418.514C1381.76 418.403 1381.91 418.296 1382.06 418.185C1382.21 418.078 1382.35 417.976 1382.48 417.87C1382.65 417.739 1382.82 417.608 1382.98 417.482C1383.1 417.385 1383.22 417.289 1383.33 417.192C1383.45 417.1 1383.56 417.003 1383.67 416.901C1385.03 415.733 1386.12 414.516 1387 413.328C1387.84 412.197 1388.48 411.087 1388.98 410.053C1389.04 409.922 1389.1 409.797 1389.16 409.665C1389.21 409.539 1389.27 409.413 1389.32 409.287C1389.49 408.908 1389.62 408.549 1389.75 408.204C1389.79 408.088 1389.82 407.977 1389.86 407.865C1389.9 407.753 1389.94 407.641 1389.97 407.535C1390 407.428 1390.03 407.321 1390.07 407.219C1390.13 407.01 1390.18 406.812 1390.23 406.622C1390.24 406.588 1390.25 406.554 1390.26 406.52C1390.26 406.515 1390.26 406.516 1390.26 406.51C1393.56 406.648 1396.86 406.79 1399.55 406.906Z" fill="#495BF1"/>
<g opacity="0.68">
<path d="M1479.86 418.897L1477.58 451.723C1450.73 470.44 1421.45 466.196 1398.87 458.554C1390.78 455.815 1383.56 452.64 1377.61 449.929C1373.17 447.905 1368.8 445.318 1364.63 442.455C1363.43 441.632 1362.24 440.78 1361.07 439.914C1357.96 437.611 1355 435.197 1352.24 432.802C1345.71 427.128 1340.36 421.581 1337.05 417.967C1340.71 415.924 1343.6 414.302 1345.16 413.426L1345.17 413.412C1345.37 413.3 1345.55 413.203 1345.71 413.116C1345.71 413.111 1345.71 413.111 1345.72 413.111C1347.46 411.667 1349.22 410.471 1350.97 409.484C1358.47 405.267 1365.77 404.868 1370.28 405.192C1373.13 405.396 1374.88 405.885 1374.88 405.885C1374.88 405.885 1390.59 406.516 1399.55 406.906C1402.37 407.028 1404.53 407.123 1405.3 407.174C1415.71 406.337 1419.13 399.764 1420.02 397.419C1420.22 396.9 1420.29 396.59 1420.29 396.59C1423.87 397.892 1427.65 398.658 1431.15 399.096C1437.52 399.895 1442.95 399.618 1444.51 399.509C1444.8 399.49 1444.97 399.476 1444.97 399.476C1444.82 401.228 1446.38 404.927 1446.22 404.864C1448.25 408.374 1451.03 411.021 1454.13 413.004C1465.03 420.012 1479.86 418.897 1479.86 418.897Z" fill="#322D8B"/>
</g>
<g style="mix-blend-mode:multiply">
<path d="M1395.23 560.662L1421.55 461.917C1421.55 461.917 1433.41 429.182 1432.04 399.201" stroke="#262682" stroke-width="0.890967" stroke-miterlimit="10"/>
<path d="M1417.25 401.837L1431.34 418.537L1446.69 407.627" stroke="#262682" stroke-width="0.890967" stroke-miterlimit="10"/>
<path d="M1408.08 406.788L1427.68 442.415L1452.95 419.009" stroke="#262682" stroke-width="0.890967" stroke-miterlimit="10"/>
<path d="M1384.07 414.809L1422.11 460.311L1473.92 442.808" stroke="#262682" stroke-width="0.890967" stroke-miterlimit="10"/>
<path d="M1373.06 422.275L1413.11 493.595L1478.63 454.377" stroke="#262682" stroke-width="0.890967" stroke-miterlimit="10"/>
<path d="M1367.75 423.876L1407.54 514.49L1473.49 470.553" stroke="#262682" stroke-width="0.890967" stroke-miterlimit="10"/>
<path d="M1362.27 450.993L1405.45 522.325L1451.94 503.818" stroke="#262682" stroke-width="0.890967" stroke-miterlimit="10"/>
</g>
<g opacity="0.39">
<path d="M1459.97 554.153C1446.77 559.792 1432.24 562.903 1416.99 562.875C1413.29 562.869 1409.65 562.678 1406.06 562.312C1411.2 558.937 1419.25 552.589 1428.04 541.692C1438.66 528.536 1449.41 523.898 1454.75 522.32C1459.77 538.424 1460.15 549.326 1459.97 554.153Z" fill="#1A1B63"/>
</g>
<g opacity="0.57">
<path d="M1408.98 550.613C1422.24 555.454 1432.66 558.475 1440.74 560.32C1433.09 562.006 1425.14 562.89 1416.99 562.875C1413.3 562.869 1409.65 562.678 1406.06 562.312C1379.78 559.651 1356.27 547.656 1338.88 529.699C1345.5 515.481 1354.77 508.141 1361.33 503.311C1365.25 515.246 1376.85 538.889 1408.98 550.613Z" fill="#946DE0"/>
</g>
<path d="M1361.94 458.525C1361.91 458.812 1361.89 459.098 1361.85 459.385L1361.85 459.389C1361.84 459.521 1361.82 459.647 1361.81 459.778C1361.81 459.72 1360.6 460.703 1358.33 462.476L1358.33 462.481C1356.14 464.182 1352.97 466.619 1348.94 469.56C1336.62 478.541 1316.3 492.233 1291.51 504.285C1291.51 504.412 1265.02 515.053 1251.41 520.516C1246.7 522.401 1243.54 523.668 1243.54 523.668C1243.54 523.668 1224.99 532.08 1210.92 524.653C1206.38 522.26 1202.3 518.211 1199.46 511.698C1199.32 511.373 1199.18 511.043 1199.04 510.703C1199.01 510.639 1198.99 510.576 1198.97 510.513C1197.01 505.566 1195.75 500.158 1195.05 494.532C1194.31 488.65 1194.18 482.536 1194.49 476.471C1195.5 456.731 1201.19 437.509 1205.95 428.606C1206.3 427.956 1206.64 427.365 1206.98 426.826C1208.64 427.864 1210.63 428.949 1212.92 429.93C1221.05 433.421 1232.96 435.624 1247.41 429.784C1248.24 429.451 1249.07 429.088 1249.92 428.701C1249.92 430.051 1249.92 431.425 1249.95 432.829C1249.97 435.242 1250.03 437.749 1250.12 440.386C1250.19 442.256 1250.25 444.038 1250.31 445.733C1250.54 452.125 1250.72 457.195 1250.84 460.566C1250.94 463.606 1251 465.262 1251 465.262C1251 465.262 1251.45 465.783 1252.79 464.834C1253.04 464.659 1253.32 464.431 1253.63 464.141C1254.7 463.152 1263.16 458.102 1272.61 452.743C1280.9 448.052 1289.95 443.11 1295.47 440.469C1302.83 436.932 1320.87 426.99 1333.38 420.019C1334.67 419.298 1335.9 418.611 1337.05 417.967C1340.71 415.924 1343.6 414.302 1345.16 413.426L1345.17 413.412C1345.37 413.3 1345.55 413.203 1345.71 413.116C1345.71 413.111 1345.71 413.111 1345.72 413.111C1346.18 412.845 1346.44 412.705 1346.44 412.705C1346.44 412.705 1351.12 416.603 1355.39 424.357C1357.65 428.466 1359.8 433.651 1361.07 439.914C1361.72 443.091 1362.14 446.545 1362.24 450.275C1362.31 452.892 1362.22 455.641 1361.94 458.525Z" fill="#3F4AC0"/>
<path d="M1333.38 420.019C1315.79 443.352 1276.85 494.085 1251.41 520.516C1246.7 522.401 1243.54 523.668 1243.54 523.668C1243.54 523.668 1224.99 532.08 1210.92 524.653L1250.84 460.566C1250.94 463.606 1251 465.262 1251 465.262C1251 465.262 1251.45 465.783 1252.79 464.834C1253.04 464.659 1253.32 464.431 1253.63 464.141C1254.7 463.152 1263.16 458.102 1272.61 452.743C1280.9 448.052 1289.95 443.11 1295.47 440.469C1302.83 436.932 1320.87 426.99 1333.38 420.019Z" fill="#504FCF"/>
<path d="M1247.41 429.784C1241.08 439.005 1211.71 482.325 1199.04 510.703C1199.01 510.639 1198.99 510.576 1198.97 510.513C1194.97 500.394 1193.88 488.339 1194.49 476.471C1195.5 456.731 1201.19 437.509 1205.95 428.606C1206.3 427.956 1206.64 427.365 1206.98 426.826C1208.64 427.863 1210.63 428.949 1212.92 429.93C1221.05 433.421 1232.96 435.624 1247.41 429.784Z" fill="#504FCF"/>
<g opacity="0.57">
<path d="M1206.45 485.933C1200.79 484.699 1196.75 479.942 1194.49 476.471C1195.5 456.731 1201.19 437.509 1205.95 428.606C1206.3 427.956 1206.64 427.365 1206.98 426.826C1208.64 427.863 1210.63 428.949 1212.92 429.93L1214.34 471.738C1214.34 471.738 1215.64 487.941 1206.45 485.933Z" fill="#946DE0"/>
</g>
<g opacity="0.6">
<path d="M1361.94 458.525C1361.9 458.938 1361.86 459.356 1361.81 459.778C1361.81 459.497 1332.86 484.178 1291.51 504.286C1291.7 504.378 1243.54 523.668 1243.54 523.668C1243.54 523.668 1210.29 538.75 1199.04 510.703C1199.01 510.639 1198.99 510.576 1198.97 510.513C1197.01 505.566 1195.75 500.158 1195.05 494.533C1201.74 496.803 1214.03 499.278 1235.44 498.924C1274.04 498.28 1288.67 502.717 1320.26 484.436C1351.85 466.161 1361.44 454.945 1361.44 454.945L1361.94 458.525Z" fill="#363FA6"/>
</g>
<g opacity="0.57">
<path d="M1355.39 424.358C1351.2 430.139 1335.54 448.43 1297.56 461.371C1269.03 471.415 1263.51 462.449 1272.61 452.743C1280.9 448.052 1289.95 443.111 1295.47 440.469C1307.27 434.803 1346.44 412.705 1346.44 412.705C1346.44 412.705 1351.12 416.603 1355.39 424.358Z" fill="#946DE0"/>
</g>
<path d="M1390.63 404.301C1390.63 404.301 1390.63 404.359 1390.61 404.476L1390.61 404.505C1390.61 404.563 1390.6 404.632 1390.59 404.709C1390.59 404.729 1390.59 404.749 1390.58 404.772C1390.58 404.845 1390.57 404.923 1390.55 405.01C1390.53 405.179 1390.5 405.379 1390.45 405.603C1390.44 405.675 1390.42 405.753 1390.41 405.836C1390.4 405.913 1390.38 405.996 1390.36 406.083C1390.34 406.166 1390.32 406.253 1390.3 406.345C1390.29 406.393 1390.27 406.452 1390.26 406.51C1390.26 406.515 1390.26 406.515 1390.26 406.52C1390.25 406.554 1390.24 406.588 1390.23 406.622C1390.18 406.811 1390.13 407.01 1390.07 407.219C1390.03 407.321 1390 407.428 1389.97 407.535C1389.93 407.641 1389.9 407.753 1389.86 407.865C1389.82 407.977 1389.78 408.087 1389.75 408.204C1389.62 408.549 1389.49 408.908 1389.32 409.286C1389.27 409.413 1389.21 409.539 1389.15 409.665C1389.1 409.796 1389.04 409.922 1388.97 410.053C1388.48 411.086 1387.84 412.197 1387 413.327C1386.12 414.515 1385.03 415.733 1383.67 416.901C1383.56 417.003 1383.45 417.1 1383.33 417.192C1383.22 417.289 1383.1 417.385 1382.98 417.482C1382.82 417.608 1382.65 417.738 1382.48 417.87C1382.35 417.976 1382.2 418.078 1382.06 418.185C1381.91 418.296 1381.76 418.403 1381.6 418.514C1381.47 418.601 1381.34 418.689 1381.21 418.776C1381.08 418.868 1380.93 418.955 1380.79 419.047C1380.6 419.168 1380.41 419.289 1380.22 419.41C1380.07 419.493 1379.93 419.579 1379.79 419.662C1379.64 419.749 1379.49 419.836 1379.33 419.923C1379.17 420.015 1379 420.107 1378.82 420.204C1378.63 420.306 1378.43 420.408 1378.23 420.509C1378.05 420.601 1377.87 420.689 1377.68 420.775C1377.5 420.867 1377.31 420.955 1377.11 421.041C1377.08 421.056 1377.05 421.075 1377.01 421.085C1376.82 421.177 1376.63 421.264 1376.43 421.341C1376.23 421.433 1376.03 421.515 1375.82 421.597C1375.64 421.674 1375.45 421.748 1375.26 421.82C1374.23 422.221 1373.13 422.588 1371.95 422.926C1371.64 423.012 1371.33 423.099 1371.01 423.182C1370.68 423.264 1370.35 423.345 1370.02 423.427C1369.75 423.49 1369.47 423.553 1369.19 423.61C1368.1 423.851 1366.95 424.063 1365.74 424.241C1365.72 424.241 1365.69 424.245 1365.67 424.25C1365.29 424.303 1364.92 424.355 1364.55 424.403C1363.78 424.504 1363.02 424.59 1362.28 424.657C1361.7 424.709 1361.13 424.751 1360.58 424.784C1360.35 424.798 1360.12 424.813 1359.9 424.822C1359.66 424.836 1359.42 424.845 1359.18 424.85C1358.88 424.864 1358.58 424.873 1358.29 424.877C1357.26 424.895 1356.27 424.883 1355.33 424.838C1352.08 424.691 1349.33 424.196 1347.01 423.502C1338.1 420.844 1335.55 415.288 1335.55 415.288C1335.55 415.288 1342.55 410.94 1350.27 407.239C1353.59 405.642 1357.05 404.163 1360.13 403.206C1360.58 403.066 1361.05 402.941 1361.54 402.83C1361.74 402.782 1361.94 402.739 1362.15 402.7C1362.32 402.661 1362.49 402.628 1362.66 402.599C1362.86 402.56 1363.06 402.526 1363.26 402.498C1363.47 402.464 1363.68 402.43 1363.89 402.407C1364.27 402.349 1364.65 402.307 1365.04 402.268C1365.23 402.244 1365.43 402.225 1365.62 402.211C1365.77 402.197 1365.92 402.182 1366.07 402.173C1366.29 402.153 1366.53 402.139 1366.76 402.125C1368.57 402.017 1370.46 402.007 1372.35 402.068C1373.62 402.11 1374.9 402.184 1376.14 402.279C1383.84 402.871 1390.63 404.301 1390.63 404.301Z" fill="#FFC34D"/>
<path d="M1387 413.327C1383.74 417.751 1377.52 422.504 1365.74 424.241C1365.72 424.24 1365.69 424.245 1365.67 424.25C1357.53 425.439 1351.47 424.837 1347.01 423.502C1349.9 419.666 1356.16 413.121 1365.76 412.24C1374.75 411.416 1382.64 412.489 1387 413.327Z" fill="#FFAD47"/>
<g opacity="0.75">
<path d="M1390.63 404.301C1390.63 404.301 1390.63 404.359 1390.61 404.476L1390.61 404.505C1390.61 404.559 1390.6 404.632 1390.59 404.709C1390.59 404.729 1390.59 404.749 1390.58 404.772C1390.58 404.845 1390.57 404.923 1390.55 405.01C1390.53 405.179 1390.5 405.379 1390.45 405.603C1390.44 405.675 1390.42 405.753 1390.41 405.836C1390.4 405.913 1390.38 405.996 1390.36 406.083C1390.34 406.166 1390.32 406.253 1390.3 406.345C1390.28 406.403 1390.27 406.457 1390.25 406.52C1390.25 406.554 1390.24 406.588 1390.23 406.622C1390.18 406.811 1390.13 407.01 1390.07 407.219C1390.03 407.321 1390 407.428 1389.97 407.535C1389.93 407.641 1389.9 407.753 1389.86 407.865C1389.82 407.977 1389.78 408.087 1389.75 408.204C1389.62 408.549 1389.48 408.913 1389.32 409.286C1389.27 409.413 1389.21 409.539 1389.15 409.665C1389.1 409.796 1389.04 409.922 1388.97 410.053C1388.48 411.087 1387.84 412.197 1387 413.327C1386.12 414.515 1385.03 415.733 1383.67 416.901C1383.56 417.003 1383.45 417.1 1383.33 417.192C1383.22 417.289 1383.1 417.385 1382.98 417.482C1382.82 417.608 1382.65 417.739 1382.48 417.87C1382.35 417.976 1382.2 418.078 1382.06 418.185C1381.91 418.296 1381.76 418.403 1381.6 418.514C1381.47 418.601 1381.34 418.689 1381.21 418.776C1381.08 418.868 1380.93 418.955 1380.79 419.047C1380.6 419.168 1380.41 419.289 1380.22 419.41C1380.07 419.493 1379.93 419.579 1379.79 419.662C1379.64 419.749 1379.49 419.836 1379.33 419.923C1379.17 420.015 1379 420.107 1378.82 420.204C1378.63 420.306 1378.43 420.408 1378.23 420.509C1378.05 420.601 1377.87 420.689 1377.68 420.775C1377.5 420.867 1377.31 420.955 1377.11 421.041C1377.08 421.056 1377.05 421.075 1377.01 421.085C1376.82 421.177 1376.63 421.264 1376.43 421.341C1376.23 421.433 1376.03 421.515 1375.82 421.597C1375.64 421.674 1375.45 421.748 1375.26 421.82C1374.23 422.221 1373.13 422.588 1371.95 422.926C1371.64 423.012 1371.33 423.099 1371.01 423.182C1370.68 423.264 1370.35 423.345 1370.02 423.427C1369.75 423.49 1369.47 423.553 1369.19 423.61C1368.1 423.851 1366.95 424.063 1365.74 424.241C1369.82 420.149 1372.33 415.831 1373.85 411.964C1374.73 409.76 1375.28 407.707 1375.64 405.92C1375.91 404.517 1376.06 403.284 1376.14 402.279C1383.84 402.871 1390.63 404.301 1390.63 404.301Z" fill="#FFB34D"/>
</g>
<path d="M1214.84 329.166L1211.88 338.64L1201.66 333.833L1199.49 331.26L1194.33 325.151L1194.42 321.125L1194.71 307.571C1194.71 307.299 1194.81 307.067 1194.98 306.892C1195.3 306.539 1195.84 306.413 1196.31 306.681C1202.62 310.358 1200.97 320.128 1200.97 320.327C1200.97 320.332 1200.97 320.331 1200.97 320.331C1201.11 320.7 1203.28 323.609 1203.29 323.609C1204.82 325.229 1214.84 329.166 1214.84 329.166Z" fill="#FEAB83"/>
<path d="M1199.24 333.547L1192.19 331.684L1187.13 326.323L1181.4 320.246L1181.57 313.982L1181.96 299.617L1181.98 299.005C1181.99 298.408 1182.64 298.045 1183.16 298.337C1185.05 299.414 1186.45 301.092 1187.48 303.022C1189.32 306.459 1189.99 310.694 1190.23 313.731C1190.41 316.072 1190.34 317.703 1190.34 317.703L1196.78 323.101L1196.8 323.116L1196.82 323.209L1198.61 330.875L1199.24 333.547Z" fill="#FEAB83"/>
<path d="M1185.23 329.399L1172.36 316.535L1171.81 313.872L1171.29 311.312L1171.29 311.307L1168.06 295.575L1167.94 294.978C1167.83 294.449 1168.3 294.012 1168.81 294.125C1168.84 294.13 1168.86 294.136 1168.89 294.145C1170.05 294.526 1171.89 295.457 1173.61 297.699C1174.57 298.949 1175.48 300.606 1176.22 302.803C1177.47 306.52 1178.08 308.706 1178.37 309.989C1178.45 310.382 1178.51 310.693 1178.55 310.936L1178.55 310.942C1178.67 311.729 1178.58 311.806 1178.58 311.806L1183.54 316.983L1184.55 324.41L1185.23 329.399Z" fill="#FEAB83"/>
<path d="M1248.17 368.603C1245.01 370.04 1241.83 370.724 1238.89 370.962C1236.21 371.18 1233.72 371.025 1231.62 370.73C1230.19 370.528 1228.93 370.263 1227.91 370.004C1226.08 369.539 1225 369.095 1225 369.081C1224.98 368.391 1224.94 367.707 1224.84 367.026C1224.2 362.407 1221.48 357.948 1214.8 351.865C1213.17 350.386 1211.3 348.901 1209.37 347.475C1202.2 342.197 1194.12 337.802 1194.12 337.802L1190.15 335.624L1174.14 326.819C1174.14 326.819 1154.09 303.757 1152.48 302.332C1151.92 301.831 1151.76 301.329 1151.79 300.898C1151.83 300.111 1152.49 299.534 1152.49 299.534C1154.74 299.674 1156.78 300.101 1158.61 300.74C1164.37 302.718 1168.13 306.688 1170.34 309.858C1170.7 310.364 1171.01 310.85 1171.29 311.307C1171.64 311.891 1171.94 312.415 1172.17 312.867C1172.7 313.874 1172.93 314.5 1172.93 314.5L1198.12 323.876C1198.12 323.876 1205.9 326.205 1214.85 329.135C1215.68 329.406 1216.51 329.683 1217.36 329.963C1224.45 332.322 1231.9 334.953 1236.57 337.03C1241.09 339.049 1243.87 344.57 1245.57 350.445C1246.06 352.15 1246.47 353.89 1246.79 355.576C1247.64 359.949 1247.98 364.004 1248.11 366.389C1248.18 367.778 1248.19 368.604 1248.17 368.603Z" fill="#FEAB83"/>
<path d="M1227.91 370.004C1226.08 369.539 1225 369.095 1225 369.081C1224.98 368.391 1224.94 367.707 1224.84 367.027C1224.2 362.407 1221.48 357.948 1214.8 351.865C1213.17 350.386 1211.3 348.901 1209.37 347.475C1202.19 342.197 1194.12 337.802 1194.12 337.802L1190.15 335.624L1212.35 343.187C1212.35 343.187 1227.03 346.439 1229.72 353.597C1231.91 359.439 1231.04 365.654 1227.91 370.004Z" fill="#FE9F7D"/>
<path d="M1245.57 350.445C1244.16 345.571 1242.01 340.935 1238.73 338.35C1238.06 337.819 1237.34 337.371 1236.57 337.03C1231.9 334.953 1224.45 332.322 1217.36 329.963C1212.51 326.714 1210.66 323.875 1210.08 321.751C1209.8 320.755 1209.81 319.915 1209.92 319.264C1210.08 318.269 1210.48 317.716 1210.48 317.716C1210.86 318.101 1223.45 323.834 1229.19 326.438C1231.35 327.418 1233.35 328.71 1235.1 330.311C1235.57 330.739 1235.93 331.108 1236.02 331.293C1236.03 331.307 1236.03 331.322 1236.04 331.336C1244.7 339.55 1245.77 346.745 1245.57 350.445Z" fill="#FEAB83"/>
<path d="M1183.85 330.722L1168.74 318.281L1158.61 300.74C1164.37 302.718 1168.13 306.688 1170.34 309.858C1170.7 310.364 1171.01 310.85 1171.29 311.307L1172.36 316.535L1183.85 330.722Z" fill="#FB856D"/>
<path d="M1187.13 326.323L1184.55 324.41L1180.07 321.099L1175.12 312.373C1172.72 306.132 1173.31 299.796 1173.61 297.699C1174.57 298.949 1175.48 300.606 1176.22 302.803C1177.47 306.52 1178.08 308.707 1178.36 309.989L1178.58 311.806L1181.55 314.905L1181.4 320.247L1187.13 326.323Z" fill="#FB856D"/>
<path d="M1199.49 331.26C1199.29 331.182 1198.99 331.06 1198.61 330.875C1197.19 330.177 1194.63 328.643 1192.05 325.715C1188.17 321.303 1186.95 316.28 1186.95 316.28L1187.48 303.022C1189.32 306.459 1190 310.694 1190.23 313.731C1190.41 316.072 1190.34 317.703 1190.34 317.703L1194.42 321.125L1194.33 325.151L1199.49 331.26Z" fill="#FB856D"/>
<path d="M1245.57 350.445C1244.16 345.571 1242.01 340.935 1238.73 338.35C1238.06 337.819 1237.34 337.371 1236.57 337.03C1231.9 334.953 1224.45 332.322 1217.36 329.963C1212.5 326.714 1210.66 323.875 1210.08 321.751C1212.27 322.97 1216.24 324.905 1221.52 326.386C1226.23 327.705 1231.55 329.386 1236.02 331.293C1236.03 331.308 1236.03 331.322 1236.04 331.337C1244.7 339.55 1245.77 346.745 1245.57 350.445Z" fill="#FB856D"/>
<path d="M1250.57 399.213C1250.35 410.232 1249.93 418.915 1249.92 428.701C1244.99 430.97 1240.33 432.297 1235.99 432.935C1229.92 433.822 1224.49 433.356 1219.81 432.225C1214.48 430.943 1210.14 428.799 1206.98 426.826C1207.01 426.772 1207.04 426.714 1207.08 426.661C1207.13 426.661 1208.25 423.317 1209.85 418.614C1211.17 414.726 1212.83 409.907 1214.49 405.282C1216.05 400.909 1217.62 396.7 1218.92 393.614C1219.12 393.129 1219.32 392.668 1219.51 392.241C1222.26 386.03 1223.68 379.651 1224.38 374.781C1224.63 373.116 1224.78 371.63 1224.88 370.387C1224.93 369.717 1224.96 369.124 1224.98 368.605C1224.98 368.605 1231.85 371.511 1242.44 369.763C1244.49 369.427 1246.67 368.916 1248.98 368.177C1248.98 368.177 1249.13 369.484 1249.35 371.704C1249.75 375.842 1250.37 383.143 1250.56 391.094C1250.61 393.755 1250.63 396.493 1250.57 399.213Z" fill="#FFC34E"/>
<path d="M1250.57 399.213C1250.35 410.232 1249.93 418.915 1249.92 428.701C1244.99 430.97 1240.33 432.297 1235.99 432.935C1229.92 433.822 1224.49 433.356 1219.81 432.225C1227.03 424.04 1241.58 403.446 1242.44 369.763C1244.49 369.427 1246.67 368.916 1248.98 368.177C1248.98 368.177 1249.13 369.484 1249.35 371.704C1249.75 375.842 1250.37 383.143 1250.56 391.094C1250.61 393.755 1250.63 396.493 1250.57 399.213Z" fill="#FFAD47"/>
<g opacity="0.56">
<path d="M1250.57 399.213C1250.35 410.232 1249.93 418.915 1249.92 428.701C1230.18 437.776 1214.89 431.76 1206.98 426.826C1207.01 426.772 1207.04 426.714 1207.08 426.661C1207.13 426.661 1208.25 423.317 1209.85 418.614C1225.78 404.214 1245.58 393.644 1250.56 391.094C1250.61 393.755 1250.63 396.493 1250.57 399.213Z" fill="#FEA041"/>
</g>
<path d="M1469.21 478.497L1464.99 475.89C1465.14 475.959 1466.77 476.962 1469.21 478.497Z" fill="#FFC34E"/>
<path d="M1508.87 519.17C1506.78 524.202 1503.26 529.834 1497.36 534.801L1497.35 534.801C1494.04 537.588 1489.98 540.158 1484.99 542.301C1484.72 542.042 1484.46 541.79 1484.19 541.537C1478.79 536.462 1468.83 522.375 1460.97 510.758C1456.88 504.699 1453.36 499.317 1451.36 496.229C1450.24 494.498 1449.59 493.487 1449.59 493.487C1449.59 493.487 1449.67 493.434 1449.81 493.327C1450.41 492.862 1452.27 491.428 1454.48 489.479C1457.56 486.761 1461.35 483.037 1463.46 479.545C1464.22 478.273 1464.77 477.037 1464.98 475.886C1464.98 475.891 1464.99 475.89 1464.99 475.89L1465.85 476.421L1469.21 478.497L1469.74 478.828L1470.15 479.086L1477.88 483.859L1484.19 487.756L1496.43 495.311L1505.49 500.903L1511.92 504.877C1511.92 504.877 1512.15 511.279 1508.87 519.17Z" fill="#FEAE47"/>
<path d="M1508.87 519.17C1500.35 515.239 1480.62 506.039 1470.55 500.489C1462.56 496.085 1457.34 491.995 1454.48 489.479C1457.57 486.76 1461.35 483.037 1463.46 479.544C1464.22 478.273 1464.77 477.037 1464.98 475.886L1464.99 475.89L1465.85 476.421L1469.21 478.497L1469.74 478.828L1470.15 479.086L1477.88 483.859L1496.43 495.311L1511.92 504.877C1511.92 504.877 1512.15 511.279 1508.87 519.17Z" fill="#FFC34E"/>
<path d="M1465.85 476.421C1465.15 478.571 1461.27 489.152 1451.36 496.229C1450.24 494.498 1449.59 493.487 1449.59 493.487C1449.59 493.487 1463.69 482.994 1464.98 475.886L1464.99 475.89L1465.85 476.421Z" fill="#FE9C44"/>
<path d="M1508.87 519.17C1505.61 527.021 1498.87 536.348 1484.99 542.301C1484.72 542.042 1484.46 541.79 1484.19 541.537C1478.79 536.462 1468.83 522.375 1460.97 510.758C1468.99 510.287 1489.97 508.363 1505.49 500.903L1511.92 504.877C1511.92 504.877 1512.15 511.279 1508.87 519.17Z" fill="#FE9E42" fill-opacity="0.29"/>
<path d="M1511.87 506.664C1511.71 509.102 1511.11 513.788 1508.87 519.17C1506.78 524.202 1503.26 529.834 1497.36 534.801L1497.35 534.801C1489.47 521.98 1492.55 516.036 1494.41 510.765C1496.41 505.082 1490.8 498.535 1490.8 498.535L1484.19 487.756L1496.43 495.311L1499.99 497.507L1505.49 500.903L1511.92 504.877C1511.92 504.877 1511.95 505.523 1511.87 506.664Z" fill="#FFCA66"/>
<path d="M1444.25 499.266C1444.25 499.266 1443.95 499.999 1443.2 500.304C1442.81 500.463 1442.3 500.505 1441.65 500.256C1441.63 500.247 1440.46 497.375 1438.57 492.684C1438.1 491.528 1437.59 490.264 1437.04 488.903C1436.7 488.063 1436.34 487.183 1435.98 486.274C1435.62 485.38 1435.25 484.456 1434.86 483.508C1434.04 481.458 1433.16 479.281 1432.25 477.011C1429.22 469.493 1425.78 460.963 1422.46 452.711C1422.13 451.87 1421.79 451.033 1421.46 450.202C1420.86 448.705 1420.26 447.224 1419.67 445.766C1419.36 444.983 1419.05 444.205 1418.74 443.438C1418.21 442.126 1417.69 440.833 1417.18 439.569C1417.16 439.496 1417.13 439.428 1417.1 439.355C1415.77 436.046 1414.52 432.93 1413.38 430.116C1410.33 422.525 1408.16 417.13 1407.74 416.065C1407.68 415.934 1407.66 415.798 1407.66 415.662L1407.67 412.399C1407.67 412.316 1407.69 412.248 1407.73 412.19C1407.85 411.996 1408.14 411.943 1408.32 412.138L1410.74 414.706C1410.83 414.804 1410.91 414.92 1410.96 415.051L1418 432.859L1420.19 438.399L1421.14 440.8L1423.24 446.107L1424.1 448.294L1425.21 451.093L1425.87 452.78L1435.58 477.323L1438.73 485.308L1439.81 488.039L1440.36 489.42L1440.4 489.531L1444.25 499.266Z" fill="#5CFF85"/>
<path d="M1424.1 448.294C1423.98 448.4 1423.76 448.395 1423.38 448.166C1423.12 448.011 1422.79 447.801 1422.44 447.572L1419.2 439.359L1410.28 415.424C1410.28 415.424 1408.96 413.61 1408.53 412.862C1408.25 412.37 1407.92 412.23 1407.73 412.19C1407.85 411.996 1408.14 411.943 1408.32 412.138L1410.74 414.706C1410.83 414.804 1410.91 414.92 1410.96 415.052L1420.19 438.399C1419.8 440.55 1420.48 443.047 1421.57 444.147C1422.14 444.716 1422.75 445.469 1423.24 446.107L1424.1 448.294Z" fill="#00AF60"/>
<path d="M1444.25 499.266C1444.25 499.266 1443.95 499.999 1443.2 500.304L1436.96 484.46C1437.47 484.694 1438.07 484.981 1438.73 485.308L1444.25 499.266Z" fill="#00AF60"/>
<path d="M1464.98 475.886C1464.9 476.308 1464.77 476.74 1464.61 477.187C1464.61 477.187 1464.61 477.191 1464.61 477.196C1464.33 477.954 1463.94 478.744 1463.46 479.544C1462.57 481.01 1461.4 482.512 1460.1 483.962C1460.1 483.962 1460.09 483.968 1460.09 483.973C1459.1 485.083 1458.05 486.159 1456.99 487.167L1456.95 487.216C1456.1 488.021 1455.27 488.781 1454.48 489.479C1452.27 491.427 1450.41 492.862 1449.81 493.327C1449.55 492.996 1448.91 492.306 1447.34 490.924C1447 490.622 1446.62 490.291 1446.19 489.925C1444.06 488.115 1441.05 486.453 1438.73 485.308C1438.07 484.981 1437.47 484.693 1436.96 484.46C1435.94 483.992 1435.29 483.723 1435.29 483.723C1435.29 483.723 1435.14 483.645 1434.87 483.508C1433.04 482.592 1425.81 478.965 1423.64 478.122C1421.16 477.16 1416.51 473.845 1415.41 472.706C1414.94 472.215 1414.53 471.102 1414.24 469.995C1413.83 468.537 1413.61 467.089 1413.61 467.089C1413.61 467.089 1413.21 466.758 1412.71 466.301C1412.1 465.741 1411.33 464.992 1410.98 464.428C1410.68 463.947 1410.66 462.911 1410.73 461.946C1410.8 460.843 1410.99 459.834 1410.99 459.834C1410.99 459.834 1410.82 459.406 1409.39 458.481C1408.74 458.057 1408.29 457.537 1407.99 457.099C1407.63 456.574 1407.48 456.165 1407.48 456.165C1407.48 456.165 1407.48 455.485 1407.47 454.606C1407.47 453.528 1407.45 452.153 1407.42 451.406C1407.4 451.012 1407.54 450.639 1407.76 450.304C1408.28 449.494 1409.24 448.923 1409.24 448.923C1409.24 448.923 1409.23 448.918 1409.22 448.913C1409.09 448.815 1407.98 447.993 1407.24 446.846C1406.68 445.96 1406.34 444.887 1406.83 443.8C1407.76 441.742 1409.3 440.939 1409.89 440.697C1410.04 440.634 1410.14 440.61 1410.14 440.61L1415.82 439.586L1417.1 439.355C1417.38 440.06 1417.67 440.774 1417.96 441.498C1418.07 441.76 1418.17 442.028 1418.28 442.296C1418.43 442.675 1418.59 443.053 1418.74 443.438L1419.48 445.634C1419.48 445.634 1419.55 445.683 1419.68 445.766C1420.15 446.082 1421.42 446.919 1422.44 447.572C1422.79 447.801 1423.12 448.01 1423.38 448.166C1423.76 448.395 1423.98 448.4 1424.1 448.294C1424.36 448.085 1424.2 447.42 1424.2 447.42C1424.2 447.42 1423.8 446.837 1423.24 446.107C1422.75 445.469 1422.14 444.716 1421.57 444.147C1420.48 443.047 1419.8 440.55 1420.19 438.399C1420.23 438.176 1420.28 437.958 1420.34 437.749C1420.44 437.414 1420.58 437.147 1420.73 436.929C1420.83 436.788 1420.94 436.671 1421.06 436.574C1421.98 435.799 1423.26 436.224 1423.26 436.224L1429.9 441.175C1429.9 441.175 1438.3 448.514 1443.09 451.184C1447.89 453.859 1449.94 457.345 1449.94 457.345C1449.94 457.345 1450.47 458.24 1451.35 459.664C1452.45 461.463 1454.11 464.103 1455.97 466.846C1459.23 471.655 1464.75 475.721 1464.98 475.886Z" fill="#FEAB83"/>
<path d="M1460.1 483.962C1460.1 483.962 1460.09 483.967 1460.09 483.973C1459.96 484.104 1458.71 485.393 1456.99 487.167L1456.94 487.216C1456.1 488.021 1455.27 488.781 1454.48 489.479C1452.27 491.427 1450.41 492.862 1449.8 493.327C1449.49 492.923 1448.62 491.994 1446.19 489.925C1444.06 488.115 1441.05 486.453 1438.73 485.308C1438.07 484.981 1437.47 484.693 1436.96 484.459C1435.94 483.992 1435.29 483.723 1435.29 483.723C1435.29 483.723 1435.14 483.645 1434.86 483.508C1433.04 482.592 1425.81 478.965 1423.64 478.122C1421.16 477.16 1416.51 473.845 1415.41 472.706C1414.94 472.215 1414.53 471.102 1414.23 469.994C1413.83 468.537 1413.61 467.089 1413.61 467.089C1413.61 467.089 1411.62 465.449 1410.98 464.428C1410.68 463.947 1410.66 462.911 1410.73 461.945C1410.8 460.843 1410.99 459.834 1410.99 459.834C1410.99 459.834 1410.81 459.406 1409.39 458.481C1408.74 458.057 1408.29 457.536 1407.99 457.099C1408.7 457.013 1410.18 456.889 1410.95 457.313C1411.99 457.883 1420.35 470.831 1427.8 475.322C1435.26 479.814 1449.61 489.897 1460.1 483.962Z" fill="#F8997F"/>
<path d="M1424.31 442.515C1422.37 440.156 1421.45 437.833 1421.06 436.574C1420.76 436.817 1420.5 437.196 1420.34 437.749C1420.27 437.958 1420.23 438.176 1420.19 438.399C1419.79 440.55 1420.48 443.047 1421.57 444.147C1422.14 444.716 1422.75 445.469 1423.24 446.107C1423.79 446.837 1424.2 447.42 1424.2 447.42C1424.2 447.42 1424.36 448.085 1424.1 448.294C1423.98 448.4 1423.76 448.395 1423.37 448.166C1423.12 448.011 1422.79 447.801 1422.43 447.572C1421.42 446.919 1420.15 446.082 1419.67 445.766C1419.55 445.683 1419.47 445.634 1419.47 445.634L1418.74 443.438C1418.58 443.054 1418.43 442.676 1418.28 442.296L1418.28 442.296C1418.17 442.028 1418.06 441.76 1417.96 441.498C1417.67 440.774 1417.38 440.06 1417.1 439.355L1415.82 439.586C1416.36 440.097 1416.88 440.811 1416.88 441.651C1413.31 442.294 1415.83 443.729 1420.39 447.132C1425.51 450.944 1431.79 451.985 1431.79 451.985C1431.79 451.985 1427.18 446.002 1424.31 442.515Z" fill="#FB856D"/>
<path d="M1415.72 454.903C1413.68 454.2 1409.73 452.309 1407.76 450.304C1408.28 449.494 1409.24 448.923 1409.24 448.923C1409.24 448.923 1414.45 453.94 1418.6 454.447C1418.68 454.447 1418.1 455.723 1415.72 454.903Z" fill="#FB856D"/>
<path d="M1420.66 464.473C1418.52 464.399 1414.76 463.948 1410.73 461.945C1410.8 460.843 1410.99 459.834 1410.99 459.834C1410.99 459.834 1416.39 463.041 1420.71 464.125C1420.92 464.177 1420.88 464.48 1420.66 464.473Z" fill="#FB856D"/>
<path d="M1422.22 471.265C1420.72 471.299 1417.94 471.111 1414.23 469.995C1413.83 468.537 1413.61 467.089 1413.61 467.089C1413.61 467.089 1418.12 469.984 1422.25 470.911C1422.45 470.958 1422.43 471.261 1422.22 471.265Z" fill="#FB856D"/>
<path d="M1460.1 483.962C1460.1 483.962 1460.09 483.968 1460.09 483.973C1459.1 485.083 1458.04 486.159 1456.99 487.167L1456.95 487.216C1456.1 488.021 1455.27 488.781 1454.48 489.479C1452.27 491.428 1450.41 492.862 1449.8 493.327C1449.55 492.996 1448.91 492.306 1447.34 490.924C1456.17 487.472 1464.34 477.531 1464.61 477.196C1464.33 477.954 1463.94 478.744 1463.46 479.544" fill="#FB856D"/>
<g opacity="0.29724">
<path d="M1196.98 306.676C1196.51 306.402 1195.97 306.522 1195.64 306.871C1196.91 308.016 1199.76 310.96 1200.37 314.63C1201.13 319.187 1201.45 320.293 1201.48 320.376C1201.48 320.177 1203.25 310.429 1196.98 306.676Z" fill="#41EB7A"/>
<path d="M1171.9 311.001C1171.63 310.541 1171.32 310.051 1170.98 309.541C1168.8 306.344 1165.09 302.329 1159.36 300.282C1157.53 299.621 1155.5 299.169 1153.25 299.002C1153.25 299.002 1152.59 299.571 1152.53 300.357C1154.22 300.483 1157.39 300.935 1159.98 302.559C1163.56 304.804 1169.88 309.948 1172.4 313.572L1171.9 311.005L1171.9 311.001Z" fill="#41EB7A"/>
<path d="M1169.71 293.811C1169.18 293.628 1168.64 294.077 1168.75 294.632L1168.87 295.231C1170.52 296.201 1173.23 298.022 1174.89 300.395C1177.31 303.877 1179.05 310.283 1179.17 310.717C1179.02 309.685 1178.51 307.439 1176.94 302.556C1174.96 296.394 1171.51 294.428 1169.71 293.811Z" fill="#41EB7A"/>
<path d="M1183.93 298.175C1183.42 297.876 1182.76 298.231 1182.74 298.829L1182.72 299.44C1184.73 301.663 1189.41 307.362 1190.82 313.652C1190.5 308.908 1189.17 301.23 1183.93 298.175Z" fill="#41EB7A"/>
<path d="M1236.41 331.808C1236.36 331.643 1235.99 331.244 1235.48 330.771C1233.75 329.15 1231.77 327.835 1229.62 326.829C1223.91 324.156 1211.39 318.271 1211.01 317.881C1211.01 317.881 1210.61 318.429 1210.43 319.422C1212.21 320.972 1216.45 322.691 1221.71 325.1C1230.9 329.302 1233.33 329.567 1236.91 334.575C1237.69 335.669 1237.98 337.351 1238.81 338.563C1237.75 337.816 1236.41 337.113 1234.73 336.562C1227.91 334.33 1210.49 327.342 1210.49 327.342C1210.49 327.342 1215.71 330.617 1217.67 331.539C1221.21 333.209 1230.46 336.503 1230.46 336.503C1230.46 336.503 1239.97 340.727 1241.52 343.124C1242.19 344.151 1242.54 343.585 1242.08 342.394C1243.67 344.864 1244.84 347.897 1245.71 351.03C1245.96 347.333 1244.98 340.126 1236.41 331.808Z" fill="#41EB7A"/>
</g>
<mask id="mask5_511_381" style="mask-type:alpha" maskUnits="userSpaceOnUse" x="1442" y="371" width="169" height="179">
<path d="M1610.28 531.513C1599.77 546.136 1590.77 549.544 1578.07 548.937C1563.81 548.287 1554.92 542.644 1544.38 529.557C1540.55 524.824 1536.73 511.859 1534.2 503.601C1531.31 496.056 1523.17 486.09 1508.75 485.705C1489.72 485.197 1480.5 469.536 1479.62 455.491C1478.99 446.892 1473.99 436.964 1464.87 428.19C1456.58 420.188 1448.75 418.611 1444.63 411.268C1437.08 397.593 1452.37 380.819 1452.38 380.746L1477.13 371.534C1479.4 380.091 1482.56 389.538 1491.82 391.521C1506.67 394.707 1529.41 383.269 1537.92 393.141C1548.7 405.992 1526.86 424.6 1536.05 437.075C1544.64 448.727 1581.79 434.702 1594.65 456.349C1609.61 481.534 1586.62 504.401 1587.11 523.516C1587.65 533.409 1599.67 537.389 1610.28 531.513Z" fill="#BB02A5"/>
</mask>
<g mask="url(#mask5_511_381)">
<path d="M1627.65 352.765L1630.96 563.533L1423.6 566.789L1420.29 356.021L1627.65 352.765Z" fill="#BB02A5"/>
<g opacity="0.5">
<path d="M1661.01 503.222C1661.01 503.222 1613.25 571.274 1611.86 573.013C1566.97 628.966 1483.17 498.035 1478.97 495.541C1474.36 492.812 1424.68 420.26 1422.96 418.247C1491.44 424.656 1570.3 407.296 1578.06 401.675C1577.08 405.882 1661.01 503.222 1661.01 503.222Z" fill="#680C5D"/>
</g>
<path d="M1582.06 564.893C1578.91 565.508 1463.32 509.715 1463.31 504.168C1463.31 502.429 1429.55 402.159 1430.03 400.31C1431.25 395.57 1445.88 384.461 1446.33 380.943L1451.14 382.003C1451.14 382.003 1450.89 402.441 1466.77 405.981C1482.66 409.52 1506.23 407.823 1506.51 419.665C1506.79 431.508 1502.88 435.688 1502.88 435.81C1502.88 435.931 1498 444.546 1506.95 447.48C1515.9 450.414 1543.66 461.539 1545.45 473.454C1547.25 485.369 1539.08 483.642 1539.08 483.642C1539.08 483.642 1532 485.574 1542.12 490.88C1551.44 495.756 1569.13 495.357 1585.24 514.221C1592.25 527.002 1623.44 556.811 1582.06 564.893Z" fill="#70026D"/>
<g opacity="0.75">
<path d="M1497.32 479.328C1497.13 479.224 1496.66 478.819 1496.75 479.017C1506.17 499.277 1467.1 488.957 1463.19 475.875C1462.92 474.976 1418.02 405.17 1418.49 403.322C1419.74 398.484 1445.91 384.295 1446.36 380.728L1449.89 379.681L1457.41 380.015C1457.41 380.015 1459.28 381.5 1456.67 390.26C1454.06 399.02 1454.81 405.193 1456.64 412.139C1458.46 419.085 1460.27 429.851 1476.4 436.224C1495.83 443.902 1487.8 459.481 1487.8 459.481C1487.8 459.481 1489.03 473.115 1497.32 479.328Z" fill="#4F053E"/>
</g>
<path d="M1527.66 542.542C1524.74 535.011 1492.15 508.954 1485.29 504.36C1481.95 502.115 1412.85 385.821 1412.85 385.821L1459.55 378.308C1459.55 378.308 1450.84 396.6 1472.96 398.249C1495.08 399.898 1513.65 403.404 1513.74 419.195C1513.85 436.723 1495.91 463.636 1511.71 467.459C1527.5 471.276 1537.14 467.963 1539.32 490.729C1541.43 512.707 1555.91 522.938 1570.27 526.797C1585.4 530.864 1613.5 518.029 1629.57 530.84C1684.97 575.011 1530.68 550.091 1527.66 542.542Z" fill="#3F0634" fill-opacity="0.34"/>
<g opacity="0.5">
<path d="M1530.65 547.859C1525.61 544.433 1439.19 493.896 1439.13 493.645C1439.07 493.402 1437.16 454.337 1437.1 454.095C1433.92 444.761 1432.74 397.784 1431.88 394.111C1455.63 401.238 1512.39 427.359 1545.3 459.714C1568.51 482.528 1582.7 499 1591.12 509.82C1590.83 511.092 1625.68 544.271 1625.46 545.585C1624.33 552.475 1572.32 576.216 1530.65 547.859Z" fill="#70026D" fill-opacity="0.9"/>
</g>
</g>
<path d="M1462.77 364.387C1461.13 370.703 1457.22 377.285 1451.34 382.829C1449.82 384.262 1448.24 385.559 1446.62 386.717C1441.98 390.025 1437.03 392.191 1432.3 393.136C1428.23 393.946 1424.31 393.85 1420.9 392.796C1418.27 391.985 1415.94 390.596 1414.08 388.614C1413.94 388.47 1413.81 388.32 1413.68 388.172C1411.99 386.231 1410.87 383.924 1410.27 381.377C1409.71 379.005 1409.61 376.427 1409.94 373.751C1410.01 373.231 1410.09 372.71 1410.19 372.184C1411.47 365.281 1415.56 357.875 1422.05 351.75C1424.24 349.687 1426.55 347.909 1428.93 346.422C1429.59 346.011 1430.24 345.622 1430.9 345.26C1430.9 345.26 1430.9 345.26 1430.91 345.26C1441.57 339.373 1453.04 339.3 1459.32 345.965C1463.61 350.51 1464.62 357.277 1462.77 364.387Z" fill="#FEAB83"/>
<path d="M1430.45 358.187L1423.11 365.46L1424.01 369.215L1431.6 359.072L1430.45 358.187Z" fill="#FC7F69"/>
<path d="M1430.45 358.187L1429.5 357.654L1420.78 365.134L1422.29 368.716L1424.01 369.216L1423.1 365.46L1430.45 358.187Z" fill="#FFD292"/>
<path d="M1421.66 393.009C1422.42 393.213 1423.21 393.363 1424.01 393.474C1423.21 393.367 1422.42 393.213 1421.66 393.009Z" fill="#FF635F"/>
<path d="M1424.01 393.475C1425.11 393.625 1426.24 393.689 1427.39 393.671C1426.23 393.689 1425.11 393.625 1424.01 393.475Z" fill="#FF635F"/>
<path d="M1427.39 393.671C1427.77 393.665 1428.16 393.65 1428.55 393.625C1428.16 393.65 1427.77 393.665 1427.39 393.671Z" fill="#FF635F"/>
<path d="M1457.34 382.844C1454.73 384.398 1451.63 383.996 1450.41 381.947C1449.2 379.903 1450.33 376.984 1452.93 375.436C1454.52 374.493 1456.27 374.271 1457.69 374.7C1458.61 374.975 1459.38 375.529 1459.86 376.333C1460.01 376.579 1460.12 376.839 1460.2 377.111C1460.78 379.065 1459.63 381.484 1457.34 382.844Z" fill="#FEAB83"/>
<path d="M1458.06 374.831C1460.28 371.414 1461.86 367.86 1462.76 364.387C1458.1 361.979 1451.09 358.688 1450.69 360.418C1450.27 365.459 1447.85 368.487 1446.67 369.687C1446.27 370.095 1445.88 370.518 1445.54 370.979C1444.65 372.176 1442.54 374.524 1439.64 374.77C1435.74 375.107 1434.29 378.257 1434.29 378.257C1434.29 378.257 1428.65 388.277 1418.42 386.129C1411.84 384.751 1410.24 378.234 1409.94 373.75C1409.22 379.52 1410.52 384.836 1414.08 388.613C1415.94 390.595 1418.27 391.984 1420.9 392.795C1421.05 392.842 1421.2 392.883 1421.35 392.925C1428.66 394.983 1438.17 392.75 1446.62 386.716C1448.21 385.58 1449.76 384.307 1451.26 382.906C1452.75 384.076 1455.21 384.113 1457.34 382.847C1459.95 381.296 1461.08 378.378 1459.86 376.331C1459.45 375.635 1458.81 375.135 1458.06 374.831Z" fill="#FB9177"/>
<path d="M1454.65 377.086C1454.46 377.248 1453.36 378.666 1454.26 379.49C1455.16 380.314 1456.12 379.129 1456.12 379.129C1456.12 379.129 1456.8 378.545 1457.79 379.184C1458.78 379.823 1459.7 378.379 1459.05 377.557C1458.4 376.736 1456.92 375.191 1454.65 377.086Z" fill="#EE5850"/>
<path d="M1475.23 361.227C1474.96 359.948 1474.68 358.737 1474.39 357.624C1474.13 356.622 1473.82 355.669 1473.48 354.755C1473.46 354.706 1473.44 354.659 1473.42 354.61C1470.1 345.988 1463.17 341.176 1455.44 337.753C1446.87 333.953 1439.46 338.03 1433.09 340.171C1429.82 341.272 1428.27 340.383 1427.54 339.256C1427.23 338.783 1427.07 338.266 1426.98 337.835C1426.85 337.19 1426.17 336.825 1425.56 337.061C1424.87 337.323 1424.06 337.945 1423.48 339.371C1423.35 339.858 1423.25 340.312 1423.16 340.73C1422.94 341.903 1422.88 342.837 1422.98 343.617C1423.33 346.624 1425.82 347.364 1428.72 350.732C1432.63 355.287 1437.5 353.407 1440.6 350.998C1443.69 348.588 1449.02 352.406 1448.67 352.41C1448.08 353.676 1447.71 354.789 1447.5 355.757C1447.3 356.741 1447.26 357.582 1447.33 358.299C1447.48 359.857 1448.13 360.829 1448.65 361.406C1449.01 361.8 1449.52 361.996 1450.04 362.072C1450.52 362.144 1450.82 362.398 1451 362.697C1451.27 363.125 1451.26 363.665 1451.07 364.129L1451.01 364.26C1451.01 364.26 1451.01 364.265 1451.01 364.27C1450.97 364.329 1450.75 364.671 1450.47 365.195C1450.37 365.376 1450.26 365.582 1450.15 365.801C1449.66 366.794 1449.1 368.151 1448.88 369.509C1448.56 371.509 1448.96 373.514 1451.43 374.362C1453.12 374.578 1455.48 373.976 1455.48 373.976C1455.48 373.976 1456.01 373.979 1456.66 374.184C1456.99 374.292 1457.35 374.457 1457.69 374.7C1458.61 374.975 1459.38 375.529 1459.86 376.333C1460.01 376.579 1460.12 376.84 1460.2 377.111L1470.23 374.17L1470.23 374.166L1477.61 372.002C1476.62 368.28 1475.92 364.525 1475.23 361.227Z" fill="#BB02A5"/>
<path d="M1475.23 361.013C1473.11 360.093 1468.77 359.381 1461.82 363.356C1456.39 366.465 1452.57 366.383 1450.16 365.588C1450.27 365.368 1450.37 365.164 1450.47 364.982C1450.75 364.459 1450.97 364.116 1451.01 364.057C1451.02 364.052 1451.02 364.048 1451.02 364.048L1451.07 363.916C1451.27 363.451 1451.27 362.912 1451.01 362.483C1450.82 362.184 1450.52 361.931 1450.05 361.86C1449.52 361.784 1449.01 361.587 1448.65 361.193C1448.13 360.617 1447.48 359.644 1447.34 358.086C1447.26 357.368 1447.3 356.528 1447.51 355.544C1447.71 354.575 1448.08 353.463 1448.67 352.197C1449.02 352.193 1443.69 348.376 1440.6 350.785C1437.5 353.195 1432.63 355.074 1428.72 350.52C1428.43 350.184 1428.15 349.876 1427.87 349.588C1427.3 348.998 1426.75 348.495 1426.24 348.045C1424.51 346.493 1423.23 345.499 1422.98 343.404C1422.89 342.623 1422.94 341.69 1423.17 340.517C1423.25 340.098 1423.36 339.645 1423.49 339.157C1424.06 337.732 1424.87 337.11 1425.56 336.849C1426.18 336.613 1426.86 336.977 1426.99 337.622C1427.08 338.052 1427.24 338.57 1427.54 339.042C1428.27 340.17 1429.82 341.059 1433.09 339.958C1433.63 339.776 1434.18 339.58 1434.74 339.378C1438.83 337.878 1443.33 335.947 1448.27 335.985C1450.57 335.999 1452.96 336.44 1455.45 337.54C1463.17 340.963 1470.1 345.775 1473.42 354.397C1473.8 355.354 1474.12 356.355 1474.4 357.41C1474.69 358.524 1474.96 359.735 1475.23 361.013Z" fill="#DD7DC7" fill-opacity="0.66"/>
<path d="M1461.64 349.864C1461.64 349.928 1452.58 349.452 1447.51 355.757C1447.71 354.788 1448.08 353.676 1448.67 352.41C1449.02 352.406 1443.69 348.588 1440.6 350.998C1437.5 353.407 1432.63 355.287 1428.72 350.732C1425.82 347.364 1423.33 346.624 1422.98 343.617C1422.89 342.837 1422.94 341.902 1423.17 340.729C1424.03 342.787 1425.52 345.857 1427.16 347.104C1429.72 349.063 1432.81 354.017 1438.21 350.174C1443.62 346.326 1447.85 346.733 1449.42 349.768C1450.98 352.808 1452.75 350.761 1452.75 350.761C1452.75 350.761 1458.35 348.163 1461.64 349.864Z" fill="#8F238A"/>
<path d="M1450.47 365.195C1450.75 364.672 1450.97 364.329 1451.01 364.271C1451.01 364.265 1451.01 364.26 1451.01 364.26L1451.07 364.129C1451.26 363.665 1451.27 363.125 1451 362.697C1450.82 362.398 1450.52 362.144 1450.04 362.072C1449.52 361.996 1449.01 361.8 1448.65 361.406C1448.13 360.829 1447.48 359.857 1447.33 358.3C1447.94 359.331 1449.01 360.488 1450.86 361.052C1453.76 361.928 1451.61 364.204 1450.47 365.195Z" fill="#8F238A"/>
<path d="M1448.61 367.137L1448.61 367.608C1448.6 367.317 1448.61 367.137 1448.61 367.137Z" fill="#FF635F"/>
<g opacity="0.662712">
<path d="M1453.07 316.69C1452.9 316.847 1450.36 319.1 1449.05 323.152L1449.05 323.157C1448.69 324.302 1448.42 325.598 1448.33 327.027C1448.05 327.74 1447.82 328.433 1447.63 329.077C1447.56 329.325 1447.49 329.568 1447.43 329.807C1446.62 321.104 1452.37 316.013 1452.44 315.954C1452.65 315.777 1452.95 315.803 1453.12 316.005C1453.3 316.206 1453.28 316.512 1453.07 316.69Z" fill="#5CFF85"/>
<path d="M1461.07 315.456C1457.31 316.466 1451.19 319.381 1448.31 327.767C1448.06 328.479 1447.84 329.235 1447.64 330.033C1447.6 330.204 1447.56 330.379 1447.52 330.555C1447.48 330.302 1447.46 330.054 1447.43 329.807C1446.62 321.104 1452.37 316.014 1452.44 315.955C1452.64 315.778 1452.95 315.803 1453.12 316.005C1453.3 316.206 1453.28 316.512 1453.07 316.69C1452.9 316.847 1450.36 319.1 1449.05 323.152C1449.28 322.693 1449.54 322.242 1449.83 321.807C1450.29 321.102 1450.8 320.454 1451.38 319.863C1451.44 319.799 1451.5 319.736 1451.57 319.672C1451.98 319.259 1452.42 318.879 1452.88 318.528C1452.99 318.434 1453.11 318.346 1453.23 318.261C1453.72 317.916 1454.23 317.598 1454.75 317.314C1454.89 317.24 1455.02 317.175 1455.15 317.105C1455.29 317.035 1455.42 316.97 1455.56 316.911C1455.69 316.846 1455.83 316.782 1455.97 316.726C1456.08 316.676 1456.2 316.626 1456.32 316.581C1456.54 316.491 1456.78 316.4 1457.02 316.319C1457.14 316.274 1457.27 316.233 1457.4 316.192C1457.55 316.142 1457.7 316.096 1457.86 316.051C1458 316.01 1458.15 315.969 1458.3 315.933C1458.47 315.888 1458.65 315.842 1458.83 315.805C1458.96 315.775 1459.09 315.748 1459.22 315.723C1459.37 315.692 1459.52 315.665 1459.67 315.639C1459.86 315.603 1460.05 315.576 1460.24 315.549C1460.37 315.533 1460.51 315.512 1460.65 315.501C1460.79 315.484 1460.93 315.467 1461.07 315.456Z" fill="#5CFF85"/>
<path d="M1427.87 349.801C1423.92 351.411 1411.43 360.049 1410.27 381.376C1409.7 379.004 1409.6 376.426 1409.94 373.75C1410.86 366.414 1415.06 358.342 1422.05 351.749C1423.41 350.474 1424.8 349.31 1426.24 348.257C1426.75 348.707 1427.29 349.211 1427.87 349.801Z" fill="#41EB7A"/>
<path d="M1448.27 336.199C1447.27 336.973 1445.07 338.434 1441.8 339.18C1439.19 339.777 1436.54 339.738 1434.73 339.592C1438.83 338.092 1443.33 336.16 1448.27 336.199Z" fill="#5CFF85"/>
<path d="M1427.54 339.256C1427.06 339.102 1426.24 339.112 1425.02 339.963C1423.91 340.735 1423.31 342.287 1422.98 343.617C1422.85 342.556 1423 341.213 1423.48 339.371C1424.06 337.945 1424.87 337.323 1425.56 337.061C1426.17 336.826 1426.85 337.191 1426.98 337.835C1427.07 338.266 1427.23 338.784 1427.54 339.256Z" fill="#5CFF85"/>
</g>
<path d="M1425.21 356.533C1425.73 356.946 1425.58 357.99 1424.87 358.864C1424.17 359.738 1423.18 360.112 1422.67 359.699C1422.15 359.285 1422.31 358.241 1423.01 357.367C1423.71 356.493 1424.7 356.119 1425.21 356.533Z" fill="#4D0017"/>
<path d="M1434.99 364.392C1435.51 364.806 1435.35 365.85 1434.65 366.724C1433.95 367.598 1432.96 367.972 1432.45 367.558C1431.93 367.145 1432.09 366.101 1432.79 365.227C1433.49 364.353 1434.48 363.979 1434.99 364.392Z" fill="#4D0017"/>
<path d="M1440.81 365.091C1440.02 362.519 1438.51 360.578 1436.09 359.648" stroke="#4D0017" stroke-width="2.94429" stroke-linecap="round"/>
<path d="M1425.37 352.33C1426.97 352.32 1427.92 353.006 1429.47 354.179" stroke="#4D0017" stroke-width="2.94429" stroke-linecap="round"/>
<path d="M1417.91 372.18C1417.55 372.569 1420.38 375.029 1422.61 375.591C1425.78 376.386 1428.62 375.435 1428.42 375.091C1428.15 374.615 1426.29 376.222 1422.65 375.329C1419.2 374.485 1418.26 371.809 1417.91 372.18Z" fill="#4D0017"/>
<path d="M1417.91 372.18C1417.55 372.569 1420.38 375.029 1422.61 375.591C1425.78 376.386 1428.62 375.435 1428.42 375.091C1428.15 374.615 1426.29 376.222 1422.65 375.329C1419.2 374.485 1418.26 371.809 1417.91 372.18Z" stroke="#CA3F3D" stroke-width="0.546187"/>
<mask id="mask6_511_381" style="mask-type:luminance" maskUnits="userSpaceOnUse" x="1201" y="202" width="109" height="109">
<path d="M1309.58 256.656C1309.58 286.499 1285.38 310.687 1255.54 310.687C1229.58 310.687 1207.91 292.393 1202.7 267.993C1201.92 264.338 1201.51 260.545 1201.51 256.656C1201.51 226.813 1225.7 202.619 1255.54 202.619C1273.77 202.619 1289.9 211.649 1299.68 225.485C1305.91 234.289 1309.58 245.051 1309.58 256.656Z" fill="url(#paint6_radial_511_381)"/>
</mask>
<g mask="url(#mask6_511_381)">
<path d="M1309.58 256.656C1309.58 286.499 1285.38 310.687 1255.54 310.687C1229.58 310.687 1207.91 292.393 1202.7 267.993C1201.92 264.338 1201.51 260.545 1201.51 256.656C1201.51 226.813 1225.7 202.619 1255.54 202.619C1273.77 202.619 1289.9 211.649 1299.68 225.485C1305.91 234.289 1309.58 245.051 1309.58 256.656Z" fill="#5CFF85"/>
</g>
<path d="M1296.72 256.655C1296.72 279.397 1278.28 297.83 1255.54 297.83C1235.76 297.83 1219.25 283.889 1215.27 265.294C1214.68 262.509 1214.37 259.618 1214.37 256.655C1214.37 233.913 1232.8 215.475 1255.54 215.475C1269.44 215.475 1281.73 222.356 1289.18 232.9C1293.93 239.61 1296.72 247.811 1296.72 256.655Z" fill="url(#paint7_radial_511_381)"/>
<path d="M1239.61 267.983C1240.77 268.004 1241.69 268.964 1241.67 270.125C1241.65 271.287 1240.69 272.211 1239.53 272.189C1238.37 272.168 1237.45 271.209 1237.47 270.047C1237.49 268.886 1238.45 267.961 1239.61 267.983Z" fill="#102234"/>
<path d="M1276.02 268.659C1277.18 268.68 1278.1 269.639 1278.08 270.801C1278.06 271.963 1277.1 272.887 1275.94 272.865C1274.78 272.844 1273.85 271.885 1273.88 270.723C1273.9 269.561 1274.86 268.637 1276.02 268.659Z" fill="#102234"/>
<path d="M1259.65 275.777C1263.6 276.105 1265.88 273.814 1266.48 275.641C1267.06 277.374 1262.89 278.378 1259.9 278.314C1257.06 278.254 1252.92 277.362 1253.24 275.666C1253.57 273.867 1256.14 275.487 1259.65 275.777Z" fill="#102234"/>
</g>
<defs>
<linearGradient id="paint0_linear_511_381" x1="1683.14" y1="395.653" x2="6.15371" y2="-142.86" gradientUnits="userSpaceOnUse">
<stop stop-color="#FF7337"/>
<stop offset="0.5" stop-color="#A75894"/>
<stop offset="1" stop-color="#7E98FD"/>
</linearGradient>
<linearGradient id="paint1_linear_511_381" x1="-11.477" y1="364.28" x2="7.07211" y2="421.589" gradientUnits="userSpaceOnUse">
<stop stop-color="#FFB7AB"/>
<stop offset="0.12" stop-color="#9F81B6"/>
<stop offset="0.44" stop-color="#3F4AC0"/>
<stop offset="0.86" stop-color="#232881"/>
<stop offset="0.99" stop-color="#070741"/>
</linearGradient>
<linearGradient id="paint2_linear_511_381" x1="-11.477" y1="364.28" x2="7.07211" y2="421.589" gradientUnits="userSpaceOnUse">
<stop stop-color="#FFB7AB"/>
<stop offset="0.12" stop-color="#9F81B6"/>
<stop offset="0.44" stop-color="#3F4AC0"/>
<stop offset="0.86" stop-color="#232881"/>
<stop offset="0.99" stop-color="#070741"/>
</linearGradient>
<linearGradient id="paint3_linear_511_381" x1="985.069" y1="672.681" x2="944.203" y2="722.317" gradientUnits="userSpaceOnUse">
<stop stop-color="#F9BB9E"/>
<stop offset="0.26" stop-color="#F89082"/>
<stop offset="0.53" stop-color="#F66465"/>
<stop offset="0.76" stop-color="#B25B8D"/>
<stop offset="1" stop-color="#6E52B5"/>
</linearGradient>
<linearGradient id="paint4_linear_511_381" x1="985.067" y1="672.681" x2="944.201" y2="722.317" gradientUnits="userSpaceOnUse">
<stop stop-color="#F9BB9E"/>
<stop offset="0.26" stop-color="#F89082"/>
<stop offset="0.53" stop-color="#F66465"/>
<stop offset="0.76" stop-color="#B25B8D"/>
<stop offset="1" stop-color="#6E52B5"/>
</linearGradient>
<linearGradient id="paint5_linear_511_381" x1="1362.97" y1="347.028" x2="1455.77" y2="554.119" gradientUnits="userSpaceOnUse">
<stop stop-color="#29FE85"/>
<stop offset="0.05" stop-color="#92DA96"/>
<stop offset="0.23" stop-color="#FBB6A7"/>
<stop offset="0.38" stop-color="#FAAD9F"/>
<stop offset="0.53" stop-color="#F9A496"/>
<stop offset="0.73" stop-color="#F8887C"/>
<stop offset="1" stop-color="#F76D63"/>
</linearGradient>
<radialGradient id="paint6_radial_511_381" cx="0" cy="0" r="1" gradientUnits="userSpaceOnUse" gradientTransform="translate(1255.54 256.652) scale(51.2317 51.2317)">
<stop stop-color="white"/>
<stop offset="0.5" stop-color="#808080"/>
<stop offset="1"/>
</radialGradient>
<radialGradient id="paint7_radial_511_381" cx="0" cy="0" r="1" gradientUnits="userSpaceOnUse" gradientTransform="translate(1235.61 227.261) scale(84.4463 84.4463)">
<stop stop-color="#BECBFF"/>
<stop offset="0.26" stop-color="#7E98FD"/>
<stop offset="0.51" stop-color="#4B70FF"/>
</radialGradient>
<clipPath id="clip0_511_381">
<rect width="1850.62" height="877" fill="white" transform="translate(-163.31)"/>
</clipPath>
</defs>
</svg>
