<svg width="24" height="24" viewBox="0 0 24 24" fill="none" xmlns="http://www.w3.org/2000/svg">
<g id="Frame">
<path id="Vector" d="M4.98292 7.19701C6.19132 7.19701 7.17092 6.21741 7.17092 5.00901C7.17092 3.80062 6.19132 2.82101 4.98292 2.82101C3.77452 2.82101 2.79492 3.80062 2.79492 5.00901C2.79492 6.21741 3.77452 7.19701 4.98292 7.19701Z" fill="#353B56"/>
<path id="Vector_2" d="M9.23673 8.85493V20.9939H13.0057V14.9909C13.0057 13.4069 13.3037 11.8729 15.2677 11.8729C17.2047 11.8729 17.2287 13.6839 17.2287 15.0909V20.9949H20.9997V14.3379C20.9997 11.0679 20.2957 8.55493 16.4737 8.55493C14.6387 8.55493 13.4087 9.56193 12.9057 10.5149H12.8547V8.85493H9.23673ZM3.09473 8.85493H6.86973V20.9939H3.09473V8.85493Z" fill="#353B56"/>
</g>
</svg>
