<svg width="87" height="21" viewBox="0 0 87 21" fill="none" xmlns="http://www.w3.org/2000/svg">
<path d="M9.46226 1.90601L9.41504 18.469L12.5018 12.4586L19.0832 15.8674L9.46226 1.90601ZM12.1026 10.6297L10.3853 14.5751V4.67937L15.6144 12.729L12.1026 10.6297Z" fill="#FF7337"/>
<path d="M8.77521 1.91895L5.3965 8.50896L0 6.01034L8.72799 18.4605L8.77521 1.91895ZM7.82642 15.6571L2.73474 8.53472L5.8945 9.82266L7.8393 5.68835L7.82642 15.6571Z" fill="white"/>
<path d="M7.6288 2.60603C7.87351 2.28404 8.10964 1.96203 8.34576 1.64434L8.9468 0.824357V0.468018L8.8824 0.558183L8.18691 1.53274C7.95508 1.85902 7.72325 2.18529 7.50001 2.51586C7.27676 2.84644 7.04493 3.17271 6.82169 3.50328C6.59844 3.83386 6.39237 4.16443 6.15625 4.4993C6.40955 4.19019 6.65426 3.8725 6.89897 3.5591C7.14368 3.2457 7.39268 2.92372 7.6288 2.60603Z" fill="#FF7337"/>
<path d="M8.95559 0.467769V0.0126953L6.16504 4.50335" fill="#FF7337"/>
<path d="M10.5481 2.59282C10.3077 2.27083 10.0715 1.94885 9.83112 1.63115L9.23438 0.811147V0.454834L9.29877 0.544974L9.99856 1.51953C10.2261 1.84581 10.4579 2.17208 10.6855 2.50265C10.913 2.83323 11.1362 3.15953 11.3638 3.4901C11.5913 3.82067 11.7931 4.15122 12.0249 4.48609C11.7759 4.17698 11.5312 3.85929 11.2865 3.54589L10.5481 2.59282Z" fill="white"/>
<path d="M9.22168 0.455074V0L12.0122 4.48633" fill="white"/>
<path d="M7.61161 17.8939C7.85203 18.2116 8.08815 18.5336 8.32857 18.8556L8.92532 19.6756V20.0276L8.86092 19.9375L8.16543 18.9629L7.47423 17.9841L6.79591 16.9924C6.57267 16.6618 6.3666 16.3312 6.13477 15.9963C6.38806 16.3054 6.63277 16.6232 6.87319 16.9366C7.11361 17.25 7.37549 17.5719 7.61161 17.8939Z" fill="#FF7337"/>
<path d="M8.93801 20.0276V20.4827L6.14746 15.9963" fill="#FF7337"/>
<path d="M10.5315 17.9066C10.2911 18.2243 10.0549 18.5463 9.81452 18.8683L9.21777 19.6882V20.0403L9.28217 19.9502L9.97766 18.9756L10.6689 17.9968L11.3472 17.005C11.5704 16.6744 11.7765 16.3439 12.0083 16.009C11.755 16.3181 11.5103 16.6358 11.2656 16.9492C11.0209 17.2626 10.7676 17.5846 10.5315 17.9066Z" fill="white"/>
<path d="M9.2041 20.0403V20.4954L11.9947 16.009" fill="white"/>
<path d="M35.0938 5.12788H36.1314V13.4768H35.2965V6.39215L32.3744 11.2822H32.2551L29.333 6.39215V13.4768H28.4981V5.12788H29.5358L32.3148 9.77943L35.0938 5.12788ZM43.0468 8.68214V7.51329H43.8339V13.4768H43.0468V12.308C42.4981 13.1786 41.699 13.6199 40.6375 13.6199C39.7907 13.6199 39.0631 13.3218 38.4549 12.7135C37.8585 12.1052 37.5603 11.3657 37.5603 10.495C37.5603 9.62437 37.8585 8.8849 38.4549 8.27662C39.0631 7.66834 39.7907 7.37016 40.6375 7.37016C41.699 7.37016 42.4981 7.81146 43.0468 8.68214ZM39.0274 12.1768C39.4806 12.63 40.0411 12.8566 40.6971 12.8566C41.3531 12.8566 41.9137 12.63 42.3669 12.1768C42.8201 11.7116 43.0468 11.151 43.0468 10.495C43.0468 9.83906 42.8201 9.27849 42.3669 8.82526C41.9137 8.36011 41.3531 8.13349 40.6971 8.13349C40.0411 8.13349 39.4806 8.36011 39.0274 8.82526C38.5741 9.27849 38.3475 9.83906 38.3475 10.495C38.3475 11.151 38.5741 11.7116 39.0274 12.1768ZM46.2878 7.51329V8.50323C46.6576 7.77568 47.2778 7.41787 48.1723 7.41787V8.1812C47.087 8.1812 46.2878 8.78948 46.2878 10.1611V13.4768H45.5007V7.51329H46.2878ZM54.0187 8.68214V7.51329H54.8059V15.8622H54.0187V12.308C53.4701 13.1786 52.6709 13.6199 51.6094 13.6199C50.7626 13.6199 50.0351 13.3218 49.4268 12.7135C48.8304 12.1052 48.5323 11.3657 48.5323 10.495C48.5323 9.62437 48.8304 8.8849 49.4268 8.27662C50.0351 7.66834 50.7626 7.37016 51.6094 7.37016C52.6709 7.37016 53.4701 7.81146 54.0187 8.68214ZM49.9993 12.1768C50.4525 12.63 51.0131 12.8566 51.6691 12.8566C52.3251 12.8566 52.8856 12.63 53.3389 12.1768C53.7921 11.7116 54.0187 11.151 54.0187 10.495C54.0187 9.83906 53.7921 9.27849 53.3389 8.82526C52.8856 8.36011 52.3251 8.13349 51.6691 8.13349C51.0131 8.13349 50.4525 8.36011 49.9993 8.82526C49.5461 9.27849 49.3195 9.83906 49.3195 10.495C49.3195 11.151 49.5461 11.7116 49.9993 12.1768Z" fill="white"/>
<path d="M55.8762 5.12788H61.8398V5.91507H59.2755V13.4768H58.4406V5.91507H55.8762V5.12788ZM68.0327 12.463L69.4997 7.51329H70.3108L68.474 13.4768H67.6152L66.0767 8.67021L64.5381 13.4768H63.6793L61.8426 7.51329H62.6536L64.1206 12.463L65.6831 7.51329H66.4702L68.0327 12.463ZM72.297 6.08204C72.0704 6.30866 71.7126 6.30866 71.4859 6.08204C71.2593 5.85543 71.2593 5.49762 71.4859 5.27101C71.7126 5.04439 72.0704 5.04439 72.297 5.27101C72.5236 5.49762 72.5236 5.85543 72.297 6.08204ZM72.2851 13.4768H71.4979V7.51329H72.2851V13.4768ZM76.7464 7.37016C78.1896 7.37016 79.0841 8.32433 79.0841 9.81521V13.4768H78.2969V9.81521C78.2969 8.7537 77.7125 8.13349 76.6749 8.13349C75.5299 8.13349 74.7427 8.83719 74.7427 10.3519V13.4768H73.9555V7.51329H74.7427V8.4436C75.184 7.72798 75.8519 7.37016 76.7464 7.37016ZM83.3971 7.37016C84.8403 7.37016 85.7348 8.32433 85.7348 9.81521V13.4768H84.9477V9.81521C84.9477 8.7537 84.3632 8.13349 83.3256 8.13349C82.1806 8.13349 81.3934 8.83719 81.3934 10.3519V13.4768H80.6062V7.51329H81.3934V8.4436C81.8347 7.72798 82.5026 7.37016 83.3971 7.37016Z" fill="#FF7337"/>
</svg>
