<svg width="22" height="24" viewBox="0 0 22 24" fill="none" xmlns="http://www.w3.org/2000/svg">
<path d="M10.908 2.19727L10.8535 21.2899L14.4117 14.3615L21.9983 18.2909L10.908 2.19727ZM13.9515 12.2533L11.972 16.8013V5.3942L17.9996 14.6733L13.9515 12.2533Z" fill="#FF7337"/>
<path d="M10.1154 2.21216L6.2207 9.80866L0 6.92842L10.061 21.28L10.1154 2.21216ZM9.02175 18.0485L3.15241 9.83835L6.79476 11.323L9.03659 6.55726L9.02175 18.0485Z" fill="white"/>
<path d="M8.79316 3.00385C9.07524 2.63269 9.34743 2.2615 9.61961 1.89529L10.3125 0.950069V0.539307L10.2382 0.643243L9.43651 1.76664C9.16927 2.14275 8.90203 2.51885 8.64469 2.89992C8.38735 3.28098 8.12011 3.65708 7.86277 4.03814C7.60543 4.41921 7.36789 4.80027 7.0957 5.18628C7.38769 4.82996 7.66977 4.46375 7.95185 4.10248C8.23394 3.74122 8.52097 3.37007 8.79316 3.00385Z" fill="#FF7337"/>
<path d="M10.3242 0.539225V0.0146484L7.10742 5.19115" fill="#FF7337"/>
<path d="M12.1589 2.98917C11.8817 2.61801 11.6096 2.24685 11.3324 1.88064L10.6445 0.935391V0.524658L10.7188 0.628565L11.5254 1.75196C11.7877 2.12807 12.055 2.50418 12.3172 2.88524C12.5795 3.2663 12.8369 3.64243 13.0992 4.0235C13.3614 4.40456 13.594 4.78559 13.8613 5.1716C13.5742 4.81528 13.2922 4.44907 13.0101 4.0878L12.1589 2.98917Z" fill="white"/>
<path d="M10.6289 0.524576V0L13.8457 5.17152" fill="white"/>
<path d="M8.77467 20.6266C9.05181 20.9928 9.32399 21.364 9.60113 21.7352L10.289 22.6804V23.0862L10.2148 22.9823L9.41307 21.8589L8.61631 20.7305L7.83439 19.5874C7.57705 19.2063 7.3395 18.8252 7.07227 18.4392C7.36425 18.7955 7.64633 19.1618 7.92347 19.523C8.2006 19.8843 8.50248 20.2555 8.77467 20.6266Z" fill="#FF7337"/>
<path d="M10.3027 23.0862V23.6108L7.08594 18.4392" fill="#FF7337"/>
<path d="M12.1393 20.6415C11.8622 21.0077 11.59 21.3789 11.3129 21.7501L10.625 22.6952V23.1011L10.6992 22.9972L11.5009 21.8738L12.2977 20.7454L13.0796 19.6022C13.337 19.2211 13.5745 18.8401 13.8417 18.4541C13.5498 18.8104 13.2677 19.1766 12.9856 19.5379C12.7035 19.8991 12.4115 20.2703 12.1393 20.6415Z" fill="white"/>
<path d="M10.6094 23.1011V23.6256L13.8261 18.4541" fill="white"/>
</svg>
