<svg width="289" height="195" viewBox="0 0 289 195" fill="none" xmlns="http://www.w3.org/2000/svg">
<path d="M32.7166 51V12.9646H49.8593C51.645 12.9646 53.2879 13.3396 54.7878 14.0896C56.3235 14.8039 57.645 15.786 58.7521 17.036C59.8592 18.2503 60.7164 19.6252 61.3235 21.1609C61.9664 22.6966 62.2878 24.2502 62.2878 25.8216C62.2878 27.393 62.0378 28.893 61.5378 30.3216C61.0378 31.7144 60.3235 32.9823 59.395 34.1251C58.4664 35.2323 57.3593 36.143 56.0736 36.8573L64.4306 51H54.7343L47.4486 38.7322H41.5022V51H32.7166ZM41.5022 31.0716H49.5379C50.2522 31.0716 50.8772 30.8573 51.4129 30.4287C51.9843 29.9644 52.4486 29.3395 52.8057 28.5537C53.1629 27.768 53.3414 26.8573 53.3414 25.8216C53.3414 24.7859 53.1271 23.8931 52.6986 23.1431C52.3057 22.3574 51.8057 21.7502 51.1986 21.3217C50.5915 20.8931 49.9486 20.6788 49.27 20.6788H41.5022V31.0716ZM80.5755 51.5357C78.1827 51.5357 76.0577 51.1607 74.2006 50.4107C72.3435 49.625 70.7542 48.5714 69.4328 47.25C68.1471 45.9286 67.1649 44.4108 66.4864 42.6965C65.8078 40.9465 65.4685 39.1251 65.4685 37.2323C65.4685 34.518 66.0578 32.0537 67.2364 29.8395C68.4506 27.5895 70.1828 25.7859 72.4328 24.4288C74.6827 23.0359 77.397 22.3395 80.5755 22.3395C83.7541 22.3395 86.4505 23.0181 88.6648 24.3752C90.9148 25.7323 92.629 27.518 93.8076 29.7323C94.9861 31.9109 95.5754 34.2858 95.5754 36.8573C95.5754 37.3572 95.5397 37.8572 95.4683 38.3572C95.4326 38.8215 95.3969 39.2322 95.3611 39.5894H74.5756C74.6827 40.8394 75.022 41.8929 75.5934 42.7501C76.2006 43.6072 76.9684 44.2679 77.897 44.7322C78.8256 45.1608 79.8077 45.375 80.8434 45.375C82.1291 45.375 83.3255 45.0715 84.4327 44.4643C85.5755 43.8572 86.3612 43.0358 86.7898 42.0001L94.0754 44.0358C93.3612 45.5 92.3433 46.8036 91.0219 47.9465C89.7362 49.0536 88.2005 49.9286 86.4148 50.5714C84.6648 51.2143 82.7184 51.5357 80.5755 51.5357ZM74.3613 34.3394H86.5755C86.4326 33.1609 86.0934 32.143 85.5576 31.2859C85.0219 30.393 84.3077 29.7145 83.4148 29.2502C82.522 28.7502 81.5398 28.5002 80.4684 28.5002C79.3613 28.5002 78.3613 28.7502 77.4684 29.2502C76.6113 29.7145 75.9149 30.393 75.3792 31.2859C74.8434 32.143 74.5042 33.1609 74.3613 34.3394ZM99.5154 11.8932H108.087V40.9822C108.087 42.1608 108.301 43.0001 108.73 43.5001C109.158 44.0001 109.765 44.2501 110.551 44.2501C111.087 44.2501 111.622 44.1786 112.158 44.0358C112.73 43.8572 113.23 43.6608 113.658 43.4465L114.783 49.875C113.712 50.375 112.48 50.7679 111.087 51.0536C109.694 51.3393 108.39 51.4821 107.176 51.4821C104.747 51.4821 102.855 50.8393 101.497 49.5536C100.176 48.2322 99.5154 46.375 99.5154 43.9822V11.8932ZM117.729 51V22.8752H126.3V51H117.729ZM117.729 19.661V11.8932H126.3V19.661H117.729ZM130.563 42.5894C130.563 40.7322 131.08 39.1072 132.116 37.7144C133.152 36.3215 134.58 35.2323 136.402 34.4466C138.223 33.6251 140.313 33.2144 142.67 33.2144C143.812 33.2144 144.937 33.3216 146.045 33.5359C147.152 33.7144 148.116 33.9823 148.937 34.3394V33.1073C148.937 31.5716 148.473 30.393 147.545 29.5716C146.616 28.7502 145.205 28.3395 143.312 28.3395C141.741 28.3395 140.259 28.6073 138.866 29.143C137.509 29.6787 136.063 30.4466 134.527 31.4466L131.955 25.9823C133.813 24.7681 135.741 23.8574 137.741 23.2502C139.777 22.6431 141.92 22.3395 144.17 22.3395C148.384 22.3395 151.652 23.3574 153.973 25.3931C156.33 27.393 157.509 30.3037 157.509 34.1251V41.4644C157.509 42.3215 157.634 42.9286 157.884 43.2858C158.17 43.6072 158.652 43.8036 159.33 43.8751V51C158.616 51.1429 157.937 51.25 157.295 51.3214C156.687 51.3929 156.152 51.4286 155.687 51.4286C154.08 51.4286 152.848 51.1071 151.991 50.4643C151.17 49.8214 150.652 48.9464 150.437 47.8393L150.277 46.6072C149.027 48.2143 147.527 49.4464 145.777 50.3036C144.062 51.125 142.259 51.5357 140.366 51.5357C138.509 51.5357 136.83 51.1429 135.33 50.3571C133.866 49.5714 132.705 48.5 131.848 47.1429C130.991 45.7858 130.563 44.2679 130.563 42.5894ZM147.598 43.6608C147.991 43.3393 148.312 42.9822 148.562 42.5894C148.812 42.1965 148.937 41.8215 148.937 41.4644V38.9465C148.223 38.6608 147.42 38.4465 146.527 38.3037C145.67 38.1251 144.866 38.0358 144.116 38.0358C142.545 38.0358 141.241 38.393 140.205 39.1072C139.17 39.7858 138.652 40.6965 138.652 41.8394C138.652 42.4822 138.83 43.0715 139.188 43.6072C139.545 44.1429 140.027 44.5715 140.634 44.8929C141.277 45.2143 142.027 45.375 142.884 45.375C143.741 45.375 144.598 45.2143 145.455 44.8929C146.312 44.5715 147.027 44.1608 147.598 43.6608ZM180.757 51.5357C178.614 51.5357 176.739 51.0893 175.132 50.1964C173.525 49.2679 172.257 47.9822 171.328 46.3393V51H163.882V11.8932H172.453V27.4823C173.382 25.8395 174.614 24.5716 176.15 23.6788C177.721 22.7859 179.56 22.3395 181.668 22.3395C183.453 22.3395 185.078 22.7324 186.543 23.5181C188.043 24.2681 189.328 25.3216 190.4 26.6788C191.507 28.0002 192.364 29.5537 192.971 31.3394C193.578 33.0894 193.882 35.0001 193.882 37.0715C193.882 39.1072 193.543 41.0001 192.864 42.7501C192.221 44.5001 191.31 46.0358 190.132 47.3572C188.953 48.6786 187.56 49.7143 185.953 50.4643C184.382 51.1786 182.65 51.5357 180.757 51.5357ZM178.346 44.3036C179.31 44.3036 180.203 44.1251 181.025 43.7679C181.882 43.3751 182.614 42.8572 183.221 42.2144C183.828 41.5715 184.293 40.8215 184.614 39.9644C184.935 39.0715 185.096 38.1072 185.096 37.0715C185.096 35.7501 184.828 34.518 184.293 33.3751C183.757 32.2323 183.007 31.3216 182.043 30.643C181.114 29.9644 180.025 29.6252 178.775 29.6252C177.882 29.6252 177.025 29.8394 176.203 30.268C175.382 30.6966 174.65 31.2859 174.007 32.0359C173.364 32.7501 172.846 33.5716 172.453 34.5001V40.3929C172.739 41.0001 173.096 41.5536 173.525 42.0536C173.953 42.5179 174.418 42.9108 174.918 43.2322C175.453 43.5536 176.007 43.8215 176.578 44.0358C177.185 44.2143 177.775 44.3036 178.346 44.3036ZM198.204 11.8932H206.775V40.9822C206.775 42.1608 206.989 43.0001 207.418 43.5001C207.847 44.0001 208.454 44.2501 209.239 44.2501C209.775 44.2501 210.311 44.1786 210.847 44.0358C211.418 43.8572 211.918 43.6608 212.347 43.4465L213.472 49.875C212.4 50.375 211.168 50.7679 209.775 51.0536C208.382 51.3393 207.079 51.4821 205.864 51.4821C203.436 51.4821 201.543 50.8393 200.186 49.5536C198.865 48.2322 198.204 46.375 198.204 43.9822V11.8932ZM229.864 51.5357C227.471 51.5357 225.346 51.1607 223.489 50.4107C221.632 49.625 220.042 48.5714 218.721 47.25C217.435 45.9286 216.453 44.4108 215.775 42.6965C215.096 40.9465 214.757 39.1251 214.757 37.2323C214.757 34.518 215.346 32.0537 216.525 29.8395C217.739 27.5895 219.471 25.7859 221.721 24.4288C223.971 23.0359 226.685 22.3395 229.864 22.3395C233.042 22.3395 235.739 23.0181 237.953 24.3752C240.203 25.7323 241.917 27.518 243.096 29.7323C244.274 31.9109 244.864 34.2858 244.864 36.8573C244.864 37.3572 244.828 37.8572 244.757 38.3572C244.721 38.8215 244.685 39.2322 244.649 39.5894H223.864C223.971 40.8394 224.31 41.8929 224.882 42.7501C225.489 43.6072 226.257 44.2679 227.185 44.7322C228.114 45.1608 229.096 45.375 230.132 45.375C231.417 45.375 232.614 45.0715 233.721 44.4643C234.864 43.8572 235.649 43.0358 236.078 42.0001L243.364 44.0358C242.649 45.5 241.632 46.8036 240.31 47.9465C239.024 49.0536 237.489 49.9286 235.703 50.5714C233.953 51.2143 232.007 51.5357 229.864 51.5357ZM223.65 34.3394H235.864C235.721 33.1609 235.382 32.143 234.846 31.2859C234.31 30.393 233.596 29.7145 232.703 29.2502C231.81 28.7502 230.828 28.5002 229.757 28.5002C228.65 28.5002 227.65 28.7502 226.757 29.2502C225.9 29.7145 225.203 30.393 224.667 31.2859C224.132 32.143 223.792 33.1609 223.65 34.3394ZM248.857 51V42.2679H255.875V51H248.857ZM49.0273 89.1074C48.9201 88.9288 48.5451 88.6609 47.9023 88.3038C47.2594 87.9109 46.4559 87.5002 45.4916 87.0717C44.5273 86.6431 43.4737 86.2681 42.3309 85.9467C41.188 85.6252 40.0452 85.4645 38.9023 85.4645C37.4024 85.4645 36.2417 85.7324 35.4202 86.2681C34.5988 86.7681 34.1881 87.5538 34.1881 88.6252C34.1881 89.4823 34.4917 90.1609 35.0988 90.6609C35.7417 91.1609 36.6524 91.6073 37.8309 92.0002C39.0095 92.3573 40.4559 92.7859 42.1702 93.2859C44.5987 93.9287 46.7059 94.7145 48.4916 95.643C50.2773 96.5359 51.6344 97.6966 52.563 99.1251C53.5272 100.554 54.0094 102.447 54.0094 104.804C54.0094 106.946 53.6165 108.768 52.8308 110.268C52.0451 111.732 50.9737 112.929 49.6165 113.857C48.2951 114.75 46.7773 115.411 45.063 115.839C43.3487 116.232 41.5809 116.429 39.7595 116.429C37.9024 116.429 35.9917 116.25 34.0274 115.893C32.0988 115.5 30.2417 114.964 28.456 114.286C26.6703 113.571 25.0275 112.714 23.5275 111.714L27.3846 104.054C27.5274 104.232 27.9917 104.572 28.7774 105.072C29.5631 105.536 30.5274 106.036 31.6703 106.572C32.8488 107.071 34.1524 107.518 35.5809 107.911C37.0095 108.304 38.4559 108.5 39.9202 108.5C41.4916 108.5 42.6523 108.25 43.4023 107.75C44.188 107.25 44.5809 106.554 44.5809 105.661C44.5809 104.697 44.1702 103.947 43.3487 103.411C42.563 102.875 41.4738 102.393 40.0809 101.964C38.7238 101.536 37.1524 101.054 35.3667 100.518C33.0452 99.8037 31.1167 99.0001 29.581 98.1073C28.081 97.2144 26.956 96.1252 26.206 94.8395C25.4917 93.5537 25.1346 91.9466 25.1346 90.0181C25.1346 87.3395 25.7596 85.0895 27.0096 83.2681C28.2953 81.411 30.0096 80.0181 32.1524 79.0896C34.2952 78.1253 36.6345 77.6432 39.1702 77.6432C40.9559 77.6432 42.6702 77.8574 44.313 78.286C45.9916 78.7146 47.5451 79.2503 48.9737 79.8931C50.438 80.536 51.7415 81.1788 52.8844 81.8217L49.0273 89.1074ZM72.077 116.536C69.6841 116.536 67.5592 116.143 65.702 115.357C63.8449 114.571 62.2556 113.5 60.9342 112.143C59.6485 110.786 58.6664 109.232 57.9878 107.482C57.3092 105.732 56.97 103.875 56.97 101.911C56.97 99.3394 57.5592 96.9466 58.7378 94.7323C59.9521 92.518 61.6842 90.7323 63.9342 89.3752C66.1842 88.0181 68.8984 87.3395 72.077 87.3395C75.2912 87.3395 78.0055 88.0359 80.2198 89.4288C82.4698 90.7859 84.1483 92.5716 85.2555 94.7859L76.8984 97.3037C76.3627 96.4466 75.6662 95.7859 74.8091 95.3216C73.9877 94.8573 73.0591 94.6252 72.0234 94.6252C70.8449 94.6252 69.7734 94.9287 68.8092 95.5359C67.8806 96.143 67.1306 96.9823 66.5592 98.0537C66.0235 99.1251 65.7556 100.411 65.7556 101.911C65.7556 103.375 66.0413 104.661 66.6127 105.768C67.1842 106.875 67.9342 107.75 68.8627 108.393C69.7913 109 70.8449 109.304 72.0234 109.304C72.7377 109.304 73.3984 109.196 74.0055 108.982C74.6484 108.732 75.2198 108.393 75.7198 107.964C76.2555 107.536 76.6662 107.054 76.9519 106.518L85.309 109.089C84.6305 110.518 83.6483 111.804 82.3626 112.946C81.1126 114.054 79.6305 114.929 77.9162 115.571C76.202 116.214 74.2555 116.536 72.077 116.536ZM87.5774 107.589C87.5774 105.732 88.0952 104.107 89.1309 102.714C90.1666 101.322 91.5952 100.232 93.4166 99.4466C95.238 98.6251 97.3273 98.2144 99.6844 98.2144C100.827 98.2144 101.952 98.3216 103.059 98.5359C104.167 98.7144 105.131 98.9823 105.952 99.3394V98.1073C105.952 96.5716 105.488 95.393 104.559 94.5716C103.631 93.7502 102.22 93.3395 100.327 93.3395C98.7559 93.3395 97.2737 93.6073 95.8809 94.143C94.5237 94.6787 93.0773 95.4466 91.5416 96.4466L88.9702 90.9823C90.8273 89.7681 92.7559 88.8574 94.7559 88.2502C96.7916 87.6431 98.9344 87.3395 101.184 87.3395C105.399 87.3395 108.666 88.3574 110.988 90.3931C113.345 92.393 114.524 95.3037 114.524 99.1251V106.464C114.524 107.321 114.649 107.929 114.899 108.286C115.184 108.607 115.666 108.804 116.345 108.875V116C115.631 116.143 114.952 116.25 114.309 116.321C113.702 116.393 113.166 116.429 112.702 116.429C111.095 116.429 109.863 116.107 109.006 115.464C108.184 114.821 107.666 113.946 107.452 112.839L107.291 111.607C106.042 113.214 104.542 114.446 102.792 115.304C101.077 116.125 99.2737 116.536 97.3809 116.536C95.5237 116.536 93.8452 116.143 92.3452 115.357C90.8809 114.571 89.7202 113.5 88.8631 112.143C88.0059 110.786 87.5774 109.268 87.5774 107.589ZM104.613 108.661C105.006 108.339 105.327 107.982 105.577 107.589C105.827 107.196 105.952 106.821 105.952 106.464V103.947C105.238 103.661 104.434 103.447 103.542 103.304C102.684 103.125 101.881 103.036 101.131 103.036C99.5594 103.036 98.2559 103.393 97.2201 104.107C96.1844 104.786 95.6666 105.697 95.6666 106.839C95.6666 107.482 95.8452 108.071 96.2023 108.607C96.5594 109.143 97.0416 109.571 97.6487 109.893C98.2916 110.214 99.0416 110.375 99.8987 110.375C100.756 110.375 101.613 110.214 102.47 109.893C103.327 109.571 104.042 109.161 104.613 108.661ZM120.79 76.8932H129.361V105.982C129.361 107.161 129.575 108 130.004 108.5C130.432 109 131.04 109.25 131.825 109.25C132.361 109.25 132.897 109.179 133.432 109.036C134.004 108.857 134.504 108.661 134.932 108.446L136.057 114.875C134.986 115.375 133.754 115.768 132.361 116.054C130.968 116.339 129.665 116.482 128.45 116.482C126.022 116.482 124.129 115.839 122.772 114.554C121.45 113.232 120.79 111.375 120.79 108.982V76.8932ZM137.236 107.589C137.236 105.732 137.753 104.107 138.789 102.714C139.825 101.322 141.253 100.232 143.075 99.4466C144.896 98.6251 146.985 98.2144 149.343 98.2144C150.485 98.2144 151.61 98.3216 152.718 98.5359C153.825 98.7144 154.789 98.9823 155.61 99.3394V98.1073C155.61 96.5716 155.146 95.393 154.218 94.5716C153.289 93.7502 151.878 93.3395 149.985 93.3395C148.414 93.3395 146.932 93.6073 145.539 94.143C144.182 94.6787 142.735 95.4466 141.2 96.4466L138.628 90.9823C140.485 89.7681 142.414 88.8574 144.414 88.2502C146.45 87.6431 148.593 87.3395 150.843 87.3395C155.057 87.3395 158.325 88.3574 160.646 90.3931C163.003 92.393 164.182 95.3037 164.182 99.1251V106.464C164.182 107.321 164.307 107.929 164.557 108.286C164.842 108.607 165.325 108.804 166.003 108.875V116C165.289 116.143 164.61 116.25 163.967 116.321C163.36 116.393 162.825 116.429 162.36 116.429C160.753 116.429 159.521 116.107 158.664 115.464C157.842 114.821 157.325 113.946 157.11 112.839L156.95 111.607C155.7 113.214 154.2 114.446 152.45 115.304C150.735 116.125 148.932 116.536 147.039 116.536C145.182 116.536 143.503 116.143 142.003 115.357C140.539 114.571 139.378 113.5 138.521 112.143C137.664 110.786 137.236 109.268 137.236 107.589ZM154.271 108.661C154.664 108.339 154.985 107.982 155.235 107.589C155.485 107.196 155.61 106.821 155.61 106.464V103.947C154.896 103.661 154.093 103.447 153.2 103.304C152.343 103.125 151.539 103.036 150.789 103.036C149.218 103.036 147.914 103.393 146.878 104.107C145.843 104.786 145.325 105.697 145.325 106.839C145.325 107.482 145.503 108.071 145.86 108.607C146.218 109.143 146.7 109.571 147.307 109.893C147.95 110.214 148.7 110.375 149.557 110.375C150.414 110.375 151.271 110.214 152.128 109.893C152.985 109.571 153.7 109.161 154.271 108.661ZM187.43 116.536C185.287 116.536 183.412 116.089 181.805 115.196C180.198 114.268 178.93 112.982 178.001 111.339V116H170.555V76.8932H179.126V92.4823C180.055 90.8395 181.287 89.5716 182.823 88.6788C184.394 87.7859 186.233 87.3395 188.341 87.3395C190.126 87.3395 191.751 87.7324 193.215 88.5181C194.715 89.2681 196.001 90.3216 197.073 91.6788C198.18 93.0002 199.037 94.5537 199.644 96.3394C200.251 98.0894 200.555 100 200.555 102.072C200.555 104.107 200.215 106 199.537 107.75C198.894 109.5 197.983 111.036 196.805 112.357C195.626 113.679 194.233 114.714 192.626 115.464C191.055 116.179 189.323 116.536 187.43 116.536ZM185.019 109.304C185.983 109.304 186.876 109.125 187.698 108.768C188.555 108.375 189.287 107.857 189.894 107.214C190.501 106.572 190.965 105.822 191.287 104.964C191.608 104.072 191.769 103.107 191.769 102.072C191.769 100.75 191.501 99.518 190.965 98.3751C190.43 97.2323 189.68 96.3216 188.716 95.643C187.787 94.9644 186.698 94.6252 185.448 94.6252C184.555 94.6252 183.698 94.8394 182.876 95.268C182.055 95.6966 181.323 96.2859 180.68 97.0359C180.037 97.7501 179.519 98.5716 179.126 99.5001V105.393C179.412 106 179.769 106.554 180.198 107.054C180.626 107.518 181.091 107.911 181.591 108.232C182.126 108.554 182.68 108.821 183.251 109.036C183.858 109.214 184.448 109.304 185.019 109.304ZM204.877 76.8932H213.448V105.982C213.448 107.161 213.662 108 214.091 108.5C214.52 109 215.127 109.25 215.912 109.25C216.448 109.25 216.984 109.179 217.52 109.036C218.091 108.857 218.591 108.661 219.02 108.446L220.144 114.875C219.073 115.375 217.841 115.768 216.448 116.054C215.055 116.339 213.752 116.482 212.537 116.482C210.109 116.482 208.216 115.839 206.859 114.554C205.537 113.232 204.877 111.375 204.877 108.982V76.8932ZM236.537 116.536C234.144 116.536 232.019 116.161 230.162 115.411C228.305 114.625 226.715 113.571 225.394 112.25C224.108 110.929 223.126 109.411 222.448 107.696C221.769 105.947 221.43 104.125 221.43 102.232C221.43 99.518 222.019 97.0537 223.198 94.8395C224.412 92.5895 226.144 90.7859 228.394 89.4288C230.644 88.0359 233.358 87.3395 236.537 87.3395C239.715 87.3395 242.412 88.0181 244.626 89.3752C246.876 90.7323 248.59 92.518 249.769 94.7323C250.947 96.9109 251.537 99.2858 251.537 101.857C251.537 102.357 251.501 102.857 251.43 103.357C251.394 103.822 251.358 104.232 251.322 104.589H230.537C230.644 105.839 230.983 106.893 231.555 107.75C232.162 108.607 232.93 109.268 233.858 109.732C234.787 110.161 235.769 110.375 236.805 110.375C238.09 110.375 239.287 110.071 240.394 109.464C241.537 108.857 242.322 108.036 242.751 107L250.037 109.036C249.322 110.5 248.305 111.804 246.983 112.946C245.697 114.054 244.162 114.929 242.376 115.571C240.626 116.214 238.68 116.536 236.537 116.536ZM230.323 99.3394H242.537C242.394 98.1609 242.055 97.143 241.519 96.2859C240.983 95.393 240.269 94.7145 239.376 94.2502C238.483 93.7502 237.501 93.5002 236.43 93.5002C235.322 93.5002 234.322 93.7502 233.43 94.2502C232.573 94.7145 231.876 95.393 231.34 96.2859C230.805 97.143 230.465 98.1609 230.323 99.3394ZM255.53 116V107.268H262.548V116H255.53ZM18.8423 142.965H28.3244L41.3957 181H32.3958L29.4494 172.482H17.6102L14.7174 181H5.71743L18.8423 142.965ZM28.003 166.429L23.5566 151.804L19.003 166.429H28.003ZM45.4872 181V161.661H41.8979V155.179H45.4872V154.268C45.4872 152.125 45.8979 150.232 46.7193 148.59C47.5407 146.911 48.7014 145.607 50.2014 144.679C51.7371 143.715 53.5228 143.232 55.5585 143.232C56.8799 143.232 58.2013 143.411 59.5228 143.768C60.8799 144.09 62.3085 144.572 63.8084 145.215L62.1477 151.75C61.362 151.357 60.5406 151.054 59.6835 150.84C58.8263 150.59 58.0406 150.465 57.3264 150.465C56.7906 150.465 56.3085 150.554 55.8799 150.732C55.4871 150.911 55.1478 151.161 54.8621 151.482C54.6121 151.768 54.4157 152.125 54.2728 152.554C54.13 152.982 54.0585 153.447 54.0585 153.947V155.179H60.5942V161.661H54.0585V181H45.4872ZM60.2192 181V161.661H56.6299V155.179H60.2192V152.875C60.2192 150.518 60.612 148.482 61.3978 146.768C62.2192 145.054 63.362 143.732 64.8263 142.804C66.3263 141.84 68.0584 141.357 70.0227 141.357C71.2012 141.357 72.3977 141.5 73.6119 141.786C74.8619 142.072 76.1119 142.482 77.3619 143.018L75.8084 149.447C75.2369 149.197 74.5941 149 73.8798 148.857C73.1655 148.679 72.5227 148.59 71.9512 148.59C70.9155 148.59 70.1298 148.929 69.5941 149.607C69.0584 150.25 68.7906 151.232 68.7906 152.554V155.179H75.3262V161.661H68.7906V181H60.2192ZM92.6384 181.536C90.2456 181.536 88.1027 181.143 86.2099 180.357C84.3527 179.571 82.7813 178.5 81.4956 177.143C80.2099 175.786 79.2278 174.232 78.5492 172.482C77.9064 170.732 77.5849 168.893 77.5849 166.964C77.5849 165 77.9064 163.143 78.5492 161.393C79.2278 159.643 80.2099 158.089 81.4956 156.732C82.7813 155.375 84.3527 154.304 86.2099 153.518C88.1027 152.732 90.2456 152.34 92.6384 152.34C95.0312 152.34 97.1562 152.732 99.0133 153.518C100.87 154.304 102.442 155.375 103.728 156.732C105.013 158.089 105.995 159.643 106.674 161.393C107.353 163.143 107.692 165 107.692 166.964C107.692 168.893 107.353 170.732 106.674 172.482C105.995 174.232 105.013 175.786 103.728 177.143C102.442 178.5 100.87 179.571 99.0133 180.357C97.1562 181.143 95.0312 181.536 92.6384 181.536ZM86.3706 166.964C86.3706 168.429 86.6384 169.714 87.1741 170.822C87.7456 171.929 88.4956 172.786 89.4241 173.393C90.3527 174 91.4241 174.304 92.6384 174.304C93.817 174.304 94.8705 174 95.7991 173.393C96.7634 172.75 97.5134 171.875 98.0491 170.768C98.5848 169.661 98.8526 168.393 98.8526 166.964C98.8526 165.5 98.5848 164.214 98.0491 163.107C97.5134 162 96.7634 161.143 95.7991 160.536C94.8705 159.929 93.817 159.625 92.6384 159.625C91.4241 159.625 90.3527 159.929 89.4241 160.536C88.4956 161.143 87.7456 162 87.1741 163.107C86.6384 164.214 86.3706 165.5 86.3706 166.964ZM129.944 160.214C127.873 160.214 125.998 160.554 124.319 161.232C122.641 161.875 121.426 162.839 120.676 164.125V181H112.105V152.875H119.98V158.554C120.944 156.661 122.194 155.179 123.73 154.107C125.266 153.036 126.873 152.482 128.551 152.447C128.944 152.447 129.23 152.447 129.409 152.447C129.623 152.447 129.801 152.465 129.944 152.5V160.214ZM131.953 166.911C131.953 164.161 132.488 161.697 133.56 159.518C134.631 157.304 136.096 155.554 137.953 154.268C139.81 152.982 141.953 152.34 144.381 152.34C146.345 152.34 148.131 152.822 149.738 153.786C151.345 154.714 152.56 155.947 153.381 157.482V141.893H161.952V171.464C161.952 172.321 162.095 172.929 162.381 173.286C162.667 173.607 163.131 173.804 163.774 173.875V181C162.274 181.286 161.06 181.429 160.131 181.429C158.667 181.429 157.47 181.107 156.542 180.464C155.649 179.821 155.095 178.929 154.881 177.786L154.72 176.339C153.72 178.089 152.363 179.393 150.649 180.25C148.935 181.107 147.131 181.536 145.238 181.536C143.31 181.536 141.524 181.179 139.881 180.464C138.274 179.714 136.863 178.679 135.649 177.357C134.471 176.036 133.56 174.482 132.917 172.696C132.274 170.911 131.953 168.982 131.953 166.911ZM153.435 170.393V164.5C153.078 163.536 152.56 162.697 151.881 161.982C151.238 161.268 150.488 160.697 149.631 160.268C148.81 159.839 147.97 159.625 147.113 159.625C146.185 159.625 145.328 159.822 144.542 160.214C143.792 160.607 143.131 161.161 142.56 161.875C141.988 162.554 141.542 163.339 141.22 164.232C140.935 165.125 140.792 166.072 140.792 167.072C140.792 168.107 140.953 169.072 141.274 169.964C141.631 170.822 142.113 171.589 142.72 172.268C143.328 172.911 144.042 173.411 144.863 173.768C145.685 174.125 146.578 174.304 147.542 174.304C148.149 174.304 148.738 174.214 149.31 174.036C149.881 173.821 150.417 173.554 150.917 173.232C151.453 172.911 151.935 172.5 152.363 172C152.792 171.5 153.149 170.964 153.435 170.393ZM167.006 172.589C167.006 170.732 167.524 169.107 168.559 167.714C169.595 166.322 171.024 165.232 172.845 164.447C174.666 163.625 176.756 163.214 179.113 163.214C180.256 163.214 181.381 163.322 182.488 163.536C183.595 163.714 184.559 163.982 185.381 164.339V163.107C185.381 161.572 184.916 160.393 183.988 159.572C183.059 158.75 181.648 158.339 179.756 158.339C178.184 158.339 176.702 158.607 175.309 159.143C173.952 159.679 172.506 160.447 170.97 161.447L168.399 155.982C170.256 154.768 172.184 153.857 174.184 153.25C176.22 152.643 178.363 152.34 180.613 152.34C184.827 152.34 188.095 153.357 190.416 155.393C192.773 157.393 193.952 160.304 193.952 164.125V171.464C193.952 172.321 194.077 172.929 194.327 173.286C194.613 173.607 195.095 173.804 195.773 173.875V181C195.059 181.143 194.38 181.25 193.738 181.321C193.13 181.393 192.595 181.429 192.13 181.429C190.523 181.429 189.291 181.107 188.434 180.464C187.613 179.821 187.095 178.946 186.881 177.839L186.72 176.607C185.47 178.214 183.97 179.446 182.22 180.304C180.506 181.125 178.702 181.536 176.809 181.536C174.952 181.536 173.273 181.143 171.774 180.357C170.309 179.571 169.149 178.5 168.291 177.143C167.434 175.786 167.006 174.268 167.006 172.589ZM184.041 173.661C184.434 173.339 184.756 172.982 185.006 172.589C185.256 172.196 185.381 171.821 185.381 171.464V168.947C184.666 168.661 183.863 168.447 182.97 168.304C182.113 168.125 181.309 168.036 180.559 168.036C178.988 168.036 177.684 168.393 176.648 169.107C175.613 169.786 175.095 170.697 175.095 171.839C175.095 172.482 175.273 173.071 175.631 173.607C175.988 174.143 176.47 174.571 177.077 174.893C177.72 175.214 178.47 175.375 179.327 175.375C180.184 175.375 181.041 175.214 181.898 174.893C182.756 174.571 183.47 174.161 184.041 173.661ZM217.2 181.536C215.057 181.536 213.182 181.089 211.575 180.196C209.968 179.268 208.7 177.982 207.771 176.339V181H200.325V141.893H208.896V157.482C209.825 155.839 211.057 154.572 212.593 153.679C214.164 152.786 216.004 152.34 218.111 152.34C219.896 152.34 221.521 152.732 222.986 153.518C224.486 154.268 225.771 155.322 226.843 156.679C227.95 158 228.807 159.554 229.414 161.339C230.021 163.089 230.325 165 230.325 167.072C230.325 169.107 229.986 171 229.307 172.75C228.664 174.5 227.753 176.036 226.575 177.357C225.396 178.679 224.004 179.714 222.396 180.464C220.825 181.179 219.093 181.536 217.2 181.536ZM214.789 174.304C215.754 174.304 216.646 174.125 217.468 173.768C218.325 173.375 219.057 172.857 219.664 172.214C220.271 171.572 220.736 170.822 221.057 169.964C221.379 169.072 221.539 168.107 221.539 167.072C221.539 165.75 221.271 164.518 220.736 163.375C220.2 162.232 219.45 161.322 218.486 160.643C217.557 159.964 216.468 159.625 215.218 159.625C214.325 159.625 213.468 159.839 212.646 160.268C211.825 160.697 211.093 161.286 210.45 162.036C209.807 162.75 209.289 163.572 208.896 164.5V170.393C209.182 171 209.539 171.554 209.968 172.054C210.396 172.518 210.861 172.911 211.361 173.232C211.896 173.554 212.45 173.821 213.021 174.036C213.629 174.214 214.218 174.304 214.789 174.304ZM234.647 141.893H243.218V170.982C243.218 172.161 243.433 173 243.861 173.5C244.29 174 244.897 174.25 245.683 174.25C246.218 174.25 246.754 174.179 247.29 174.036C247.861 173.857 248.361 173.661 248.79 173.446L249.915 179.875C248.843 180.375 247.611 180.768 246.218 181.054C244.825 181.339 243.522 181.482 242.308 181.482C239.879 181.482 237.986 180.839 236.629 179.554C235.308 178.232 234.647 176.375 234.647 173.982V141.893ZM266.307 181.536C263.914 181.536 261.789 181.161 259.932 180.411C258.075 179.625 256.486 178.571 255.164 177.25C253.878 175.929 252.896 174.411 252.218 172.696C251.539 170.947 251.2 169.125 251.2 167.232C251.2 164.518 251.789 162.054 252.968 159.839C254.182 157.589 255.914 155.786 258.164 154.429C260.414 153.036 263.128 152.34 266.307 152.34C269.485 152.34 272.182 153.018 274.396 154.375C276.646 155.732 278.36 157.518 279.539 159.732C280.718 161.911 281.307 164.286 281.307 166.857C281.307 167.357 281.271 167.857 281.2 168.357C281.164 168.822 281.128 169.232 281.093 169.589H260.307C260.414 170.839 260.753 171.893 261.325 172.75C261.932 173.607 262.7 174.268 263.628 174.732C264.557 175.161 265.539 175.375 266.575 175.375C267.86 175.375 269.057 175.071 270.164 174.464C271.307 173.857 272.093 173.036 272.521 172L279.807 174.036C279.093 175.5 278.075 176.804 276.753 177.946C275.468 179.054 273.932 179.929 272.146 180.571C270.396 181.214 268.45 181.536 266.307 181.536ZM260.093 164.339H272.307C272.164 163.161 271.825 162.143 271.289 161.286C270.753 160.393 270.039 159.714 269.146 159.25C268.253 158.75 267.271 158.5 266.2 158.5C265.093 158.5 264.093 158.75 263.2 159.25C262.343 159.714 261.646 160.393 261.111 161.286C260.575 162.143 260.236 163.161 260.093 164.339Z" fill="black" fill-opacity="0.04"/>
<g clip-path="url(#clip0_811_642)">
<path d="M91.0983 81.7885L91.0234 108.03L95.914 98.5076L106.341 103.908L91.0983 81.7885ZM95.2814 95.61L92.5607 101.861V86.1825L100.845 98.9361L95.2814 95.61Z" fill="#FF6B28"/>
<path d="M90.0096 81.8091L84.6565 92.2501L76.1064 88.2914L89.9348 108.017L90.0096 81.8091ZM88.5064 103.575L80.4393 92.2909L85.4455 94.3315L88.5268 87.7813L88.5064 103.575Z" fill="#0F2033"/>
<path d="M88.1934 82.8973C88.5811 82.3871 88.9552 81.877 89.3293 81.3736L90.2816 80.0745V79.5099L90.1796 79.6527L89.0777 81.1968C88.7104 81.7137 88.3431 82.2307 87.9894 82.7544C87.6357 83.2782 87.2684 83.7951 86.9146 84.3189C86.5609 84.8426 86.2345 85.3664 85.8604 85.8969C86.2617 85.4072 86.6494 84.9038 87.0371 84.4073C87.4248 83.9107 87.8193 83.4006 88.1934 82.8973Z" fill="#FF6B28"/>
<path d="M90.2943 79.5099V78.7888L85.873 85.9037" fill="#FF6B28"/>
<path d="M92.8187 82.877C92.4378 82.3668 92.0637 81.8567 91.6828 81.3533L90.7373 80.0542V79.4896L90.8393 79.6324L91.948 81.1765C92.3085 81.6934 92.6759 82.2104 93.0364 82.7341C93.3969 83.2579 93.7506 83.7748 94.1111 84.2986C94.4716 84.8223 94.7913 85.3461 95.1586 85.8766C94.764 85.3869 94.3763 84.8835 93.9886 84.387L92.8187 82.877Z" fill="#0F2033"/>
<path d="M90.7168 79.4896V78.7686L95.1381 85.8765" fill="#0F2033"/>
<path d="M88.1651 107.119C88.546 107.622 88.9201 108.132 89.301 108.643L90.2464 109.942V110.499L90.1444 110.357L89.0425 108.813L87.9474 107.262L86.8727 105.69C86.519 105.167 86.1925 104.643 85.8252 104.112C86.2265 104.602 86.6142 105.106 86.9951 105.602C87.376 106.099 87.791 106.609 88.1651 107.119Z" fill="#FF6B28"/>
<path d="M90.2679 110.499V111.22L85.8467 104.112" fill="#FF6B28"/>
<path d="M92.7914 107.139C92.4104 107.642 92.0363 108.153 91.6554 108.663L90.71 109.962V110.52L90.812 110.377L91.9139 108.833L93.009 107.282L94.0837 105.711C94.4374 105.187 94.7639 104.663 95.1312 104.133C94.7299 104.622 94.3422 105.126 93.9545 105.622C93.5668 106.119 93.1655 106.629 92.7914 107.139Z" fill="#F7F1DA"/>
<path d="M90.6904 110.52V111.241L95.1117 104.133" fill="#0F2033"/>
<path d="M133.351 88.2183V101.446H132.028V90.2214L127.398 97.9691H127.209L122.58 90.2214V101.446H121.257V88.2183H122.901L127.304 95.5881L131.707 88.2183H133.351ZM144.307 91.9977H145.554V101.446H144.307V99.5942C143.438 100.98 142.166 101.673 140.49 101.673C139.142 101.673 137.989 101.194 137.032 100.237C136.087 99.2792 135.615 98.1076 135.615 96.7219C135.615 95.3361 136.087 94.1645 137.032 93.2071C137.989 92.2496 139.142 91.7709 140.49 91.7709C142.166 91.7709 143.438 92.4638 144.307 93.8496V91.9977ZM137.939 99.3863C138.657 100.104 139.539 100.463 140.585 100.463C141.63 100.463 142.512 100.104 143.23 99.3863C143.948 98.6557 144.307 97.7675 144.307 96.7219C144.307 95.6763 143.948 94.7944 143.23 94.0763C142.512 93.3457 141.63 92.9803 140.585 92.9803C139.539 92.9803 138.657 93.3457 137.939 94.0763C137.221 94.7944 136.862 95.6763 136.862 96.7219C136.862 97.7675 137.221 98.6557 137.939 99.3863ZM149.442 93.5661C150.022 92.4197 151.017 91.8465 152.428 91.8465V93.0559C151.571 93.0559 150.86 93.3079 150.293 93.8118C149.726 94.3157 149.442 95.1094 149.442 96.1928V101.446H148.195V91.9977H149.442V93.5661ZM161.691 91.9977H162.938V105.225H161.691V99.5942C160.822 100.98 159.549 101.673 157.874 101.673C156.526 101.673 155.373 101.194 154.416 100.237C153.471 99.2792 152.998 98.1076 152.998 96.7219C152.998 95.3361 153.471 94.1645 154.416 93.2071C155.373 92.2496 156.526 91.7709 157.874 91.7709C159.549 91.7709 160.822 92.4638 161.691 93.8496V91.9977ZM155.323 99.3863C156.041 100.104 156.923 100.463 157.968 100.463C159.014 100.463 159.896 100.104 160.614 99.3863C161.332 98.6557 161.691 97.7675 161.691 96.7219C161.691 95.6763 161.332 94.7944 160.614 94.0763C159.896 93.3457 159.014 92.9803 157.968 92.9803C156.923 92.9803 156.041 93.3457 155.323 94.0763C154.605 94.7944 154.245 95.6763 154.245 96.7219C154.245 97.7675 154.605 98.6557 155.323 99.3863Z" fill="#0F2033"/>
<path d="M174.082 88.2183V89.4655H170.019V101.446H168.697V89.4655H164.634V88.2183H174.082ZM186.218 91.9977H187.503L184.593 101.446H183.233L180.795 93.8307L178.357 101.446H176.997L174.087 91.9977H175.372L177.696 99.8398L180.171 91.9977H181.419L183.894 99.8398L186.218 91.9977ZM190.65 89.7301C190.474 89.9064 190.26 89.9946 190.008 89.9946C189.756 89.9946 189.542 89.9064 189.365 89.7301C189.189 89.5537 189.101 89.3395 189.101 89.0876C189.101 88.8356 189.189 88.6215 189.365 88.4451C189.542 88.2687 189.756 88.1805 190.008 88.1805C190.26 88.1805 190.474 88.2687 190.65 88.4451C190.827 88.6215 190.915 88.8356 190.915 89.0876C190.915 89.3395 190.827 89.5537 190.65 89.7301ZM189.384 101.446V91.9977H190.631V101.446H189.384ZM197.7 91.7709C198.846 91.7709 199.747 92.1237 200.402 92.8291C201.07 93.522 201.404 94.4606 201.404 95.6448V101.446H200.156V95.6448C200.156 94.8007 199.93 94.1456 199.476 93.6795C199.035 93.2134 198.405 92.9803 197.586 92.9803C196.679 92.9803 195.942 93.2701 195.375 93.8496C194.809 94.4165 194.525 95.2983 194.525 96.4951V101.446H193.278V91.9977H194.525V93.4716C195.231 92.3378 196.289 91.7709 197.7 91.7709ZM208.237 91.7709C209.383 91.7709 210.284 92.1237 210.939 92.8291C211.607 93.522 211.941 94.4606 211.941 95.6448V101.446H210.694V95.6448C210.694 94.8007 210.467 94.1456 210.013 93.6795C209.572 93.2134 208.942 92.9803 208.124 92.9803C207.217 92.9803 206.48 93.2701 205.913 93.8496C205.346 94.4165 205.062 95.2983 205.062 96.4951V101.446H203.815V91.9977H205.062V93.4716C205.768 92.3378 206.826 91.7709 208.237 91.7709Z" fill="#FF6B28"/>
</g>
<defs>
<clipPath id="clip0_811_642">
<rect width="137" height="40.4101" fill="white" transform="translate(76 71)"/>
</clipPath>
</defs>
</svg>
