<svg width="1120" height="338" viewBox="0 0 1120 338" fill="none" xmlns="http://www.w3.org/2000/svg">
<g clip-path="url(#clip0_646_394)">
<path d="M397.954 124.838L397.727 204.713L412.613 175.727L444.351 192.166L397.954 124.838ZM410.687 166.908L402.406 185.934V138.212L427.623 177.032L410.687 166.908Z" fill="#FF6B28"/>
<path d="M394.641 124.901L378.347 156.681L352.322 144.631L394.413 204.672L394.641 124.901ZM390.065 191.153L365.511 156.805L380.748 163.016L390.127 143.079L390.065 191.153Z" fill="#0F2033"/>
<path d="M389.112 128.213C390.292 126.66 391.431 125.107 392.57 123.575L395.468 119.621V117.902L395.158 118.337L391.804 123.037C390.686 124.61 389.568 126.184 388.491 127.778C387.414 129.372 386.296 130.946 385.22 132.54C384.143 134.134 383.149 135.728 382.011 137.343C383.232 135.852 384.412 134.32 385.592 132.809C386.773 131.298 387.973 129.745 389.112 128.213Z" fill="#FF6B28"/>
<path d="M395.508 117.902V115.708L382.051 137.364" fill="#FF6B28"/>
<path d="M403.191 128.151C402.031 126.598 400.893 125.045 399.733 123.513L396.855 119.559V117.841L397.166 118.275L400.541 122.975C401.638 124.549 402.756 126.122 403.853 127.716C404.951 129.31 406.027 130.884 407.124 132.478C408.222 134.072 409.195 135.666 410.313 137.281C409.112 135.791 407.932 134.258 406.752 132.747L403.191 128.151Z" fill="#0F2033"/>
<path d="M396.794 117.84V115.646L410.251 137.281" fill="#0F2033"/>
<path d="M389.027 201.938C390.187 203.471 391.325 205.023 392.485 206.576L395.363 210.531V212.228L395.052 211.793L391.698 207.094L388.365 202.373L385.094 197.591C384.017 195.997 383.023 194.402 381.905 192.787C383.127 194.278 384.307 195.81 385.466 197.322C386.626 198.833 387.889 200.386 389.027 201.938Z" fill="#FF6B28"/>
<path d="M395.427 212.228V214.423L381.97 192.787" fill="#FF6B28"/>
<path d="M403.11 202C401.95 203.532 400.812 205.085 399.652 206.638L396.774 210.592V212.29L397.085 211.855L400.439 207.155L403.772 202.435L407.043 197.652C408.12 196.058 409.114 194.464 410.232 192.849C409.01 194.34 407.83 195.871 406.65 197.383C405.47 198.894 404.248 200.447 403.11 202Z" fill="#F7F1DA"/>
<path d="M396.712 212.29V214.484L410.169 192.849" fill="#0F2033"/>
<path d="M526.565 144.796V185.058H522.539V150.893L508.447 174.475H507.872L493.78 150.893V185.058H489.754V144.796H494.758L508.16 167.228L521.561 144.796H526.565ZM559.914 156.299H563.711V185.058H559.914V179.422C557.269 183.64 553.396 185.749 548.296 185.749C544.193 185.749 540.684 184.291 537.77 181.377C534.894 178.463 533.456 174.897 533.456 170.679C533.456 166.461 534.894 162.895 537.77 159.981C540.684 157.066 544.193 155.609 548.296 155.609C553.396 155.609 557.269 157.718 559.914 161.936V156.299ZM540.531 178.789C542.717 180.975 545.401 182.067 548.583 182.067C551.766 182.067 554.45 180.975 556.636 178.789C558.822 176.565 559.914 173.862 559.914 170.679C559.914 167.496 558.822 164.812 556.636 162.626C554.45 160.402 551.766 159.29 548.583 159.29C545.401 159.29 542.717 160.402 540.531 162.626C538.345 164.812 537.252 167.496 537.252 170.679C537.252 173.862 538.345 176.565 540.531 178.789ZM575.544 161.073C577.308 157.584 580.338 155.839 584.632 155.839V159.52C582.025 159.52 579.858 160.287 578.133 161.821C576.407 163.355 575.544 165.771 575.544 169.068V185.058H571.748V156.299H575.544V161.073ZM612.826 156.299H616.623V196.562H612.826V179.422C610.181 183.64 606.308 185.749 601.208 185.749C597.105 185.749 593.596 184.291 590.682 181.377C587.806 178.463 586.368 174.897 586.368 170.679C586.368 166.461 587.806 162.895 590.682 159.981C593.596 157.066 597.105 155.609 601.208 155.609C606.308 155.609 610.181 157.718 612.826 161.936V156.299ZM593.443 178.789C595.629 180.975 598.313 182.067 601.495 182.067C604.678 182.067 607.362 180.975 609.548 178.789C611.734 176.565 612.826 173.862 612.826 170.679C612.826 167.496 611.734 164.812 609.548 162.626C607.362 160.402 604.678 159.29 601.495 159.29C598.313 159.29 595.629 160.402 593.443 162.626C591.257 164.812 590.164 167.496 590.164 170.679C590.164 173.862 591.257 176.565 593.443 178.789Z" fill="#0F2033"/>
<path d="M650.543 144.796V148.592H638.177V185.058H634.151V148.592H621.784V144.796H650.543ZM687.483 156.299H691.395L682.537 185.058H678.396L670.976 161.879L663.556 185.058H659.415L650.557 156.299H654.468L661.543 180.169L669.078 156.299H672.874L680.409 180.169L687.483 156.299ZM700.973 149.397C700.436 149.934 699.784 150.202 699.018 150.202C698.251 150.202 697.599 149.934 697.062 149.397C696.525 148.86 696.257 148.209 696.257 147.442C696.257 146.675 696.525 146.023 697.062 145.486C697.599 144.949 698.251 144.681 699.018 144.681C699.784 144.681 700.436 144.949 700.973 145.486C701.51 146.023 701.778 146.675 701.778 147.442C701.778 148.209 701.51 148.86 700.973 149.397ZM697.119 185.058V156.299H700.916V185.058H697.119ZM722.43 155.609C725.92 155.609 728.662 156.683 730.656 158.83C732.688 160.939 733.704 163.796 733.704 167.4V185.058H729.908V167.4C729.908 164.831 729.218 162.837 727.837 161.418C726.495 160 724.578 159.29 722.085 159.29C719.324 159.29 717.081 160.172 715.356 161.936C713.63 163.662 712.767 166.346 712.767 169.989V185.058H708.971V156.299H712.767V160.786C714.915 157.335 718.136 155.609 722.43 155.609ZM754.503 155.609C757.993 155.609 760.735 156.683 762.729 158.83C764.761 160.939 765.777 163.796 765.777 167.4V185.058H761.981V167.4C761.981 164.831 761.291 162.837 759.91 161.418C758.568 160 756.651 159.29 754.158 159.29C751.397 159.29 749.154 160.172 747.429 161.936C745.703 163.662 744.84 166.346 744.84 169.989V185.058H741.044V156.299H744.84V160.786C746.988 157.335 750.209 155.609 754.503 155.609Z" fill="#FF6B28"/>
</g>
<path d="M7.02363 127V41.2935H45.6519C49.6757 41.2935 53.3776 42.1385 56.7575 43.8285C60.218 45.438 63.1956 47.6511 65.6903 50.4677C68.1851 53.2039 70.1165 56.3022 71.4846 59.7627C72.9331 63.2231 73.6574 66.7238 73.6574 70.2647C73.6574 73.8057 73.0941 77.1856 71.9674 80.4046C70.8408 83.5432 69.2312 86.4001 67.1389 88.9753C65.0465 91.47 62.5518 93.5222 59.6546 95.1317L78.4859 127H56.6368L40.2198 99.3566H26.8206V127H7.02363ZM26.8206 82.0946H44.9276C46.5371 82.0946 47.9455 81.6118 49.1526 80.6461C50.4402 79.5999 51.4864 78.1916 52.2911 76.4211C53.0959 74.6506 53.4983 72.5985 53.4983 70.2647C53.4983 67.9309 53.0154 65.919 52.0497 64.2291C51.1645 62.4586 50.0378 61.0905 48.6697 60.1248C47.3017 59.1591 45.8531 58.6762 44.3241 58.6762H26.8206V82.0946ZM114.866 128.207C109.474 128.207 104.686 127.362 100.501 125.672C96.3162 123.902 92.735 121.528 89.7574 118.55C86.8603 115.572 84.6472 112.152 83.1182 108.289C81.5892 104.346 80.8246 100.242 80.8246 95.9767C80.8246 89.8605 82.1525 84.3077 84.8082 79.3182C87.5443 74.2483 91.4474 70.1843 96.5174 67.1262C101.587 63.9876 107.703 62.4184 114.866 62.4184C122.028 62.4184 128.104 63.9474 133.094 67.0055C138.163 70.0635 142.026 74.0873 144.682 79.0768C147.338 83.9858 148.666 89.3374 148.666 95.1317C148.666 96.2583 148.585 97.385 148.424 98.5116C148.344 99.5578 148.263 100.483 148.183 101.288H101.346C101.587 104.105 102.352 106.479 103.639 108.41C105.008 110.342 106.738 111.83 108.83 112.877C110.922 113.842 113.136 114.325 115.469 114.325C118.366 114.325 121.062 113.641 123.557 112.273C126.132 110.905 127.903 109.054 128.869 106.72L145.286 111.307C143.676 114.607 141.382 117.544 138.405 120.119C135.508 122.614 132.047 124.586 128.024 126.034C124.08 127.483 119.694 128.207 114.866 128.207ZM100.863 89.4581H128.386C128.064 86.8025 127.299 84.5089 126.092 82.5775C124.885 80.5656 123.275 79.0366 121.264 77.9904C119.252 76.8637 117.039 76.3004 114.624 76.3004C112.13 76.3004 109.876 76.8637 107.864 77.9904C105.933 79.0366 104.364 80.5656 103.157 82.5775C101.949 84.5089 101.185 86.8025 100.863 89.4581ZM157.543 38.8793H176.858V104.427C176.858 107.082 177.34 108.973 178.306 110.1C179.272 111.227 180.64 111.79 182.41 111.79C183.618 111.79 184.825 111.629 186.032 111.307C187.319 110.905 188.446 110.462 189.412 109.979L191.947 124.465C189.533 125.592 186.756 126.477 183.618 127.121C180.479 127.765 177.542 128.086 174.806 128.086C169.333 128.086 165.068 126.638 162.01 123.741C159.032 120.763 157.543 116.578 157.543 111.187V38.8793ZM198.585 127V63.6255H217.899V127H198.585ZM198.585 56.3827V38.8793H217.899V56.3827H198.585ZM227.503 108.048C227.503 103.863 228.67 100.202 231.004 97.0631C233.338 93.9245 236.557 91.47 240.661 89.6996C244.765 87.8486 249.473 86.9232 254.784 86.9232C257.36 86.9232 259.895 87.1646 262.389 87.6475C264.884 88.0498 267.057 88.6534 268.908 89.4581V86.6817C268.908 83.2213 267.862 80.5656 265.769 78.7147C263.677 76.8637 260.498 75.9383 256.233 75.9383C252.692 75.9383 249.352 76.5418 246.214 77.749C243.156 78.9561 239.896 80.6863 236.436 82.9396L230.642 70.6269C234.827 67.8907 239.172 65.8386 243.679 64.4705C248.266 63.1024 253.094 62.4184 258.164 62.4184C267.661 62.4184 275.024 64.7119 280.255 69.299C285.566 73.8057 288.222 80.3644 288.222 88.9753V105.513C288.222 107.444 288.504 108.813 289.067 109.617C289.711 110.342 290.797 110.784 292.326 110.945V127C290.717 127.322 289.188 127.563 287.739 127.724C286.371 127.885 285.164 127.966 284.118 127.966C280.496 127.966 277.72 127.241 275.789 125.793C273.938 124.344 272.771 122.373 272.288 119.878L271.926 117.102C269.109 120.723 265.729 123.499 261.786 125.431C257.923 127.282 253.859 128.207 249.594 128.207C245.409 128.207 241.627 127.322 238.247 125.551C234.947 123.781 232.332 121.367 230.4 118.309C228.469 115.251 227.503 111.83 227.503 108.048ZM265.89 110.462C266.775 109.738 267.5 108.933 268.063 108.048C268.626 107.163 268.908 106.318 268.908 105.513V99.8395C267.298 99.1957 265.488 98.7128 263.476 98.3909C261.544 97.9886 259.734 97.7874 258.044 97.7874C254.503 97.7874 251.565 98.5921 249.232 100.202C246.898 101.731 245.731 103.783 245.731 106.358C245.731 107.807 246.133 109.134 246.938 110.342C247.743 111.549 248.829 112.514 250.197 113.239C251.646 113.963 253.336 114.325 255.267 114.325C257.199 114.325 259.13 113.963 261.062 113.239C262.993 112.514 264.602 111.589 265.89 110.462ZM340.608 128.207C335.779 128.207 331.554 127.201 327.933 125.189C324.311 123.097 321.455 120.2 319.362 116.498V127H302.583V38.8793H321.897V74.0068C323.99 70.305 326.766 67.4481 330.226 65.4362C333.767 63.4243 337.912 62.4184 342.66 62.4184C346.684 62.4184 350.345 63.3036 353.645 65.0741C357.025 66.764 359.922 69.1381 362.336 72.1961C364.831 75.1737 366.762 78.6744 368.13 82.6982C369.499 86.6415 370.183 90.9469 370.183 95.6145C370.183 100.202 369.418 104.467 367.889 108.41C366.44 112.353 364.388 115.814 361.733 118.791C359.077 121.769 355.938 124.103 352.317 125.793C348.776 127.402 344.873 128.207 340.608 128.207ZM335.176 111.911C337.349 111.911 339.36 111.508 341.211 110.704C343.143 109.818 344.793 108.652 346.161 107.203C347.529 105.754 348.575 104.064 349.299 102.133C350.023 100.121 350.386 97.9483 350.386 95.6145C350.386 92.6369 349.782 89.8605 348.575 87.2853C347.368 84.7101 345.678 82.658 343.505 81.1289C341.413 79.5999 338.958 78.8354 336.141 78.8354C334.13 78.8354 332.198 79.3182 330.347 80.2839C328.496 81.2496 326.846 82.5775 325.398 84.2675C323.949 85.877 322.782 87.7279 321.897 89.8203V103.099C322.541 104.467 323.346 105.714 324.311 106.841C325.277 107.887 326.323 108.772 327.45 109.497C328.657 110.221 329.905 110.824 331.192 111.307C332.56 111.71 333.888 111.911 335.176 111.911ZM379.922 38.8793H399.236V104.427C399.236 107.082 399.719 108.973 400.684 110.1C401.65 111.227 403.018 111.79 404.788 111.79C405.996 111.79 407.203 111.629 408.41 111.307C409.698 110.905 410.824 110.462 411.79 109.979L414.325 124.465C411.911 125.592 409.134 126.477 405.996 127.121C402.857 127.765 399.92 128.086 397.184 128.086C391.711 128.086 387.446 126.638 384.388 123.741C381.41 120.763 379.922 116.578 379.922 111.187V38.8793ZM451.262 128.207C445.87 128.207 441.082 127.362 436.897 125.672C432.712 123.902 429.131 121.528 426.154 118.55C423.257 115.572 421.044 112.152 419.514 108.289C417.985 104.346 417.221 100.242 417.221 95.9767C417.221 89.8605 418.549 84.3077 421.204 79.3182C423.941 74.2483 427.844 70.1843 432.914 67.1262C437.984 63.9876 444.1 62.4184 451.262 62.4184C458.424 62.4184 464.5 63.9474 469.49 67.0055C474.56 70.0635 478.423 74.0873 481.078 79.0768C483.734 83.9858 485.062 89.3374 485.062 95.1317C485.062 96.2583 484.981 97.385 484.82 98.5116C484.74 99.5578 484.659 100.483 484.579 101.288H437.742C437.984 104.105 438.748 106.479 440.036 108.41C441.404 110.342 443.134 111.83 445.226 112.877C447.319 113.842 449.532 114.325 451.866 114.325C454.763 114.325 457.459 113.641 459.953 112.273C462.529 110.905 464.299 109.054 465.265 106.72L481.682 111.307C480.072 114.607 477.779 117.544 474.801 120.119C471.904 122.614 468.444 124.586 464.42 126.034C460.477 127.483 456.091 128.207 451.262 128.207ZM437.259 89.4581H464.782C464.46 86.8025 463.696 84.5089 462.488 82.5775C461.281 80.5656 459.672 79.0366 457.66 77.9904C455.648 76.8637 453.435 76.3004 451.021 76.3004C448.526 76.3004 446.273 76.8637 444.261 77.9904C442.329 79.0366 440.76 80.5656 439.553 82.5775C438.346 84.5089 437.581 86.8025 437.259 89.4581ZM494.06 127V107.324H509.874V127H494.06ZM604.962 66.4019C604.72 65.9995 603.875 65.396 602.427 64.5912C600.978 63.706 599.168 62.7805 596.995 61.8148C594.822 60.8491 592.448 60.0041 589.873 59.2798C587.297 58.5555 584.722 58.1934 582.147 58.1934C578.767 58.1934 576.152 58.797 574.301 60.0041C572.45 61.1308 571.524 62.9012 571.524 65.3155C571.524 67.2469 572.208 68.7759 573.576 69.9026C575.025 71.0292 577.077 72.0352 579.733 72.9204C582.388 73.7252 585.648 74.6909 589.511 75.8175C594.983 77.2661 599.731 79.0366 603.755 81.1289C607.779 83.1408 610.837 85.7563 612.929 88.9753C615.102 92.1943 616.188 96.4595 616.188 101.771C616.188 106.599 615.303 110.704 613.533 114.084C611.762 117.383 609.348 120.079 606.29 122.171C603.312 124.183 599.892 125.672 596.029 126.638C592.166 127.523 588.183 127.966 584.078 127.966C579.894 127.966 575.588 127.563 571.162 126.759C566.816 125.873 562.632 124.666 558.608 123.137C554.584 121.528 550.882 119.596 547.502 117.343L556.194 100.081C556.516 100.483 557.562 101.248 559.332 102.374C561.103 103.421 563.276 104.547 565.851 105.754C568.506 106.881 571.444 107.887 574.663 108.772C577.882 109.658 581.141 110.1 584.441 110.1C587.982 110.1 590.597 109.537 592.287 108.41C594.057 107.283 594.943 105.714 594.943 103.702C594.943 101.529 594.017 99.8395 592.166 98.6324C590.396 97.4252 587.941 96.3388 584.803 95.3731C581.745 94.4074 578.204 93.321 574.18 92.1138C568.949 90.5043 564.603 88.6936 561.143 86.6817C557.763 84.6699 555.228 82.2153 553.538 79.3182C551.928 76.4211 551.124 72.7997 551.124 68.454C551.124 62.4184 552.532 57.3484 555.349 53.2441C558.246 49.0594 562.109 45.9209 566.937 43.8285C571.766 41.6557 577.037 40.5692 582.751 40.5692C586.774 40.5692 590.637 41.0521 594.339 42.0178C598.121 42.9835 601.622 44.1906 604.841 45.6392C608.141 47.0878 611.078 48.5363 613.653 49.9849L604.962 66.4019ZM656.901 128.207C651.509 128.207 646.72 127.322 642.536 125.551C638.351 123.781 634.77 121.367 631.792 118.309C628.895 115.251 626.682 111.75 625.153 107.807C623.624 103.863 622.859 99.6785 622.859 95.2524C622.859 89.4581 624.187 84.0663 626.843 79.0768C629.579 74.0873 633.482 70.0635 638.552 67.0055C643.622 63.9474 649.738 62.4184 656.901 62.4184C664.143 62.4184 670.26 63.9876 675.249 67.1262C680.319 70.1843 684.101 74.208 686.596 79.1975L667.765 84.871C666.558 82.9396 664.988 81.4508 663.057 80.4046C661.206 79.3585 659.114 78.8354 656.78 78.8354C654.124 78.8354 651.71 79.5194 649.537 80.8875C647.445 82.2556 645.755 84.1468 644.467 86.561C643.26 88.9753 642.656 91.8724 642.656 95.2524C642.656 98.5519 643.3 101.449 644.588 103.944C645.875 106.438 647.565 108.41 649.658 109.859C651.75 111.227 654.124 111.911 656.78 111.911C658.389 111.911 659.878 111.669 661.246 111.187C662.695 110.623 663.982 109.859 665.109 108.893C666.316 107.927 667.242 106.841 667.885 105.634L686.717 111.428C685.188 114.647 682.975 117.544 680.078 120.119C677.261 122.614 673.921 124.586 670.058 126.034C666.195 127.483 661.81 128.207 656.901 128.207ZM691.828 108.048C691.828 103.863 692.995 100.202 695.329 97.0631C697.663 93.9245 700.882 91.47 704.986 89.6996C709.09 87.8486 713.798 86.9232 719.109 86.9232C721.685 86.9232 724.22 87.1646 726.714 87.6475C729.209 88.0498 731.382 88.6534 733.233 89.4581V86.6817C733.233 83.2213 732.187 80.5656 730.094 78.7147C728.002 76.8637 724.823 75.9383 720.558 75.9383C717.017 75.9383 713.677 76.5418 710.539 77.749C707.481 78.9561 704.221 80.6863 700.761 82.9396L694.967 70.6269C699.151 67.8907 703.497 65.8386 708.004 64.4705C712.591 63.1024 717.419 62.4184 722.489 62.4184C731.985 62.4184 739.349 64.7119 744.58 69.299C749.891 73.8057 752.547 80.3644 752.547 88.9753V105.513C752.547 107.444 752.829 108.813 753.392 109.617C754.036 110.342 755.122 110.784 756.651 110.945V127C755.042 127.322 753.513 127.563 752.064 127.724C750.696 127.885 749.489 127.966 748.443 127.966C744.821 127.966 742.045 127.241 740.113 125.793C738.263 124.344 737.096 122.373 736.613 119.878L736.251 117.102C733.434 120.723 730.054 123.499 726.111 125.431C722.248 127.282 718.184 128.207 713.919 128.207C709.734 128.207 705.952 127.322 702.572 125.551C699.272 123.781 696.657 121.367 694.725 118.309C692.794 115.251 691.828 111.83 691.828 108.048ZM730.215 110.462C731.1 109.738 731.824 108.933 732.388 108.048C732.951 107.163 733.233 106.318 733.233 105.513V99.8395C731.623 99.1957 729.813 98.7128 727.801 98.3909C725.869 97.9886 724.059 97.7874 722.369 97.7874C718.828 97.7874 715.89 98.5921 713.557 100.202C711.223 101.731 710.056 103.783 710.056 106.358C710.056 107.807 710.458 109.134 711.263 110.342C712.068 111.549 713.154 112.514 714.522 113.239C715.971 113.963 717.661 114.325 719.592 114.325C721.524 114.325 723.455 113.963 725.386 113.239C727.318 112.514 728.927 111.589 730.215 110.462ZM766.666 38.8793H785.981V104.427C785.981 107.082 786.463 108.973 787.429 110.1C788.395 111.227 789.763 111.79 791.533 111.79C792.741 111.79 793.948 111.629 795.155 111.307C796.442 110.905 797.569 110.462 798.535 109.979L801.07 124.465C798.656 125.592 795.879 126.477 792.741 127.121C789.602 127.765 786.665 128.086 783.928 128.086C778.456 128.086 774.191 126.638 771.133 123.741C768.155 120.763 766.666 116.578 766.666 111.187V38.8793ZM803.724 108.048C803.724 103.863 804.891 100.202 807.225 97.0631C809.559 93.9245 812.778 91.47 816.882 89.6996C820.986 87.8486 825.694 86.9232 831.006 86.9232C833.581 86.9232 836.116 87.1646 838.611 87.6475C841.105 88.0498 843.278 88.6534 845.129 89.4581V86.6817C845.129 83.2213 844.083 80.5656 841.991 78.7147C839.898 76.8637 836.719 75.9383 832.454 75.9383C828.913 75.9383 825.574 76.5418 822.435 77.749C819.377 78.9561 816.118 80.6863 812.657 82.9396L806.863 70.6269C811.048 67.8907 815.393 65.8386 819.9 64.4705C824.487 63.1024 829.316 62.4184 834.386 62.4184C843.882 62.4184 851.245 64.7119 856.476 69.299C861.788 73.8057 864.443 80.3644 864.443 88.9753V105.513C864.443 107.444 864.725 108.813 865.288 109.617C865.932 110.342 867.018 110.784 868.547 110.945V127C866.938 127.322 865.409 127.563 863.96 127.724C862.592 127.885 861.385 127.966 860.339 127.966C856.718 127.966 853.941 127.241 852.01 125.793C850.159 124.344 848.992 122.373 848.509 119.878L848.147 117.102C845.33 120.723 841.95 123.499 838.007 125.431C834.144 127.282 830.08 128.207 825.815 128.207C821.63 128.207 817.848 127.322 814.468 125.551C811.168 123.781 808.553 121.367 806.622 118.309C804.69 115.251 803.724 111.83 803.724 108.048ZM842.111 110.462C842.996 109.738 843.721 108.933 844.284 108.048C844.847 107.163 845.129 106.318 845.129 105.513V99.8395C843.52 99.1957 841.709 98.7128 839.697 98.3909C837.766 97.9886 835.955 97.7874 834.265 97.7874C830.724 97.7874 827.787 98.5921 825.453 100.202C823.119 101.731 821.952 103.783 821.952 106.358C821.952 107.807 822.355 109.134 823.159 110.342C823.964 111.549 825.05 112.514 826.419 113.239C827.867 113.963 829.557 114.325 831.488 114.325C833.42 114.325 835.351 113.963 837.283 113.239C839.214 112.514 840.824 111.589 842.111 110.462ZM916.829 128.207C912 128.207 907.775 127.201 904.154 125.189C900.533 123.097 897.676 120.2 895.583 116.498V127H878.804V38.8793H898.118V74.0068C900.211 70.305 902.987 67.4481 906.448 65.4362C909.988 63.4243 914.133 62.4184 918.881 62.4184C922.905 62.4184 926.566 63.3036 929.866 65.0741C933.246 66.764 936.143 69.1381 938.557 72.1961C941.052 75.1737 942.983 78.6744 944.352 82.6982C945.72 86.6415 946.404 90.9469 946.404 95.6145C946.404 100.202 945.639 104.467 944.11 108.41C942.662 112.353 940.609 115.814 937.954 118.791C935.298 121.769 932.16 124.103 928.538 125.793C924.997 127.402 921.094 128.207 916.829 128.207ZM911.397 111.911C913.57 111.911 915.582 111.508 917.432 110.704C919.364 109.818 921.014 108.652 922.382 107.203C923.75 105.754 924.796 104.064 925.52 102.133C926.245 100.121 926.607 97.9483 926.607 95.6145C926.607 92.6369 926.003 89.8605 924.796 87.2853C923.589 84.7101 921.899 82.658 919.726 81.1289C917.634 79.5999 915.179 78.8354 912.363 78.8354C910.351 78.8354 908.419 79.3182 906.568 80.2839C904.717 81.2496 903.068 82.5775 901.619 84.2675C900.17 85.877 899.004 87.7279 898.118 89.8203V103.099C898.762 104.467 899.567 105.714 900.533 106.841C901.498 107.887 902.545 108.772 903.671 109.497C904.878 110.221 906.126 110.824 907.413 111.307C908.781 111.71 910.109 111.911 911.397 111.911ZM956.143 38.8793H975.457V104.427C975.457 107.082 975.94 108.973 976.905 110.1C977.871 111.227 979.239 111.79 981.01 111.79C982.217 111.79 983.424 111.629 984.631 111.307C985.919 110.905 987.045 110.462 988.011 109.979L990.546 124.465C988.132 125.592 985.355 126.477 982.217 127.121C979.078 127.765 976.141 128.086 973.405 128.086C967.932 128.086 963.667 126.638 960.609 123.741C957.631 120.763 956.143 116.578 956.143 111.187V38.8793ZM1027.48 128.207C1022.09 128.207 1017.3 127.362 1013.12 125.672C1008.93 123.902 1005.35 121.528 1002.37 118.55C999.478 115.572 997.265 112.152 995.736 108.289C994.207 104.346 993.442 100.242 993.442 95.9767C993.442 89.8605 994.77 84.3077 997.426 79.3182C1000.16 74.2483 1004.06 70.1843 1009.13 67.1262C1014.2 63.9876 1020.32 62.4184 1027.48 62.4184C1034.65 62.4184 1040.72 63.9474 1045.71 67.0055C1050.78 70.0635 1054.64 74.0873 1057.3 79.0768C1059.96 83.9858 1061.28 89.3374 1061.28 95.1317C1061.28 96.2583 1061.2 97.385 1061.04 98.5116C1060.96 99.5578 1060.88 100.483 1060.8 101.288H1013.96C1014.2 104.105 1014.97 106.479 1016.26 108.41C1017.62 110.342 1019.36 111.83 1021.45 112.877C1023.54 113.842 1025.75 114.325 1028.09 114.325C1030.98 114.325 1033.68 113.641 1036.17 112.273C1038.75 110.905 1040.52 109.054 1041.49 106.72L1057.9 111.307C1056.29 114.607 1054 117.544 1051.02 120.119C1048.13 122.614 1044.66 124.586 1040.64 126.034C1036.7 127.483 1032.31 128.207 1027.48 128.207ZM1013.48 89.4581H1041C1040.68 86.8025 1039.92 84.5089 1038.71 82.5775C1037.5 80.5656 1035.89 79.0366 1033.88 77.9904C1031.87 76.8637 1029.66 76.3004 1027.24 76.3004C1024.75 76.3004 1022.49 76.8637 1020.48 77.9904C1018.55 79.0366 1016.98 80.5656 1015.77 82.5775C1014.57 84.5089 1013.8 86.8025 1013.48 89.4581ZM1070.28 127V107.324H1086.1V127H1070.28ZM278.017 210.294H299.383L328.837 296H308.557L301.918 276.807H275.241L268.722 296H248.442L278.017 210.294ZM298.659 263.166L288.64 230.211L278.379 263.166H298.659ZM337.939 296V252.422H329.851V237.816H337.939V235.764C337.939 230.936 338.864 226.67 340.715 222.968C342.566 219.186 345.182 216.249 348.562 214.156C352.022 211.984 356.046 210.897 360.633 210.897C363.61 210.897 366.588 211.299 369.566 212.104C372.624 212.829 375.843 213.915 379.223 215.363L375.481 230.091C373.71 229.205 371.859 228.521 369.928 228.038C367.996 227.475 366.226 227.193 364.616 227.193C363.409 227.193 362.323 227.395 361.357 227.797C360.472 228.199 359.707 228.763 359.064 229.487C358.5 230.131 358.058 230.936 357.736 231.901C357.414 232.867 357.253 233.913 357.253 235.04V237.816H371.98V252.422H357.253V296H337.939ZM371.135 296V252.422H363.047V237.816H371.135V232.625C371.135 227.314 372.02 222.727 373.791 218.864C375.642 215.001 378.217 212.024 381.516 209.931C384.896 207.759 388.799 206.672 393.225 206.672C395.881 206.672 398.577 206.994 401.313 207.638C404.13 208.282 406.947 209.207 409.763 210.414L406.263 224.9C404.975 224.337 403.526 223.894 401.917 223.572C400.307 223.17 398.859 222.968 397.571 222.968C395.237 222.968 393.467 223.733 392.26 225.262C391.053 226.711 390.449 228.924 390.449 231.901V237.816H405.176V252.422H390.449V296H371.135ZM444.186 297.207C438.794 297.207 433.966 296.322 429.701 294.551C425.516 292.781 421.975 290.367 419.078 287.309C416.181 284.251 413.968 280.75 412.439 276.807C410.99 272.863 410.266 268.719 410.266 264.373C410.266 259.947 410.99 255.762 412.439 251.819C413.968 247.876 416.181 244.375 419.078 241.317C421.975 238.259 425.516 235.845 429.701 234.074C433.966 232.304 438.794 231.418 444.186 231.418C449.578 231.418 454.366 232.304 458.551 234.074C462.736 235.845 466.277 238.259 469.174 241.317C472.071 244.375 474.284 247.876 475.813 251.819C477.342 255.762 478.107 259.947 478.107 264.373C478.107 268.719 477.342 272.863 475.813 276.807C474.284 280.75 472.071 284.251 469.174 287.309C466.277 290.367 462.736 292.781 458.551 294.551C454.366 296.322 449.578 297.207 444.186 297.207ZM430.063 264.373C430.063 267.673 430.666 270.57 431.873 273.064C433.161 275.559 434.851 277.491 436.943 278.859C439.036 280.227 441.45 280.911 444.186 280.911C446.842 280.911 449.216 280.227 451.308 278.859C453.481 277.41 455.171 275.438 456.378 272.944C457.585 270.449 458.189 267.592 458.189 264.373C458.189 261.074 457.585 258.176 456.378 255.682C455.171 253.187 453.481 251.256 451.308 249.888C449.216 248.519 446.842 247.835 444.186 247.835C441.45 247.835 439.036 248.519 436.943 249.888C434.851 251.256 433.161 253.187 431.873 255.682C430.666 258.176 430.063 261.074 430.063 264.373ZM528.249 249.163C523.581 249.163 519.356 249.928 515.574 251.457C511.792 252.905 509.055 255.078 507.365 257.975V296H488.051V232.625H505.796V245.421C507.969 241.156 510.786 237.816 514.246 235.402C517.706 232.988 521.328 231.74 525.11 231.66C525.995 231.66 526.639 231.66 527.042 231.66C527.524 231.66 527.927 231.7 528.249 231.781V249.163ZM532.774 264.252C532.774 258.056 533.982 252.503 536.396 247.594C538.81 242.604 542.11 238.661 546.294 235.764C550.479 232.867 555.308 231.418 560.78 231.418C565.206 231.418 569.23 232.505 572.851 234.678C576.473 236.77 579.209 239.546 581.06 243.007V207.879H600.374V274.513C600.374 276.444 600.696 277.813 601.34 278.617C601.983 279.342 603.03 279.784 604.478 279.945V296C601.098 296.644 598.362 296.966 596.27 296.966C592.97 296.966 590.274 296.241 588.182 294.793C586.17 293.344 584.923 291.332 584.44 288.757L584.078 285.498C581.824 289.441 578.766 292.379 574.903 294.31C571.041 296.241 566.977 297.207 562.711 297.207C558.366 297.207 554.342 296.402 550.64 294.793C547.019 293.103 543.84 290.769 541.104 287.791C538.448 284.814 536.396 281.313 534.947 277.289C533.499 273.266 532.774 268.92 532.774 264.252ZM581.18 272.099V258.82C580.376 256.647 579.209 254.756 577.68 253.147C576.231 251.537 574.541 250.25 572.61 249.284C570.759 248.318 568.868 247.835 566.936 247.835C564.844 247.835 562.913 248.278 561.142 249.163C559.452 250.048 557.963 251.296 556.676 252.905C555.388 254.434 554.382 256.205 553.658 258.217C553.014 260.229 552.692 262.361 552.692 264.615C552.692 266.948 553.054 269.121 553.779 271.133C554.583 273.064 555.67 274.795 557.038 276.324C558.406 277.772 560.015 278.899 561.866 279.704C563.717 280.508 565.729 280.911 567.902 280.911C569.27 280.911 570.598 280.71 571.886 280.307C573.173 279.824 574.38 279.221 575.507 278.497C576.714 277.772 577.801 276.847 578.766 275.72C579.732 274.593 580.537 273.386 581.18 272.099ZM611.76 277.048C611.76 272.863 612.927 269.202 615.261 266.063C617.595 262.925 620.814 260.47 624.918 258.7C629.022 256.849 633.73 255.923 639.042 255.923C641.617 255.923 644.152 256.165 646.647 256.647C649.141 257.05 651.314 257.653 653.165 258.458V255.682C653.165 252.221 652.119 249.566 650.027 247.715C647.934 245.864 644.755 244.938 640.49 244.938C636.949 244.938 633.61 245.542 630.471 246.749C627.413 247.956 624.154 249.686 620.693 251.94L614.899 239.627C619.084 236.891 623.429 234.839 627.936 233.47C632.523 232.102 637.352 231.418 642.422 231.418C651.918 231.418 659.281 233.712 664.512 238.299C669.824 242.806 672.479 249.364 672.479 257.975V274.513C672.479 276.444 672.761 277.813 673.324 278.617C673.968 279.342 675.055 279.784 676.584 279.945V296C674.974 296.322 673.445 296.563 671.996 296.724C670.628 296.885 669.421 296.966 668.375 296.966C664.754 296.966 661.977 296.241 660.046 294.793C658.195 293.344 657.028 291.373 656.545 288.878L656.183 286.102C653.366 289.723 649.986 292.499 646.043 294.431C642.18 296.282 638.116 297.207 633.851 297.207C629.666 297.207 625.884 296.322 622.504 294.551C619.204 292.781 616.589 290.367 614.658 287.309C612.726 284.251 611.76 280.83 611.76 277.048ZM650.147 279.462C651.033 278.738 651.757 277.933 652.32 277.048C652.884 276.163 653.165 275.318 653.165 274.513V268.839C651.556 268.196 649.745 267.713 647.733 267.391C645.802 266.989 643.991 266.787 642.301 266.787C638.76 266.787 635.823 267.592 633.489 269.202C631.155 270.731 629.988 272.783 629.988 275.358C629.988 276.807 630.391 278.134 631.195 279.342C632 280.549 633.087 281.514 634.455 282.239C635.903 282.963 637.593 283.325 639.525 283.325C641.456 283.325 643.387 282.963 645.319 282.239C647.25 281.514 648.86 280.589 650.147 279.462ZM724.865 297.207C720.036 297.207 715.811 296.201 712.19 294.189C708.569 292.097 705.712 289.2 703.619 285.498V296H686.84V207.879H706.154V243.007C708.247 239.305 711.023 236.448 714.484 234.436C718.025 232.424 722.169 231.418 726.917 231.418C730.941 231.418 734.603 232.304 737.902 234.074C741.282 235.764 744.179 238.138 746.593 241.196C749.088 244.174 751.02 247.674 752.388 251.698C753.756 255.642 754.44 259.947 754.44 264.615C754.44 269.202 753.675 273.467 752.146 277.41C750.698 281.353 748.646 284.814 745.99 287.791C743.334 290.769 740.196 293.103 736.574 294.793C733.033 296.402 729.13 297.207 724.865 297.207ZM719.433 280.911C721.606 280.911 723.618 280.508 725.469 279.704C727.4 278.818 729.05 277.652 730.418 276.203C731.786 274.754 732.832 273.064 733.556 271.133C734.281 269.121 734.643 266.948 734.643 264.615C734.643 261.637 734.039 258.861 732.832 256.285C731.625 253.71 729.935 251.658 727.762 250.129C725.67 248.6 723.215 247.835 720.399 247.835C718.387 247.835 716.455 248.318 714.604 249.284C712.753 250.25 711.104 251.577 709.655 253.267C708.207 254.877 707.04 256.728 706.154 258.82V272.099C706.798 273.467 707.603 274.714 708.569 275.841C709.534 276.887 710.581 277.772 711.707 278.497C712.914 279.221 714.162 279.824 715.449 280.307C716.817 280.71 718.145 280.911 719.433 280.911ZM764.179 207.879H783.493V273.427C783.493 276.082 783.976 277.973 784.942 279.1C785.907 280.227 787.275 280.79 789.046 280.79C790.253 280.79 791.46 280.629 792.667 280.307C793.955 279.905 795.081 279.462 796.047 278.979L798.582 293.465C796.168 294.592 793.391 295.477 790.253 296.121C787.114 296.765 784.177 297.086 781.441 297.086C775.968 297.086 771.703 295.638 768.645 292.741C765.668 289.763 764.179 285.578 764.179 280.187V207.879ZM835.519 297.207C830.127 297.207 825.339 296.362 821.154 294.672C816.97 292.902 813.389 290.528 810.411 287.55C807.514 284.572 805.301 281.152 803.772 277.289C802.243 273.346 801.478 269.242 801.478 264.977C801.478 258.861 802.806 253.308 805.462 248.318C808.198 243.248 812.101 239.184 817.171 236.126C822.241 232.988 828.357 231.418 835.519 231.418C842.682 231.418 848.758 232.947 853.747 236.005C858.817 239.064 862.68 243.087 865.336 248.077C867.991 252.986 869.319 258.337 869.319 264.132C869.319 265.258 869.239 266.385 869.078 267.512C868.997 268.558 868.917 269.483 868.836 270.288H821.999C822.241 273.105 823.005 275.479 824.293 277.41C825.661 279.342 827.391 280.83 829.484 281.877C831.576 282.842 833.789 283.325 836.123 283.325C839.02 283.325 841.716 282.641 844.211 281.273C846.786 279.905 848.556 278.054 849.522 275.72L865.939 280.307C864.33 283.607 862.036 286.544 859.058 289.119C856.161 291.614 852.701 293.586 848.677 295.034C844.734 296.483 840.348 297.207 835.519 297.207ZM821.517 258.458H849.039C848.717 255.802 847.953 253.509 846.746 251.577C845.539 249.566 843.929 248.037 841.917 246.99C839.905 245.864 837.692 245.3 835.278 245.3C832.783 245.3 830.53 245.864 828.518 246.99C826.587 248.037 825.017 249.566 823.81 251.577C822.603 253.509 821.838 255.802 821.517 258.458Z" fill="black" fill-opacity="0.04"/>
<defs>
<clipPath id="clip0_646_394">
<rect width="417" height="123" fill="white" transform="translate(352 92)"/>
</clipPath>
</defs>
</svg>
