<svg width="146" height="36" viewBox="0 0 146 36" fill="none" xmlns="http://www.w3.org/2000/svg">
<path d="M16.5577 4.01221L16.4785 31.7861L21.6546 21.7074L32.6907 27.4235L16.5577 4.01221ZM20.9851 18.6406L18.1055 25.2566V8.66276L26.8739 22.1609L20.9851 18.6406Z" fill="#FF7337"/>
<path d="M15.4053 4.03394L9.73962 15.0845L0.69043 10.8946L15.3261 31.7718L15.4053 4.03394ZM13.8143 27.0709L5.27621 15.1277L10.5747 17.2874L13.8359 10.3547L13.8143 27.0709Z" fill="white"/>
<path d="M13.4829 5.18574C13.8933 4.64581 14.2892 4.10584 14.6852 3.57311L15.693 2.19812V1.60059L15.5851 1.75178L14.4188 3.38598C14.0301 3.9331 13.6413 4.48021 13.267 5.03454C12.8926 5.58887 12.5039 6.13598 12.1295 6.69031C11.7552 7.24463 11.4096 7.79897 11.0137 8.36049C11.4384 7.84216 11.8488 7.30943 12.2591 6.7839C12.6694 6.25837 13.087 5.71846 13.4829 5.18574Z" fill="#FF7337"/>
<path d="M15.7077 1.6005V0.837402L11.0283 8.36761" fill="#FF7337"/>
<path d="M18.3787 5.16421C17.9755 4.62428 17.5796 4.08436 17.1764 3.55163L16.1758 2.17659V1.5791L16.2838 1.73025L17.4572 3.36445C17.8388 3.91158 18.2275 4.45869 18.6091 5.01301C18.9906 5.56734 19.365 6.1145 19.7465 6.66883C20.1281 7.22315 20.4664 7.77744 20.8552 8.33896C20.4376 7.82063 20.0273 7.2879 19.6169 6.76237L18.3787 5.16421Z" fill="white"/>
<path d="M16.1543 1.57901V0.815918L20.8337 8.33887" fill="white"/>
<path d="M13.454 30.8214C13.8572 31.3541 14.2531 31.8941 14.6562 32.434L15.6569 33.809V34.3993L15.5489 34.2482L14.3827 32.614L13.2236 30.9726L12.0862 29.3096C11.7118 28.7553 11.3663 28.2009 10.9775 27.6394C11.4023 28.1577 11.8126 28.6905 12.2158 29.216C12.6189 29.7416 13.0581 30.2815 13.454 30.8214Z" fill="#FF7337"/>
<path d="M15.6784 34.3993V35.1625L10.999 27.6394" fill="#FF7337"/>
<path d="M18.3504 30.8429C17.9472 31.3756 17.5513 31.9155 17.1481 32.4555L16.1475 33.8304V34.4208L16.2554 34.2696L17.4217 32.6354L18.5807 30.994L19.7182 29.331C20.0925 28.7767 20.4381 28.2224 20.8268 27.6609C20.4021 28.1792 19.9917 28.7119 19.5814 29.2374C19.1711 29.763 18.7463 30.303 18.3504 30.8429Z" fill="white"/>
<path d="M16.125 34.4208V35.1838L20.8044 27.6609" fill="white"/>
<path d="M61.2779 10H59.5379L54.8779 17.8L50.2179 10H48.4779V24H49.8779V12.12L54.7779 20.32H54.9779L59.8779 12.12V24H61.2779V10ZM72.874 14V15.96C71.954 14.5 70.594 13.76 68.834 13.76C67.394 13.76 66.174 14.28 65.174 15.28C64.174 16.3 63.674 17.54 63.674 19C63.674 20.48 64.174 21.72 65.174 22.72C66.174 23.74 67.394 24.24 68.834 24.24C70.594 24.24 71.954 23.52 72.874 22.04V24H74.194V14H72.874ZM68.934 22.96C67.814 22.96 66.894 22.58 66.134 21.82C65.374 21.06 64.994 20.12 64.994 19.02C64.994 17.9 65.374 16.96 66.134 16.2C66.894 15.44 67.814 15.06 68.934 15.06C70.034 15.06 70.974 15.44 71.734 16.2C72.494 16.96 72.874 17.9 72.874 19.02C72.874 20.12 72.494 21.06 71.734 21.82C70.974 22.58 70.034 22.96 68.934 22.96ZM78.3089 15.66V14H76.9889V24H78.3089V18.44C78.3089 17.3 78.6089 16.46 79.2089 15.92C79.8089 15.4 80.5489 15.12 81.4689 15.12V13.84C79.9689 13.84 78.9089 14.46 78.3089 15.66ZM91.2725 14V15.96C90.3525 14.5 88.9925 13.76 87.2325 13.76C85.7925 13.76 84.5725 14.28 83.5725 15.28C82.5725 16.3 82.0725 17.54 82.0725 19C82.0725 20.48 82.5725 21.72 83.5725 22.72C84.5725 23.74 85.7925 24.24 87.2325 24.24C88.9925 24.24 90.3525 23.52 91.2725 22.04V28H92.5925V14H91.2725ZM87.3325 22.96C86.2125 22.96 85.2925 22.58 84.5325 21.82C83.7725 21.06 83.3925 20.12 83.3925 19.02C83.3925 17.9 83.7725 16.96 84.5325 16.2C85.2925 15.44 86.2125 15.06 87.3325 15.06C88.4325 15.06 89.3725 15.44 90.1325 16.2C90.8925 16.96 91.2725 17.9 91.2725 19.02C91.2725 20.12 90.8925 21.06 90.1325 21.82C89.3725 22.58 88.4325 22.96 87.3325 22.96Z" fill="white"/>
<path d="M104.387 10H94.3873V11.32H98.6873V24H100.087V11.32H104.387V10ZM117.232 14L114.772 22.3L112.152 14H110.832L108.212 22.3L105.752 14H104.392L107.472 24H108.912L111.492 15.94L114.072 24H115.512L118.592 14H117.232ZM121.243 11.88C121.503 11.88 121.723 11.8 121.903 11.6C122.103 11.42 122.183 11.2 122.183 10.94C122.183 10.66 122.103 10.44 121.903 10.26C121.723 10.06 121.503 9.98 121.243 9.98C120.963 9.98 120.743 10.06 120.563 10.26C120.363 10.44 120.283 10.66 120.283 10.94C120.283 11.2 120.363 11.42 120.563 11.6C120.743 11.8 120.963 11.88 121.243 11.88ZM120.583 24H121.903V14H120.583V24ZM129.384 13.76C127.884 13.76 126.764 14.36 126.024 15.56V14H124.704V24H126.024V18.76C126.024 17.5 126.324 16.56 126.924 15.96C127.524 15.36 128.304 15.06 129.264 15.06C130.124 15.06 130.784 15.3 131.264 15.8C131.744 16.28 131.984 16.98 131.984 17.88V24.02H133.304V17.88C133.304 16.62 132.944 15.62 132.244 14.88C131.544 14.14 130.584 13.76 129.384 13.76ZM140.536 13.76C139.036 13.76 137.916 14.36 137.176 15.56V14H135.856V24H137.176V18.76C137.176 17.5 137.476 16.56 138.076 15.96C138.676 15.36 139.456 15.06 140.416 15.06C141.276 15.06 141.936 15.3 142.416 15.8C142.896 16.28 143.136 16.98 143.136 17.88V24.02H144.456V17.88C144.456 16.62 144.096 15.62 143.396 14.88C142.696 14.14 141.736 13.76 140.536 13.76Z" fill="#FF7337"/>
</svg>
