<svg width="191" height="52" viewBox="0 0 191 52" fill="none" xmlns="http://www.w3.org/2000/svg">
<g opacity="0.4">
<path fill-rule="evenodd" clip-rule="evenodd" d="M17.5694 29.0029L17.2895 29.541L17.0043 30.0857L16.7313 30.6031L16.5132 31.0137L16.3035 31.4055L16.0632 31.8506L15.9097 32.1323L15.6896 32.5324L15.5842 32.7222L15.4484 32.9647L15.3501 33.1387L15.2238 33.3601L15.1326 33.5184L14.9874 33.7669L14.9043 33.907L14.8244 34.0403L14.7475 34.1668L14.6737 34.2867L14.6028 34.3995L14.5131 34.5397L14.4494 34.6368L14.4086 34.6977L14.3693 34.7558L14.3127 34.837L14.2766 34.8875L14.2251 34.9576L14.2087 34.9793C13.1766 36.3372 12.0509 37.3653 10.6664 37.9586C7.75561 39.4071 4.13712 39.4748 1.34277 37.6839L8.28231 25.0209L8.55088 24.8462C13.2756 21.8678 15.5607 24.9597 17.5693 29.0029H17.5694Z" fill="url(#paint0_linear_226_5798)"/>
<path fill-rule="evenodd" clip-rule="evenodd" d="M42.6182 23.3315C38.1799 15.1094 33.5921 7.36307 28.3219 18.7263C27.601 20.1872 27.0755 23.0261 25.8983 23.0261V23.0117C24.7212 23.0117 24.1957 20.1727 23.4749 18.7119C18.2046 7.34865 13.6167 15.095 9.17849 23.3171C8.8444 23.9373 8.52355 24.529 8.24902 25.0433C18.4202 18.2257 17.5638 38.822 25.8983 38.9856V39C34.2329 38.8364 33.3765 18.2401 43.5476 25.0575C43.2733 24.5434 42.9524 23.9517 42.6182 23.3315Z" fill="white"/>
<path fill-rule="evenodd" clip-rule="evenodd" d="M43.1637 39C45.7065 39 47.7679 36.8173 47.7679 34.125C47.7679 31.4327 45.7065 29.25 43.1637 29.25C40.621 29.25 38.5596 31.4327 38.5596 34.125C38.5596 36.8173 40.621 39 43.1637 39Z" fill="white"/>
<path d="M102.355 8.49951V39H96.3856V19.2183L87.8019 33.3792H87.1048L78.5211 19.2618V39H72.5081V8.49951H78.6954L87.4534 22.9219L96.1678 8.49951H102.355ZM122.155 17.2139H127.776V39H122.155V36.56C120.79 38.5933 118.626 39.61 115.663 39.61C113.281 39.61 111.306 38.8112 109.737 37.2135C108.198 35.6159 107.428 33.4082 107.428 30.5906V17.2139H113.049V29.8934C113.049 31.3458 113.441 32.4642 114.225 33.2485C115.01 34.0037 116.055 34.3814 117.363 34.3814C118.815 34.3814 119.977 33.9311 120.848 33.0306C121.72 32.1301 122.155 30.7794 122.155 28.9784V17.2139ZM132.924 39V7.19234H138.545V39H132.924ZM157.894 17.2139H163.907L155.977 39C154.844 42.1372 153.334 44.4029 151.445 45.7973C149.586 47.2206 147.263 47.8597 144.474 47.7144V42.4858C145.984 42.5148 147.175 42.1953 148.047 41.5272C148.947 40.8591 149.659 39.7843 150.182 38.3028L141.25 17.2139H147.393L153.058 31.8542L157.894 17.2139ZM182.288 17.2139H187.909V39H182.288V36.4292C180.604 38.5498 178.236 39.61 175.186 39.61C172.281 39.61 169.783 38.5062 167.692 36.2985C165.629 34.0618 164.598 31.3313 164.598 28.107C164.598 24.8826 165.629 22.1666 167.692 19.959C169.783 17.7223 172.281 16.6039 175.186 16.6039C178.236 16.6039 180.604 17.6642 182.288 19.7847V17.2139ZM171.918 32.5513C173.051 33.6842 174.489 34.2506 176.232 34.2506C177.975 34.2506 179.413 33.6842 180.546 32.5513C181.707 31.3894 182.288 29.9079 182.288 28.107C182.288 26.306 181.707 24.8391 180.546 23.7062C179.413 22.5443 177.975 21.9633 176.232 21.9633C174.489 21.9633 173.051 22.5443 171.918 23.7062C170.785 24.8391 170.219 26.306 170.219 28.107C170.219 29.9079 170.785 31.3894 171.918 32.5513Z" fill="white"/>
</g>
<defs>
<linearGradient id="paint0_linear_226_5798" x1="13.931" y1="18.7046" x2="1.36977" y2="36.6413" gradientUnits="userSpaceOnUse">
<stop stop-color="#251C53"/>
<stop offset="1" stop-color="white"/>
</linearGradient>
</defs>
</svg>
