<svg width="81" height="22" viewBox="0 0 81 22" fill="none" xmlns="http://www.w3.org/2000/svg">
<g opacity="0.4">
<g clip-path="url(#clip0_699_1410)">
<path fill-rule="evenodd" clip-rule="evenodd" d="M7.39584 12.2107L7.27801 12.4372L7.15795 12.6665L7.04302 12.8844L6.95119 13.0572L6.86292 13.2222L6.76172 13.4096L6.69711 13.5282L6.60447 13.6966L6.56009 13.7765L6.50291 13.8786L6.46152 13.9519L6.40834 14.0451L6.36997 14.1117L6.30883 14.2163L6.27386 14.2753L6.24022 14.3314L6.20784 14.3847L6.17674 14.4351L6.1469 14.4826L6.10914 14.5417L6.08233 14.5825L6.06517 14.6082L6.04861 14.6326L6.02478 14.6668L6.0096 14.6881L5.98792 14.7176L5.98101 14.7268C5.5465 15.2984 5.07257 15.7313 4.48969 15.981C3.26425 16.5908 1.74087 16.6193 0.564453 15.8654L3.48599 10.5343L3.59906 10.4607C5.58817 9.20682 6.5502 10.5085 7.3958 12.2107H7.39584Z" fill="url(#paint0_linear_699_1410)"/>
<path fill-rule="evenodd" clip-rule="evenodd" d="M17.9411 9.82296C16.0726 6.36146 14.1411 3.10025 11.9224 7.88415C11.6188 8.49918 11.3976 9.69439 10.902 9.69439V9.68831C10.4064 9.68831 10.1852 8.49311 9.88176 7.87808C7.66296 3.09418 5.73147 6.35539 3.86298 9.81689C3.72233 10.078 3.58725 10.3271 3.47168 10.5436C7.75374 7.6734 7.3932 16.3444 10.902 16.4133V16.4194C14.4109 16.3505 14.0503 7.67947 18.3324 10.5496C18.2169 10.3331 18.0817 10.084 17.9411 9.82296Z" fill="white"/>
<path fill-rule="evenodd" clip-rule="evenodd" d="M18.1708 16.4194C19.2413 16.4194 20.1091 15.5005 20.1091 14.3671C20.1091 13.2336 19.2413 12.3147 18.1708 12.3147C17.1003 12.3147 16.2324 13.2336 16.2324 14.3671C16.2324 15.5005 17.1003 16.4194 18.1708 16.4194Z" fill="white"/>
</g>
<path d="M40.5164 2.15932H43.1213V15H40.6082V6.6719L36.9944 12.6336H36.7009L33.0872 6.69025V15H30.5557V2.15932H33.1606L36.8477 8.23113L40.5164 2.15932ZM51.4572 10.7809V5.82809H53.8236V15H51.4572V13.9727C50.8886 14.8349 49.9714 15.2568 48.724 15.2568C47.7151 15.2568 46.8896 14.9266 46.2292 14.2479C45.5872 13.5692 45.257 12.652 45.257 11.4596V5.82809H47.6234V11.1661C47.6234 12.3952 48.3388 13.0556 49.4394 13.0556C50.6685 13.0556 51.4572 12.3035 51.4572 10.7809ZM58.3572 15H55.9909V1.60901H58.3572V15ZM64.467 11.9916L66.5032 5.82809H69.0346L65.6961 15C64.7422 17.6415 63.2013 18.7972 60.8533 18.6688V16.4675C62.119 16.4858 62.8161 15.9539 63.2563 14.7065L59.4958 5.82809H62.0823L64.467 11.9916ZM76.7732 6.91037V5.82809H79.1395V15H76.7732V13.9177C76.0577 14.8166 75.0672 15.2568 73.7831 15.2568C72.5541 15.2568 71.5085 14.7982 70.628 13.8627C69.7658 12.9271 69.3256 11.7715 69.3256 10.414C69.3256 9.0566 69.7658 7.91928 70.628 6.98375C71.5085 6.04821 72.5541 5.57127 73.7831 5.57127C75.0672 5.57127 76.0577 6.01153 76.7732 6.91037ZM72.4073 12.2851C72.8843 12.7621 73.4896 13.0005 74.2234 13.0005C74.9571 13.0005 75.5625 12.7621 76.0394 12.2851C76.5347 11.7898 76.7732 11.1661 76.7732 10.414C76.7732 9.66195 76.5347 9.03826 76.0394 8.56132C75.5625 8.06603 74.9571 7.82756 74.2234 7.82756C73.4896 7.82756 72.8843 8.06603 72.4073 8.56132C71.9304 9.03826 71.6919 9.66195 71.6919 10.414C71.6919 11.1661 71.9304 11.7898 72.4073 12.2851Z" fill="white"/>
</g>
<defs>
<linearGradient id="paint0_linear_699_1410" x1="5.86406" y1="7.87512" x2="0.575819" y2="15.4265" gradientUnits="userSpaceOnUse">
<stop stop-color="#251C53"/>
<stop offset="1" stop-color="white"/>
</linearGradient>
<clipPath id="clip0_699_1410">
<rect width="20.6757" height="21.892" fill="white"/>
</clipPath>
</defs>
</svg>
