<svg width="180" height="38" viewBox="0 0 180 38" fill="none" xmlns="http://www.w3.org/2000/svg">
<g opacity="0.4">
<path d="M2.26991 32.5796L0.649538 30.2444H2.19367L3.061 31.5311L3.9188 30.2444H5.41526L3.7949 32.551L5.6154 35.1721H4.07137L3.04196 33.6186L2.01258 35.1721H0.49707L2.26991 32.5796Z" fill="white"/>
<path d="M12.0272 32.2547H7.21387V31.2349H12.0272V32.2547ZM12.0272 34.2945H7.21387V33.2746H12.0272V34.2945Z" fill="white"/>
<path d="M15.7167 29.4814H14.3633V28.3662H15.7167V29.4814ZM14.3633 30.2439H15.7167V35.1716H14.3633V30.2439Z" fill="white"/>
<path d="M16.5947 30.2441H17.8816V30.9303H17.9101C18.0702 30.6765 18.2927 30.4679 18.5564 30.3244C18.82 30.181 19.116 30.1074 19.4161 30.1107C20.8552 30.1107 21.2174 30.9208 21.2174 32.1408V35.1718H19.864V32.3886C19.864 31.5785 19.6257 31.1782 18.9967 31.1782C18.2628 31.1782 17.9483 31.588 17.9483 32.5889V35.1718H16.5947V30.2441Z" fill="white"/>
<path d="M25.5724 34.5426H25.5534C25.2389 35.0762 24.6861 35.305 24.0569 35.305C22.5701 35.305 21.8457 34.0278 21.8457 32.6649C21.8457 31.34 22.5796 30.1105 24.0284 30.1105C24.3148 30.1012 24.5989 30.1634 24.8552 30.2916C25.1115 30.4197 25.3318 30.6097 25.4962 30.8444H25.5057V28.3662H26.8591V35.1716H25.5724V34.5426ZM24.3906 31.1304C23.5041 31.1304 23.1991 31.8928 23.1991 32.703C23.1991 33.475 23.5518 34.2851 24.3906 34.2851C25.2864 34.2851 25.5534 33.5037 25.5534 32.6934C25.5534 31.8928 25.2674 31.1304 24.3906 31.1304Z" fill="white"/>
<path d="M28.7997 33.0367C28.8378 33.8945 29.2572 34.2853 30.0102 34.2853C30.5534 34.2853 30.9919 33.9517 31.0777 33.6467H32.2691C31.8878 34.8095 31.0777 35.3051 29.9625 35.3051C28.4089 35.3051 27.4463 34.2377 27.4463 32.7127C27.4463 31.2352 28.4661 30.1106 29.9625 30.1106C31.64 30.1106 32.4502 31.5212 32.3549 33.0367H28.7997ZM31.0014 32.1789C30.8775 31.4927 30.582 31.1305 29.9244 31.1305C29.781 31.1226 29.6375 31.1438 29.5026 31.1927C29.3676 31.2417 29.2439 31.3174 29.1388 31.4153C29.0338 31.5132 28.9496 31.6313 28.8914 31.7625C28.8331 31.8937 28.8019 32.0353 28.7997 32.1789H31.0014Z" fill="white"/>
<path d="M32.9678 30.2438H34.2546V30.873H34.2736C34.4287 30.6272 34.6464 30.427 34.9043 30.293C35.1622 30.159 35.4512 30.096 35.7415 30.1104C37.2855 30.1104 37.9813 31.3591 37.9813 32.7601C37.9813 34.0754 37.2569 35.305 35.8177 35.305C35.5292 35.3125 35.2433 35.2486 34.9856 35.1189C34.7278 34.9892 34.5061 34.7977 34.3403 34.5615H34.3213V36.9062H32.9678V30.2438ZM36.6278 32.722C36.6278 31.9404 36.3133 31.1303 35.446 31.1303C34.5596 31.1303 34.2736 31.9214 34.2736 32.722C34.2736 33.5226 34.5786 34.2851 35.4555 34.2851C36.3419 34.2851 36.6278 33.5226 36.6278 32.722Z" fill="white"/>
<path d="M39.7167 33.0367C39.7548 33.8945 40.1742 34.2853 40.9272 34.2853C41.4704 34.2853 41.9089 33.9517 41.9947 33.6467H43.1861C42.8048 34.8095 41.9946 35.3051 40.8795 35.3051C39.3259 35.3051 38.3633 34.2377 38.3633 32.7127C38.3633 31.2352 39.3831 30.1106 40.8795 30.1106C42.557 30.1106 43.3672 31.5212 43.2718 33.0367H39.7167ZM41.9184 32.1789C41.7945 31.4927 41.499 31.1305 40.8413 31.1305C40.698 31.1226 40.5545 31.1438 40.4195 31.1927C40.2846 31.2417 40.1608 31.3174 40.0558 31.4153C39.9508 31.5132 39.8666 31.6313 39.8084 31.7625C39.7501 31.8937 39.7189 32.0353 39.7167 32.1789H41.9184Z" fill="white"/>
<path d="M43.8789 30.2441H45.1657V30.9303H45.1943C45.3544 30.6765 45.5769 30.4679 45.8405 30.3244C46.1042 30.181 46.4001 30.1074 46.7002 30.1107C48.1394 30.1107 48.5016 30.9208 48.5016 32.1408V35.1718H47.1482V32.3886C47.1482 31.5785 46.9099 31.1782 46.2809 31.1782C45.5469 31.1782 45.2324 31.588 45.2324 32.5889V35.1718H43.8789V30.2441Z" fill="white"/>
<path d="M52.8605 34.5426H52.8415C52.527 35.0762 51.9742 35.305 51.345 35.305C49.8582 35.305 49.1338 34.0278 49.1338 32.6649C49.1338 31.34 49.8677 30.1105 51.3165 30.1105C51.6029 30.1012 51.887 30.1634 52.1433 30.2916C52.3996 30.4197 52.6199 30.6097 52.7843 30.8444H52.7938V28.3662H54.1472V35.1716H52.8605V34.5426ZM51.6787 31.1304C50.7922 31.1304 50.4872 31.8928 50.4872 32.703C50.4872 33.475 50.8399 34.2851 51.6787 34.2851C52.5745 34.2851 52.8415 33.5037 52.8415 32.6934C52.8415 31.8928 52.5555 31.1304 51.6787 31.1304Z" fill="white"/>
<path d="M56.0897 33.0367C56.1278 33.8945 56.5472 34.2853 57.3002 34.2853C57.8434 34.2853 58.282 33.9517 58.3677 33.6467H59.5591C59.1778 34.8095 58.3677 35.3051 57.2526 35.3051C55.6989 35.3051 54.7363 34.2377 54.7363 32.7127C54.7363 31.2352 55.7561 30.1106 57.2526 30.1106C58.93 30.1106 59.7402 31.5212 59.6449 33.0367H56.0897ZM58.2915 32.1789C58.1676 31.4927 57.8721 31.1305 57.2144 31.1305C57.071 31.1226 56.9276 31.1438 56.7926 31.1927C56.6576 31.2417 56.5339 31.3174 56.4289 31.4153C56.3238 31.5132 56.2397 31.6313 56.1814 31.7625C56.1231 31.8937 56.092 32.0353 56.0897 32.1789H58.2915Z" fill="white"/>
<path d="M60.2549 30.2441H61.5417V30.9303H61.5702C61.7304 30.6765 61.9529 30.4679 62.2165 30.3244C62.4801 30.181 62.7761 30.1074 63.0762 30.1107C64.5154 30.1107 64.8776 30.9208 64.8776 32.1408V35.1718H63.5242V32.3886C63.5242 31.5785 63.2859 31.1782 62.6568 31.1782C61.9229 31.1782 61.6084 31.588 61.6084 32.5889V35.1718H60.2549V30.2441Z" fill="white"/>
<path d="M67.4281 30.2439H68.4193V31.1494H67.4281V33.5894C67.4281 34.047 67.5424 34.1613 67.9999 34.1613C68.1406 34.1628 68.2811 34.15 68.4193 34.1232V35.1812C68.1572 35.2172 67.8927 35.2331 67.6282 35.2288C66.7989 35.2288 66.0745 35.0382 66.0745 34.0565V31.1494H65.2549V30.2439H66.0745V28.7666H67.4281V30.2439Z" fill="white"/>
<path d="M68.915 28.3662H70.2685V35.1716H68.915V28.3662Z" fill="white"/>
<path d="M73.5765 35.7916C73.2811 36.5828 72.8141 36.9067 71.88 36.9067C71.6029 36.9051 71.3262 36.8892 71.0508 36.8591V35.7439C71.3134 35.7744 71.5775 35.7903 71.8419 35.7916C72.3089 35.7439 72.4614 35.2578 72.3089 34.8671L70.5742 30.2444H72.023L73.1381 33.6186H73.1572L74.2342 30.2444H75.6353L73.5765 35.7916Z" fill="white"/>
<path d="M80.7558 30.1106C82.3094 30.1106 83.3102 31.14 83.3102 32.7127C83.3102 34.2757 82.3094 35.3051 80.7558 35.3051C79.2117 35.3051 78.2109 34.2757 78.2109 32.7127C78.2109 31.14 79.2117 30.1106 80.7558 30.1106ZM80.7558 34.2853C81.6804 34.2853 81.9567 33.4942 81.9567 32.7127C81.9567 31.9216 81.6804 31.1305 80.7558 31.1305C79.8408 31.1305 79.5644 31.9216 79.5644 32.7127C79.5644 33.4942 79.8408 34.2853 80.7558 34.2853Z" fill="white"/>
<path d="M83.8008 30.244H85.0876V31.159H85.1066C85.2401 30.8515 85.4595 30.589 85.7385 30.403C86.0174 30.2171 86.3441 30.1155 86.6793 30.1106C86.7796 30.1117 86.8792 30.1278 86.9747 30.1583V31.4163C86.8146 31.3845 86.6518 31.3685 86.4886 31.3688C85.4974 31.3688 85.1543 32.0835 85.1543 32.951V35.1717H83.8008V30.244Z" fill="white"/>
<path d="M92.0565 34.8572C92.0565 35.6673 91.7706 37.0398 89.5021 37.0398C88.5299 37.0398 87.3958 36.5824 87.3291 35.4577H88.673C88.7969 35.9628 89.2066 36.1345 89.6832 36.1345C90.4363 36.1345 90.7793 35.6196 90.7698 34.9144V34.2662H90.7508C90.593 34.5116 90.3734 34.7113 90.1141 34.8451C89.8548 34.979 89.5649 35.0423 89.2734 35.0288C87.796 35.0288 87.167 33.904 87.167 32.5506C87.167 31.2734 87.9009 30.1106 89.283 30.1106C89.931 30.1106 90.4267 30.3299 90.7508 30.9017H90.7698V30.244H92.0565V34.8572ZM90.7698 32.646C90.7698 31.8452 90.4934 31.1305 89.6165 31.1305C88.8541 31.1305 88.5204 31.7977 88.5204 32.5316C88.5204 33.2368 88.7873 34.0089 89.6165 34.0089C90.3886 34.0089 90.7698 33.3512 90.7698 32.646Z" fill="white"/>
<path d="M92.7053 31.7595C92.7815 30.4918 93.9157 30.1106 95.0213 30.1106C96.0031 30.1106 97.185 30.3299 97.185 31.5117V34.0756C97.185 34.5235 97.2326 34.9716 97.3565 35.1717H95.984C95.9331 35.0173 95.9011 34.8573 95.8887 34.6951C95.6674 34.903 95.4065 35.0642 95.1216 35.169C94.8366 35.2738 94.5334 35.3201 94.2302 35.3051C93.2962 35.3051 92.5527 34.8382 92.5527 33.8278C92.5527 32.7127 93.3915 32.4457 94.2302 32.3313C95.0595 32.2074 95.8315 32.2361 95.8315 31.6833C95.8315 31.1018 95.4312 31.0161 94.9546 31.0161C94.4399 31.0161 94.1063 31.2257 94.0587 31.7595H92.7053ZM95.8315 32.7602C95.6028 32.9605 95.1262 32.97 94.7068 33.0462C94.2874 33.1321 93.9062 33.275 93.9062 33.7706C93.9062 34.2757 94.297 34.3996 94.7354 34.3996C95.7934 34.3996 95.8315 33.561 95.8315 33.2655V32.7602Z" fill="white"/>
<path d="M98.04 30.2441H99.3268V30.9303H99.3554C99.5156 30.6765 99.738 30.4679 100.002 30.3244C100.265 30.181 100.561 30.1074 100.861 30.1107C102.301 30.1107 102.663 30.9208 102.663 32.1408V35.1718H101.309V32.3886C101.309 31.5785 101.071 31.1782 100.442 31.1782C99.7081 31.1782 99.3936 31.588 99.3936 32.5889V35.1718H98.04V30.2441Z" fill="white"/>
<path d="M104.705 29.4814H103.352V28.3662H104.705V29.4814ZM103.352 30.2439H104.705V35.1716H103.352V30.2439Z" fill="white"/>
<path d="M105.276 34.1522L107.84 31.2643H105.467V30.2444H109.623V31.2643L107.059 34.1522H109.804V35.1721H105.276V34.1522Z" fill="white"/>
<path d="M111.451 33.0367C111.489 33.8945 111.909 34.2853 112.661 34.2853C113.205 34.2853 113.643 33.9517 113.729 33.6467H114.92C114.539 34.8095 113.729 35.3051 112.614 35.3051C111.06 35.3051 110.098 34.2377 110.098 32.7127C110.098 31.2352 111.118 30.1106 112.614 30.1106C114.291 30.1106 115.101 31.5212 115.006 33.0367H111.451ZM113.653 32.1789C113.529 31.4927 113.233 31.1305 112.576 31.1305C112.432 31.1226 112.289 31.1438 112.154 31.1927C112.019 31.2417 111.895 31.3174 111.79 31.4153C111.685 31.5132 111.601 31.6313 111.543 31.7625C111.484 31.8937 111.453 32.0353 111.451 32.1789H113.653Z" fill="white"/>
<path d="M119.136 34.5426H119.117C118.802 35.0762 118.25 35.305 117.621 35.305C116.134 35.305 115.409 34.0278 115.409 32.6649C115.409 31.34 116.143 30.1105 117.592 30.1105C117.878 30.1012 118.163 30.1634 118.419 30.2916C118.675 30.4197 118.895 30.6097 119.06 30.8444H119.069V28.3662H120.423V35.1716H119.136V34.5426ZM117.954 31.1304C117.068 31.1304 116.763 31.8928 116.763 32.703C116.763 33.475 117.115 34.2851 117.954 34.2851C118.85 34.2851 119.117 33.5037 119.117 32.6934C119.117 31.8928 118.831 31.1304 117.954 31.1304Z" fill="white"/>
<path d="M125.359 29.6244H123.319V28.3662H128.895V29.6244H126.855V35.1716H125.359V29.6244Z" fill="white"/>
<path d="M129.485 28.3662H134.575V29.6244H130.982V31.0827H134.28V32.2455H130.982V33.9134H134.651V35.1716H129.485V28.3662Z" fill="white"/>
<path d="M135.279 28.3662H138.215C139.978 28.3662 141.303 29.4719 141.303 31.7308C141.303 33.7038 140.293 35.1716 138.215 35.1716H135.279V28.3662ZM136.776 33.9134H138.11C138.977 33.9134 139.807 33.3798 139.807 31.8738C139.807 30.5012 139.33 29.6244 137.843 29.6244H136.776V33.9134Z" fill="white"/>
<path d="M145.581 33.0367C145.619 33.8945 146.039 34.2853 146.791 34.2853C147.335 34.2853 147.773 33.9517 147.859 33.6467H149.05C148.669 34.8095 147.859 35.3051 146.744 35.3051C145.19 35.3051 144.228 34.2377 144.228 32.7127C144.228 31.2352 145.247 30.1106 146.744 30.1106C148.421 30.1106 149.231 31.5212 149.136 33.0367H145.581ZM147.783 32.1789C147.659 31.4927 147.363 31.1305 146.706 31.1305C146.562 31.1226 146.419 31.1438 146.284 31.1927C146.149 31.2417 146.025 31.3174 145.92 31.4153C145.815 31.5132 145.731 31.6313 145.673 31.7625C145.614 31.8937 145.583 32.0353 145.581 32.1789H147.783Z" fill="white"/>
<path d="M152.281 35.1721H150.775L149.088 30.2444H150.508L151.547 33.6089H151.566L152.605 30.2444H153.949L152.281 35.1721Z" fill="white"/>
<path d="M155.242 33.0367C155.28 33.8945 155.7 34.2853 156.452 34.2853C156.996 34.2853 157.434 33.9517 157.52 33.6467H158.711C158.33 34.8095 157.52 35.3051 156.405 35.3051C154.851 35.3051 153.889 34.2377 153.889 32.7127C153.889 31.2352 154.909 30.1106 156.405 30.1106C158.082 30.1106 158.893 31.5212 158.797 33.0367H155.242ZM157.444 32.1789C157.32 31.4927 157.024 31.1305 156.367 31.1305C156.223 31.1226 156.08 31.1438 155.945 31.1927C155.81 31.2417 155.686 31.3174 155.581 31.4153C155.476 31.5132 155.392 31.6313 155.334 31.7625C155.275 31.8937 155.244 32.0353 155.242 32.1789H157.444Z" fill="white"/>
<path d="M159.41 30.2441H160.697V30.9303H160.726C160.886 30.6765 161.108 30.4679 161.372 30.3245C161.635 30.181 161.931 30.1074 162.231 30.1107C163.671 30.1107 164.033 30.9208 164.033 32.1408V35.1718H162.68V32.3886C162.68 31.5785 162.441 31.1782 161.812 31.1782C161.078 31.1782 160.764 31.588 160.764 32.5889V35.1718H159.41V30.2441Z" fill="white"/>
<path d="M166.588 30.2439H167.579V31.1494H166.588V33.5894C166.588 34.047 166.703 34.1613 167.16 34.1613C167.301 34.1628 167.441 34.15 167.579 34.1232V35.1812C167.317 35.2172 167.053 35.2331 166.788 35.2288C165.959 35.2288 165.235 35.0382 165.235 34.0565V31.1494H164.415V30.2439H165.235V28.7666H166.588V30.2439Z" fill="white"/>
<path d="M6.35023 5.85114H0V0.043457H19.675V5.85114H13.3271V22.7029H6.35023V5.85114Z" fill="white"/>
<path d="M20.7588 0.043457H39.8582V5.85114H27.7402V8.67478H39.8582V14.0716H27.7402V16.8955H39.8615V22.7029H20.7588V0.043457Z" fill="white"/>
<path d="M41.0303 0.043457H52.4868C60.0387 0.043457 62.7076 5.62917 62.7076 11.3399C62.7076 18.2921 59.0262 22.7029 51.1236 22.7029H41.0303V0.043457ZM48.0112 16.8955H50.7415C55.0905 16.8955 55.7263 13.3716 55.7263 11.243C55.7263 9.81761 55.2796 5.85114 50.2331 5.85114H48.0112V16.8955Z" fill="white"/>
<path d="M72.7424 13.971L70.6128 10.4395L68.536 13.971H63.4209L68.2769 6.83026L63.6011 0H68.7178L70.6128 3.37624L72.562 0H77.6774L73.0029 6.83026L77.8589 13.971H72.7424Z" fill="white"/>
<path d="M83.0898 0.251953H86.0267V21.9081H83.0898V0.251953Z" fill="white"/>
<path d="M91.4033 0.251953H94.3402V21.9081H91.4033V0.251953Z" fill="white"/>
<path d="M114.682 0.251953V2.83186H107.45V21.9081H104.498V2.83186H97.2656V0.251953H114.682Z" fill="white"/>
<path d="M117.687 0.251953H127.622C129.259 0.251953 130.608 0.492756 131.67 0.974358C133.686 1.89825 134.694 3.60342 134.694 6.08985C134.694 7.38713 134.429 8.44855 133.898 9.27413C133.342 10.1215 132.574 10.8079 131.67 11.2643C132.411 11.5381 133.064 12.0067 133.562 12.6206C133.985 13.1808 134.222 14.0899 134.27 15.3479L134.373 18.2521C134.377 18.8717 134.446 19.4893 134.577 20.0948C134.752 20.7828 135.064 21.2251 135.512 21.4216V21.9081H131.947C131.836 21.6794 131.757 21.4363 131.713 21.1857C131.63 20.6192 131.581 20.0481 131.567 19.4756L131.392 15.8638C131.324 14.4486 130.803 13.5002 129.828 13.0186C129.273 12.7533 128.401 12.6206 127.213 12.6206H120.594V21.9081H117.687V0.251953ZM127.315 10.1734C128.679 10.1734 129.758 9.89824 130.552 9.34783C131.345 8.79753 131.742 7.80491 131.743 6.36996C131.743 4.82708 131.187 3.77548 130.077 3.21518C129.483 2.92032 128.689 2.77289 127.695 2.77289H120.594V10.1734H127.315Z" fill="white"/>
<path d="M145.186 0.251953H148.474L156.262 21.9081H153.077L150.9 15.4216H142.41L140.087 21.9081H137.106L145.186 0.251953ZM149.964 13.0334L146.706 3.46571L143.243 13.0334H149.964Z" fill="white"/>
<path d="M158.835 0.251953H162.999L169.165 18.5617L175.287 0.251953H179.408V21.9081H176.646V9.12669C176.646 8.6845 176.656 7.95234 176.675 6.9302C176.695 5.90812 176.705 4.81227 176.705 3.64262L170.582 21.9081H167.704L161.538 3.64262V4.30605C161.538 4.8368 161.55 5.64515 161.575 6.73111C161.599 7.81718 161.611 8.61571 161.611 9.12669V21.9081H158.835V0.251953Z" fill="white"/>
</g>
</svg>
