<svg width="1512" height="2444" viewBox="0 0 1512 2444" fill="none" xmlns="http://www.w3.org/2000/svg">
<path d="M1580.5 947.987V202.924C1423.03 79.37 1224.35 11.5 1018.72 11.5C764.823 11.5 523.618 114.388 356.976 293.525C38.7114 635.775 72.7972 1159.82 433.457 1462.49C433.467 1462.5 433.476 1462.5 433.485 1462.51L1229.63 2123.43C1229.64 2123.44 1229.64 2123.44 1229.65 2123.44M1580.5 947.987L1229.65 2123.44M1580.5 947.987L1207.05 637.961C1154.86 594.618 1087.95 570.922 1018.53 570.922C936.37 570.922 857.894 604.347 803.618 662.69M1580.5 947.987L803.618 662.69M1229.65 2123.44C1287.14 2171.03 1321.42 2237.19 1326.51 2309.57L1326.51 2309.58L1326.51 2309.6C1331.4 2382.01 1306.28 2451.89 1255.65 2506.22M1229.65 2123.44L1255.65 2506.22M1255.65 2506.22C1201.37 2564.59 1122.87 2597.81 1040.73 2597.81C971.32 2597.81 904.409 2574.12 852.21 2530.77L55.8568 1869.66C55.8493 1869.66 55.8419 1869.65 55.8345 1869.64C40.8248 1857.33 25.3706 1845.51 9.5 1834.2V2576.49L463.789 2953.63C463.795 2953.64 463.801 2953.65 463.808 2953.65C614.082 3077.22 807.144 3149.19 1008.21 3156.5H1076.56C1260.13 3149.64 1436.79 3088.02 1580.5 2983.35V1668.69L829.628 1045.48C829.623 1045.48 829.619 1045.47 829.614 1045.47M1255.65 2506.22L829.614 1045.47M829.614 1045.47C772.121 997.892 737.85 931.729 732.755 859.166L732.754 859.151L732.753 859.136C727.859 786.734 752.979 716.848 803.618 662.69M829.614 1045.47L803.618 662.69" stroke="url(#paint0_linear_229_533)" stroke-width="23"/>
<defs>
<linearGradient id="paint0_linear_229_533" x1="795" y1="184.5" x2="830.5" y2="1229" gradientUnits="userSpaceOnUse">
<stop offset="0.726414" stop-color="#4F4FC8"/>
<stop offset="1" stop-color="#4F4FC8" stop-opacity="0"/>
</linearGradient>
</defs>
</svg>
