<svg width="112" height="26" viewBox="0 0 112 26" fill="none" xmlns="http://www.w3.org/2000/svg">
<g opacity="0.4" clip-path="url(#clip0_699_1473)">
<path d="M0 0.245361H1.12176L3.61902 4.26127L6.07621 0.245361H7.20331L4.11313 5.3265V9.97356H3.15028V5.3265L0 0.245361Z" fill="white"/>
<path d="M16.4435 0.000281235C17.9205 0.000281235 19.1571 0.492062 20.1534 1.47562C20.6392 1.94605 21.0225 2.51129 21.2793 3.13605C21.5362 3.7608 21.6612 4.43166 21.6464 5.10672C21.6589 5.78025 21.5332 6.44923 21.2769 7.07253C21.0206 7.69582 20.6392 8.26027 20.156 8.73116C19.6845 9.2136 19.1188 9.5945 18.4938 9.85032C17.8688 10.1061 17.1978 10.2314 16.5223 10.2185C15.8428 10.2331 15.1675 10.1093 14.5377 9.85473C13.9078 9.60014 13.3367 9.22008 12.8592 8.73782C12.3769 8.27419 11.9954 7.71663 11.7383 7.09976C11.4812 6.48289 11.3541 5.81991 11.3649 5.15199C11.3588 4.24097 11.5937 3.34445 12.046 2.55284C12.4847 1.77552 13.1236 1.12911 13.8967 0.680369C14.6698 0.231631 15.549 -0.00315083 16.4435 0.000281235ZM16.4863 0.945672C15.7637 0.945414 15.0544 1.14003 14.4337 1.50891C13.8012 1.86923 13.2777 2.39263 12.918 3.0242C12.5505 3.67375 12.3624 4.40894 12.3731 5.15466C12.3615 5.69899 12.4622 6.2399 12.6689 6.74382C12.8757 7.24774 13.1841 7.70391 13.575 8.08403C13.9524 8.47042 14.4049 8.77598 14.9047 8.98204C15.4046 9.18809 15.9414 9.2903 16.4823 9.28242C17.2197 9.28733 17.9454 9.0976 18.5856 8.73249C19.2192 8.37685 19.7423 7.85393 20.0973 7.2212C20.4607 6.57453 20.6472 5.84395 20.6381 5.10273C20.6477 4.36904 20.4611 3.64605 20.0973 3.00822C19.733 2.38111 19.2062 1.86324 18.5722 1.50891C17.9394 1.13967 17.2194 0.945256 16.4863 0.945672Z" fill="white"/>
<path d="M26.625 0.245361H27.6012V6.12542C27.5916 6.55988 27.6045 6.99454 27.6399 7.42767C27.6747 7.77047 27.791 8.10005 27.9791 8.38903C28.1889 8.67326 28.4704 8.89701 28.7951 9.03749C29.1394 9.20784 29.5178 9.29886 29.9021 9.3038C30.2251 9.30461 30.5442 9.23461 30.8369 9.09874C31.1234 8.96494 31.3755 8.76775 31.5741 8.52219C31.7811 8.26309 31.9304 7.96308 32.0121 7.64204C32.078 7.39615 32.1109 6.88928 32.1109 6.12143V0.245361H33.0858V6.12542C33.0858 6.99359 33.0008 7.69575 32.8307 8.23191C32.6433 8.79204 32.2864 9.28049 31.8091 9.63003C31.2777 10.0338 30.6235 10.2439 29.9556 10.2252C29.2398 10.2454 28.5346 10.0496 27.9324 9.66331C27.3912 9.31613 26.9913 8.78855 26.8039 8.17466C26.6851 7.7965 26.625 7.10943 26.625 6.12542V0.245361Z" fill="white"/>
<path d="M38.5312 0.245361H40.4743C41.5587 0.245361 42.2927 0.289746 42.6764 0.378515C43.2299 0.495741 43.7277 0.79548 44.0893 1.22937C44.4586 1.68196 44.652 2.25203 44.6342 2.8352C44.6442 3.32724 44.5141 3.81204 44.2589 4.23331C44.0044 4.63857 43.6316 4.95641 43.1906 5.14408C42.7241 5.34825 42.0826 5.45344 41.2662 5.45966L44.7731 9.97356H43.5712L40.0643 5.45966H39.5128V9.97356H38.5379L38.5312 0.245361ZM39.5061 1.19874V4.50495L41.1874 4.51826C41.8373 4.51826 42.319 4.45657 42.6324 4.33318C42.9333 4.21882 43.1893 4.01111 43.3628 3.74064C43.5394 3.47016 43.6323 3.1539 43.6299 2.8312C43.6321 2.51475 43.5391 2.20491 43.3628 1.94174C43.1954 1.68314 42.9513 1.483 42.6644 1.36918C42.3746 1.25467 41.8952 1.19874 41.2275 1.19874H39.5061Z" fill="white"/>
<path d="M55.6943 0.245361H57.6908L59.511 3.74464L61.3205 0.245361H63.2889L60.4338 5.76058V9.97356H58.5642V5.76058L55.6943 0.245361Z" fill="white"/>
<path d="M70.7763 0.245361H72.6593L76.4118 9.97356H74.4808L73.7143 7.9696H69.736L68.9428 9.97356H67.0117L70.7763 0.245361ZM71.7298 2.82455L70.4211 6.16404H73.0319L71.7298 2.82455Z" fill="white"/>
<path d="M89.8046 1.95501L88.5053 3.196C87.6212 2.2657 86.6272 1.80011 85.5233 1.79922C85.0865 1.79331 84.6529 1.87472 84.2482 2.03863C83.8434 2.20254 83.4757 2.44563 83.1668 2.75356C82.8578 3.06149 82.6139 3.42801 82.4493 3.83149C82.2848 4.23497 82.203 4.66723 82.2087 5.10276C82.1969 5.70676 82.3433 6.30339 82.6334 6.83376C82.9139 7.33392 83.3305 7.74476 83.8353 8.01883C84.3631 8.3082 84.957 8.45637 85.5593 8.44891C86.0676 8.45533 86.5713 8.3527 87.0363 8.14798C87.4814 7.94737 87.9711 7.58208 88.5053 7.05213L89.7646 8.36236C89.0434 9.06453 88.3624 9.55276 87.7214 9.82705C87.0239 10.106 86.2772 10.2418 85.5259 10.2265C84.0124 10.2265 82.7709 9.74716 81.8014 8.78845C80.8319 7.82975 80.3489 6.59808 80.3525 5.09344C80.3353 4.18804 80.5632 3.29475 81.0122 2.5076C81.464 1.74092 82.1174 1.11197 82.9018 0.688719C83.7101 0.232837 84.624 -0.00447301 85.5526 0.000315189C86.3606 0.00261042 87.1585 0.178385 87.8923 0.515682C88.626 0.852979 89.2782 1.34389 89.8046 1.95501Z" fill="white"/>
<path d="M94.416 0.245361H96.299V3.91641H99.5561V0.245361H101.434V9.97356H99.5547V5.71265H96.2976V9.97356H94.416V0.245361Z" fill="white"/>
<path d="M105.686 0.245361H111.079V2.0709H109.301V9.97356H107.418V2.0709H105.682L105.686 0.245361Z" fill="white"/>
<path d="M54.5146 15.6622C55.6245 15.1517 56.7775 14.74 57.9601 14.4318C59.153 14.1103 60.363 13.8551 61.5844 13.6675C64.0477 13.2918 66.5396 13.1341 69.0308 13.1962C71.526 13.256 74.0126 13.5111 76.4678 13.9591C77.0794 14.0723 77.6911 14.1935 78.3013 14.312C78.9116 14.4305 79.4779 14.565 80.0695 14.6795C81.2433 14.9205 82.4238 15.1349 83.6057 15.3306C85.9694 15.7181 88.3464 16.007 90.7302 16.1615C91.9214 16.2374 93.1139 16.2707 94.3051 16.2747L95.1985 16.2654L96.0906 16.2347C96.6835 16.2081 97.2791 16.1788 97.8694 16.1242C100.237 15.945 102.578 15.5101 104.851 14.8273C105.985 14.4802 107.093 14.0567 108.17 13.5597C109.248 13.0578 110.29 12.4821 111.288 11.8367C109.632 13.4918 107.559 14.8286 105.301 15.8193C103.043 16.81 100.592 17.4518 98.1138 17.8272C95.6303 18.187 93.1191 18.3207 90.6113 18.2267C89.3614 18.1868 88.1168 18.0936 86.8721 17.9711C85.6275 17.8485 84.4016 17.6675 83.1757 17.4757C81.9537 17.264 80.7358 17.039 79.5299 16.774C78.929 16.6408 78.3281 16.4917 77.7324 16.3599C77.1368 16.2281 76.572 16.1122 75.9857 15.9791L75.5504 15.8805C75.4048 15.8473 75.2606 15.814 75.1137 15.7913L74.2323 15.6355L73.3522 15.4784L72.9129 15.3972C72.766 15.3706 72.6177 15.3546 72.4695 15.3333L70.6947 15.0883C70.5465 15.0643 70.3983 15.051 70.2487 15.0363L69.8027 14.9924L68.9093 14.9045C66.5161 14.686 64.111 14.6273 61.7099 14.7288C61.4081 14.7434 61.105 14.7447 60.8059 14.7714L59.9018 14.8406C59.6 14.8566 59.2995 14.8912 58.999 14.9245C58.6986 14.9578 58.3954 14.9818 58.0963 15.023L57.1949 15.1455L56.2961 15.2893C55.7045 15.3959 55.1049 15.509 54.5146 15.6622Z" fill="white"/>
<path d="M64.1504 20.0315C64.9256 19.7243 65.7235 19.4772 66.5368 19.2925C67.3514 19.1007 68.1807 18.9423 69.0154 18.8304C70.6933 18.6026 72.3861 18.5012 74.0793 18.5268C74.5027 18.5388 74.9273 18.5455 75.3507 18.5614L76.6206 18.6493L76.9371 18.672L77.2536 18.7053L77.8853 18.7758C78.306 18.8264 78.728 18.8664 79.1446 18.9396L80.3986 19.1393L81.6178 19.351C82.4271 19.4842 83.2364 19.6174 84.0497 19.7279C84.8629 19.8384 85.6749 19.9462 86.4895 20.0235C87.3041 20.1007 88.12 20.1779 88.936 20.2232C89.7519 20.2685 90.5692 20.2964 91.3852 20.3044C92.2011 20.3124 93.0171 20.2871 93.8303 20.2392C95.4564 20.1534 97.0713 19.9208 98.6553 19.5441C99.4454 19.352 100.224 19.1136 100.986 18.8304C101.178 18.7625 101.362 18.68 101.553 18.6067C101.744 18.5335 101.924 18.4416 102.113 18.3617C102.301 18.2818 102.48 18.1873 102.666 18.0954L103.21 17.8145C103.054 17.9476 102.898 18.0674 102.736 18.1899C102.575 18.3124 102.408 18.4296 102.24 18.5441C101.899 18.7705 101.547 18.9844 101.186 19.1859C100.454 19.5885 99.6911 19.9336 98.905 20.2179C97.3069 20.7875 95.6493 21.1753 93.9639 21.3737C92.2739 21.5785 90.5707 21.6533 88.8692 21.5973C88.0199 21.5787 87.1746 21.5175 86.3319 21.4495C85.4892 21.3816 84.6493 21.2738 83.8133 21.1633C82.9773 21.0528 82.1467 20.9076 81.32 20.7545L80.0874 20.5161L78.8855 20.2911C77.283 20.0142 75.6578 19.7798 74.0232 19.6613C72.3846 19.5305 70.74 19.4883 69.0968 19.5348C67.4375 19.57 65.7835 19.7361 64.1504 20.0315Z" fill="white"/>
<path d="M73.8496 24.0637C74.6311 23.7309 75.4519 23.4982 76.2921 23.3713C77.1391 23.2356 77.9956 23.1679 78.8535 23.1689C79.7158 23.1686 80.5771 23.2291 81.4308 23.35L82.0678 23.4486L82.6808 23.5484C83.0814 23.623 83.4928 23.6816 83.8987 23.7375L84.5077 23.8161L84.8122 23.856L85.118 23.8853C85.321 23.9053 85.5186 23.9319 85.7283 23.9466C85.9379 23.9612 86.1289 23.9759 86.3386 23.9932C87.1511 24.0475 87.9659 24.0599 88.7797 24.0304C90.4023 23.9652 92.0195 23.6749 93.5232 22.9519C92.8949 23.5081 92.1711 23.9466 91.3865 24.2462C90.5795 24.5577 89.7379 24.7718 88.8799 24.884C88.0209 24.999 87.1543 25.047 86.2878 25.0278C85.4281 25.0041 84.5704 24.9335 83.7184 24.816C83.2978 24.7481 82.8731 24.6829 82.4551 24.6043L81.2305 24.3673C80.4293 24.2222 79.628 24.101 78.8067 24.0238C77.9854 23.9466 77.1681 23.9053 76.3415 23.9066C75.5082 23.8999 74.6754 23.9524 73.8496 24.0637Z" fill="white"/>
</g>
<defs>
<clipPath id="clip0_699_1473">
<rect width="111.287" height="25.0262" fill="white"/>
</clipPath>
</defs>
</svg>
