<svg width="209" height="47" viewBox="0 0 209 47" fill="none" xmlns="http://www.w3.org/2000/svg">
<g opacity="0.4" clip-path="url(#clip0_226_5861)">
<path d="M0 0.460205H2.1067L6.79663 8.00221L11.4113 0.460205H13.528L7.72458 10.0027V18.7301H5.91632V10.0027L0 0.460205Z" fill="white"/>
<path d="M30.8828 6.96648e-05C33.6566 6.96648e-05 35.979 0.923648 37.8499 2.77081C38.7623 3.65428 39.4822 4.71582 39.9646 5.88913C40.447 7.06245 40.6817 8.32233 40.6539 9.59012C40.6775 10.855 40.4413 12.1114 39.96 13.282C39.4787 14.4525 38.7623 15.5126 37.855 16.3969C36.9694 17.303 35.9069 18.0183 34.7332 18.4987C33.5594 18.9792 32.2993 19.2145 31.0308 19.1902C29.7547 19.2176 28.4864 18.9852 27.3035 18.507C26.1206 18.0289 25.048 17.3151 24.1514 16.4094C23.2456 15.5387 22.529 14.4916 22.0462 13.3331C21.5634 12.1746 21.3247 10.9295 21.3449 9.67514C21.3334 7.96421 21.7746 6.28051 22.624 4.79384C23.4479 3.33403 24.6478 2.12004 26.0997 1.27729C27.5516 0.434551 29.2028 -0.00637585 30.8828 6.96648e-05ZM30.963 1.77554C29.606 1.77506 28.274 2.14056 27.1083 2.83332C25.9205 3.51 24.9372 4.49297 24.2617 5.67908C23.5715 6.89895 23.2184 8.27966 23.2385 9.68014C23.2166 10.7024 23.4057 11.7183 23.7939 12.6646C24.1822 13.611 24.7614 14.4677 25.4956 15.1816C26.2044 15.9072 27.0541 16.4811 27.9929 16.8681C28.9317 17.2551 29.9398 17.447 30.9555 17.4322C32.3405 17.4414 33.7033 17.0851 34.9056 16.3994C36.0956 15.7315 37.0779 14.7495 37.7446 13.5612C38.4272 12.3467 38.7774 10.9747 38.7603 9.58262C38.7784 8.20473 38.4278 6.84693 37.7446 5.64907C37.0605 4.47133 36.0712 3.49877 34.8805 2.83332C33.6922 2.13989 32.3399 1.77476 30.963 1.77554Z" fill="white"/>
<path d="M50.0039 0.460205H51.8372V11.5031C51.8192 12.3191 51.8435 13.1354 51.91 13.9488C51.9752 14.5926 52.1936 15.2116 52.547 15.7543C52.9409 16.2881 53.4697 16.7083 54.0794 16.9721C54.7261 17.292 55.4366 17.4629 56.1585 17.4722C56.7649 17.4738 57.3643 17.3423 57.9141 17.0871C58.4521 16.8358 58.9256 16.4655 59.2985 16.0043C59.6871 15.5178 59.9675 14.9543 60.1211 14.3514C60.2448 13.8896 60.3067 12.9377 60.3067 11.4956V0.460205H62.1375V11.5031C62.1375 13.1336 61.9778 14.4523 61.6585 15.4592C61.3065 16.5111 60.6362 17.4284 59.7399 18.0849C58.7417 18.8432 57.5132 19.2377 56.2588 19.2027C54.9146 19.2407 53.5902 18.8728 52.4592 18.1474C51.4428 17.4954 50.6917 16.5046 50.34 15.3517C50.1168 14.6415 50.0039 13.3511 50.0039 11.5031V0.460205Z" fill="white"/>
<path d="M72.3604 0.460205H76.0095C78.046 0.460205 79.4245 0.543561 80.1451 0.710272C81.1846 0.930426 82.1193 1.49334 82.7986 2.3082C83.4921 3.15818 83.8553 4.22878 83.8218 5.324C83.8407 6.24808 83.5963 7.15854 83.1171 7.9497C82.6392 8.71078 81.939 9.30769 81.1107 9.66015C80.2346 10.0436 79.0299 10.2411 77.4967 10.2528L84.0827 18.7301H81.8255L75.2395 10.2528H74.2037V18.7301H72.3729L72.3604 0.460205ZM74.1912 2.25068V8.45983L77.3487 8.48484C78.5693 8.48484 79.4738 8.36898 80.0624 8.13725C80.6274 7.92249 81.1084 7.53239 81.4342 7.02445C81.7658 6.51648 81.9402 5.92254 81.9358 5.3165C81.94 4.72219 81.7653 4.14031 81.4342 3.64605C81.1197 3.16039 80.6613 2.78453 80.1226 2.57077C79.5783 2.35571 78.678 2.25068 77.424 2.25068H74.1912Z" fill="white"/>
<path d="M104.596 0.460205H108.345L111.764 7.03195L115.162 0.460205H118.859L113.497 10.818V18.7301H109.985V10.818L104.596 0.460205Z" fill="white"/>
<path d="M132.923 0.460205H136.459L143.506 18.7301H139.88L138.44 14.9666H130.969L129.479 18.7301H125.853L132.923 0.460205ZM134.713 5.30399L132.255 11.5757H137.159L134.713 5.30399Z" fill="white"/>
<path d="M168.659 3.67087L166.219 6.00149C164.559 4.25435 162.692 3.37996 160.619 3.37829C159.799 3.36719 158.984 3.52007 158.224 3.8279C157.464 4.13573 156.774 4.59227 156.193 5.17057C155.613 5.74887 155.155 6.43721 154.846 7.19496C154.537 7.95271 154.383 8.76451 154.394 9.58244C154.372 10.7168 154.647 11.8373 155.192 12.8333C155.718 13.7726 156.501 14.5442 157.449 15.0589C158.44 15.6024 159.555 15.8806 160.687 15.8666C161.641 15.8787 162.587 15.6859 163.46 15.3015C164.296 14.9247 165.216 14.2387 166.219 13.2434L168.584 15.7041C167.23 17.0228 165.951 17.9397 164.747 18.4548C163.437 18.9786 162.035 19.2337 160.624 19.205C157.781 19.205 155.45 18.3048 153.629 16.5043C151.808 14.7038 150.901 12.3907 150.908 9.56493C150.876 7.86456 151.304 6.18694 152.147 4.70864C152.995 3.26881 154.223 2.08761 155.696 1.29273C157.214 0.436573 158.93 -0.00910309 160.674 -0.00011071C162.191 0.00419981 163.69 0.33431 165.068 0.967764C166.446 1.60122 167.671 2.52316 168.659 3.67087Z" fill="white"/>
<path d="M177.314 0.460205H180.851V7.35454H186.968V0.460205H190.494V18.7301H186.965V10.7279H180.848V18.7301H177.314V0.460205Z" fill="white"/>
<path d="M198.481 0.460205H208.611V3.88862H205.27V18.7301H201.734V3.88862H198.474L198.481 0.460205Z" fill="white"/>
<path d="M102.381 29.4129C104.465 28.4542 106.631 27.681 108.851 27.1023C111.092 26.4984 113.364 26.0192 115.658 25.6669C120.284 24.9613 124.964 24.665 129.643 24.7817C134.329 24.894 138.999 25.3731 143.61 26.2146C144.758 26.4271 145.907 26.6547 147.053 26.8772C148.199 27.0998 149.263 27.3524 150.374 27.5674C152.578 28.0201 154.795 28.4227 157.015 28.7903C161.454 29.5179 165.918 30.0606 170.395 30.3507C172.632 30.4932 174.872 30.5557 177.109 30.5632L178.786 30.5457L180.462 30.4882C181.575 30.4382 182.694 30.3832 183.802 30.2807C188.248 29.9441 192.645 29.1274 196.914 27.845C199.043 27.1932 201.126 26.3978 203.146 25.4644C205.171 24.5218 207.128 23.4406 209.003 22.2285C205.893 25.3368 202 27.8475 197.759 29.708C193.518 31.5685 188.916 32.7738 184.261 33.479C179.597 34.1546 174.881 34.4057 170.172 34.2292C167.824 34.1542 165.487 33.9791 163.149 33.7491C160.812 33.519 158.509 33.1789 156.207 32.8188C153.912 32.4212 151.625 31.9986 149.36 31.501C148.232 31.2509 147.103 30.9708 145.985 30.7233C144.866 30.4757 143.805 30.2581 142.704 30.0081L141.887 29.823C141.613 29.7605 141.342 29.698 141.066 29.6555L139.411 29.3629L137.758 29.0678L136.933 28.9153C136.657 28.8653 136.379 28.8353 136.101 28.7953L132.768 28.3351C132.489 28.2901 132.211 28.2651 131.93 28.2376L131.092 28.1551L129.414 27.99C124.92 27.5797 120.403 27.4694 115.894 27.66C115.327 27.6875 114.758 27.69 114.196 27.74L112.498 27.87C111.931 27.9 111.367 27.965 110.803 28.0276C110.238 28.0901 109.669 28.1351 109.107 28.2126L107.414 28.4427L105.727 28.7127C104.615 28.9128 103.489 29.1253 102.381 29.4129Z" fill="white"/>
<path d="M120.48 37.6199C121.936 37.043 123.435 36.579 124.962 36.232C126.492 35.8719 128.05 35.5744 129.617 35.3643C132.768 34.9365 135.947 34.746 139.127 34.7942C139.922 34.8167 140.72 34.8292 141.515 34.8592L143.9 35.0242L144.494 35.0667L145.089 35.1292L146.275 35.2618C147.065 35.3568 147.858 35.4318 148.64 35.5694L150.995 35.9445L153.285 36.3421C154.805 36.5921 156.325 36.8422 157.852 37.0498C159.379 37.2573 160.904 37.4599 162.434 37.6049C163.964 37.7499 165.496 37.895 167.029 37.98C168.561 38.065 170.096 38.1175 171.628 38.1325C173.161 38.1476 174.693 38.1 176.22 38.01C179.274 37.849 182.307 37.4121 185.282 36.7047C186.766 36.3438 188.227 35.8962 189.658 35.3643C190.019 35.2368 190.365 35.0817 190.724 34.9442C191.083 34.8067 191.421 34.6341 191.775 34.4841C192.128 34.334 192.465 34.1565 192.813 33.9839L193.836 33.4563C193.543 33.7064 193.25 33.9314 192.946 34.1615C192.643 34.3916 192.329 34.6116 192.013 34.8267C191.373 35.2518 190.713 35.6536 190.034 36.032C188.659 36.7881 187.227 37.4361 185.751 37.97C182.749 39.0398 179.636 39.768 176.471 40.1406C173.297 40.5253 170.099 40.6658 166.903 40.5607C165.308 40.5257 163.721 40.4107 162.138 40.2831C160.555 40.1556 158.978 39.953 157.408 39.7455C155.838 39.5379 154.278 39.2653 152.726 38.9778L150.411 38.5302L148.154 38.1075C145.144 37.5874 142.092 37.1473 139.022 36.9247C135.945 36.6791 132.856 36.5998 129.77 36.6872C126.654 36.7533 123.547 37.0652 120.48 37.6199Z" fill="white"/>
<path d="M138.691 45.1921C140.159 44.5669 141.7 44.13 143.278 43.8917C144.869 43.6367 146.478 43.5096 148.089 43.5116C149.708 43.511 151.326 43.6246 152.929 43.8517L154.125 44.0368L155.277 44.2243C156.029 44.3643 156.802 44.4744 157.564 44.5794L158.708 44.7269L159.279 44.802L159.854 44.857C160.235 44.8945 160.606 44.9445 161 44.972C161.394 44.9995 161.752 45.027 162.146 45.0595C163.672 45.1616 165.202 45.1849 166.731 45.1295C169.778 45.007 172.815 44.4619 175.639 43.104C174.459 44.1486 173.1 44.972 171.626 45.5346C170.111 46.1197 168.53 46.5218 166.919 46.7325C165.306 46.9485 163.678 47.0387 162.051 47.0025C160.436 46.9582 158.825 46.8254 157.225 46.6049C156.435 46.4774 155.638 46.3549 154.853 46.2073L152.553 45.7622C151.048 45.4896 149.543 45.2621 148.001 45.117C146.459 44.972 144.924 44.8945 143.371 44.897C141.806 44.8843 140.242 44.9829 138.691 45.1921Z" fill="white"/>
</g>
<defs>
<clipPath id="clip0_226_5861">
<rect width="209" height="47" fill="white"/>
</clipPath>
</defs>
</svg>
